<svg width="94" height="95" viewBox="0 0 94 95" fill="none" xmlns="http://www.w3.org/2000/svg">
<path d="M91 47.5C91 72.1067 71.2707 92 47 92C22.7293 92 3 72.1067 3 47.5C3 22.8933 22.7293 3 47 3C71.2707 3 91 22.8933 91 47.5Z" fill="#161616"/>
<path d="M91 47.5C91 72.1067 71.2707 92 47 92C22.7293 92 3 72.1067 3 47.5C3 22.8933 22.7293 3 47 3C71.2707 3 91 22.8933 91 47.5Z" fill="#161616"/>
<path d="M91 47.5C91 72.1067 71.2707 92 47 92C22.7293 92 3 72.1067 3 47.5C3 22.8933 22.7293 3 47 3C71.2707 3 91 22.8933 91 47.5Z" stroke="#7BE495" stroke-width="6"/>
</svg>
