<svg width="953" height="229" viewBox="0 0 953 229" fill="none" xmlns="http://www.w3.org/2000/svg">
<g clip-path="url(#clip0)">
<path d="M0.954737 187.613C119.007 187.613 236.992 187.613 355.045 187.613C472.494 187.613 589.944 187.613 707.326 187.613C773.588 187.613 839.783 187.613 906.045 187.613C907.318 187.613 907.318 186 906.045 186C787.993 186 670.007 186 551.955 186C434.506 186 317.056 186 199.674 186C133.412 186 67.2168 186 0.954737 186C-0.318246 186 -0.318246 187.613 0.954737 187.613Z" fill="black"/>
<path d="M434.528 187.656C431.672 186.254 429.236 184.017 427.612 181.123C426.856 179.78 426.212 178.259 425.876 176.737C425.568 175.216 426.128 173.665 427.808 173.903C428.9 174.052 429.768 174.828 430.552 175.544C430.72 175.305 430.888 175.067 431.056 174.828C429.236 173.575 427.808 171.845 426.94 169.727C426.352 168.265 424.98 163.641 427.332 163.193C427.612 163.133 427.696 162.775 427.584 162.537C425.344 157.614 424.812 152.125 424.336 146.755C424.112 144.189 423.888 141.087 425.764 139.118C427.976 136.731 431.028 138.402 432.876 140.43C436.32 144.219 438.112 149.619 439.932 154.422C441.836 159.464 443.488 164.595 444.692 169.846C446.064 175.932 446.792 182.167 446.484 188.402C446.456 188.969 447.296 188.969 447.324 188.402C447.94 175.634 444.328 163.253 439.764 151.618C437.888 146.844 435.76 140.699 431.336 137.954C429.628 136.91 427.556 136.612 425.876 137.865C424.168 139.147 423.524 141.415 423.412 143.533C423.272 146.785 423.804 150.216 424.28 153.408C424.756 156.719 425.54 159.971 426.912 162.984C426.996 162.775 427.08 162.537 427.164 162.328C424.7 162.805 425.204 166.594 425.68 168.414C426.436 171.397 428.256 173.933 430.692 175.604C431.084 175.872 431.56 175.216 431.196 174.888C429.852 173.694 428.144 172.352 426.324 173.217C424.392 174.142 424.924 176.529 425.484 178.229C426.94 182.734 430.132 186.433 434.164 188.402C434.584 188.671 435.032 187.895 434.528 187.656Z" fill="black"/>
<path d="M443.46 161.701C442.564 154.571 442.844 147.59 444.944 140.729C445.952 137.417 447.016 134.135 448.052 130.854C448.892 128.199 450.376 123.276 453.932 125.573C456.48 127.214 456.956 131.57 457.544 134.404C458.272 137.865 458.776 141.355 459.084 144.905C459.672 151.588 459.588 158.36 458.916 165.043C458.132 172.919 456.592 180.705 454.492 188.283C454.352 188.85 455.136 189.059 455.304 188.522C459.364 173.814 461.408 158.271 459.728 142.996C459.336 139.297 458.72 135.627 457.88 132.047C457.236 129.362 456.564 125.991 454.016 124.619C451.916 123.515 449.9 124.589 448.78 126.617C448.136 127.781 447.772 129.123 447.352 130.376C446.736 132.345 446.12 134.285 445.504 136.254C444.272 140.192 442.956 144.07 442.452 148.217C441.92 152.692 442.088 157.226 442.648 161.701C442.676 162.268 443.516 162.268 443.46 161.701Z" fill="black"/>
<path d="M426.632 138.551C434.696 153.855 441.052 170.502 442.508 188.163C442.564 188.73 443.404 188.73 443.348 188.163C441.864 170.353 435.508 153.587 427.36 138.103C427.108 137.596 426.38 138.044 426.632 138.551Z" fill="black"/>
<path d="M452.336 125.156C453.008 130.376 452.756 135.657 452.56 140.908C452.364 146.069 452.168 151.23 451.972 156.421C451.58 166.922 451.328 177.513 449.508 187.865C449.424 188.432 450.208 188.671 450.32 188.104C452.14 177.662 452.42 167.012 452.812 156.421C453.008 151.051 453.232 145.681 453.428 140.341C453.624 135.209 453.82 130.048 453.148 124.947C453.092 124.35 452.28 124.619 452.336 125.156Z" fill="black"/>
<path d="M444.3 140.222C447.856 145.323 450.404 151.111 451.748 157.286C451.86 157.853 452.672 157.614 452.56 157.047C451.188 150.782 448.64 144.905 445.028 139.744C444.72 139.297 443.992 139.744 444.3 140.222Z" fill="black"/>
<path d="M457.656 134.016C455.388 138.402 453.596 143.026 452.28 147.859C452.14 148.426 452.952 148.664 453.092 148.097C454.38 143.354 456.172 138.789 458.384 134.464C458.636 133.986 457.908 133.509 457.656 134.016Z" fill="black"/>
<path d="M427.248 163.104C433.156 165.669 438.056 170.353 441.164 176.29C441.416 176.797 442.144 176.35 441.892 175.842C438.672 169.697 433.576 164.923 427.472 162.268C426.968 162 426.772 162.865 427.248 163.104Z" fill="black"/>
<path d="M435.144 142.966C434.64 148.068 434.864 153.169 435.76 158.211C435.872 158.778 436.684 158.539 436.572 157.972C435.704 153.02 435.508 147.978 435.984 142.966C436.04 142.399 435.2 142.399 435.144 142.966Z" fill="black"/>
<path d="M335.268 187.835C334.624 185.837 334.148 183.748 333.924 181.63C333.84 180.735 333.784 179.84 333.784 178.915C333.784 178.438 333.7 177.752 333.812 177.304C333.812 177.125 333.84 176.946 333.84 176.767C334.372 176.35 334.82 176.409 335.184 176.916C335.436 177.155 335.94 177.006 335.912 176.588C335.828 175.365 335.828 174.142 335.968 172.919C336.052 172.322 336.136 171.725 336.276 171.159C336.332 170.95 337.004 168.921 337.06 169.011C337.256 169.309 337.732 169.309 337.816 168.891C339.02 163.611 341.176 158.688 343.808 154.064C344.48 152.871 345.208 151.677 345.936 150.514C346.748 149.231 348.092 147.202 349.324 149.44C350.584 151.707 350.948 155.019 351.06 157.614C351.34 163.104 350.164 168.563 348.512 173.724C346.916 178.766 344.928 183.808 341.512 187.776C341.148 188.193 341.736 188.82 342.1 188.402C345.068 184.971 346.944 180.765 348.484 176.439C350.108 171.815 351.424 167.012 351.816 162.089C352.012 159.703 351.984 157.286 351.648 154.899C351.368 152.841 350.948 150.216 349.744 148.485C347.252 144.965 344.368 151.379 343.332 153.169C340.532 158.002 338.264 163.133 337.004 168.653C337.256 168.623 337.508 168.593 337.76 168.533C337.06 167.549 336.192 168.533 335.884 169.369C335.016 171.606 334.848 174.202 335.044 176.558C335.296 176.439 335.52 176.35 335.772 176.23C335.24 175.723 334.372 175.067 333.616 175.455C332.832 175.872 332.944 177.006 332.944 177.782C332.86 181.272 333.392 184.703 334.456 188.014C334.624 188.611 335.436 188.372 335.268 187.835Z" fill="black"/>
<path d="M348.204 148.426C347.252 155.466 345.656 162.388 343.388 169.07C341.288 175.335 337.76 181.391 336.976 188.074C336.92 188.641 337.76 188.641 337.816 188.074C338.236 184.524 339.524 181.242 340.868 178.02C342.128 174.977 343.332 171.904 344.368 168.772C346.524 162.238 348.064 155.496 348.988 148.634C349.072 148.097 348.26 147.859 348.204 148.426Z" fill="black"/>
<path d="M340.476 159.076C340.784 163.82 341.232 168.533 341.82 173.247C341.904 173.814 342.688 173.575 342.632 173.008C342.044 168.384 341.596 163.73 341.316 159.076C341.288 158.509 340.448 158.479 340.476 159.076Z" fill="black"/>
<path d="M345.712 164.416C347.952 162.06 349.884 159.404 351.508 156.54C351.788 156.033 351.06 155.586 350.78 156.093C349.184 158.897 347.308 161.463 345.124 163.79C344.732 164.178 345.32 164.804 345.712 164.416Z" fill="black"/>
<path d="M332.16 187.388C330.228 184.434 328.604 181.272 327.372 177.901C326.812 176.38 326.336 174.798 325.944 173.217C325.748 172.382 325.552 171.547 325.384 170.681C325.272 170.174 324.544 166.863 325.552 167.072C325.888 167.131 326.14 166.863 326.056 166.535C325.356 162.418 324.908 158.271 324.768 154.094C324.712 152.185 324.684 150.216 325.076 148.366C325.272 147.471 325.552 146.427 326.112 145.681C327.4 144.01 328.744 145.383 329.584 146.636C333.616 152.662 336.192 159.912 337.424 167.161C337.508 167.728 338.32 167.489 338.236 166.922C337.452 162.418 336.164 158.062 334.4 153.915C333.476 151.767 332.44 149.709 331.264 147.74C330.48 146.427 329.472 144.368 327.876 144.01C324.376 143.235 323.928 149.738 323.9 152.036C323.844 156.988 324.404 161.97 325.244 166.833C325.412 166.654 325.58 166.475 325.748 166.296C322.388 165.669 325.16 173.874 325.58 175.276C326.896 179.781 328.884 184.047 331.404 187.925C331.74 188.313 332.468 187.865 332.16 187.388Z" fill="black"/>
<path d="M326.644 144.935C329.78 155.287 332.44 165.818 334.624 176.439C334.736 177.006 335.548 176.767 335.436 176.2C333.252 165.58 330.592 155.049 327.456 144.696C327.288 144.159 326.476 144.398 326.644 144.935Z" fill="black"/>
<path d="M324.6 158.778C327.932 160.299 330.648 162.895 332.384 166.266C332.636 166.773 333.364 166.326 333.112 165.819C331.292 162.298 328.492 159.583 325.02 158.002C324.516 157.793 324.096 158.569 324.6 158.778Z" fill="black"/>
<path d="M332.412 151.17C331.684 154.124 331.236 157.107 331.068 160.15C331.04 160.717 331.88 160.717 331.908 160.15C332.048 157.197 332.496 154.273 333.224 151.409C333.364 150.842 332.552 150.603 332.412 151.17Z" fill="black"/>
<path d="M671.268 188.462C669.056 182.734 668.412 176.499 669.532 170.413C669.392 170.532 669.252 170.622 669.14 170.741C669.784 170.622 670.26 170.92 670.596 171.666C670.736 172.083 671.464 172.083 671.408 171.546C671.156 168.921 671.156 166.266 671.464 163.641C671.632 162.328 671.856 161.045 672.164 159.762C672.304 159.166 672.472 158.569 672.64 157.972C672.752 157.644 672.836 157.286 672.948 156.958C673.144 156.481 673.256 155.973 673.256 155.436C673.48 155.586 673.732 155.735 673.956 155.884C674.908 150.424 677.4 145.502 681.096 141.624C680.9 141.624 680.704 141.624 680.508 141.624C681.796 143.085 681.852 145.174 682.048 147.053C682.244 149.022 682.384 150.991 682.468 152.96C682.664 156.809 682.664 160.687 682.468 164.536C682.104 172.501 680.956 180.377 679.052 188.074C678.912 188.641 679.724 188.88 679.864 188.313C681.852 180.168 683.028 171.815 683.336 163.402C683.504 159.166 683.42 154.929 683.14 150.723C682.944 147.71 683.168 143.384 681.068 140.997C680.9 140.818 680.62 140.818 680.48 140.997C676.672 144.965 674.096 150.066 673.116 155.645C673.032 156.063 673.508 156.421 673.816 156.093C673.872 156.033 673.9 156.003 673.956 155.944C674.068 155.824 674.124 155.675 674.068 155.496C673.844 154.81 673.256 154.601 672.752 155.168C672.388 155.556 672.248 156.242 672.08 156.749C671.744 157.763 671.464 158.778 671.212 159.822C670.316 163.67 670.092 167.638 670.484 171.576C670.764 171.546 671.044 171.487 671.296 171.457C670.904 170.413 670.12 169.786 669.028 169.876C668.86 169.876 668.664 169.995 668.636 170.204C667.516 176.439 668.104 182.853 670.372 188.73C670.68 189.208 671.492 188.999 671.268 188.462Z" fill="black"/>
<path d="M683.756 164.387C684.484 159.076 686.472 154.005 689.608 149.768C690.364 148.754 691.148 147.829 692.016 146.934C692.576 146.367 693.836 144.756 694.704 146.099C695.04 146.606 695.012 147.441 695.012 148.038C694.984 150.932 694.62 153.885 694.2 156.779C692.604 167.967 688.852 178.736 683.224 188.343C682.944 188.82 683.672 189.297 683.952 188.79C689.076 179.989 692.66 170.264 694.508 160.091C694.956 157.644 695.292 155.198 695.516 152.722C695.712 150.723 696.3 148.008 695.6 146.069C694.116 141.892 689.72 148.157 688.656 149.619C685.604 153.855 683.644 158.867 682.944 164.148C682.888 164.715 683.7 164.953 683.756 164.387Z" fill="black"/>
<path d="M683.28 162.149C682.944 167.191 682.3 172.173 681.348 177.125C681.236 177.692 682.048 177.931 682.16 177.364C683.14 172.352 683.784 167.28 684.12 162.149C684.148 161.582 683.308 161.582 683.28 162.149Z" fill="black"/>
<path d="M694.088 145.323C689.328 159.553 684.736 173.814 680.284 188.164C680.116 188.701 680.928 188.939 681.096 188.402C685.52 174.052 690.112 159.792 694.9 145.562C695.068 145.025 694.256 144.786 694.088 145.323Z" fill="black"/>
<path d="M680.368 141.982C678.184 157.495 675.972 172.979 673.788 188.492C673.704 189.059 674.516 189.297 674.6 188.731C676.784 173.217 678.996 157.734 681.18 142.22C681.264 141.654 680.452 141.385 680.368 141.982Z" fill="black"/>
<path d="M673.032 155.257C673.956 161.284 674.88 167.28 675.804 173.307C675.888 173.873 676.7 173.635 676.616 173.068C675.692 167.042 674.768 161.045 673.844 155.019C673.76 154.452 672.948 154.691 673.032 155.257Z" fill="black"/>
<path d="M682.468 150.663C680.592 154.064 678.996 157.614 677.68 161.314C677.484 161.851 678.296 162.089 678.492 161.552C679.78 157.942 681.348 154.452 683.196 151.14C683.476 150.603 682.748 150.156 682.468 150.663Z" fill="black"/>
<path d="M685.996 154.184C685.996 159.315 685.996 164.476 685.996 169.607C685.996 170.174 686.836 170.174 686.836 169.607C686.836 164.476 686.836 159.315 686.836 154.184C686.836 153.617 685.996 153.617 685.996 154.184Z" fill="black"/>
<path d="M423.804 200.365C425.652 199.112 427.864 198.725 429.964 199.411C431.784 200.007 433.296 200.813 435.256 200.723C437.076 200.634 438.84 200.127 440.66 200.007C441.64 199.948 442.62 199.978 443.572 200.336C444.524 200.694 445.196 201.231 446.204 201.29C446.736 201.32 446.736 200.425 446.204 200.395C445.056 200.336 444.076 199.47 442.956 199.232C442.06 199.053 441.136 199.053 440.212 199.142C438.252 199.351 436.32 199.948 434.36 199.828C432.316 199.709 430.58 198.396 428.564 198.188C426.716 198.009 424.924 198.546 423.384 199.59C422.936 199.888 423.356 200.664 423.804 200.365Z" fill="black"/>
<path d="M494.98 197.83C497.78 197.74 500.58 197.621 503.352 197.531C504.724 197.472 506.152 197.322 507.524 197.442C508.672 197.531 509.54 198.217 510.604 198.486C511.472 198.695 512.312 198.546 513.18 198.337C514.664 197.979 516.12 197.651 517.66 197.591C520.32 197.442 522.98 197.77 525.612 198.098C526.144 198.158 526.144 197.263 525.612 197.203C522.98 196.875 520.32 196.547 517.66 196.696C516.4 196.756 515.14 196.935 513.908 197.233C512.424 197.591 511.276 197.859 509.848 197.173C507.776 196.219 505.592 196.547 503.408 196.636C500.608 196.726 497.808 196.845 495.036 196.935C494.448 196.965 494.448 197.859 494.98 197.83Z" fill="black"/>
<path d="M595.612 227.872C598.44 228.319 601.212 227.752 603.984 227.186C605.692 226.828 607.4 226.47 609.164 226.41C610.9 226.35 612.524 226.768 614.204 227.186C615.66 227.544 617.06 227.693 618.544 227.514C620.028 227.305 621.456 226.887 622.94 226.708C626.16 226.291 629.184 227.961 632.404 227.752C632.936 227.723 632.936 226.828 632.404 226.857C629.408 227.036 626.608 225.545 623.612 225.724C622.184 225.813 620.812 226.201 619.384 226.47C617.48 226.828 615.8 226.678 613.924 226.201C611.124 225.455 608.52 225.396 605.664 225.933C602.388 226.529 599.14 227.514 595.808 227.007C595.304 226.917 595.08 227.782 595.612 227.872Z" fill="black"/>
<path d="M673.228 198.904C678.828 196.905 684.904 198.784 690.672 197.949C692.296 197.71 693.948 197.412 695.6 197.561C696.972 197.68 698.26 198.247 699.604 198.396C701.004 198.516 702.376 198.098 703.748 197.949C705.456 197.77 707.136 197.889 708.816 198.217C709.348 198.337 709.572 197.472 709.04 197.352C707.64 197.084 706.212 196.935 704.784 196.965C703.272 197.024 701.816 197.472 700.304 197.501C698.876 197.531 697.532 196.875 696.104 196.696C694.564 196.487 693.024 196.696 691.484 196.905C688.208 197.382 685.072 197.352 681.796 197.173C678.8 197.024 675.832 196.994 672.976 198.038C672.5 198.217 672.696 199.083 673.228 198.904Z" fill="black"/>
<path d="M441.64 221.965C464.74 221.965 487.868 221.965 510.968 221.965C511.5 221.965 511.5 221.07 510.968 221.07C487.868 221.07 464.74 221.07 441.64 221.07C441.108 221.07 441.108 221.965 441.64 221.965Z" fill="black"/>
<path d="M506.124 226.828C517.996 226.828 529.84 226.828 541.712 226.828C542.244 226.828 542.244 225.933 541.712 225.933C529.84 225.933 517.996 225.933 506.124 225.933C505.564 225.933 505.564 226.828 506.124 226.828Z" fill="black"/>
<path d="M596.424 212.567C608.884 212.567 621.372 212.567 633.832 212.567C634.364 212.567 634.364 211.672 633.832 211.672C621.372 211.672 608.884 211.672 596.424 211.672C595.892 211.672 595.892 212.567 596.424 212.567Z" fill="black"/>
<path d="M648.112 213.88C655.504 213.88 662.924 213.88 670.316 213.88C670.848 213.88 670.848 212.985 670.316 212.985C662.924 212.985 655.504 212.985 648.112 212.985C647.58 212.985 647.58 213.88 648.112 213.88Z" fill="black"/>
<path d="M343.724 204.811C356.912 204.811 370.072 204.811 383.26 204.811C383.792 204.811 383.792 203.916 383.26 203.916C370.072 203.916 356.912 203.916 343.724 203.916C343.192 203.916 343.192 204.811 343.724 204.811Z" fill="black"/>
<path d="M381.44 201.559C388.748 201.559 396.028 201.559 403.336 201.559C403.868 201.559 403.868 200.664 403.336 200.664C396.028 200.664 388.748 200.664 381.44 200.664C380.908 200.664 380.908 201.559 381.44 201.559Z" fill="black"/>
<path d="M507.076 208.838C516.652 208.838 526.2 208.838 535.776 208.838C536.308 208.838 536.308 207.943 535.776 207.943C526.2 207.943 516.652 207.943 507.076 207.943C506.516 207.943 506.516 208.838 507.076 208.838Z" fill="black"/>
<path d="M630.5 54.2118C630.612 51.9146 634.7 54.2118 635.848 54.003C637.36 53.7345 637.696 51.9444 639.432 52.3323C640.496 52.5709 641.504 53.108 642.624 52.9886C643.352 52.8991 643.884 52.4516 644.584 52.2428C645.676 51.9146 646.768 52.2726 647.58 53.108C647.972 53.4958 648.56 52.8693 648.168 52.4814C646.936 51.2284 645.396 50.9599 643.828 51.5864C642.512 52.1234 641.728 52.0638 640.412 51.6461C639.768 51.4373 639.096 51.2285 638.424 51.318C637.64 51.4373 637.332 51.855 636.8 52.3621C635.204 53.824 634.056 52.4815 632.376 52.213C631.088 52.0041 629.772 52.6903 629.688 54.2118C629.632 54.8085 630.472 54.8085 630.5 54.2118Z" fill="black"/>
<path d="M635.288 49.6775C635.512 47.7085 638.76 49.3792 639.712 49.4687C641 49.588 641.308 48.8123 642.232 48.0963C643.94 46.7538 645.172 48.4543 646.88 48.3648C647.356 48.335 647.608 48.0367 648 47.798C649.092 47.1417 650.156 46.9925 651.136 47.977C651.528 48.3648 652.116 47.7383 651.724 47.3505C650.576 46.2168 649.204 46.1273 647.832 46.7837C647.216 47.082 647.58 47.4102 646.516 47.4102C645.984 47.4102 645.312 46.9627 644.78 46.8135C644.024 46.6047 643.24 46.4853 642.484 46.8135C641.252 47.3505 641.196 48.6632 639.46 48.514C638.592 48.4543 637.836 47.8875 636.94 47.8278C635.736 47.7383 634.56 48.2753 634.392 49.6477C634.364 50.2443 635.204 50.2443 635.288 49.6775Z" fill="black"/>
<path d="M369.624 157.584C370.772 156.689 371.752 156.272 373.096 156.958C373.628 157.226 374.132 157.525 374.72 157.644C375.952 157.853 377.072 157.197 378.164 156.689C379.172 156.212 380.012 155.944 381.076 156.54C381.664 156.868 382.14 157.316 382.812 157.435C384.156 157.704 386.144 156.331 387.208 157.435C387.6 157.823 388.188 157.197 387.796 156.809C386.76 155.735 385.5 156.242 384.212 156.481C383.344 156.63 382.784 156.6 382 156.123C381.636 155.884 381.3 155.586 380.88 155.436C380.32 155.228 379.76 155.198 379.172 155.317C378.416 155.496 377.716 155.914 376.988 156.242C375.672 156.839 374.804 156.809 373.46 156.182C371.752 155.347 370.66 155.615 369.12 156.809C368.784 157.137 369.204 157.913 369.624 157.584Z" fill="black"/>
<path d="M377.716 152.96C379.62 150.693 382.868 153.318 385.22 152.781C386.088 152.572 386.648 152.274 387.544 152.602C388.076 152.811 388.524 153.199 389.056 153.408C390.092 153.796 391.072 153.617 392.024 153.139C392.5 152.901 392.08 152.125 391.604 152.364C389.644 153.378 388.776 151.797 387.068 151.498C386.536 151.409 386.116 151.558 385.612 151.737C384.66 152.035 383.932 152.065 382.924 151.827C380.964 151.379 378.668 150.484 377.072 152.364C376.764 152.751 377.352 153.378 377.716 152.96Z" fill="black"/>
<path d="M438.028 30.4646C435.844 28.7045 437.3 24.7665 440.1 25.4228C441.248 25.6913 442.228 26.6758 442.228 27.9885C442.228 29.5398 440.996 30.9122 439.568 31.0017C439.036 31.0315 439.036 31.9265 439.568 31.8967C441.36 31.8072 442.872 30.2856 443.068 28.3763C443.236 26.5266 441.976 24.9753 440.324 24.5875C436.544 23.6626 434.724 28.9431 437.608 31.2702C438.028 31.5983 438.448 30.8226 438.028 30.4646Z" fill="black"/>
<path d="M353.244 126.021C351.844 124.38 353.16 121.456 355.316 122.083C357.92 122.829 357.248 126.737 354.644 126.707C354.112 126.707 354.112 127.602 354.644 127.602C356.212 127.602 357.64 126.349 357.864 124.678C358.088 123.127 357.108 121.784 355.764 121.277C352.712 120.144 350.584 124.231 352.656 126.647C353.02 127.065 353.608 126.438 353.244 126.021Z" fill="black"/>
<path d="M497.64 116.683C496.604 117.488 495.82 118.562 495.484 119.875C495.092 121.426 496.1 123.604 495.12 124.768C494.504 125.514 493.44 126.021 493.16 127.035C493.048 127.393 493.076 127.721 493.188 128.079C493.328 128.586 493.524 128.676 493.524 129.213C493.524 130.108 492.796 130.496 492.096 130.884C491.62 131.152 492.04 131.928 492.516 131.659C493.412 131.152 494.56 130.317 494.476 129.094C494.42 128.318 493.72 127.841 494.112 127.005C494.364 126.498 495.008 126.11 495.372 125.722C496.072 125.036 496.548 124.32 496.436 123.276C496.296 122.142 495.988 121.277 496.268 120.114C496.548 119.01 497.164 118.115 498.032 117.459C498.48 117.13 498.06 116.355 497.64 116.683Z" fill="black"/>
<path d="M501.756 119.666C499.376 119.428 499.096 122.56 499.208 124.38C499.264 125.394 499.32 126.409 498.732 127.244C498.424 127.662 497.976 127.99 497.78 128.497C497.612 128.944 497.724 129.302 497.808 129.78C498.06 131.242 497.304 132.196 496.38 133.151C495.988 133.569 496.576 134.195 496.968 133.777C497.696 133.002 498.536 132.107 498.732 130.973C498.816 130.436 498.62 130.018 498.62 129.511C498.62 128.586 499.152 128.258 499.544 127.602C500.16 126.647 500.132 125.484 500.048 124.38C499.964 123.097 499.88 120.382 501.756 120.561C502.316 120.621 502.288 119.726 501.756 119.666Z" fill="black"/>
<path d="M504.304 9.34261C504.416 7.28411 507.664 8.05977 508.868 7.37361C509.736 6.86644 510.24 5.94161 510.716 5.07645C510.996 4.56928 511.248 4.00245 511.612 3.55495C512.34 2.65995 513.18 2.77928 514.188 2.68978C515.504 2.57045 516.568 1.88428 517.38 0.780444C517.716 0.332945 517.128 -0.293548 516.792 0.153952C516.008 1.22795 515.028 1.73511 513.768 1.82461C513.152 1.85444 512.564 1.82461 511.976 2.12294C510.912 2.68978 510.408 3.91294 509.848 4.95711C509.4 5.76261 508.98 6.41894 508.14 6.74711C507.328 7.07527 506.404 6.89628 505.564 7.10511C504.444 7.37361 503.576 8.11944 503.492 9.37244C503.436 9.90944 504.276 9.90944 504.304 9.34261Z" fill="black"/>
<path d="M506.768 13.0717C507.608 11.6099 509.316 11.2519 510.66 10.5359C511.864 9.90936 512.48 9.10386 512.844 7.73152C513.376 5.61335 514.916 5.88185 516.624 5.61335C517.66 5.43435 518.5 5.07635 518.92 3.97251C519.116 3.43551 518.304 3.19685 518.108 3.73385C517.576 5.07635 515.476 4.74818 514.356 5.01668C513.208 5.25535 512.424 5.82218 512.088 7.04535C511.78 8.14918 511.668 8.83535 510.716 9.46185C510.128 9.84969 509.456 10.1182 508.812 10.4165C507.692 10.9237 506.656 11.4905 506.012 12.6242C505.76 13.1015 506.488 13.5491 506.768 13.0717Z" fill="black"/>
<path d="M632.964 149.947C632.292 147.739 634.42 145.472 636.436 146.815C638.648 148.276 637.416 151.618 634.952 151.558C634.42 151.528 634.42 152.423 634.952 152.453C638.088 152.572 639.74 148.306 637.108 146.248C634.532 144.219 631.228 147.083 632.152 150.216C632.32 150.753 633.132 150.514 632.964 149.947Z" fill="black"/>
<path d="M501.056 179.393C500.272 177.841 501.112 175.574 502.988 175.872C503.744 175.992 504.472 176.588 504.472 177.483C504.472 178.348 503.828 179.214 502.988 179.243C502.456 179.273 502.456 180.168 502.988 180.138C505.62 180.019 506.096 176.051 503.632 175.126C500.916 174.142 499.124 177.424 500.328 179.84C500.608 180.347 501.336 179.9 501.056 179.393Z" fill="black"/>
<path d="M620.056 4.24093C619.244 3.28627 620.42 1.94377 621.428 2.57026C622.688 3.37576 621.932 5.0166 620.756 5.34477C620.224 5.49393 620.448 6.3591 620.98 6.20993C623.024 5.67293 623.724 2.6001 621.54 1.64544C619.692 0.839938 618.124 3.3161 619.44 4.86743C619.832 5.31493 620.42 4.68843 620.056 4.24093Z" fill="black"/>
<path d="M332.132 34.7012C330.508 33.8062 331.488 31.0615 333.308 31.6284C335.436 32.2847 334.708 35.2083 332.832 35.626C332.3 35.7453 332.524 36.6105 333.056 36.4912C335.856 35.8348 336.388 31.4195 333.308 30.7035C330.648 30.077 329.304 34.1344 331.684 35.447C332.188 35.7453 332.608 34.9697 332.132 34.7012Z" fill="black"/>
<path d="M325.916 55.3159C325.86 67.3686 325.832 79.4511 325.776 91.5038C377.184 91.295 428.592 91.0861 480 90.9071C479.86 79.0335 479.692 67.1598 479.552 55.2861C428.34 55.2861 377.128 55.3159 325.916 55.3159Z" fill="black"/>
<path d="M324.768 55.2266C324.768 66.9213 324.768 78.5861 324.768 90.2808C324.768 91.4443 326.448 91.4443 326.448 90.2808C326.448 78.5861 326.448 66.9213 326.448 55.2266C326.448 54.0631 324.768 54.0631 324.768 55.2266Z" fill="black"/>
<path d="M326.392 55.7036C346.356 55.7036 366.32 55.7036 386.284 55.7036C406.332 55.7036 426.408 55.7036 446.456 55.7036C457.74 55.7036 469.024 55.7036 480.336 55.7036C481.428 55.7036 481.428 53.9136 480.336 53.9136C460.372 53.9136 440.408 53.9136 420.444 53.9136C400.396 53.9136 380.32 53.9136 360.272 53.9136C348.988 53.9136 337.704 53.9136 326.392 53.9136C325.3 53.9136 325.3 55.7036 326.392 55.7036Z" fill="black"/>
<path d="M479.412 54.779C479.552 66.951 479.692 79.1528 479.832 91.3248C479.832 92.4883 481.512 92.4883 481.512 91.3248C481.372 79.1528 481.232 66.951 481.092 54.779C481.092 53.6453 479.412 53.6453 479.412 54.779Z" fill="black"/>
<path d="M325.608 92.0108C345.796 92.0108 365.956 92.0108 386.144 92.0108C406.332 92.0108 426.492 92.0108 446.68 92.0108C458.02 92.0108 469.36 92.0108 480.728 92.0108C481.82 92.0108 481.82 90.2207 480.728 90.2207C460.54 90.2207 440.38 90.2207 420.192 90.2207C400.004 90.2207 379.844 90.2207 359.656 90.2207C348.316 90.2207 336.976 90.2207 325.608 90.2207C324.516 90.2207 324.516 92.0108 325.608 92.0108Z" fill="black"/>
<path d="M338.684 70.4113C339.832 67.428 340.448 64.2955 340.616 61.0735C340.336 61.0735 340.056 61.0735 339.776 61.0735C339.664 69.6058 339.552 78.1381 339.468 86.6407C339.468 87.2075 340.308 87.2075 340.308 86.6407C340.42 78.1083 340.532 69.576 340.616 61.0735C340.616 60.5067 339.804 60.5067 339.776 61.0735C339.636 64.206 338.992 67.249 337.872 70.1727C337.676 70.7097 338.488 70.9185 338.684 70.4113Z" fill="white"/>
<path d="M351.2 69.9046C350.472 68.6814 350.192 67.2494 350.556 65.8174C350.976 64.1766 352.964 62.1181 354.28 64.3258C355.4 66.2351 354.308 69.5764 353.748 71.5454C352.488 76.0801 350.164 80.1971 347.028 83.5683C346.804 83.8368 346.916 84.1948 347.224 84.3141C350.808 85.7461 354.98 87.1483 358.396 84.5229C358.844 84.1948 358.424 83.4191 357.976 83.7473C354.728 86.2234 350.808 84.7914 347.448 83.4489C347.504 83.6876 347.56 83.9561 347.644 84.1948C349.912 81.7186 351.816 78.8844 353.16 75.7519C354.42 72.8283 355.652 69.2483 355.54 65.9666C355.456 63.6694 353.552 61.4021 351.368 62.9833C349.156 64.5943 349.184 68.0848 350.472 70.3223C350.752 70.8294 351.48 70.3819 351.2 69.9046Z" fill="white"/>
<path d="M364.388 63.8782C367.272 63.7291 370.1 63.8782 372.956 64.3556C372.872 64.1467 372.788 63.9081 372.704 63.6992C371.108 65.9069 369.232 67.7566 367.048 69.2781C366.6 69.6062 366.992 70.2924 367.468 70.0537C369.568 68.9499 371.836 70.3819 372.816 72.4702C373.656 74.2901 373.712 76.4977 373.348 78.4369C372.984 80.3462 372.06 82.2257 370.436 83.2699C368.7 84.3737 366.404 84.3737 364.864 82.9119C364.472 82.5241 363.856 83.1506 364.276 83.5384C365.9 85.0897 368.196 85.3284 370.156 84.4036C372.48 83.3296 373.796 80.7937 374.216 78.2281C374.608 75.7519 374.356 72.8581 372.844 70.8294C371.444 68.9797 369.092 68.2339 367.048 69.2781C367.188 69.5466 367.328 69.7852 367.468 70.0537C369.764 68.4726 371.752 66.5036 373.432 64.1766C373.6 63.9677 373.432 63.5501 373.18 63.5202C370.268 63.0429 367.328 62.8639 364.388 63.0131C363.828 63.0131 363.828 63.9081 364.388 63.8782Z" fill="white"/>
<path d="M387.096 62.5652C386.816 64.9817 386.284 67.2192 385.64 69.5462C385.304 70.7992 385.472 71.2467 386.732 71.3661C388.944 71.5749 391.184 71.6346 393.424 71.7837C394.096 71.8136 396.588 72.5296 396.756 71.3064C396.84 70.7396 396.028 70.5009 395.944 71.0677C395.944 71.1274 388.02 70.5904 387.292 70.5009C387.068 70.5009 386.844 70.471 386.648 70.3815C386.284 70.4412 386.172 70.3219 386.368 70.0236C386.34 69.7551 386.62 69.2181 386.704 68.9496C386.9 68.2336 387.096 67.5176 387.264 66.7717C387.572 65.3696 387.796 63.9376 387.964 62.5056C387.992 61.9984 387.152 61.9984 387.096 62.5652Z" fill="white"/>
<path d="M392.304 64.2059C392.5 70.5306 392.78 76.8851 393.116 83.2097C393.144 83.7766 393.984 83.7766 393.956 83.2097C393.62 76.8851 393.368 70.5604 393.144 64.2059C393.116 63.6391 392.276 63.6391 392.304 64.2059Z" fill="white"/>
<path d="M399.808 62.7741C401.348 62.5354 402.832 62.7741 404.372 62.9232C405.016 62.9829 405.688 63.0426 406.36 63.0127C406.584 63.0127 407.872 62.7144 408.04 62.8039C407.984 62.5951 407.928 62.3862 407.9 62.1774C407.872 62.2072 407.872 62.2371 407.844 62.2669C408.04 62.2072 408.236 62.1476 408.432 62.1177C408.404 62.1177 408.376 62.0879 408.376 62.0879C407.9 61.8492 407.452 62.5951 407.956 62.8636C407.984 62.8636 408.012 62.8934 408.012 62.8934C408.208 62.9829 408.46 62.9531 408.6 62.7442C408.628 62.7144 408.628 62.6846 408.656 62.6547C408.768 62.4459 408.712 62.1774 408.516 62.0282C408.236 61.8492 408.04 61.9387 407.732 61.9686C406.696 62.0581 405.744 62.1476 404.68 62.0581C402.972 61.9089 401.348 61.6404 399.64 61.9089C399.052 61.9984 399.276 62.8636 399.808 62.7741Z" fill="white"/>
<path d="M399.164 62.3861C400.032 64.6236 400.592 66.9208 400.872 69.3074C400.9 69.5759 401.124 69.8444 401.404 69.7251C403.14 69.0986 404.848 69.1284 406.22 70.5604C407.508 71.9327 407.872 73.9017 407.592 75.7812C407.368 77.4519 406.724 79.6297 405.128 80.3159C403.28 81.1214 401.348 80.0474 399.724 79.1226C399.248 78.8541 398.828 79.6297 399.304 79.8982C401.152 80.9424 403.364 82.1059 405.464 81.1512C407.34 80.3159 408.152 77.8696 408.432 75.9006C408.74 73.7526 408.264 71.5151 406.808 69.9339C405.24 68.2632 403.224 68.1141 401.18 68.8599C401.348 69.0091 401.544 69.1583 401.712 69.2776C401.432 66.8014 400.844 64.4148 399.976 62.1176C399.752 61.6104 398.94 61.8491 399.164 62.3861Z" fill="white"/>
<path d="M417.28 61.8792C414.284 64.0571 412.212 67.4581 411.568 71.2469C411.092 74.0512 411.064 79.1229 414.032 80.4654C417 81.8079 419.352 77.5119 418.26 74.8269C417.224 72.2911 412.352 71.9629 411.596 74.9164C411.456 75.4832 412.268 75.7219 412.408 75.1551C412.8 73.6634 414.9 73.5441 416.048 73.9021C417.784 74.4391 418.036 76.6169 417.28 78.1384C416.356 79.9881 414.34 80.3461 413.192 78.5263C412.52 77.4821 412.296 76.1992 412.184 74.9761C411.792 70.1729 413.948 65.3697 417.672 62.6251C418.148 62.3267 417.728 61.5511 417.28 61.8792Z" fill="white"/>
<path d="M433.744 65.3101C433.66 65.1012 433.156 64.0571 433.268 63.6692C433.156 63.2814 433.352 63.1919 433.8 63.3709C433.996 63.3709 434.164 63.3709 434.36 63.3709C435.284 63.3411 436.18 63.3411 437.104 63.3113C438.924 63.2814 440.744 63.2217 442.592 63.1919C442.48 62.9532 442.34 62.7444 442.228 62.5058C439.148 69.1586 437.132 76.2887 436.292 83.6874C436.572 83.6575 436.852 83.5979 437.104 83.568C437.076 83.3592 437.048 83.1504 437.02 82.9415C436.936 82.3747 436.124 82.6134 436.208 83.1802C436.236 83.389 436.264 83.5979 436.292 83.8067C436.376 84.3437 437.076 84.1349 437.104 83.6874C437.944 76.4677 439.904 69.4867 442.928 62.9533C443.068 62.6549 442.9 62.2671 442.564 62.2671C439.568 62.3268 436.544 62.3267 433.52 62.4759C431.644 62.5654 432.456 64.4449 432.988 65.7576C433.212 66.2946 433.94 65.8172 433.744 65.3101Z" fill="white"/>
<path d="M434.78 74.4094C437.3 75.0359 439.82 74.9166 442.284 74.0813C442.788 73.9023 442.564 73.0371 442.06 73.2161C439.736 74.0216 437.384 74.1111 435.004 73.5443C434.472 73.3951 434.248 74.2603 434.78 74.4094Z" fill="white"/>
<path d="M455.696 63.5498C454.324 66.8016 452.98 70.0535 451.608 73.3053C450.964 74.8566 450.32 76.3781 449.676 77.9295C449.06 79.3913 448.584 81.2708 447.716 82.5835C447.408 83.0608 448.136 83.5083 448.444 83.031C449.228 81.8078 449.704 80.0178 450.292 78.6455C450.964 77.0046 451.664 75.3936 452.336 73.7528C453.708 70.501 455.052 67.2491 456.424 63.9973C456.648 63.4901 455.92 63.0426 455.696 63.5498Z" fill="white"/>
<path d="M456.004 63.3708C454.296 61.5509 451.58 62.9531 449.928 64.1763C447.968 65.6083 446.456 68.1441 447.408 70.7396C448.472 73.6931 451.552 74.4986 453.54 76.4975C455.136 78.0786 455.864 80.6145 453.876 82.2255C452.224 83.568 450.04 83.2697 448.108 82.8818C447.576 82.7625 447.352 83.6277 447.884 83.747C450.264 84.2243 452.98 84.4928 454.856 82.494C456.48 80.7637 456.172 78.2875 454.772 76.5273C452.896 74.1108 448.976 73.365 448.108 70.0833C447.52 67.9054 448.976 65.9364 450.572 64.8028C451.832 63.9078 454.128 62.5653 455.472 63.9674C455.78 64.4149 456.368 63.7884 456.004 63.3708Z" fill="white"/>
<path d="M467.316 64.3554C468.856 62.7444 467.008 60.7754 465.3 60.7754C463.228 60.8052 460.176 62.2671 459.644 64.5941C459.168 66.7122 461.016 68.6812 462.976 68.7409C465.384 68.8005 466.924 66.3542 467.176 64.0571C466.896 64.0869 466.616 64.1465 466.364 64.1764C467.092 68.1741 467.288 72.291 466.868 76.3484C466.672 78.1384 466.364 80.6444 464.432 81.2709C462.192 81.9869 460.372 79.8986 459.308 78.1086C459.028 77.6312 458.3 78.0787 458.58 78.5561C459.644 80.3162 461.072 82.0466 463.144 82.2554C464.964 82.4344 466.364 81.3902 467.036 79.6301C467.876 77.4522 467.876 74.7374 467.876 72.4402C467.904 69.5762 467.624 66.7421 467.12 63.9377C467.036 63.4007 466.336 63.6096 466.308 64.0571C466.14 65.6382 465.272 67.2492 463.76 67.7266C462.36 68.1741 460.652 67.1896 460.428 65.5786C460.204 64.0272 461.548 63.0129 462.724 62.4162C463.312 62.1477 463.928 61.8792 464.544 61.7599C465.02 61.6406 465.496 61.6107 465.972 61.73C466.896 62.0582 467.12 62.7146 466.672 63.6991C466.336 64.1167 466.924 64.7731 467.316 64.3554Z" fill="white"/>
<path d="M519.48 59.1943C518.584 59.97 517.436 61.1335 516.372 62.7445C515.448 64.1467 514.86 65.4892 514.496 66.5333C515.336 66.951 517.128 67.9951 517.492 69.8448C517.912 71.8735 516.344 73.7231 514.272 76.1098C512.9 77.6611 510.8 79.7495 507.72 81.6588C507.188 81.6588 506.124 81.5991 504.948 80.9428C503.548 80.1373 502.876 78.944 502.624 78.4666C501.448 78.8246 499.936 79.4213 498.284 80.4655C496.744 81.45 495.568 82.524 494.728 83.419C495.12 84.3736 496.296 86.999 498.956 88.1326C499.992 88.5801 501.308 88.8188 503.744 88.3713C506.208 87.9238 509.54 86.8498 513.488 83.9858C519.116 79.8986 521.916 75.1253 522.7 73.6933C524.66 70.1432 526.06 67.6073 525.248 64.7135C524.212 61.1036 520.348 59.5225 519.48 59.1943Z" fill="black"/>
<path d="M502.68 72.1418C504.192 69.8745 506.264 68.174 508.672 67.1597C509.176 66.9508 508.952 66.0857 508.448 66.2945C505.816 67.3983 503.604 69.2182 501.952 71.6943C501.616 72.1717 502.344 72.6192 502.68 72.1418Z" fill="black"/>
<path d="M498.06 72.6787C500.328 67.3982 504.724 63.5199 510.044 62.1178C510.576 61.9686 510.352 61.1034 509.82 61.2526C504.332 62.6846 499.712 66.7419 497.332 72.2014C497.108 72.7683 497.808 73.2157 498.06 72.6787Z" fill="black"/>
<path d="M494.168 73.6335C494.812 69.5165 496.912 65.9067 499.908 63.1919C502.764 60.5964 507.16 57.792 511.052 58.329C511.584 58.3887 511.584 57.4937 511.052 57.434C507.076 56.897 502.652 59.6715 499.656 62.2372C496.408 65.0415 494.056 68.9497 493.356 73.365C493.272 73.9617 494.084 74.2004 494.168 73.6335Z" fill="black"/>
<path d="M541.964 206.78C542.076 210.658 542.16 214.536 542.272 218.415C530.708 222.054 525.024 224.441 525.22 225.575C525.472 227.007 534.74 226.529 553.024 224.143C552.632 217.52 552.24 210.867 551.82 204.244C548.544 205.079 545.268 205.915 541.964 206.78Z" fill="black" stroke="black" stroke-width="2" stroke-miterlimit="10"/>
<path d="M578.56 130.317C576.88 130.854 577.244 131.063 568.172 138.491C558.568 146.337 553.78 150.275 550.448 152.274C548.516 153.438 546.948 154.273 545.016 156.182C541.824 159.374 540.2 163.014 538.94 166.564C535.02 177.632 534.432 188.223 534.32 192.937C534.208 197.293 534.292 203.438 535.272 210.807C538.296 211.583 540.816 211.792 542.608 211.821C545.716 211.881 550.14 211.941 554.732 209.435C556.076 208.689 557.112 207.913 557.756 207.406C556.944 202.305 556.328 195.89 556.636 188.522C556.888 182.585 557.644 177.364 558.54 173.038C560.024 171.845 562.292 170.144 565.232 168.444C568.62 166.505 572.008 165.073 581.36 162.149C592.56 158.658 592.952 159.046 594.604 157.555C598.888 153.736 601.968 146.039 599.56 139.356C596.424 130.555 585.392 128.199 578.56 130.317Z" fill="white"/>
<path d="M574.248 133.33C569.068 137.179 563.916 141.057 558.736 144.905C554.144 148.336 549.216 151.558 545.016 155.586C540.984 159.434 538.744 164.237 537.288 169.727C535.692 175.813 534.656 182.108 534.124 188.402C533.508 195.652 533.648 202.931 534.432 210.151C534.488 210.718 535.328 210.718 535.272 210.151C533.9 197.8 534.572 185.24 537.316 173.187C538.632 167.37 540.368 161.761 544.428 157.435C548.348 153.259 553.276 150.096 557.784 146.725C563.412 142.519 569.04 138.312 574.668 134.106C575.116 133.778 574.696 133.002 574.248 133.33Z" fill="black"/>
<path d="M590.124 158.629C583.964 160.508 577.888 162.597 571.896 164.983C569.264 166.027 566.576 167.072 564 168.295C561.872 169.309 559.884 170.592 558.652 172.77C558.372 173.277 559.1 173.724 559.38 173.217C560.724 170.801 563.132 169.607 565.456 168.593C568.144 167.43 570.86 166.326 573.604 165.252C579.12 163.104 584.692 161.194 590.32 159.494C590.852 159.345 590.628 158.48 590.124 158.629Z" fill="black"/>
<path d="M559.016 168.295C556.104 180.974 555.572 194.16 557.448 207.048C557.532 207.615 558.344 207.376 558.26 206.809C556.412 194.071 556.944 181.033 559.828 168.533C559.94 167.966 559.128 167.728 559.016 168.295Z" fill="black"/>
<path d="M534.796 210.121C534.936 211.792 537.372 211.523 538.436 211.643C541.012 211.911 543.588 212.12 546.192 211.971C550.392 211.732 554.508 210.479 557.812 207.615C558.232 207.257 557.644 206.631 557.224 206.989C554.396 209.435 550.896 210.628 547.312 210.986C545.464 211.165 543.616 211.165 541.768 211.046C541.096 211.016 535.692 210.867 535.636 210.121C535.58 209.554 534.74 209.554 534.796 210.121Z" fill="black"/>
<path opacity="0.11" d="M589.872 148.575C586.008 146.487 581.584 151.827 570.664 157.137C561.732 161.493 559.52 160.419 556.02 162.686C549.86 166.654 544.4 177.961 548.32 210.807C549.188 210.807 550.196 210.718 551.316 210.479C554.256 209.823 556.356 208.331 557.616 207.287C556.636 200.753 556.048 192.519 557 183.122C557.392 179.154 558.008 175.514 558.736 172.233C561.396 170.592 565.54 168.235 570.86 166.027C583.768 160.628 591.776 160.956 593.064 156.123C593.736 153.408 592.168 149.798 589.872 148.575Z" fill="black"/>
<path opacity="0.12" d="M587.044 159.643C586.904 158.838 577.832 159.255 568.312 162.656C562.236 164.804 558.932 165.998 556.048 169.369C551.456 174.679 551.204 181.511 550.84 190.998C550.672 195.503 550.784 202.006 552.268 209.793C554.116 209.166 555.936 208.57 557.784 207.943C557.084 202.394 556.636 195.712 557 188.164C557.28 182.525 557.924 177.483 558.736 173.068C559.548 172.143 560.78 170.831 562.516 169.548C566.296 166.714 569.628 165.998 573.548 164.864C578.616 163.342 587.184 160.419 587.044 159.643Z" fill="black"/>
<path d="M634 186.463C640.104 184.345 645.284 183.152 649.064 182.436C654.468 181.421 655.728 181.63 656.736 182.436C658.472 183.808 658.108 185.837 658.752 198.486C658.976 202.633 659.088 203.677 658.304 204.96C655.644 209.464 646.796 209.256 646.124 207.287C645.872 206.511 646.712 205.079 650.912 202.185C650.772 199.351 650.632 196.517 650.464 193.683C645.676 194.906 640.888 196.159 636.128 197.382C635.456 193.772 634.728 190.133 634 186.463Z" fill="black" stroke="black" stroke-width="2" stroke-miterlimit="10"/>
<path d="M585.084 135.09C583.236 139.714 584.552 144.667 585.168 146.994C585.868 149.679 586.54 150.037 587.66 153.647C588.864 157.525 589.228 160.329 589.732 163.7C590.46 168.623 591.3 174.231 592.616 179.84C594.24 186.761 595.136 190.312 597.824 194.16C599 195.861 601.772 199.679 606.644 201.708C607.568 202.096 608.8 202.513 611.852 202.931C615.212 203.408 620.42 204.124 627.308 203.229C633.188 202.484 638.088 200.813 641.756 199.232C642.484 196.368 642.456 193.981 642.344 192.46C642.176 190.55 641.896 187 639.46 183.987C638.76 183.122 637.724 181.869 635.988 181.212C634.084 180.526 632.376 180.974 629.352 181.839C625.852 182.823 624.564 183.897 622.268 183.39C621.288 183.181 620.56 182.764 620.112 182.465C619.44 181.362 618.516 179.691 617.648 177.543C615.38 171.934 615.212 167.429 614.904 162.477C614.204 151.319 613.84 145.741 612.16 139.565C610.396 133.091 609.892 129.84 607.26 127.871C604.544 125.842 601.464 125.991 599.56 126.081C594.884 126.289 587.66 128.676 585.084 135.09Z" fill="white"/>
<path d="M608.604 129.929C613.196 140.192 613.56 151.707 614.568 162.805C615.296 170.83 615.94 181.839 623.584 186.075C624.06 186.344 624.48 185.568 624.004 185.3C620.084 183.122 618.124 178.826 617.032 174.44C615.856 169.637 615.548 164.595 615.156 159.643C614.316 149.38 613.56 138.909 609.36 129.452C609.108 128.944 608.38 129.392 608.604 129.929Z" fill="black"/>
<path d="M585.84 150.365C590.768 162.268 589.536 175.843 594.324 187.776C596.228 192.549 599.084 197.024 603.144 199.978C608.072 203.528 614.484 204.244 620.28 204.154C627.588 204.035 634.784 202.245 641.56 199.411C642.064 199.202 641.84 198.337 641.336 198.546C635.428 201.022 629.212 202.722 622.856 203.14C616.808 203.558 609.92 203.23 604.572 199.888C595.192 194.011 592.7 181.392 591.188 170.86C590.18 163.73 589.284 156.54 586.512 149.888C586.344 149.41 585.616 149.858 585.84 150.365Z" fill="black"/>
<path d="M619.58 182.615C624.648 185.777 630.444 179.691 635.792 181.541C638.76 182.585 640.216 185.986 641.028 188.969C641.924 192.191 642.036 195.562 641.42 198.844C641.308 199.411 642.12 199.65 642.232 199.083C642.792 195.98 642.764 192.788 642.092 189.715C641.448 186.911 640.328 183.719 638.116 181.869C636.072 180.139 633.356 180.109 630.892 180.616C627.588 181.302 623.248 183.898 620 181.869C619.524 181.571 619.104 182.316 619.58 182.615Z" fill="black"/>
<path opacity="0.11" d="M604.46 129.541C599.756 134.464 609.248 145.293 609.416 163.492C609.556 177.722 606.392 183.629 610.648 188.402C616.752 195.234 630.556 191.296 632.068 190.849C634.476 190.133 639.628 189.089 640.048 186.314C640.3 184.494 638.508 182.436 636.688 181.421C631.144 178.289 625.964 185.21 621.092 182.943C617.424 181.213 616.612 175.485 615.072 164.834C613.812 156.093 614.596 154.243 613.112 144.637C612.02 137.566 610.62 128.736 607.26 128.229C605.916 127.99 604.684 129.273 604.46 129.541Z" fill="black"/>
<path opacity="0.17" d="M612.076 141.236C611.628 141.266 611.6 146.994 611.544 154.064C611.404 174.142 612.468 178.408 614.904 182.167C615.912 183.718 617.816 186.582 621.288 188.193C628.96 191.803 639.152 187.06 639.18 184.047C639.18 182.525 636.576 181.391 636.156 181.212C633.496 180.079 631.452 181.183 626.048 182.167C623.808 182.585 621.904 182.794 620.56 182.913C619.552 181.57 618.152 179.482 617.032 176.678C614.876 171.397 615.044 167.101 614.904 162.537C614.596 151.26 612.636 141.206 612.076 141.236Z" fill="black"/>
<path d="M508.029 91.5037C508.085 90.8175 509.569 90.4595 510.465 90.2507C514.133 89.3855 517.297 90.0419 518.137 90.3999C519.705 91.0562 521.273 91.7125 522.869 92.3689C522.953 91.8617 523.205 90.7877 524.017 89.9822C525.473 88.58 527.545 89.117 528.105 89.296C528.833 89.5049 529.981 89.9822 531.941 92.2495C533.957 94.5765 534.237 95.7699 535.385 97.2914C538.045 100.812 542.049 101.736 544.065 102.184C545.829 102.602 549.385 103.407 553.389 101.617C556.917 100.036 558.905 97.2615 559.773 96.0085C560.613 94.7854 560.893 94.0694 562.573 89.9822C565.989 81.6587 567.081 79.093 569.461 76.5274C570.749 75.1252 572.317 73.4844 573.941 73.8722C575.929 74.3495 576.769 77.661 577.133 79.0632C577.525 80.6145 578.029 83.568 576.881 88.7292C576.489 90.5192 575.145 95.7997 571.253 101.617C569.629 104.063 567.361 107.375 563.329 110.179C561.565 111.402 558.681 113.371 554.509 113.968C550.813 114.505 547.985 113.7 545.577 112.984C542.917 112.208 538.493 110.478 533.817 106.39C530.821 106.54 528.525 106.748 526.929 106.957C524.213 107.285 523.065 107.554 521.833 106.808C521.413 106.54 520.797 106.062 519.929 106.122C519.117 106.182 518.837 106.659 518.137 106.808C517.353 106.987 516.065 106.838 515.337 105.824C514.749 105.018 514.805 104.004 514.833 103.676C514.357 103.228 513.601 102.393 513.237 101.14C512.985 100.275 513.013 99.5587 513.013 98.7532C513.041 97.7985 513.041 97.3212 513.265 96.9334C513.909 95.74 515.757 95.7997 516.037 95.8295C515.141 95.1135 514.329 94.7257 513.825 94.5169C512.089 93.771 511.165 94.0097 509.569 93.0849C508.925 92.6672 507.973 92.1004 508.029 91.5037Z" fill="white"/>
<path d="M574.192 73.4844C571.756 72.4999 569.936 74.6777 568.648 76.6169C566.716 79.5107 565.064 82.6134 563.664 85.8354C561.032 91.981 559.24 99.141 553.836 103.258C553.388 103.586 553.808 104.362 554.256 104.034C558.624 100.662 560.808 95.382 562.796 90.2209C564 87.1182 565.288 84.0752 566.856 81.1814C567.64 79.7792 568.452 78.377 569.348 77.0644C570.412 75.4832 571.84 73.5142 573.94 74.3495C574.472 74.5584 574.696 73.6932 574.192 73.4844Z" fill="black"/>
<path d="M525.22 92.9056C524.016 93.3232 523.54 91.7421 523.904 90.8769C524.184 90.1907 524.912 89.8327 525.528 89.6239C526.704 89.2659 528.048 89.5046 529.14 90.0714C530.96 91.0261 531.996 92.9652 533.116 94.6956C535.076 97.7386 537.68 100.185 540.844 101.677C547.144 104.63 554.508 103.049 559.352 97.8579C559.744 97.4403 559.128 96.8137 558.764 97.2314C555.46 100.812 550.784 102.721 546.08 102.244C541.264 101.766 536.896 98.7828 534.096 94.6359C532.024 91.5034 529.42 87.2969 525.136 88.8184C523.932 89.2361 522.756 90.3697 522.952 91.8316C523.12 93.1442 524.24 94.1884 525.472 93.7409C525.948 93.5918 525.724 92.7266 525.22 92.9056Z" fill="black"/>
<path d="M522.308 91.6827C520.068 90.4894 517.716 89.5646 515.224 89.296C513.04 89.0574 509.988 89.1469 508.196 90.7281C506.572 92.1601 508.7 93.0849 509.848 93.5921C512.48 94.7556 515.448 95.1136 517.996 96.5158C518.472 96.7843 518.892 96.0086 518.416 95.7401C516.848 94.8749 515.168 94.4572 513.488 93.9501C512.592 93.6816 511.724 93.3832 510.856 93.0252C510.38 92.8462 509.428 92.6374 509.064 92.2197C508.42 91.5037 509.232 91.0562 509.848 90.8176C513.74 89.117 518.332 90.5491 521.916 92.4584C522.364 92.6971 522.784 91.9214 522.308 91.6827Z" fill="black"/>
<path d="M517.8 95.9488C516.596 95.1731 515.084 95.0836 513.88 95.8891C512.9 96.5156 512.088 97.888 512.536 99.1112C513.04 100.513 515 100.663 516.148 100.901C517.912 101.229 519.592 101.229 521.216 100.364C521.692 100.096 521.272 99.32 520.796 99.5885C518.976 100.573 516.96 100.215 515.028 99.7377C514.272 99.5587 514.244 99.5885 513.768 98.7233C513.152 98.1863 513.18 97.6195 513.796 97.0825C513.964 96.9333 514.132 96.814 514.3 96.6648C515.252 96.0383 516.428 96.1278 517.38 96.7245C517.828 97.0228 518.248 96.2471 517.8 95.9488Z" fill="black"/>
<path d="M512.984 99.6181C512.424 101.259 513.152 102.96 514.58 103.765C516.428 104.809 518.528 104.034 520.292 103.288C520.796 103.079 520.572 102.214 520.068 102.423C518.892 102.93 517.604 103.467 516.316 103.347C514.636 103.198 513.152 101.736 513.796 99.8568C513.964 99.3198 513.152 99.0811 512.984 99.6181Z" fill="black"/>
<path d="M514.3 103.377C513.796 105.048 515.056 106.45 516.484 106.898C518.584 107.524 520.264 106.271 521.776 104.869C522.196 104.481 521.58 103.855 521.188 104.242C520.236 105.108 519.256 106.032 517.968 106.152C516.68 106.271 514.552 105.436 515.112 103.616C515.28 103.079 514.468 102.84 514.3 103.377Z" fill="black"/>
<path d="M519.172 97.53C520.012 97.8284 521.3 98.6339 520.628 99.7377C520.348 100.215 521.076 100.663 521.356 100.185C521.748 99.5289 521.72 98.6637 521.3 98.0074C520.88 97.2914 520.124 96.9035 519.368 96.6649C518.864 96.4859 518.64 97.351 519.172 97.53Z" fill="black"/>
<path d="M520.376 100.573C520.964 101.259 520.712 102.333 519.872 102.602C519.368 102.751 519.564 103.616 520.096 103.467C521.58 103.019 522 101.11 520.992 99.9167C520.6 99.5289 520.012 100.155 520.376 100.573Z" fill="black"/>
<path d="M520.768 102.781C521.328 103.109 521.412 104.004 520.964 104.451C520.572 104.839 521.16 105.495 521.552 105.078C522.392 104.213 522.224 102.602 521.188 102.005C520.74 101.737 520.292 102.512 520.768 102.781Z" fill="black"/>
<path d="M521.748 92.3984C522.364 92.6967 522.98 93.0249 523.596 93.3232C524.072 93.5619 524.52 92.7862 524.016 92.5476C523.4 92.2492 522.784 91.9211 522.168 91.6227C521.692 91.3841 521.272 92.1597 521.748 92.3984Z" fill="black"/>
<path d="M525.556 93.7709C526.172 93.2041 527.012 92.9654 527.824 93.1743C528.356 93.2936 528.58 92.4284 528.048 92.3091C526.928 92.0406 525.836 92.3389 524.968 93.1444C524.548 93.5323 525.136 94.1588 525.556 93.7709Z" fill="black"/>
<path d="M526.032 94.8451C525.248 97.3212 526.172 100.066 528.272 101.408C528.748 101.707 529.168 100.931 528.692 100.633C526.9 99.4991 526.172 97.1423 526.844 95.0838C527.012 94.5169 526.2 94.2782 526.032 94.8451Z" fill="black"/>
<path d="M520.124 106.271C521.804 107.554 523.624 107.822 525.612 107.405C528.384 106.868 531.044 106.599 533.872 106.927C534.404 106.987 534.404 106.092 533.872 106.032C531.688 105.764 529.504 105.794 527.32 106.152C524.828 106.569 522.784 107.196 520.544 105.495C520.096 105.167 519.676 105.943 520.124 106.271Z" fill="black"/>
<path d="M533.144 106.54C537.148 108.568 540.844 111.283 544.988 112.954C548.796 114.475 552.968 114.774 556.944 113.729C561.032 112.655 564.336 110.09 567.22 106.898C570.216 103.616 572.904 99.9165 574.808 95.7696C577.048 90.9366 578.14 85.5666 577.58 80.1967C577.524 79.6298 576.684 79.6298 576.74 80.1967C577.356 86.1036 575.928 91.9808 573.184 97.1121C570.636 101.886 567.024 106.659 562.796 109.881C558.54 113.103 553.024 114.177 547.928 112.954C542.72 111.701 538.324 108.151 533.536 105.734C533.088 105.525 532.668 106.301 533.144 106.54Z" fill="black"/>
<path opacity="0.16" d="M575.312 76.9451C574.22 77.0047 574.36 81.9571 573.044 87.0287C571.112 94.3677 565.568 104.004 557.42 106.957C551.652 109.046 545.828 107.315 536.56 104.541C533.62 103.676 528.44 101.856 521.272 101.378C515.364 100.991 513.908 101.886 513.852 102.363C513.824 102.661 514.356 102.87 514.664 103.825C514.916 104.63 514.636 104.899 514.888 105.406C515.336 106.331 516.68 106.45 517.156 106.51C518.332 106.629 519.284 106.182 519.788 105.913C520.32 106.182 521.16 106.54 522.196 106.778C524.212 107.226 525.36 106.808 527.908 106.54C530.54 106.271 532.276 106.092 534.18 106.659C536 107.196 536.84 108.091 538.408 109.225C538.884 109.553 543.364 112.745 548.908 113.729C550.644 114.028 554.62 114.684 559.044 112.864C561.564 111.85 563.16 110.448 564.98 108.867C566.128 107.852 571.252 103.198 575.004 94.5169C576.656 90.7281 578 87.5359 577.636 83.3294C577.328 80.2566 576.236 76.8854 575.312 76.9451Z" fill="black"/>
<path opacity="0.17" d="M521.72 103.676C523.064 102.96 524.632 103.556 525.248 103.795C528.748 105.078 529.084 104.183 534.376 105.018C538.744 105.704 538.912 107.047 544.652 109.016C550.168 110.925 554.62 112.447 559.016 110.955C565.26 108.837 568.144 102.124 568.368 102.333C568.592 102.512 566.072 109.016 560.052 112.059C554.592 114.833 548.908 113.431 547.284 113.043C544.652 112.387 542.524 111.313 540.2 110.12C537.484 108.747 535.356 107.315 533.816 106.241C531.856 106.152 530.316 106.331 529.252 106.48C526.648 106.898 525.556 107.524 523.428 107.196C522.868 107.106 520.544 106.748 520.348 105.615C520.236 104.869 520.992 104.063 521.72 103.676Z" fill="black"/>
<path d="M571.648 74.9224L571.649 74.921C574.309 71.4318 579.293 69.5753 584.522 69.5203C589.745 69.4654 595.074 71.2112 598.383 74.7504V74.7512C600.084 76.5628 601.094 78.9859 601.817 82.5704C602.537 86.1373 602.961 90.786 603.53 97.0265L603.542 97.1576C603.88 100.868 603.966 103.643 604.043 106.127C604.065 106.817 604.085 107.485 604.111 108.144C604.227 111.178 604.439 114.004 605.258 117.919C606.534 124.05 608.514 128.901 610.018 132.122C606.79 134.41 598.262 139.744 586.74 139.007L586.739 139.006C579.449 138.546 573.899 135.862 570.764 133.981C569.807 126.761 569.34 120.655 569.091 116.179C568.505 105.079 568.895 97.5224 569.287 90.3078C569.651 83.7945 570.076 80.1539 570.5 78.0269C570.919 75.9209 571.327 75.3405 571.648 74.9224Z" fill="#7BE495" stroke="black"/>
<path opacity="0.22" d="M593.539 83.025L593.538 83.0231C591.675 77.3987 589.361 72.9621 587.444 69.8062C589.202 69.9617 591.774 70.4526 594.496 71.95L594.517 71.9621C595.587 72.592 597.892 73.9489 599.715 76.463V76.4634C600.971 78.1921 601.777 80.1512 602.843 89.7689C603.559 96.2221 603.895 101.838 603.985 103.342L603.988 103.405L603.989 103.406C604.087 105.172 604.149 106.528 604.201 107.657C604.326 110.362 604.39 111.765 604.748 114.393C605.432 119.492 606.435 122.897 606.75 123.966C606.773 124.043 606.792 124.108 606.807 124.161L606.811 124.171C607.872 127.565 609.108 130.321 610.12 132.339C606.849 134.668 601.537 137.69 594.533 138.712C592.129 139.048 589.918 139.112 587.974 139.022C590.957 133.508 594.005 126.176 595.6 117.159C598.757 99.4683 594.417 85.7121 593.539 83.025Z" fill="black" stroke="black"/>
<path opacity="0.22" d="M602.211 106.665V106.664C602.658 103.251 603.056 99.902 603.396 96.6187C603.407 96.7288 603.419 96.8399 603.43 96.9521C603.891 101.893 604.079 105.375 604.212 108.148C604.229 108.493 604.244 108.828 604.26 109.153C604.367 111.438 604.452 113.269 604.663 115.128V115.129C605.137 119.286 606.404 125.067 610.016 131.953C608.288 133.38 605.83 135.123 602.617 136.448H602.616C600.329 137.397 598.211 137.92 596.463 138.212C598.721 128.52 600.706 117.976 602.211 106.665Z" fill="black" stroke="black"/>
<path d="M559.828 39.1166C559.268 40.5784 559.296 42.3087 559.296 45.7992C559.296 48.2754 559.324 51.7361 560.528 55.8232C561.452 58.9856 562.348 62.1479 565.12 64.9522C565.904 65.7577 569.292 69.1886 574.08 69.1886C575.004 69.1886 575.788 69.0692 576.292 68.9499C576.516 69.8449 576.992 71.0979 577.888 72.3807C578.364 73.0371 578.84 73.5442 579.26 73.9321C579.932 73.9321 581.64 73.8127 583.404 72.6194C585.084 71.4559 585.868 69.9344 586.148 69.2781C585.644 68.7411 584.328 67.1599 584.244 64.8627C584.216 64.2362 584.3 63.6992 584.384 63.2219C585.308 61.9689 586.288 60.3281 587.128 58.3292C587.548 57.3447 587.856 56.4199 588.136 55.5547C588.556 55.6741 589.396 55.8232 590.208 55.4056C591.076 54.9282 591.384 54.0034 591.748 52.8697C592.28 51.1991 592.868 49.3196 592.14 47.6489C591.44 46.0677 590.348 46.4257 589.396 44.9639C587.94 42.7861 589.368 40.5784 588.78 38.1917C587.884 34.5222 582.9 32.9411 580.968 32.3146C573.044 29.8086 562.292 32.6129 559.828 39.1166Z" fill="white"/>
<path d="M559.101 43.4113C559.801 43.5306 560.249 42.3671 561.341 41.2036C562.461 40.0401 564.337 38.817 567.697 38.4888C570.441 38.1905 573.185 37.8623 575.929 37.564C576.797 37.6236 578.785 37.8623 580.773 39.3241C582.369 40.5175 583.237 41.9495 583.657 42.7251C584.525 42.755 585.365 42.8146 586.233 42.8445C586.401 43.9483 586.597 45.0521 586.765 46.156C586.877 46.0366 588.389 44.6046 589.957 45.1416C591.217 45.5593 591.749 46.9913 591.973 47.6476C592.673 49.4675 592.197 50.9293 592.617 51.0486C593.121 51.2276 594.101 49.2586 594.213 48.9901C594.465 48.483 595.277 46.7228 595.501 43.9781C595.669 41.7406 595.781 40.249 594.969 38.8468C594.689 38.3695 594.409 38.0711 594.325 37.4745C594.185 36.3408 595.025 35.7143 595.501 34.6403C595.753 34.0735 595.809 33.5365 595.081 29.4195C594.297 25.0041 594.017 24.4075 593.597 24.2881C593.037 24.1688 592.533 24.9743 591.889 25.6605C590.769 26.8836 588.837 28.2261 585.253 28.7333C585.253 27.3908 585.085 26.3168 584.945 25.5411C584.693 24.3478 584.553 24.3478 583.657 21.5435C583.153 19.9623 583.041 19.306 582.705 19.2761C582.145 19.2165 581.949 20.738 580.633 21.275C580.045 21.5136 579.821 21.3048 579.037 21.4241C578.337 21.5136 577.385 21.8418 576.293 22.8263C576.293 22.8263 574.613 24.0495 571.813 25.571C568.705 27.2416 567.669 25.4218 564.449 26.9433C562.041 28.077 560.585 30.1056 559.969 31.0305C559.353 31.9553 557.617 34.6403 557.617 38.3396C557.561 40.4578 558.121 43.2621 559.101 43.4113Z" fill="black"/>
<path d="M559.128 44.6058C558.652 49.6774 559.436 54.8386 561.452 59.4628C563.16 63.3709 565.876 67.2493 569.796 68.8006C573.8 70.3818 578.392 69.2183 581.724 66.5333C585.112 63.7886 587.24 59.7014 588.5 55.4353C588.668 54.8983 587.856 54.6596 587.688 55.1966C586.484 59.2539 584.468 63.1621 581.248 65.7874C577.916 68.4724 573.24 69.6061 569.348 67.6371C565.848 65.8769 563.496 62.2074 561.984 58.5379C560.164 54.1524 559.52 49.3493 559.968 44.6058C560.024 44.0389 559.184 44.0389 559.128 44.6058Z" fill="black"/>
<path d="M587.352 46.8434C587.744 45.0236 589.732 45.0831 590.74 46.2466C591.608 47.2013 591.804 48.6036 591.832 49.8864C591.888 52.0344 591.16 56.0022 588.276 55.0177C587.772 54.8387 587.548 55.7039 588.052 55.8829C592.14 57.2851 593.036 51.2289 592.532 48.3052C592.224 46.6047 591.188 44.7849 589.424 44.5462C588.08 44.3672 586.848 45.2622 586.54 46.6644C586.428 47.1417 587.24 47.3804 587.352 46.8434Z" fill="black"/>
<path d="M569.516 44.9634C568.872 46.3954 568.228 47.7976 567.612 49.2296C567.304 49.9754 566.968 50.7212 567.024 51.5864C567.164 53.3466 568.62 54.5101 570.132 54.8979C570.664 55.0471 570.888 54.1819 570.356 54.0327C568.536 53.5554 567.416 52.0041 568.2 50.0351C568.816 48.4837 569.544 46.9622 570.244 45.4109C570.468 44.9037 569.74 44.4562 569.516 44.9634Z" fill="black"/>
<path d="M565.428 48.8719C565.26 48.663 565.148 48.3945 565.12 48.126C565.092 48.0067 565.092 47.8575 565.12 47.7382C565.12 47.6487 565.26 47.3802 565.26 47.3205C565.204 47.3205 565.176 47.3504 565.12 47.3504C565.148 47.4399 565.148 47.5294 565.148 47.6189C565.148 47.768 565.148 47.9172 565.148 48.0664C565.12 48.4542 565.036 48.8122 564.896 49.1702C565.12 49.1105 565.372 49.0509 565.596 48.9614C565.316 48.6929 565.204 48.4244 565.232 48.0067C565.288 47.4399 564.448 47.4399 564.392 48.0067C564.336 48.6034 564.56 49.2 565.008 49.5879C565.26 49.8265 565.596 49.7072 565.708 49.379C565.96 48.6929 566.072 47.9172 565.96 47.2012C565.876 46.694 565.484 46.1869 564.98 46.4255C564.504 46.6344 564.308 47.3504 564.308 47.8874C564.308 48.484 564.504 49.0509 564.896 49.4984C565.204 49.9459 565.792 49.2895 565.428 48.8719Z" fill="black"/>
<path d="M576.124 48.4245C576.04 48.1859 575.984 47.977 575.984 47.7384C575.984 47.619 576.012 47.4997 576.04 47.3804C576.04 47.3505 576.068 47.2909 576.068 47.261C576.124 47.1715 576.096 47.1715 575.956 47.261C575.956 47.2909 576.012 47.44 576.012 47.4997C576.012 47.619 576.012 47.7384 575.984 47.8577C575.928 48.1262 575.816 48.3649 575.676 48.5737C575.9 48.6035 576.124 48.6334 576.348 48.6632C576.012 48.156 576.04 47.5594 576.404 47.0522C576.18 47.082 575.956 47.1119 575.732 47.1417C576.012 47.4997 575.816 48.0367 575.48 48.2157C575.676 48.3052 575.9 48.3947 576.096 48.4842C576.012 48.2455 575.956 48.0367 575.928 47.7682C575.928 47.619 575.956 47.4699 575.956 47.3207C575.956 47.261 575.984 47.2312 575.984 47.1715C575.9 47.0522 575.872 47.0224 575.928 47.1119C576.012 47.3505 576.068 47.5295 576.04 47.798C576.04 47.9174 575.984 48.0964 575.984 48.1859C575.984 48.2455 575.956 48.2754 575.956 48.335C576.152 48.3052 576.18 48.2455 576.068 48.1262C575.76 47.6489 575.032 48.0964 575.34 48.5737C575.648 49.051 576.32 49.4687 576.684 48.7825C576.964 48.2157 576.964 47.2312 576.684 46.6942C576.376 46.1274 575.648 45.9484 575.284 46.5749C574.948 47.1715 575.032 48.0665 575.256 48.693C575.368 48.9615 575.62 49.1107 575.872 48.9615C576.74 48.4842 576.908 47.261 576.292 46.4854C576.096 46.2467 575.788 46.366 575.62 46.5749C575.116 47.2909 575.088 48.335 575.564 49.0809C575.704 49.2897 576.04 49.409 576.236 49.1704C576.74 48.4842 577.272 46.8732 576.264 46.366C575.816 46.1572 575.424 46.4555 575.284 46.903C575.088 47.4699 575.088 48.0964 575.312 48.6334C575.536 49.1704 576.348 48.9615 576.124 48.4245Z" fill="black"/>
<path d="M567.164 43.4124C565.708 42.398 563.804 42.8754 562.88 44.3969C562.6 44.8742 563.328 45.3217 563.608 44.8444C564.28 43.7107 565.68 43.4422 566.744 44.1582C567.192 44.4864 567.612 43.7107 567.164 43.4124Z" fill="black"/>
<path d="M574.892 43.6512C576.18 42.4877 578.168 42.8457 578.756 44.6059C578.924 45.1429 579.736 44.9042 579.568 44.3672C578.756 41.9507 576.068 41.3839 574.304 43.0247C573.912 43.3827 574.5 44.0092 574.892 43.6512Z" fill="black"/>
<path d="M575.928 69.2776C576.376 71.0378 577.244 72.619 578.504 73.8719C578.896 74.2598 579.484 73.6333 579.092 73.2455C577.944 72.082 577.132 70.6798 576.74 69.039C576.572 68.4721 575.76 68.7108 575.928 69.2776Z" fill="black"/>
<path d="M583.656 63.7587C583.908 65.7576 584.552 67.5774 585.644 69.248C585.952 69.7254 586.68 69.2779 586.372 68.8005C585.364 67.279 584.72 65.6084 584.496 63.7587C584.44 63.2217 583.6 63.1919 583.656 63.7587Z" fill="black"/>
<path d="M578.56 74.0212C581.584 75.1251 585.056 72.5296 586.176 69.5761C586.372 69.0391 585.56 68.8004 585.364 69.3374C584.412 71.8434 581.304 74.0808 578.784 73.156C578.28 72.977 578.056 73.8422 578.56 74.0212Z" fill="black"/>
<path d="M576.432 69.7553C578.448 69.3973 580.24 68.3829 581.668 66.8316C582.032 66.4139 581.444 65.7874 581.08 66.2051C579.736 67.6669 578.084 68.5619 576.208 68.9199C575.676 69.0094 575.9 69.8448 576.432 69.7553Z" fill="black"/>
<path d="M576.908 70.3517C579.26 69.6357 581.92 67.6667 582.984 65.28C583.208 64.7729 582.48 64.2955 582.256 64.8325C581.276 67.0104 578.84 68.86 576.656 69.5164C576.152 69.6655 576.376 70.5009 576.908 70.3517Z" fill="black"/>
<path d="M559.268 41.2044C557.672 39.2056 558.316 35.6256 559.1 33.3583C560.052 30.5838 561.928 28.4954 564.644 27.6899C567.024 26.9739 569.572 27.0635 571.896 26.1088C574.472 25.0348 576.348 22.0813 579.316 22.2901C579.848 22.3199 579.848 21.4249 579.316 21.3951C575.928 21.1564 573.856 24.6171 570.804 25.5419C567.864 26.4668 564.588 26.1386 561.928 27.9584C559.828 29.3904 558.512 31.8069 557.924 34.3428C557.336 36.7593 557.028 39.8321 558.652 41.8309C559.016 42.2784 559.632 41.6519 559.268 41.2044Z" fill="black"/>
<path d="M568.228 37.8335C568.004 35.6556 568.452 33.5076 569.656 31.7176C571 29.7188 573.044 28.8238 575.06 27.8095C576.74 26.9741 578.28 25.93 579.484 24.4085C580.66 22.9765 581.248 20.8583 582.732 19.7545C582.536 19.6948 582.34 19.6351 582.144 19.6053C583.544 23.0958 586.344 27.362 583.824 31.0613C583.516 31.5386 584.244 31.9861 584.552 31.5088C587.268 27.5111 584.384 22.9466 582.872 19.1578C582.788 18.949 582.48 18.8595 582.284 19.0086C580.66 20.1721 580.1 22.2605 578.84 23.782C577.188 25.8405 575.032 26.7653 572.82 27.899C569.18 29.7785 566.856 33.4181 567.332 37.8335C567.444 38.4003 568.312 38.4003 568.228 37.8335Z" fill="black"/>
<path d="M576.152 37.416C577.944 33.8658 580.884 31.0913 584.468 29.7488C586.148 29.1223 587.912 28.7643 589.508 27.8992C591.048 27.0937 592.364 25.96 593.512 24.6175C593.288 24.5877 593.064 24.5578 592.84 24.528C593.876 26.8848 594.856 29.54 595.052 32.1355C595.248 34.9398 593.792 37.0878 592.196 39.1463C591.86 39.5938 592.448 40.2203 592.784 39.7728C594.38 37.6845 595.948 35.4768 595.892 32.6725C595.836 29.719 594.688 26.7058 593.54 24.0805C593.428 23.812 593.064 23.7822 592.868 23.991C591.412 25.6617 589.676 26.9743 587.66 27.75C585.952 28.4063 584.16 28.7643 582.508 29.6295C579.456 31.2107 576.964 33.8062 575.368 36.9685C575.172 37.4757 575.9 37.9232 576.152 37.416Z" fill="black"/>
<path d="M593.792 37.5949C595.808 41.7716 595.444 46.7239 592.868 50.5128C592.56 50.9901 593.288 51.4376 593.596 50.9603C596.368 46.9029 596.676 41.5926 594.52 37.1474C594.268 36.6402 593.54 37.0877 593.792 37.5949Z" fill="black"/>
<path opacity="0.14" d="M583.376 42.4277C583.46 43.8895 583.516 46.0077 583.376 48.5435C583.096 53.0782 582.872 56.9863 580.996 60.6558C578.644 65.2203 574.612 67.607 571.924 68.8003C573.212 68.8898 575.284 68.8301 577.664 67.9948C579.624 67.3086 581.108 66.3242 582.06 65.5485C582.592 67.786 583.152 70.0235 583.684 72.261C584.524 71.187 585.336 70.0831 586.176 69.0091C585.448 67.4578 584.72 65.8766 583.992 64.3253C584.58 63.311 585.14 62.237 585.7 61.0735C586.708 59.0448 587.52 57.1057 588.192 55.256C588.556 55.4052 589.62 55.793 590.572 55.256C591.636 54.6593 591.888 53.3168 592.112 52.0937C592.336 50.8108 592.952 47.38 591.048 45.8883C590.264 45.2618 588.892 44.8442 587.8 45.4707C587.212 45.8287 586.904 46.3657 586.736 46.6938C586.596 45.4707 586.484 44.2475 586.344 43.0243C585.364 42.8453 584.356 42.6365 583.376 42.4277Z" fill="black"/>
<path opacity="0.2" d="M576.964 37.3563C578.532 35.5365 580.408 32.941 582.032 29.5102C583.18 27.0638 583.936 24.7965 584.412 22.8872C585.672 25.3037 585.56 27.2428 585.476 28.0782C585 31.8968 581.752 34.2835 579.932 35.626C578.784 36.4613 577.72 36.9983 576.964 37.3563Z" fill="black"/>
<path opacity="0.16" d="M582.704 40.6977C584.3 40.101 586.176 39.2359 588.164 37.953C591.776 35.5962 594.212 32.7919 595.724 30.7334C595.92 31.9864 596.116 34.4625 594.856 36.7299C592.84 40.4292 587.884 42.2192 582.704 40.6977Z" fill="black"/>
<path opacity="0.22" d="M564.364 39.0865C564.308 37.8335 564.392 36.0435 564.924 33.985C566.184 29.2714 569.32 25.751 569.796 26.0494C570.188 26.288 569.236 29.0924 564.364 39.0865Z" fill="black"/>
<path d="M565.736 58.299C569.908 58.5078 573.968 57.6128 577.72 55.6438C578.084 55.4648 577.776 54.8682 577.412 55.077C573.772 56.9863 569.796 57.8515 565.764 57.6427C565.316 57.6129 565.344 58.2692 565.736 58.299Z" fill="black"/>
<path d="M566.156 58.4184C566.716 59.4924 567.108 60.6559 567.332 61.8493C567.416 62.2669 568.004 62.0879 567.948 61.6703C567.724 60.4173 567.304 59.1941 566.716 58.0604C566.52 57.7024 565.96 58.0604 566.156 58.4184Z" fill="black"/>
<path d="M567.388 61.879C569.068 63.6093 571.784 62.7441 573.576 61.6403C575.732 60.3575 577.3 58.2095 577.832 55.6438C577.916 55.2261 577.3 55.0471 577.216 55.4648C576.768 57.583 575.62 59.373 573.94 60.626C572.344 61.7895 569.46 63.1021 567.836 61.4016C567.556 61.1033 567.108 61.5806 567.388 61.879Z" fill="black"/>
<path d="M566.996 59.6414C568.9 60.1784 571.084 59.5817 572.904 58.9851C574.668 58.4182 576.292 57.4934 577.524 56.0018C577.804 55.6736 577.356 55.1962 577.076 55.5244C575.9 56.9266 574.416 57.7917 572.736 58.3287C571.028 58.8657 568.928 59.4922 567.164 58.9851C566.772 58.8956 566.604 59.5519 566.996 59.6414Z" fill="black"/>
<path d="M567.276 59.97C567.5 60.5368 567.724 61.1037 567.948 61.6705C568.088 62.0285 568.648 61.76 568.536 61.402C568.34 60.865 568.2 60.3578 568.088 59.791C567.948 59.9402 567.836 60.0595 567.696 60.2087C568.368 60.328 569.04 60.3877 569.74 60.3877C570.076 60.3877 570.188 59.791 569.824 59.7313C569.18 59.612 568.676 59.6418 568.032 59.8507C567.836 59.9103 567.724 60.149 567.836 60.3578C568.004 60.6263 568.2 60.9247 568.368 61.1932C568.592 61.5512 569.096 61.2528 568.9 60.865C568.816 60.5965 568.732 60.328 568.648 60.0893C568.452 60.1788 568.256 60.2683 568.06 60.3578C568.34 60.7457 568.452 61.1633 568.34 61.6108C568.536 61.5512 568.732 61.4915 568.928 61.4318C568.536 60.7457 568.2 61.5512 568.116 61.76C568.032 62.0285 568.368 62.3268 568.592 62.1478C570.888 60.2982 573.576 59.3733 576.292 58.4783C576.684 58.359 576.516 57.7027 576.124 57.822C573.352 58.717 570.608 59.6717 568.284 61.5512C568.452 61.6705 568.592 61.7898 568.76 61.939C568.872 61.6705 569.208 61.6108 569.264 61.1932C569.32 60.8352 569.18 60.2982 568.816 60.1788C567.808 59.8208 568.172 61.3423 568.424 61.76C568.592 62.0583 568.984 61.9092 569.012 61.581C569.068 60.9545 568.956 60.507 568.648 59.9998C568.452 59.7015 567.976 59.8805 568.06 60.2683C568.172 60.7755 568.172 60.7457 568.368 61.223C568.536 61.1037 568.732 60.9843 568.9 60.8948C568.732 60.6263 568.536 60.328 568.368 60.0595C568.312 60.2385 568.256 60.3877 568.172 60.5667C568.648 60.3578 569.124 60.328 569.628 60.4473C569.656 60.2385 569.684 59.9998 569.712 59.791C569.068 59.791 568.508 59.7612 567.836 59.6418C567.584 59.5822 567.388 59.791 567.444 60.0595C567.556 60.6263 567.696 61.1335 567.892 61.6705C568.088 61.581 568.284 61.4915 568.48 61.402C568.256 60.8352 568.032 60.2683 567.808 59.7015C567.668 59.2242 567.108 59.5822 567.276 59.97Z" fill="black"/>
<path d="M569.068 61.0437C570.048 60.4173 571.056 59.9399 572.148 59.5223C572.064 59.3134 571.98 59.1046 571.896 58.8958C570.916 59.3731 569.936 59.8504 568.984 60.2979C568.676 60.4471 568.9 61.0438 569.236 60.9244C571.868 59.8206 574.472 58.6869 576.852 57.0163C576.684 56.8969 576.544 56.7776 576.376 56.6285C576.012 57.6726 574.388 57.7919 573.548 58.1201C572.848 58.3886 572.176 58.7466 571.476 59.0151C570.496 59.3731 569.348 59.3134 568.592 60.2084C568.312 60.5366 568.76 61.0139 569.04 60.6857C569.656 59.9399 570.804 59.9698 571.644 59.6714C572.484 59.3731 573.296 58.9256 574.164 58.6273C575.34 58.2394 576.516 58.2096 576.992 56.8373C577.076 56.5688 576.74 56.3003 576.516 56.4495C574.192 58.0604 571.616 59.1941 569.04 60.2681C569.124 60.4769 569.208 60.6857 569.292 60.8946C570.272 60.4173 571.252 59.9399 572.204 59.4924C572.54 59.3433 572.288 58.7466 571.952 58.8659C570.832 59.2836 569.768 59.8206 568.732 60.4471C568.396 60.6857 568.732 61.2824 569.068 61.0437Z" fill="black"/>
<path d="M576.628 57.7621C576.628 57.7323 576.6 57.7024 576.6 57.6726C576.6 57.6428 576.6 57.6726 576.6 57.7323C576.572 57.7621 576.516 57.8218 576.488 57.8516H576.516C576.432 57.8516 576.348 57.8814 576.264 57.8814C576.124 57.8516 576.124 57.5831 576.096 57.7621C576.096 57.8218 576.096 57.8516 576.124 57.9113C576.152 58.0306 576.208 58.0903 576.32 58.1798C576.46 58.2991 576.684 58.2096 576.74 58.0604C576.824 57.8814 576.768 57.7024 576.628 57.6129C576.628 57.6129 576.6 57.6129 576.6 57.5831C576.628 57.6129 576.684 57.6726 576.712 57.7024C576.74 57.7919 576.74 57.7919 576.74 57.7323C576.74 57.7024 576.74 57.6726 576.74 57.6726C576.74 57.5831 576.712 57.4936 576.684 57.4339C576.6 57.3146 576.488 57.2251 576.348 57.2251C575.984 57.2251 575.928 57.6726 576.04 57.9411C576.096 58.1201 576.236 58.2394 576.432 58.1798C576.572 58.1201 576.712 57.9113 576.628 57.7621Z" fill="black"/>
<path d="M576.684 55.0473C577.216 55.286 577.664 55.6738 577.972 56.2108C578.168 56.5688 578.728 56.2407 578.504 55.8827C578.112 55.1965 577.552 54.6893 576.852 54.4208C576.46 54.2418 576.292 54.8982 576.684 55.0473Z" fill="black"/>
<path d="M569.04 62.3563C571.252 60.6857 573.688 59.5222 576.32 58.8957C576.712 58.8062 576.544 58.1498 576.152 58.2393C573.436 58.8658 570.972 60.0592 568.704 61.7597C568.396 62.0282 568.704 62.6248 569.04 62.3563Z" fill="black"/>
<path d="M568.48 61.8194C571.224 61.6702 573.772 60.7752 576.04 59.1344C576.376 58.8957 576.068 58.2991 575.732 58.5676C573.548 60.1487 571.112 61.0437 568.48 61.1631C568.06 61.1929 568.06 61.8492 568.48 61.8194Z" fill="black"/>
<path d="M571.028 61.0737C572.568 60.7157 573.996 60.0891 575.34 59.1941C575.676 58.9554 575.368 58.3886 575.032 58.6273C573.744 59.4925 572.372 60.0891 570.888 60.4471C570.468 60.5068 570.636 61.1632 571.028 61.0737Z" fill="black"/>
<path d="M569.096 62.2373C571.336 62.1776 573.408 61.4915 575.256 60.149C575.592 59.9103 575.284 59.3137 574.948 59.5822C573.184 60.865 571.224 61.5213 569.096 61.581C568.704 61.581 568.704 62.2671 569.096 62.2373Z" fill="black"/>
<path d="M569.096 62.1777C569.068 62.6849 569.516 62.7446 569.88 62.6849C570.72 62.5656 571.532 62.3568 572.344 62.1479C572.736 62.0286 572.568 61.4021 572.176 61.4916C571.756 61.6109 571.336 61.7004 570.888 61.7899C570.692 61.8198 569.74 61.8794 569.712 62.1479C569.768 61.7601 569.124 61.7601 569.096 62.1777Z" fill="black"/>
<path d="M574.444 65.6681C574.724 64.8327 577.244 65.0117 579.428 65.3101C579.428 64.8626 579.512 64.2062 579.764 63.4902C579.96 62.9234 580.268 62.3566 581.388 61.0439C582.592 59.6417 583.208 58.9556 583.992 58.4484C584.58 58.0606 585.56 57.5534 586.932 57.3147C587.492 57.5236 588.08 57.7324 588.64 57.9114C588.808 57.3446 589.144 56.2706 589.788 54.1822C590.208 52.7801 590.46 52.0641 591.02 51.8254C591.58 51.6166 592.336 51.8254 592.728 52.3326C593.288 53.0784 592.784 54.1524 592.476 55.9722C592.308 57.0164 592.448 56.8374 592.392 60.7456C592.336 64.7432 592.196 64.7134 592.224 66.3841C592.252 67.9354 592.448 70.1431 593.12 72.7982C593.736 72.4999 594.716 72.1717 595.892 72.2016C598.636 72.2314 600.568 74.1407 601.996 75.6026C604.796 78.4367 606 81.5692 606.812 83.7769C608.38 88.0431 608.576 91.5932 608.604 93.1446C608.632 95.5611 608.688 97.8284 607.54 100.454C607.176 101.289 606.168 103.527 603.872 105.227C602.92 105.943 601.128 107.256 598.804 107.047C597.46 106.928 596.256 106.331 594.968 105.227C590.656 101.498 588.668 94.7257 588.052 92.3689C586.876 88.0729 585.588 81.8377 585.364 74.0512C584.748 74.0214 584.02 73.8722 583.236 73.5441C580.352 72.2612 579.232 69.1884 579.008 68.4127C578.42 68.4426 576.32 68.4127 575.004 66.8614C574.724 66.5034 574.332 66.0559 574.444 65.6681Z" fill="white"/>
<path d="M578.336 67.7563C576.852 67.637 575.144 67.0403 574.752 65.31C574.668 65.489 574.556 65.668 574.472 65.847C576.628 65.3696 578.784 66.0558 580.94 65.7276C581.472 65.6381 581.248 64.773 580.716 64.8625C578.56 65.1906 576.404 64.5045 574.248 64.9818C574.024 65.0415 573.912 65.31 573.968 65.5188C574.444 67.6668 576.488 68.4723 578.364 68.6215C578.896 68.6812 578.896 67.7861 578.336 67.7563Z" fill="black"/>
<path d="M579.932 64.564C579.596 62.4459 582.648 62.5652 583.796 62.8934C584.328 63.0426 584.552 62.1774 584.02 62.0282C582.144 61.4912 578.672 61.8791 579.12 64.7729C579.204 65.3695 580.016 65.1309 579.932 64.564Z" fill="black"/>
<path d="M581.136 62.5054C581.388 61.4613 581.92 60.5066 582.872 60.0293C583.992 59.4923 585.112 60.0293 586.148 60.5066C586.624 60.7453 587.072 59.9696 586.568 59.731C585.28 59.1045 583.908 58.5078 582.536 59.1939C581.36 59.7608 580.632 60.9541 580.324 62.2668C580.212 62.8336 581.024 63.0722 581.136 62.5054Z" fill="black"/>
<path d="M584.076 58.9255C584.02 58.8658 584.972 58.0305 585.112 57.941C585.504 57.7322 585.952 57.6128 586.4 57.6128C587.492 57.6128 588.472 58.1796 589.34 58.7763C589.788 59.0747 590.208 58.3288 589.76 58.0006C588.36 57.046 586.652 56.3001 585 57.0161C584.3 57.3145 582.62 58.657 583.46 59.5818C583.852 59.9697 584.44 59.3432 584.076 58.9255Z" fill="black"/>
<path d="M592.392 66.4737C592.728 63.9379 592.84 61.4319 592.672 58.8662C592.588 57.4044 592.728 56.2707 593.064 54.8387C593.232 54.0929 593.372 53.3172 593.176 52.5714C592.868 51.557 591.804 50.7217 590.796 51.2587C590.152 51.6167 589.984 52.4222 589.76 53.1084C589.34 54.3912 588.948 55.7039 588.556 56.9867C588.388 57.5237 589.2 57.7624 589.368 57.2254C589.592 56.4795 589.816 55.7337 590.068 55.0177C590.208 54.5702 590.432 53.0785 590.768 52.81C592.168 52.631 592.728 53.0487 592.392 54.1227C592.308 54.4807 592.224 54.8089 592.112 55.1669C591.972 55.7337 591.832 56.2707 591.776 56.8375C591.664 58.2695 591.916 59.7612 591.916 61.223C591.916 62.9235 591.804 64.5942 591.58 66.2649C591.524 66.8019 592.336 67.0405 592.392 66.4737Z" fill="black"/>
<path d="M577.888 68.7112C579.344 68.8306 579.708 70.4416 580.38 71.5156C580.716 72.0824 581.136 72.5896 581.64 73.0072C582.62 73.8426 583.768 74.29 585.028 74.4094C585.56 74.469 585.56 73.574 585.028 73.5144C582.9 73.3056 581.556 71.9929 580.576 70.0836C579.96 68.8902 579.232 67.9356 577.888 67.8461C577.328 67.7864 577.356 68.6814 577.888 68.7112Z" fill="black"/>
<path d="M584.888 74.0213C585.756 77.2135 585.84 80.4952 586.092 83.7768C586.316 86.5513 586.736 89.3258 587.464 91.981C588.892 97.1123 591.356 101.856 594.912 105.674C595.304 106.092 595.892 105.436 595.5 105.048C591.832 101.11 589.34 96.1576 588.024 90.8175C586.624 85.2088 587.212 79.3317 585.7 73.7827C585.532 73.2457 584.72 73.4843 584.888 74.0213Z" fill="black"/>
<path d="M591.58 66.1154C592 71.0975 593.372 75.9604 595.668 80.316C597.908 84.5523 601.352 88.2218 602.136 93.1742C602.22 93.741 603.032 93.5023 602.948 92.9355C602.248 88.4307 599.364 84.9998 597.152 81.2408C594.492 76.6763 592.896 71.4854 592.42 66.1452C592.364 65.5485 591.524 65.5485 591.58 66.1154Z" fill="black"/>
<path d="M593.512 73.0368C597.684 71.6048 601.8 75.1848 603.984 78.6455C606.28 82.2851 607.316 86.7601 607.792 91.086C608.24 95.3223 607.932 99.9465 605.272 103.347C602.808 106.51 598.244 107.763 595.136 104.899C594.716 104.511 594.128 105.167 594.548 105.525C597.488 108.24 601.828 107.852 604.712 105.227C608.24 102.035 609.108 96.8438 608.744 92.16C608.352 87.0585 607.148 81.599 604.236 77.4223C601.8 73.9616 597.544 70.7098 593.316 72.1418C592.784 72.3506 592.98 73.2158 593.512 73.0368Z" fill="black"/>
<path opacity="0.15" d="M591.692 52.8695C590.208 53.4662 590.32 57.5235 590.432 60.4472C590.824 69.1287 591.02 73.4843 592.616 80.167C594.912 89.6838 597.012 92.16 598.16 93.3235C599.812 94.9942 602.976 97.4107 604.32 96.456C606.448 94.9345 603.06 85.8652 602.22 83.6575C599.392 76.1395 598.776 73.6335 596.676 72.8578C595.416 72.4103 594.184 72.5893 593.316 72.8578C592.112 70.1132 591.916 67.9055 591.944 66.384C591.972 65.1012 592.168 65.1012 592.252 63.162C592.42 59.6417 591.832 59.4328 592.14 57.1357C592.448 54.8982 593.26 53.5557 592.672 53.0187C592.476 52.7203 592 52.7502 591.692 52.8695Z" fill="black"/>
<path opacity="0.15" d="M594.1 74.3794C596.088 76.4379 597.46 78.4069 598.384 79.9582C600.652 83.6874 601.604 87.0287 601.94 88.3116C602.416 90.1314 602.64 91.7126 602.78 92.8761C602.304 91.3247 601.408 88.9977 599.84 86.4022C598.58 84.3139 597.768 83.5979 596.704 81.7184C595.836 80.1671 594.744 77.7804 594.1 74.3794Z" fill="black"/>
<path d="M173.175 163.35C174.323 162.455 175.303 162.038 176.647 162.724C177.179 162.992 177.683 163.291 178.271 163.41C179.503 163.619 180.623 162.963 181.715 162.455C182.723 161.978 183.563 161.71 184.627 162.306C185.215 162.634 185.691 163.082 186.363 163.201C187.707 163.47 189.695 162.097 190.759 163.201C191.151 163.589 191.739 162.963 191.347 162.575C190.311 161.501 189.051 162.008 187.763 162.247C186.895 162.396 186.335 162.366 185.551 161.889C185.187 161.65 184.851 161.352 184.431 161.202C183.871 160.994 183.311 160.964 182.723 161.083C181.967 161.262 181.267 161.68 180.539 162.008C179.223 162.605 178.355 162.575 177.011 161.948C175.303 161.113 174.211 161.381 172.671 162.575C172.335 162.903 172.755 163.679 173.175 163.35Z" fill="black"/>
<path d="M181.267 158.726C183.171 156.459 186.419 159.084 188.771 158.547C189.639 158.338 190.199 158.04 191.095 158.368C191.627 158.577 192.075 158.965 192.607 159.174C193.643 159.562 194.623 159.383 195.575 158.905C196.051 158.667 195.631 157.891 195.155 158.13C193.195 159.144 192.327 157.563 190.619 157.264C190.087 157.175 189.667 157.324 189.163 157.503C188.211 157.801 187.483 157.831 186.475 157.593C184.515 157.145 182.219 156.25 180.623 158.13C180.315 158.517 180.903 159.144 181.267 158.726Z" fill="black"/>
<path d="M241.579 36.2307C239.395 34.4706 240.851 30.5326 243.651 31.1889C244.799 31.4574 245.779 32.4419 245.779 33.7546C245.779 35.3059 244.547 36.6782 243.119 36.7677C242.587 36.7976 242.587 37.6926 243.119 37.6627C244.911 37.5732 246.423 36.0517 246.619 34.1424C246.787 32.2927 245.527 30.7414 243.875 30.3536C240.095 29.4287 238.275 34.7092 241.159 37.0362C241.579 37.3644 241.999 36.5887 241.579 36.2307Z" fill="black"/>
<path d="M156.795 131.787C155.395 130.146 156.711 127.222 158.867 127.849C161.471 128.595 160.799 132.503 158.195 132.473C157.663 132.473 157.663 133.368 158.195 133.368C159.763 133.368 161.191 132.115 161.415 130.444C161.639 128.893 160.659 127.55 159.315 127.043C156.263 125.91 154.135 129.997 156.207 132.413C156.571 132.831 157.159 132.204 156.795 131.787Z" fill="black"/>
<path d="M301.191 122.449C300.155 123.254 299.371 124.328 299.035 125.641C298.643 127.192 299.651 129.37 298.671 130.534C298.055 131.28 296.991 131.787 296.711 132.801C296.599 133.159 296.627 133.487 296.739 133.845C296.879 134.352 297.075 134.442 297.075 134.979C297.075 135.874 296.347 136.262 295.647 136.65C295.171 136.918 295.591 137.694 296.067 137.425C296.963 136.918 298.111 136.083 298.027 134.86C297.971 134.084 297.271 133.607 297.663 132.771C297.915 132.264 298.559 131.876 298.923 131.488C299.623 130.802 300.099 130.086 299.987 129.042C299.847 127.908 299.539 127.043 299.819 125.88C300.099 124.776 300.715 123.881 301.583 123.225C302.031 122.896 301.611 122.121 301.191 122.449Z" fill="black"/>
<path d="M305.307 125.432C302.927 125.194 302.647 128.326 302.759 130.146C302.815 131.16 302.871 132.175 302.283 133.01C301.975 133.428 301.527 133.756 301.331 134.263C301.163 134.71 301.275 135.068 301.359 135.546C301.611 137.008 300.855 137.962 299.931 138.917C299.539 139.335 300.127 139.961 300.519 139.543C301.247 138.768 302.087 137.873 302.283 136.739C302.367 136.202 302.171 135.784 302.171 135.277C302.171 134.352 302.703 134.024 303.095 133.368C303.711 132.413 303.683 131.25 303.599 130.146C303.515 128.863 303.431 126.148 305.307 126.327C305.867 126.387 305.839 125.492 305.307 125.432Z" fill="black"/>
<path d="M307.855 15.1087C307.967 13.0502 311.215 13.8259 312.419 13.1397C313.287 12.6325 313.791 11.7077 314.267 10.8425C314.547 10.3354 314.799 9.76856 315.163 9.32106C315.891 8.42606 316.731 8.54539 317.739 8.45589C319.055 8.33656 320.119 7.65039 320.931 6.54656C321.267 6.09906 320.679 5.47256 320.343 5.92006C319.559 6.99406 318.579 7.50122 317.319 7.59072C316.703 7.62055 316.115 7.59072 315.527 7.88905C314.463 8.45589 313.959 9.67905 313.399 10.7232C312.951 11.5287 312.531 12.185 311.691 12.5132C310.879 12.8414 309.955 12.6624 309.115 12.8712C307.995 13.1397 307.127 13.8855 307.043 15.1385C306.987 15.6755 307.827 15.6755 307.855 15.1087Z" fill="black"/>
<path d="M310.319 18.8378C311.159 17.376 312.867 17.018 314.211 16.302C315.415 15.6755 316.031 14.87 316.395 13.4976C316.927 11.3795 318.467 11.648 320.175 11.3795C321.211 11.2005 322.051 10.8425 322.471 9.73863C322.667 9.20162 321.855 8.96296 321.659 9.49996C321.127 10.8425 319.027 10.5143 317.907 10.7828C316.759 11.0215 315.975 11.5883 315.639 12.8115C315.331 13.9153 315.219 14.6015 314.267 15.228C313.679 15.6158 313.007 15.8843 312.363 16.1826C311.243 16.6898 310.207 17.2566 309.563 18.3903C309.311 18.8676 310.039 19.3151 310.319 18.8378Z" fill="black"/>
<path d="M304.607 185.159C303.823 183.607 304.663 181.34 306.539 181.638C307.295 181.758 308.023 182.354 308.023 183.249C308.023 184.114 307.379 184.98 306.539 185.009C306.007 185.039 306.007 185.934 306.539 185.904C309.171 185.785 309.647 181.817 307.183 180.892C304.467 179.908 302.675 183.19 303.879 185.606C304.159 186.113 304.887 185.666 304.607 185.159Z" fill="black"/>
<path d="M423.607 10.007C422.795 9.05238 423.971 7.70988 424.979 8.33638C426.239 9.14187 425.483 10.7827 424.307 11.1109C423.775 11.26 423.999 12.1252 424.531 11.976C426.575 11.439 427.275 8.36622 425.091 7.41155C423.243 6.60605 421.675 9.08221 422.991 10.6335C423.383 11.081 423.971 10.4545 423.607 10.007Z" fill="black"/>
<path d="M135.683 40.4668C134.059 39.5718 135.039 36.8271 136.859 37.394C138.987 38.0503 138.259 40.9739 136.383 41.3916C135.851 41.5109 136.075 42.3761 136.607 42.2568C139.407 41.6004 139.939 37.1851 136.859 36.4691C134.199 35.8426 132.855 39.8999 135.235 41.2126C135.739 41.5109 136.159 40.7353 135.683 40.4668Z" fill="black"/>
<path d="M721.175 162.35C722.323 161.455 723.303 161.038 724.647 161.724C725.179 161.992 725.683 162.291 726.271 162.41C727.503 162.619 728.623 161.963 729.715 161.455C730.723 160.978 731.563 160.71 732.627 161.306C733.215 161.634 733.691 162.082 734.363 162.201C735.707 162.47 737.695 161.097 738.759 162.201C739.151 162.589 739.739 161.963 739.347 161.575C738.311 160.501 737.051 161.008 735.763 161.247C734.895 161.396 734.335 161.366 733.551 160.889C733.187 160.65 732.851 160.352 732.431 160.202C731.871 159.994 731.311 159.964 730.723 160.083C729.967 160.262 729.267 160.68 728.539 161.008C727.223 161.605 726.355 161.575 725.011 160.948C723.303 160.113 722.211 160.381 720.671 161.575C720.335 161.903 720.755 162.679 721.175 162.35Z" fill="black"/>
<path d="M729.267 157.726C731.171 155.459 734.419 158.084 736.771 157.547C737.639 157.338 738.199 157.04 739.095 157.368C739.627 157.577 740.075 157.965 740.607 158.174C741.643 158.562 742.623 158.383 743.575 157.905C744.051 157.667 743.631 156.891 743.155 157.13C741.195 158.144 740.327 156.563 738.619 156.264C738.087 156.175 737.667 156.324 737.163 156.503C736.211 156.801 735.483 156.831 734.475 156.593C732.515 156.145 730.219 155.25 728.623 157.13C728.315 157.517 728.903 158.144 729.267 157.726Z" fill="black"/>
<path d="M789.579 35.2307C787.395 33.4706 788.851 29.5326 791.651 30.1889C792.799 30.4574 793.779 31.4419 793.779 32.7546C793.779 34.3059 792.547 35.6782 791.119 35.7677C790.587 35.7976 790.587 36.6926 791.119 36.6627C792.911 36.5732 794.423 35.0517 794.619 33.1424C794.787 31.2927 793.527 29.7414 791.875 29.3536C788.095 28.4287 786.275 33.7092 789.159 36.0362C789.579 36.3644 789.999 35.5887 789.579 35.2307Z" fill="black"/>
<path d="M704.795 130.787C703.395 129.146 704.711 126.222 706.867 126.849C709.471 127.595 708.799 131.503 706.195 131.473C705.663 131.473 705.663 132.368 706.195 132.368C707.763 132.368 709.191 131.115 709.415 129.444C709.639 127.893 708.659 126.55 707.315 126.043C704.263 124.91 702.135 128.997 704.207 131.413C704.571 131.831 705.159 131.204 704.795 130.787Z" fill="black"/>
<path d="M849.191 121.449C848.155 122.254 847.371 123.328 847.035 124.641C846.643 126.192 847.651 128.37 846.671 129.534C846.055 130.28 844.991 130.787 844.711 131.801C844.599 132.159 844.627 132.487 844.739 132.845C844.879 133.352 845.075 133.442 845.075 133.979C845.075 134.874 844.347 135.262 843.647 135.65C843.171 135.918 843.591 136.694 844.067 136.425C844.963 135.918 846.111 135.083 846.027 133.86C845.971 133.084 845.271 132.607 845.663 131.771C845.915 131.264 846.559 130.876 846.923 130.488C847.623 129.802 848.099 129.086 847.987 128.042C847.847 126.908 847.539 126.043 847.819 124.88C848.099 123.776 848.715 122.881 849.583 122.225C850.031 121.896 849.611 121.121 849.191 121.449Z" fill="black"/>
<path d="M853.307 124.432C850.927 124.194 850.647 127.326 850.759 129.146C850.815 130.16 850.871 131.175 850.283 132.01C849.975 132.428 849.527 132.756 849.331 133.263C849.163 133.71 849.275 134.068 849.359 134.546C849.611 136.008 848.855 136.962 847.931 137.917C847.539 138.335 848.127 138.961 848.519 138.543C849.247 137.768 850.087 136.873 850.283 135.739C850.367 135.202 850.171 134.784 850.171 134.277C850.171 133.352 850.703 133.024 851.095 132.368C851.711 131.413 851.683 130.25 851.599 129.146C851.515 127.863 851.431 125.148 853.307 125.327C853.867 125.387 853.839 124.492 853.307 124.432Z" fill="black"/>
<path d="M855.855 14.1087C855.967 12.0502 859.215 12.8259 860.419 12.1397C861.287 11.6325 861.791 10.7077 862.267 9.84256C862.547 9.33539 862.799 8.76856 863.163 8.32106C863.891 7.42606 864.731 7.54539 865.739 7.45589C867.055 7.33656 868.119 6.65039 868.931 5.54656C869.267 5.09906 868.679 4.47256 868.343 4.92006C867.559 5.99406 866.579 6.50122 865.319 6.59072C864.703 6.62055 864.115 6.59072 863.527 6.88905C862.463 7.45589 861.959 8.67905 861.399 9.72322C860.951 10.5287 860.531 11.185 859.691 11.5132C858.879 11.8414 857.955 11.6624 857.115 11.8712C855.995 12.1397 855.127 12.8855 855.043 14.1385C854.987 14.6755 855.827 14.6755 855.855 14.1087Z" fill="black"/>
<path d="M858.319 17.8378C859.159 16.376 860.867 16.018 862.211 15.302C863.415 14.6755 864.031 13.87 864.395 12.4976C864.927 10.3795 866.467 10.648 868.175 10.3795C869.211 10.2005 870.051 9.84246 870.471 8.73863C870.667 8.20162 869.855 7.96296 869.659 8.49996C869.127 9.84246 867.027 9.51429 865.907 9.78279C864.759 10.0215 863.975 10.5883 863.639 11.8115C863.331 12.9153 863.219 13.6015 862.267 14.228C861.679 14.6158 861.007 14.8843 860.363 15.1826C859.243 15.6898 858.207 16.2566 857.563 17.3903C857.311 17.8676 858.039 18.3151 858.319 17.8378Z" fill="black"/>
<path d="M852.607 184.159C851.823 182.607 852.663 180.34 854.539 180.638C855.295 180.758 856.023 181.354 856.023 182.249C856.023 183.114 855.379 183.98 854.539 184.009C854.007 184.039 854.007 184.934 854.539 184.904C857.171 184.785 857.647 180.817 855.183 179.892C852.467 178.908 850.675 182.19 851.879 184.606C852.159 185.113 852.887 184.666 852.607 184.159Z" fill="black"/>
<path d="M683.683 39.4668C682.059 38.5718 683.039 35.8271 684.859 36.394C686.987 37.0503 686.259 39.9739 684.383 40.3916C683.851 40.5109 684.075 41.3761 684.607 41.2568C687.407 40.6004 687.939 36.1851 684.859 35.4691C682.199 34.8426 680.855 38.8999 683.235 40.2126C683.739 40.5109 684.159 39.7353 683.683 39.4668Z" fill="black"/>
</g>
<defs>
<clipPath id="clip0">
<rect width="953" height="229" fill="white"/>
</clipPath>
</defs>
</svg>
