<svg width="54" height="52" viewBox="0 0 54 52" fill="none" xmlns="http://www.w3.org/2000/svg">
<path fill-rule="evenodd" clip-rule="evenodd" d="M4.89291 17L4.83333 16.839C3.5068 13.2297 2.375 8.29667 2.375 5.33333C2.375 4.05 3.48125 3 4.83333 3C4.83333 3 12.2083 3 12.2083 3C14.9237 3 17.125 5.08934 17.125 7.66667V12.3333C17.125 14.9107 14.9237 17 12.2083 17H10.1508C14.142 26.3585 22.0151 33.8313 31.875 37.6196V35.6667C31.875 33.0893 34.0763 31 36.7917 31H41.7083C44.4237 31 46.625 33.0893 46.625 35.6667V42.6667C46.625 43.7167 45.2729 45 44.1667 45C39.9249 45 35.7115 43.937 31.875 42.6667C19.3019 38.3921 9.33686 28.9338 4.89291 17Z" fill="#7BE495"/>
</svg>
