<svg width="52" height="47" viewBox="0 0 52 47" fill="none" xmlns="http://www.w3.org/2000/svg">
<g clip-path="url(#clip0)">
<path d="M45.09 11.7155L45.0901 11.7156C45.285 11.8917 45.4047 12.14 45.4047 12.3926V42.8691C45.4047 44.8889 43.5725 46.6 41.2344 46.6H10.7656C8.42746 46.6 6.59531 44.8889 6.59531 42.8691V4.13086C6.59531 2.1111 8.42746 0.4 10.7656 0.4H32.0938C32.3954 0.4 32.6926 0.510081 32.9029 0.70015L32.9029 0.700196L45.09 11.7155ZM33.8854 4.40444L33.2172 3.80048V4.70119V9.63867C33.2172 10.6559 34.1187 11.4156 35.1406 11.4156H40.6034H41.6425L40.8716 10.7189L33.8854 4.40444ZM30.9703 2.75391V2.35391H30.5703H10.7656C9.74369 2.35391 8.84219 3.11361 8.84219 4.13086V42.8691C8.84219 43.8864 9.74369 44.6461 10.7656 44.6461H41.2344C42.2563 44.6461 43.1578 43.8864 43.1578 42.8691V13.7695V13.3695H42.7578H35.1406C32.8025 13.3695 30.9703 11.6584 30.9703 9.63867V2.75391Z" fill="#205072" stroke="white" stroke-width="0.8"/>
<path d="M35.1406 22.2148H19.9062C19.0649 22.2148 18.3828 22.8314 18.3828 23.5918C18.3828 24.3522 19.0649 24.9688 19.9062 24.9688H35.1406C35.982 24.9688 36.6641 24.3522 36.6641 23.5918C36.6641 22.8314 35.982 22.2148 35.1406 22.2148Z" fill="#205072"/>
<path d="M35.1406 27.7227H19.9062C19.0649 27.7227 18.3828 28.3392 18.3828 29.0996C18.3828 29.8601 19.0649 30.4766 19.9062 30.4766H35.1406C35.982 30.4766 36.6641 29.8601 36.6641 29.0996C36.6641 28.3392 35.982 27.7227 35.1406 27.7227Z" fill="#205072"/>
<path d="M35.1406 33.2305H19.9062C19.0649 33.2305 18.3828 33.847 18.3828 34.6074C18.3828 35.3679 19.0649 35.9844 19.9062 35.9844H35.1406C35.982 35.9844 36.6641 35.3679 36.6641 34.6074C36.6641 33.847 35.982 33.2305 35.1406 33.2305Z" fill="#205072"/>
<path d="M13.8125 24.9688C14.6539 24.9688 15.3359 24.3523 15.3359 23.5918C15.3359 22.8313 14.6539 22.2148 13.8125 22.2148C12.9711 22.2148 12.2891 22.8313 12.2891 23.5918C12.2891 24.3523 12.9711 24.9688 13.8125 24.9688Z" fill="#205072"/>
<path d="M13.8125 30.4766C14.6539 30.4766 15.3359 29.8601 15.3359 29.0996C15.3359 28.3391 14.6539 27.7227 13.8125 27.7227C12.9711 27.7227 12.2891 28.3391 12.2891 29.0996C12.2891 29.8601 12.9711 30.4766 13.8125 30.4766Z" fill="#205072"/>
<path d="M13.8125 35.9844C14.6539 35.9844 15.3359 35.3679 15.3359 34.6074C15.3359 33.847 14.6539 33.2305 13.8125 33.2305C12.9711 33.2305 12.2891 33.847 12.2891 34.6074C12.2891 35.3679 12.9711 35.9844 13.8125 35.9844Z" fill="#205072"/>
<path d="M14.0111 6L14 13.5" stroke="#205072" stroke-width="3" stroke-miterlimit="10" stroke-linecap="round" stroke-linejoin="round"/>
<path d="M19.6764 6.0188L19.6653 13.5188" stroke="#205072" stroke-width="3" stroke-miterlimit="10" stroke-linecap="round" stroke-linejoin="round"/>
<path d="M14 10L19.1111 10.0076" stroke="#205072" stroke-width="3" stroke-miterlimit="10" stroke-linecap="round" stroke-linejoin="round"/>
</g>
<defs>
<clipPath id="clip0">
<rect width="52" height="47" fill="white"/>
</clipPath>
</defs>
</svg>
