<svg xmlns="http://www.w3.org/2000/svg" viewBox="0 0 228.44 141.95"><defs><style>.cls-1{isolation:isolate;}.cls-2{fill:#616161;}.cls-10,.cls-11,.cls-14,.cls-15,.cls-18,.cls-19,.cls-2,.cls-21,.cls-24,.cls-25,.cls-27,.cls-3,.cls-31,.cls-32,.cls-33,.cls-34,.cls-35,.cls-37,.cls-39,.cls-40,.cls-41,.cls-42,.cls-43,.cls-45,.cls-5{fill-rule:evenodd;}.cls-3{fill:#8c8c8c;}.cls-4{fill:#bdd4e3;}.cls-5,.cls-7{fill:#dcebf5;}.cls-19,.cls-21,.cls-6,.cls-8{fill:#086e96;}.cls-15,.cls-16,.cls-21,.cls-27,.cls-8{opacity:0.5;mix-blend-mode:multiply;}.cls-14,.cls-9{fill:#e8f3fa;}.cls-10,.cls-13{fill:#c1d7e6;}.cls-11,.cls-12{fill:#99b3c4;}.cls-15,.cls-16{fill:#7b96a8;}.cls-17,.cls-35{fill:#094c75;}.cls-18{fill:#faf7f2;}.cls-20{fill:#eaf4f7;}.cls-22{fill:#f2faff;}.cls-23,.cls-24{fill:#d7e7f2;}.cls-25,.cls-26{fill:#edf6fb;}.cls-27{fill:#6e6e6e;}.cls-28,.cls-31{fill:#5e4224;}.cls-29{fill:#87623a;}.cls-30{fill:#d2a677;}.cls-32{fill:#5e8f21;}.cls-33{fill:#71ad28;}.cls-34{fill:#83c236;}.cls-36,.cls-39{fill:#787d7d;}.cls-37{fill:#fed140;}.cls-38{fill:#515252;}.cls-40{fill:#ef1c22;}.cls-41{fill:#fff;}.cls-42{fill:#7499b0;}.cls-43{fill:#57788c;}.cls-44,.cls-45{fill:#043d54;}</style></defs><title>Hospital</title><g class="cls-1"><g id="Camada_2" data-name="Camada 2"><g id="Layer_1" data-name="Layer 1"><path class="cls-2" d="M11,116.69H217.5c6,0,10.94,4.43,10.94,9.84h0c0,5.42-4.92,9.85-10.94,9.85H11C4.93,136.38,0,132,0,126.53H0C0,121.12,4.93,116.69,11,116.69Z"/><path class="cls-3" d="M30.59,123.39H197.85a9.11,9.11,0,0,1,8.87,9.28h0a9.11,9.11,0,0,1-8.87,9.28H30.59a9.11,9.11,0,0,1-8.86-9.28h0A9.11,9.11,0,0,1,30.59,123.39Z"/><rect class="cls-4" x="136.88" y="27.62" width="50.2" height="9.77"/><polygon class="cls-5" points="87.05 35.19 195 35.19 195 44.2 193.94 44.2 193.94 56.27 195 56.27 195 63.97 193.94 63.97 193.94 76.04 195 76.04 195 83.44 193.94 83.44 193.94 95.51 195 95.51 195 122.83 117.48 122.83 117.48 105.94 87.05 105.94 87.05 35.19"/><rect class="cls-6" x="117.31" y="44.2" width="76.63" height="12.07"/><rect class="cls-6" x="117.31" y="63.97" width="76.63" height="12.07"/><rect class="cls-6" x="117.31" y="83.44" width="76.63" height="12.07"/><rect class="cls-7" x="183.09" y="41.63" width="1.39" height="57.77"/><rect class="cls-7" x="172.07" y="41.63" width="1.39" height="57.77"/><rect class="cls-7" x="161.05" y="41.63" width="1.39" height="57.77"/><rect class="cls-7" x="150.03" y="41.63" width="1.39" height="57.77"/><rect class="cls-7" x="139.01" y="41.15" width="1.39" height="58.24"/><rect class="cls-7" x="128" y="40.17" width="1.39" height="59.22"/><rect class="cls-8" x="117.31" y="44.2" width="76.63" height="3.08"/><rect class="cls-8" x="117.31" y="63.97" width="76.63" height="3.08"/><rect class="cls-8" x="117.31" y="83.44" width="76.63" height="3.08"/><rect class="cls-9" x="189.14" y="119.91" width="5.09" height="2.37" rx="0.54"/><path class="cls-10" d="M194.23,117.26h-2.4a.55.55,0,0,0-.55.54v1.29a.55.55,0,0,0,.55.54h2.4Z"/><path class="cls-10" d="M194.23,112h-2.4a.55.55,0,0,0-.55.55v1.28a.55.55,0,0,0,.55.55h2.4Z"/><path class="cls-11" d="M194.23,106.67h-2.4a.55.55,0,0,0-.55.54v1.29a.55.55,0,0,0,.55.54h2.4Z"/><path class="cls-10" d="M194.23,101.37h-2.4a.55.55,0,0,0-.55.55v1.28a.55.55,0,0,0,.55.55h2.4Z"/><path class="cls-10" d="M194.23,96.08h-2.4a.55.55,0,0,0-.55.54v1.29a.55.55,0,0,0,.55.54h2.4Z"/><rect class="cls-12" x="189.14" y="114.61" width="5.09" height="2.37" rx="0.54"/><rect class="cls-13" x="189.14" y="109.32" width="5.09" height="2.37" rx="0.54"/><rect class="cls-9" x="189.14" y="104.02" width="5.09" height="2.37" rx="0.54"/><rect class="cls-12" x="189.14" y="98.73" width="5.09" height="2.37" rx="0.54"/><rect class="cls-13" x="185.68" y="117.25" width="5.09" height="2.37" rx="0.54"/><rect class="cls-9" x="185.68" y="111.96" width="5.09" height="2.37" rx="0.54"/><rect class="cls-13" x="185.68" y="106.66" width="5.09" height="2.37" rx="0.54"/><rect class="cls-13" x="185.68" y="101.37" width="5.09" height="2.37" rx="0.54"/><rect class="cls-13" x="185.68" y="96.07" width="5.09" height="2.37" rx="0.54"/><rect class="cls-13" x="183.37" y="119.9" width="5.09" height="2.37" rx="0.54"/><rect class="cls-13" x="183.37" y="114.6" width="5.09" height="2.37" rx="0.54"/><rect class="cls-13" x="183.37" y="109.31" width="5.09" height="2.37" rx="0.54"/><rect class="cls-13" x="183.37" y="104.01" width="5.09" height="2.37" rx="0.54"/><rect class="cls-13" x="183.37" y="98.72" width="5.09" height="2.37" rx="0.54"/><path class="cls-14" d="M194.23,81.06h-2.4a.53.53,0,0,0-.55.5v1.17a.53.53,0,0,0,.55.49h2.4Z"/><path class="cls-11" d="M194.23,76.23h-2.4a.53.53,0,0,0-.55.5V77.9a.53.53,0,0,0,.55.5h2.4Z"/><path class="cls-10" d="M193.69,78.65h-4a.52.52,0,0,0-.54.49v1.18a.52.52,0,0,0,.54.49h4a.52.52,0,0,0,.54-.49V79.14A.52.52,0,0,0,193.69,78.65Z"/><path class="cls-10" d="M188,78.65h-4a.53.53,0,0,0-.55.49v1.18a.53.53,0,0,0,.55.49h4a.52.52,0,0,0,.54-.49V79.14A.52.52,0,0,0,188,78.65Z"/><path class="cls-10" d="M186.23,81.05h4a.53.53,0,0,1,.55.5v1.17a.53.53,0,0,1-.55.5h-4a.53.53,0,0,1-.55-.5V81.55A.53.53,0,0,1,186.23,81.05Z"/><path class="cls-14" d="M186.23,76.23h4a.53.53,0,0,1,.55.49V77.9a.53.53,0,0,1-.55.49h-4a.53.53,0,0,1-.55-.49V76.72A.53.53,0,0,1,186.23,76.23Z"/><path class="cls-10" d="M194.23,61.45h-2.4a.53.53,0,0,0-.55.49v1.18a.53.53,0,0,0,.55.49h2.4Z"/><path class="cls-10" d="M194.23,56.62h-2.4a.53.53,0,0,0-.55.5v1.17a.53.53,0,0,0,.55.5h2.4Z"/><path class="cls-14" d="M193.69,59h-4a.52.52,0,0,0-.54.49V60.7a.52.52,0,0,0,.54.5h4a.52.52,0,0,0,.54-.5V59.53A.52.52,0,0,0,193.69,59Z"/><path class="cls-10" d="M188,59h-4a.53.53,0,0,0-.55.49V60.7a.53.53,0,0,0,.55.5h4a.53.53,0,0,0,.55-.5V59.53A.53.53,0,0,0,188,59Z"/><path class="cls-11" d="M186.23,61.44h4a.53.53,0,0,1,.55.5v1.17a.53.53,0,0,1-.55.49h-4a.53.53,0,0,1-.55-.49V61.94A.53.53,0,0,1,186.23,61.44Z"/><path class="cls-10" d="M186.23,56.62h4a.53.53,0,0,1,.55.49v1.17a.53.53,0,0,1-.55.5h-4a.53.53,0,0,1-.55-.5V57.11A.53.53,0,0,1,186.23,56.62Z"/><path class="cls-10" d="M194.23,41.15h-2.4a.57.57,0,0,0-.55.57v1.36a.57.57,0,0,0,.55.57h2.4Z"/><path class="cls-14" d="M194.23,35.57h-2.4a.57.57,0,0,0-.55.58V37.5a.57.57,0,0,0,.55.57h2.4Z"/><path class="cls-10" d="M193.69,38.36h-4a.57.57,0,0,0-.54.58v1.35a.56.56,0,0,0,.54.57h4a.55.55,0,0,0,.54-.57V38.94A.56.56,0,0,0,193.69,38.36Z"/><path class="cls-10" d="M187.87,38.36h-4a.56.56,0,0,0-.54.58v1.35a.55.55,0,0,0,.54.57h4a.55.55,0,0,0,.54-.57V38.94A.56.56,0,0,0,187.87,38.36Z"/><path class="cls-11" d="M186.23,41.14h4a.57.57,0,0,1,.55.58v1.35a.56.56,0,0,1-.55.57h-4a.56.56,0,0,1-.55-.57V41.72A.57.57,0,0,1,186.23,41.14Z"/><path class="cls-10" d="M186.23,35.57h4a.56.56,0,0,1,.55.57v1.35a.57.57,0,0,1-.55.58h-4a.57.57,0,0,1-.55-.58V36.14A.56.56,0,0,1,186.23,35.57Z"/><rect class="cls-9" x="162.86" y="116.68" width="5.53" height="2.58" rx="0.59"/><rect class="cls-13" x="162.86" y="110.93" width="5.53" height="2.58" rx="0.59"/><rect class="cls-13" x="162.86" y="105.18" width="5.53" height="2.58" rx="0.59"/><rect class="cls-9" x="162.86" y="99.44" width="5.53" height="2.58" rx="0.59"/><rect class="cls-13" x="159.8" y="113.81" width="5.53" height="2.58" rx="0.59"/><rect class="cls-12" x="165.91" y="113.81" width="5.53" height="2.58" rx="0.59"/><rect class="cls-9" x="159.8" y="108.07" width="5.53" height="2.58" rx="0.59"/><rect class="cls-13" x="165.91" y="108.07" width="5.53" height="2.58" rx="0.59"/><rect class="cls-12" x="159.8" y="102.32" width="5.53" height="2.58" rx="0.59"/><rect class="cls-13" x="165.91" y="102.32" width="5.53" height="2.58" rx="0.59"/><rect class="cls-13" x="159.8" y="96.57" width="5.53" height="2.58" rx="0.59"/><rect class="cls-13" x="165.91" y="96.57" width="5.53" height="2.58" rx="0.59"/><rect class="cls-13" x="159.8" y="119.56" width="5.53" height="2.58" rx="0.59"/><rect class="cls-13" x="165.91" y="119.54" width="5.53" height="2.58" rx="0.59"/><rect class="cls-12" x="153.71" y="119.54" width="5.53" height="2.58" rx="0.59"/><rect class="cls-12" x="153.71" y="113.8" width="5.53" height="2.58" rx="0.59"/><rect class="cls-13" x="153.71" y="108.05" width="5.53" height="2.58" rx="0.59"/><rect class="cls-13" x="153.71" y="102.3" width="5.53" height="2.58" rx="0.59"/><rect class="cls-13" x="150.66" y="116.68" width="5.53" height="2.58" rx="0.59"/><rect class="cls-13" x="156.77" y="116.68" width="5.53" height="2.58" rx="0.59"/><rect class="cls-13" x="150.66" y="110.93" width="5.53" height="2.58" rx="0.59"/><rect class="cls-13" x="156.77" y="110.93" width="5.53" height="2.58" rx="0.59"/><rect class="cls-9" x="150.66" y="105.18" width="5.53" height="2.58" rx="0.59"/><rect class="cls-13" x="156.77" y="105.18" width="5.53" height="2.58" rx="0.59"/><rect class="cls-13" x="147.68" y="102.31" width="5.53" height="2.58" rx="0.59"/><rect class="cls-13" x="169.05" y="99.33" width="5.53" height="2.58" rx="0.59"/><rect class="cls-13" x="168.92" y="116.66" width="5.53" height="2.58" rx="0.59"/><rect class="cls-9" x="147.48" y="119.7" width="5.53" height="2.58" rx="0.59"/><rect class="cls-13" x="150.66" y="99.44" width="5.53" height="2.58" rx="0.59"/><rect class="cls-13" x="156.77" y="99.44" width="5.53" height="2.58" rx="0.59"/><rect class="cls-12" x="153.56" y="96.58" width="5.53" height="2.58" rx="0.59"/><polygon class="cls-15" points="126.4 35.19 136.88 35.19 136.88 27.62 157.77 27.62 194.12 63.97 193.94 63.97 193.94 67.05 193.94 76.04 195 76.04 195 83.44 193.94 83.44 193.94 86.52 193.94 95.51 195 95.51 195 122.83 122.31 122.83 122.04 122.55 126.4 35.19"/><rect class="cls-16" x="130.19" y="35.19" width="4.2" height="34.45"/><rect class="cls-7" x="86.86" width="43.33" height="69.64"/><rect class="cls-6" x="90.2" y="3.78" width="36.65" height="15.55"/><rect class="cls-17" x="97.81" y="25.34" width="21.43" height="21.43"/><path class="cls-18" d="M104.82,31.09a5.88,5.88,0,0,1,1-.08,6,6,0,0,1,1,.08V35h3.33v-3.9a5.81,5.81,0,0,1,1-.08,6,6,0,0,1,1,.08V41a6.48,6.48,0,0,1-2,0v-4.3h-3.33V41a6,6,0,0,1-1,.08,6,6,0,0,1-1-.08Z"/><rect class="cls-7" x="101.28" y="2.33" width="1.39" height="18.99"/><rect class="cls-7" x="114.38" y="2.33" width="1.39" height="18.99"/><polygon class="cls-15" points="58.67 51.97 89.1 21.54 119.53 51.97 58.67 51.97"/><polygon class="cls-19" points="81.38 120.16 33.85 120.16 33.85 88.96 67.98 88.96 67.98 96.4 81.38 96.4 81.38 120.16"/><rect class="cls-20" x="49.68" y="102.5" width="1" height="17.69"/><polygon class="cls-21" points="81.38 112.58 33.85 112.58 33.85 88.96 67.98 88.96 67.98 94.59 81.38 94.59 81.38 112.58"/><rect class="cls-6" x="32.69" y="27.43" width="54.17" height="42.21"/><polygon class="cls-14" points="31.63 51.97 139.57 51.97 139.57 122.83 62.06 122.83 62.06 105.94 31.63 105.94 31.63 95.51 32.69 95.51 32.69 83.44 31.63 83.44 31.63 76.04 32.69 76.04 32.69 63.97 31.63 63.97 31.63 51.97"/><rect class="cls-6" x="32.69" y="63.97" width="76.63" height="12.07"/><rect class="cls-6" x="32.69" y="83.44" width="76.63" height="12.07"/><rect class="cls-20" x="34.78" y="102.5" width="3.52" height="20.32"/><rect class="cls-20" x="42.15" y="26.54" width="1.39" height="72.85"/><rect class="cls-20" x="53.17" y="26.54" width="1.39" height="72.85"/><rect class="cls-20" x="64.19" y="26.54" width="1.39" height="72.85"/><rect class="cls-20" x="75.21" y="26.54" width="1.39" height="72.85"/><rect class="cls-20" x="86.22" y="62.19" width="1.39" height="37.2"/><rect class="cls-20" x="97.24" y="58.3" width="1.39" height="41.09"/><rect class="cls-22" x="30.44" y="21.54" width="58.66" height="5.89"/><rect class="cls-8" x="32.69" y="27.43" width="54.17" height="4.19"/><rect class="cls-8" x="32.69" y="63.97" width="76.63" height="3.08"/><rect class="cls-8" x="32.69" y="83.44" width="76.63" height="3.38"/><rect class="cls-16" x="139.52" y="51.97" width="4.2" height="70.63"/><rect class="cls-23" x="133.58" y="119.58" width="5.36" height="2.5" rx="0.57"/><path class="cls-24" d="M138.93,116.8H136.4a.58.58,0,0,0-.57.57v1.35a.57.57,0,0,0,.57.57h2.53Z"/><path class="cls-24" d="M138.93,111.23H136.4a.57.57,0,0,0-.57.57v1.35a.58.58,0,0,0,.57.57h2.53Z"/><path class="cls-24" d="M138.93,105.65H136.4a.58.58,0,0,0-.57.58v1.35a.58.58,0,0,0,.57.57h2.53Z"/><path class="cls-24" d="M138.93,100.08H136.4a.58.58,0,0,0-.57.57V102a.58.58,0,0,0,.57.57h2.53Z"/><path class="cls-25" d="M138.93,94.51H136.4a.58.58,0,0,0-.57.57v1.35a.58.58,0,0,0,.57.58h2.53Z"/><path class="cls-24" d="M138.93,88.94H136.4a.57.57,0,0,0-.57.57v1.35a.57.57,0,0,0,.57.57h2.53Z"/><path class="cls-11" d="M138.93,83.37H136.4a.57.57,0,0,0-.57.57v1.35a.58.58,0,0,0,.57.57h2.53Z"/><path class="cls-24" d="M138.93,77.79H136.4a.58.58,0,0,0-.57.58v1.35a.58.58,0,0,0,.57.57h2.53Z"/><path class="cls-24" d="M138.93,72.22H136.4a.58.58,0,0,0-.57.57v1.36a.58.58,0,0,0,.57.57h2.53Z"/><path class="cls-24" d="M138.93,66.65H136.4a.58.58,0,0,0-.57.57v1.35a.58.58,0,0,0,.57.58h2.53Z"/><path class="cls-24" d="M138.93,61.08H136.4a.57.57,0,0,0-.57.57V63a.57.57,0,0,0,.57.57h2.53Z"/><path class="cls-11" d="M138.93,55.5H136.4a.58.58,0,0,0-.57.58v1.35a.58.58,0,0,0,.57.57h2.53Z"/><rect class="cls-13" x="133.58" y="114.01" width="5.36" height="2.5" rx="0.57"/><rect class="cls-26" x="133.58" y="108.44" width="5.36" height="2.5" rx="0.57"/><rect class="cls-23" x="133.58" y="102.87" width="5.36" height="2.5" rx="0.57"/><rect class="cls-23" x="133.58" y="97.3" width="5.36" height="2.5" rx="0.57"/><rect class="cls-23" x="133.58" y="91.72" width="5.36" height="2.5" rx="0.57"/><rect class="cls-23" x="133.58" y="86.15" width="5.36" height="2.5" rx="0.57"/><rect class="cls-23" x="133.58" y="80.58" width="5.36" height="2.5" rx="0.57"/><rect class="cls-23" x="133.58" y="75.01" width="5.36" height="2.5" rx="0.57"/><rect class="cls-13" x="133.58" y="69.44" width="5.36" height="2.5" rx="0.57"/><rect class="cls-26" x="133.58" y="63.86" width="5.36" height="2.5" rx="0.57"/><rect class="cls-23" x="133.58" y="58.29" width="5.36" height="2.5" rx="0.57"/><rect class="cls-23" x="133.58" y="52.72" width="5.36" height="2.5" rx="0.57"/><rect class="cls-23" x="129.94" y="116.79" width="5.36" height="2.5" rx="0.57"/><rect class="cls-23" x="129.94" y="111.22" width="5.36" height="2.5" rx="0.57"/><rect class="cls-12" x="129.94" y="105.65" width="5.36" height="2.5" rx="0.57"/><rect class="cls-13" x="129.94" y="100.07" width="5.36" height="2.5" rx="0.57"/><rect class="cls-23" x="129.94" y="94.5" width="5.36" height="2.5" rx="0.57"/><rect class="cls-13" x="129.94" y="88.93" width="5.36" height="2.5" rx="0.57"/><rect class="cls-13" x="129.94" y="83.36" width="5.36" height="2.5" rx="0.57"/><rect class="cls-23" x="129.94" y="77.79" width="5.36" height="2.5" rx="0.57"/><rect class="cls-26" x="129.94" y="72.21" width="5.36" height="2.5" rx="0.57"/><rect class="cls-23" x="129.94" y="66.64" width="5.36" height="2.5" rx="0.57"/><rect class="cls-23" x="129.94" y="61.07" width="5.36" height="2.5" rx="0.57"/><rect class="cls-13" x="129.94" y="55.5" width="5.36" height="2.5" rx="0.57"/><rect class="cls-26" x="127.66" y="114.01" width="5.36" height="2.5" rx="0.57"/><rect class="cls-23" x="127.66" y="108.44" width="5.36" height="2.5" rx="0.57"/><rect class="cls-23" x="127.66" y="102.87" width="5.36" height="2.5" rx="0.57"/><rect class="cls-23" x="127.66" y="97.3" width="5.36" height="2.5" rx="0.57"/><rect class="cls-26" x="127.66" y="91.72" width="5.36" height="2.5" rx="0.57"/><rect class="cls-13" x="127.66" y="86.15" width="5.36" height="2.5" rx="0.57"/><rect class="cls-26" x="127.66" y="80.58" width="5.36" height="2.5" rx="0.57"/><rect class="cls-23" x="127.66" y="75.01" width="5.36" height="2.5" rx="0.57"/><rect class="cls-12" x="127.66" y="69.44" width="5.36" height="2.5" rx="0.57"/><rect class="cls-23" x="127.66" y="63.86" width="5.36" height="2.5" rx="0.57"/><rect class="cls-12" x="127.66" y="58.29" width="5.36" height="2.5" rx="0.57"/><rect class="cls-26" x="127.66" y="52.72" width="5.36" height="2.5" rx="0.57"/><rect class="cls-12" x="127.72" y="119.57" width="5.36" height="2.5" rx="0.57"/><path class="cls-10" d="M32.38,103.15h2.4a.53.53,0,0,1,.55.5v1.17a.53.53,0,0,1-.55.5h-2.4Z"/><path class="cls-10" d="M32.38,98.33h2.4a.53.53,0,0,1,.55.49V100a.53.53,0,0,1-.55.49h-2.4Z"/><path class="cls-10" d="M32.92,100.74h4a.53.53,0,0,1,.55.5v1.17a.53.53,0,0,1-.55.49h-4a.52.52,0,0,1-.54-.49v-1.17A.52.52,0,0,1,32.92,100.74Z"/><path class="cls-10" d="M38.57,100.74h4a.52.52,0,0,1,.54.5v1.17a.52.52,0,0,1-.54.49h-4a.52.52,0,0,1-.54-.49v-1.17A.52.52,0,0,1,38.57,100.74Z"/><path class="cls-10" d="M32.89,95.88h4a.52.52,0,0,1,.54.5v1.17a.52.52,0,0,1-.54.49h-4a.53.53,0,0,1-.55-.49V96.38A.53.53,0,0,1,32.89,95.88Z"/><path class="cls-10" d="M38.44,96h4a.52.52,0,0,1,.54.5v1.17a.52.52,0,0,1-.54.49h-4a.52.52,0,0,1-.54-.49V96.51A.52.52,0,0,1,38.44,96Z"/><path class="cls-11" d="M40.38,103.15h-4a.53.53,0,0,0-.55.49v1.17a.53.53,0,0,0,.55.5h4a.52.52,0,0,0,.54-.5v-1.17A.52.52,0,0,0,40.38,103.15Z"/><path class="cls-10" d="M40.38,98.32h-4a.53.53,0,0,0-.55.5V100a.53.53,0,0,0,.55.49h4a.52.52,0,0,0,.54-.49V98.82A.52.52,0,0,0,40.38,98.32Z"/><path class="cls-10" d="M32.34,81h2.41a.52.52,0,0,1,.54.49v1.17a.52.52,0,0,1-.54.5H32.34Z"/><path class="cls-10" d="M32.34,76.17h2.41a.52.52,0,0,1,.54.49v1.18a.52.52,0,0,1-.54.49H32.34Z"/><path class="cls-10" d="M32.89,78.58h4a.52.52,0,0,1,.54.5v1.17a.52.52,0,0,1-.54.5h-4a.53.53,0,0,1-.55-.5V79.08A.53.53,0,0,1,32.89,78.58Z"/><path class="cls-10" d="M38.54,78.58h4a.52.52,0,0,1,.54.5v1.17a.52.52,0,0,1-.54.5h-4a.52.52,0,0,1-.54-.5V79.08A.52.52,0,0,1,38.54,78.58Z"/><path class="cls-11" d="M40.35,81h-4a.52.52,0,0,0-.54.49v1.18a.52.52,0,0,0,.54.49h4a.52.52,0,0,0,.54-.49V81.48A.52.52,0,0,0,40.35,81Z"/><path class="cls-10" d="M40.35,76.16h-4a.52.52,0,0,0-.54.5v1.17a.52.52,0,0,0,.54.5h4a.52.52,0,0,0,.54-.5V76.66A.52.52,0,0,0,40.35,76.16Z"/><path class="cls-10" d="M32.37,59.22h2.26a.49.49,0,0,1,.51.47v1.1a.49.49,0,0,1-.51.46H32.37Z"/><path class="cls-10" d="M32.37,54.69h2.26a.49.49,0,0,1,.51.47v1.1a.49.49,0,0,1-.51.46H32.37Z"/><path class="cls-10" d="M32.88,57h3.76a.49.49,0,0,1,.51.46v1.1a.49.49,0,0,1-.51.47H32.88a.49.49,0,0,1-.51-.47v-1.1A.49.49,0,0,1,32.88,57Z"/><path class="cls-10" d="M38.19,57H42a.49.49,0,0,1,.51.46v1.1A.49.49,0,0,1,42,59H38.19a.49.49,0,0,1-.51-.47v-1.1A.49.49,0,0,1,38.19,57Z"/><path class="cls-10" d="M32.85,52.4h3.76a.49.49,0,0,1,.51.46V54a.49.49,0,0,1-.51.47H32.85a.49.49,0,0,1-.51-.47v-1.1A.49.49,0,0,1,32.85,52.4Z"/><path class="cls-10" d="M38.06,52.52h3.76a.49.49,0,0,1,.51.47v1.09a.49.49,0,0,1-.51.47H38.06a.49.49,0,0,1-.51-.47V53A.49.49,0,0,1,38.06,52.52Z"/><path class="cls-10" d="M32.88,61.58h3.76a.49.49,0,0,1,.51.47v1.09a.49.49,0,0,1-.51.47H32.88a.49.49,0,0,1-.51-.47V62.05A.49.49,0,0,1,32.88,61.58Z"/><path class="cls-11" d="M39.88,59.21H36.13a.49.49,0,0,0-.51.47v1.1a.48.48,0,0,0,.51.46h3.75a.48.48,0,0,0,.51-.46v-1.1A.49.49,0,0,0,39.88,59.21Z"/><path class="cls-10" d="M39.88,54.69H36.13a.49.49,0,0,0-.51.46v1.1a.49.49,0,0,0,.51.47h3.75a.49.49,0,0,0,.51-.47v-1.1A.49.49,0,0,0,39.88,54.69Z"/><rect class="cls-23" x="99.75" y="116.61" width="5.53" height="2.58" rx="0.59"/><rect class="cls-23" x="99.75" y="110.86" width="5.53" height="2.58" rx="0.59"/><rect class="cls-12" x="99.75" y="105.12" width="5.53" height="2.58" rx="0.59"/><rect class="cls-13" x="99.75" y="99.37" width="5.53" height="2.58" rx="0.59"/><rect class="cls-13" x="96.7" y="113.74" width="5.53" height="2.58" rx="0.59"/><rect class="cls-26" x="102.81" y="113.74" width="5.53" height="2.58" rx="0.59"/><rect class="cls-26" x="96.7" y="108" width="5.53" height="2.58" rx="0.59"/><rect class="cls-23" x="102.81" y="108" width="5.53" height="2.58" rx="0.59"/><rect class="cls-23" x="96.7" y="102.25" width="5.53" height="2.58" rx="0.59"/><rect class="cls-23" x="102.81" y="102.25" width="5.53" height="2.58" rx="0.59"/><rect class="cls-23" x="96.7" y="96.5" width="5.53" height="2.58" rx="0.59"/><rect class="cls-23" x="102.81" y="96.5" width="5.53" height="2.58" rx="0.59"/><rect class="cls-23" x="96.7" y="119.49" width="5.53" height="2.58" rx="0.59"/><rect class="cls-12" x="102.81" y="119.48" width="5.53" height="2.58" rx="0.59"/><rect class="cls-23" x="90.61" y="119.48" width="5.53" height="2.58" rx="0.59"/><rect class="cls-23" x="90.61" y="113.73" width="5.53" height="2.58" rx="0.59"/><rect class="cls-12" x="90.61" y="107.98" width="5.53" height="2.58" rx="0.59"/><rect class="cls-13" x="90.61" y="102.23" width="5.53" height="2.58" rx="0.59"/><rect class="cls-13" x="87.56" y="116.61" width="5.53" height="2.58" rx="0.59"/><rect class="cls-26" x="93.66" y="116.61" width="5.53" height="2.58" rx="0.59"/><rect class="cls-26" x="87.56" y="110.86" width="5.53" height="2.58" rx="0.59"/><rect class="cls-23" x="93.66" y="110.86" width="5.53" height="2.58" rx="0.59"/><rect class="cls-23" x="87.56" y="105.12" width="5.53" height="2.58" rx="0.59"/><rect class="cls-23" x="93.66" y="105.12" width="5.53" height="2.58" rx="0.59"/><rect class="cls-23" x="84.58" y="102.24" width="5.53" height="2.58" rx="0.59"/><rect class="cls-23" x="105.94" y="99.26" width="5.53" height="2.58" rx="0.59"/><rect class="cls-23" x="105.81" y="116.59" width="5.53" height="2.58" rx="0.59"/><rect class="cls-23" x="84.38" y="119.63" width="5.53" height="2.58" rx="0.59"/><rect class="cls-23" x="87.56" y="99.37" width="5.53" height="2.58" rx="0.59"/><rect class="cls-23" x="93.66" y="99.37" width="5.53" height="2.58" rx="0.59"/><rect class="cls-12" x="90.45" y="96.51" width="5.53" height="2.58" rx="0.59"/><rect class="cls-23" x="62.97" y="119.84" width="5.08" height="2.37" rx="0.54"/><path class="cls-24" d="M63,117.2h2.4a.54.54,0,0,1,.54.54V119a.54.54,0,0,1-.54.54H63Z"/><path class="cls-24" d="M63,111.92h2.4a.54.54,0,0,1,.54.54v1.28a.54.54,0,0,1-.54.54H63Z"/><path class="cls-24" d="M63,106.63h2.4a.54.54,0,0,1,.54.54v1.29a.54.54,0,0,1-.54.54H63Z"/><path class="cls-24" d="M63,101.35h2.4a.54.54,0,0,1,.54.54v1.28a.54.54,0,0,1-.54.54H63Z"/><path class="cls-25" d="M63,96.06h2.4a.54.54,0,0,1,.54.54v1.29a.54.54,0,0,1-.54.54H63Z"/><rect class="cls-13" x="62.97" y="114.56" width="5.08" height="2.37" rx="0.54"/><rect class="cls-26" x="62.97" y="109.27" width="5.08" height="2.37" rx="0.54"/><rect class="cls-23" x="62.97" y="103.99" width="5.08" height="2.37" rx="0.54"/><rect class="cls-23" x="62.97" y="98.7" width="5.08" height="2.37" rx="0.54"/><rect class="cls-23" x="66.42" y="117.19" width="5.08" height="2.37" rx="0.54"/><rect class="cls-23" x="66.42" y="111.91" width="5.08" height="2.37" rx="0.54"/><rect class="cls-12" x="66.42" y="106.62" width="5.08" height="2.37" rx="0.54"/><rect class="cls-13" x="66.42" y="101.34" width="5.08" height="2.37" rx="0.54"/><rect class="cls-23" x="66.42" y="96.05" width="5.08" height="2.37" rx="0.54"/><rect class="cls-26" x="68.58" y="114.56" width="5.08" height="2.37" rx="0.54"/><rect class="cls-23" x="68.58" y="109.27" width="5.08" height="2.37" rx="0.54"/><rect class="cls-23" x="68.58" y="103.99" width="5.08" height="2.37" rx="0.54"/><rect class="cls-23" x="68.58" y="98.7" width="5.08" height="2.37" rx="0.54"/><rect class="cls-12" x="68.52" y="119.83" width="5.08" height="2.37" rx="0.54"/><polygon class="cls-27" points="143.82 121.42 164.56 121.11 164.5 116.78 166.26 114.26 176.92 124.93 147.32 124.93 143.82 121.42"/><rect class="cls-28" x="146.72" y="120.56" width="17.24" height="1.94"/><rect class="cls-29" x="144.92" y="119.97" width="1.94" height="4.98"/><rect class="cls-29" x="163.81" y="119.97" width="1.94" height="4.98"/><rect class="cls-29" x="145.22" y="113.8" width="1.88" height="6.17"/><rect class="cls-29" x="163.57" y="113.8" width="1.88" height="6.17"/><rect class="cls-30" x="143.81" y="119.69" width="23.04" height="1.89"/><rect class="cls-30" x="144.42" y="114.16" width="21.83" height="1.97"/><rect class="cls-30" x="144.42" y="117.07" width="21.83" height="1.97"/><path class="cls-31" d="M146.16,117.74a.31.31,0,1,1-.31.31A.31.31,0,0,1,146.16,117.74Z"/><path class="cls-31" d="M164.51,117.74a.31.31,0,1,1-.31.31A.31.31,0,0,1,164.51,117.74Z"/><path class="cls-31" d="M146.16,114.84a.31.31,0,0,1,.31.31.31.31,0,0,1-.62,0A.31.31,0,0,1,146.16,114.84Z"/><path class="cls-31" d="M164.51,114.84a.31.31,0,0,1,.31.31.31.31,0,0,1-.62,0A.31.31,0,0,1,164.51,114.84Z"/><polygon class="cls-27" points="171.25 124.45 179.51 132.97 168.65 132.97 171.25 124.45"/><polygon class="cls-27" points="193.35 124.45 201.61 132.97 190.75 132.97 193.35 124.45"/><polygon class="cls-27" points="182.18 124.45 190.44 132.97 179.58 132.97 182.18 124.45"/><path class="cls-32" d="M178.53,122.79a5.26,5.26,0,0,0-5.07,5.42h10.15A5.26,5.26,0,0,0,178.53,122.79Z"/><path class="cls-33" d="M178.53,122.79c-1.83,0-3.32,2.43-3.32,5.42h6.65C181.86,125.22,180.37,122.79,178.53,122.79Z"/><path class="cls-34" d="M178.53,122.79c-.35,0-.64,2.43-.64,5.42h1.29C179.18,125.22,178.89,122.79,178.53,122.79Z"/><path class="cls-32" d="M189.66,122.73a5.26,5.26,0,0,0-5.07,5.43h10.14A5.26,5.26,0,0,0,189.66,122.73Z"/><path class="cls-33" d="M189.66,122.73c-1.84,0-3.33,2.43-3.33,5.43H193C193,125.16,191.5,122.73,189.66,122.73Z"/><path class="cls-34" d="M189.66,122.73c-.36,0-.64,2.43-.64,5.43h1.28C190.3,125.16,190,122.73,189.66,122.73Z"/><path class="cls-32" d="M167.52,122.68a5.26,5.26,0,0,0-5.07,5.42h10.14A5.26,5.26,0,0,0,167.52,122.68Z"/><path class="cls-33" d="M167.52,122.68c-1.84,0-3.33,2.43-3.33,5.42h6.66C170.85,125.11,169.36,122.68,167.52,122.68Z"/><path class="cls-34" d="M167.52,122.68c-.36,0-.64,2.43-.64,5.42h1.28C168.16,125.11,167.88,122.68,167.52,122.68Z"/><rect class="cls-9" x="161.57" y="127.88" width="33.87" height="5.09"/><path class="cls-10" d="M162,130.57h2.4a.53.53,0,0,1,.55.5v1.17a.53.53,0,0,1-.55.49H162Z"/><path class="cls-10" d="M162.55,128.16h4a.52.52,0,0,1,.54.49v1.18a.52.52,0,0,1-.54.49h-4a.52.52,0,0,1-.54-.49v-1.18A.52.52,0,0,1,162.55,128.16Z"/><path class="cls-10" d="M168.21,128.16h4a.53.53,0,0,1,.55.49v1.18a.53.53,0,0,1-.55.49h-4a.53.53,0,0,1-.55-.49v-1.18A.53.53,0,0,1,168.21,128.16Z"/><path class="cls-11" d="M170,130.56h-4a.52.52,0,0,0-.54.5v1.17a.52.52,0,0,0,.54.5h4a.53.53,0,0,0,.55-.5v-1.17A.53.53,0,0,0,170,130.56Z"/><polygon class="cls-27" points="104.45 110.84 130.46 137.46 54.33 137.46 49.59 132.33 104.45 110.84"/><polygon class="cls-35" points="73.57 119.56 107 119.56 107.34 122.39 73.57 122.39 73.57 119.56"/><rect class="cls-17" x="84.71" y="116.48" width="9.01" height="9.01"/><path class="cls-18" d="M87.66,118.9a3.13,3.13,0,0,1,.42,0,3.42,3.42,0,0,1,.44,0v1.64h1.4V118.9a3,3,0,0,1,.42,0,3.28,3.28,0,0,1,.43,0v4.18l-.42,0a3,3,0,0,1-.43,0v-1.81h-1.4v1.81l-.43,0a3.11,3.11,0,0,1-.43,0Z"/><rect class="cls-36" x="21.61" y="98.78" width="0.82" height="12.79"/><polygon class="cls-37" points="19.99 94.96 21 93.21 23.02 93.21 24.04 94.96 23.02 99.02 21 99.02 19.99 94.96"/><rect class="cls-38" x="20.75" y="98.78" width="2.53" height="0.41"/><rect class="cls-38" x="21.81" y="94.91" width="0.41" height="4.19"/><polygon class="cls-39" points="19.99 94.96 21 93.21 23.02 93.21 24.04 94.96 19.99 94.96"/><rect class="cls-38" x="19.7" y="94.54" width="4.62" height="0.65"/><rect class="cls-38" x="21.28" y="109.33" width="1.46" height="2.24"/><rect class="cls-38" x="20.74" y="111.57" width="2.55" height="8.36"/><rect class="cls-38" x="19.98" y="119.89" width="4.08" height="0.65"/><rect class="cls-36" x="206.02" y="98.78" width="0.81" height="12.79"/><polygon class="cls-37" points="204.41 94.96 205.42 93.21 207.44 93.21 208.45 94.96 207.44 99.02 205.42 99.02 204.41 94.96"/><rect class="cls-38" x="205.16" y="98.78" width="2.53" height="0.41"/><rect class="cls-38" x="206.23" y="94.91" width="0.41" height="4.19"/><polygon class="cls-39" points="204.41 94.96 205.42 93.21 207.44 93.21 208.45 94.96 204.41 94.96"/><rect class="cls-38" x="204.12" y="94.54" width="4.62" height="0.65"/><rect class="cls-38" x="205.7" y="109.33" width="1.46" height="2.24"/><rect class="cls-38" x="205.16" y="111.57" width="2.55" height="8.36"/><rect class="cls-38" x="204.39" y="119.89" width="4.08" height="0.65"/><path class="cls-40" d="M68.05,114.25H65.61c-.4,0-.62.34-.73.73l-.25.86c-.11.38.33.73.73.73H68.3c.4,0,.84-.35.73-.73l-.25-.86C68.67,114.59,68.45,114.25,68.05,114.25Z"/><path class="cls-41" d="M101.78,132.39H64.33a4.89,4.89,0,0,0-9.09,0H49.53a6.77,6.77,0,0,1,0-2.94,5.37,5.37,0,0,1,1.81-3.57,87.16,87.16,0,0,0,7.57-6.7c3.18-3,3.46-3.26,10.26-3.35v-4.54a.73.73,0,0,1,.73-.73h34.06a.73.73,0,0,1,.73.73v20.38a.73.73,0,0,1-.73.72Z"/><path class="cls-24" d="M69.86,132.39H68.27V115.84h.86v15.84A.73.73,0,0,0,69.86,132.39Z"/><path class="cls-24" d="M101.78,132.39H49.53a6.77,6.77,0,0,1,0-2.94c0-.09,0-.19,0-.28h55.12v2.5a.73.73,0,0,1-.73.72Z"/><path class="cls-19" d="M67,117.75a.72.72,0,0,1,.72.72v5.14a.72.72,0,0,1-.72.72l-8.68,0c-1.11,0-1-1-.47-1.85a18.82,18.82,0,0,1,3.59-4.16C62.4,117.55,65.86,117.75,67,117.75Z"/><rect class="cls-6" x="71.47" y="117.78" width="10.78" height="6.58" rx="0.96"/><path class="cls-24" d="M82.19,113.79H71.51a1.31,1.31,0,0,0-1,.4h0a1.35,1.35,0,0,0-.4,1V131a1.35,1.35,0,0,0,.4,1,1.31,1.31,0,0,0,1,.4H82.19A1.37,1.37,0,0,0,83.55,131V115.15a1.32,1.32,0,0,0-.4-1,1.35,1.35,0,0,0-1-.4Zm-10.68.5H82.19a.85.85,0,0,1,.86.86V131a.89.89,0,0,1-.25.61.91.91,0,0,1-.61.25H71.51a.85.85,0,0,1-.85-.86V115.15a.86.86,0,0,1,.25-.61h0A.88.88,0,0,1,71.51,114.29Z"/><path class="cls-40" d="M51.85,125.46h52.8V127H50.33a3.87,3.87,0,0,1,1-1.11Z"/><rect class="cls-17" x="89.06" y="117.97" width="9.01" height="9.01"/><path class="cls-41" d="M94.37,119.3H92.74l-2.25,6.37H92l.4-1.28h2.38l.41,1.28h1.41l-2.26-6.37Zm-1.6,4,.83-2.68.87,2.68Z"/><path class="cls-35" d="M60.73,128.34a4.56,4.56,0,1,0,4.56,4.56A4.56,4.56,0,0,0,60.73,128.34Z"/><path class="cls-42" d="M60.73,130.08a2.82,2.82,0,1,0,2.82,2.82A2.82,2.82,0,0,0,60.73,130.08Z"/><path class="cls-43" d="M60.73,131a1.9,1.9,0,1,0,1.91,1.9A1.9,1.9,0,0,0,60.73,131Z"/><circle class="cls-44" cx="60.73" cy="130.53" r="0.18"/><circle class="cls-44" cx="60.73" cy="135.27" r="0.18"/><path class="cls-45" d="M58.18,132.9a.18.18,0,1,0,.18-.18A.18.18,0,0,0,58.18,132.9Z"/><path class="cls-45" d="M62.93,132.9a.18.18,0,0,0,.18.18.18.18,0,0,0,0-.36A.18.18,0,0,0,62.93,132.9Z"/><circle class="cls-44" cx="59.05" cy="131.22" r="0.18"/><circle class="cls-44" cx="62.41" cy="134.58" r="0.18"/><path class="cls-45" d="M58.93,134.7a.18.18,0,1,0,0-.25A.18.18,0,0,0,58.93,134.7Z"/><circle class="cls-44" cx="62.41" cy="131.22" r="0.18"/><path class="cls-35" d="M90.91,128.34a4.56,4.56,0,1,0,4.56,4.56A4.56,4.56,0,0,0,90.91,128.34Z"/><path class="cls-42" d="M90.91,130.08a2.82,2.82,0,1,0,2.82,2.82A2.82,2.82,0,0,0,90.91,130.08Z"/><path class="cls-43" d="M90.91,131a1.9,1.9,0,1,0,1.9,1.9A1.9,1.9,0,0,0,90.91,131Z"/><path class="cls-45" d="M90.91,130.35a.18.18,0,0,0-.18.18.18.18,0,0,0,.36,0A.18.18,0,0,0,90.91,130.35Z"/><path class="cls-45" d="M90.91,135.1a.18.18,0,0,0-.18.17.18.18,0,0,0,.36,0A.18.18,0,0,0,90.91,135.1Z"/><path class="cls-45" d="M88.36,132.9a.18.18,0,0,0,.18.18.18.18,0,0,0,0-.36A.18.18,0,0,0,88.36,132.9Z"/><path class="cls-45" d="M93.11,132.9a.18.18,0,0,0,.17.18.18.18,0,1,0,0-.36A.18.18,0,0,0,93.11,132.9Z"/><path class="cls-45" d="M89.11,131.1a.18.18,0,1,0,.25,0A.18.18,0,0,0,89.11,131.1Z"/><circle class="cls-44" cx="92.59" cy="134.58" r="0.18"/><circle class="cls-44" cx="89.23" cy="134.58" r="0.18"/><circle class="cls-44" cx="92.59" cy="131.22" r="0.18"/><path class="cls-21" d="M67,117.75a.72.72,0,0,1,.72.72v5.14a.72.72,0,0,1-.72.72h0a.69.69,0,0,0,.07-.29V118.9a.72.72,0,0,0-.72-.72c-1,0-3.72-.15-5,.32l.17-.15C62.4,117.55,65.86,117.75,67,117.75Z"/><path class="cls-21" d="M81.28,117.78H72.42a1,1,0,0,0-.8.44h9a1,1,0,0,1,1,1v4.66a1,1,0,0,1-.16.53,1,1,0,0,0,.85-1v-4.67A1,1,0,0,0,81.28,117.78Z"/></g></g></g></svg>