<svg width="928" height="240" viewBox="0 0 928 240" fill="none" xmlns="http://www.w3.org/2000/svg">
<path d="M628.413 45.046C630.4 45.046 632.01 43.5733 632.01 41.7565C632.01 39.9398 630.4 38.467 628.413 38.467C626.427 38.467 624.816 39.9398 624.816 41.7565C624.816 43.5733 626.427 45.046 628.413 45.046Z" fill="#7BE495"/>
<path d="M575.653 112.115C573.585 111.728 570.199 110.761 570.035 108.417C569.94 106.977 571.257 105.923 572.644 105.536C574.313 105.042 576.077 105.493 577.699 105.923C580.661 106.719 583.647 107.364 586.75 107.471C589.642 107.579 592.51 107.192 595.308 106.504C598.317 105.773 601.255 104.784 604.241 104.01C607.392 103.193 610.612 102.763 613.904 102.72C620.181 102.634 626.387 103.666 632.641 103.902C635.768 104.01 638.848 103.859 641.927 103.429C645.266 102.956 648.675 102.247 652.084 102.612C654.529 102.87 658.455 104.375 657.655 107.256C656.95 109.772 653.047 111.191 650.649 111.9C638.612 115.469 626.199 109.535 613.998 111.105C606.968 112.008 600.339 114.717 593.239 115.233C589.994 115.469 586.656 115.276 583.576 114.222C580.755 113.233 578.216 111.083 574.995 111.599C574.548 111.664 574.736 112.287 575.183 112.223C577.111 111.922 578.804 112.76 580.426 113.577C581.742 114.222 583.059 114.824 584.493 115.211C587.432 116.028 590.582 116.136 593.638 115.878C600.362 115.297 606.686 112.868 613.339 111.879C620.675 110.804 627.892 112.352 635.133 113.233C641.034 113.943 647.358 114.115 652.906 111.857C655.022 110.997 657.843 109.621 658.384 107.342C658.878 105.3 657.162 103.666 655.304 102.827C652.554 101.602 649.239 101.838 646.324 102.204C642.774 102.634 639.318 103.322 635.721 103.365C628.715 103.472 621.803 102.161 614.821 102.139C611.482 102.139 608.167 102.483 604.923 103.257C601.702 104.031 598.575 105.106 595.378 105.902C591.428 106.869 587.455 107.17 583.412 106.59C581.39 106.289 579.485 105.773 577.534 105.257C576.077 104.87 574.501 104.547 572.973 104.848C570.693 105.3 568.624 107.278 569.635 109.492C570.552 111.513 573.349 112.395 575.512 112.803C575.888 112.825 576.077 112.201 575.653 112.115Z" fill="black"/>
<path d="M203.74 135.558C236.713 131.258 271.884 132.956 302.972 140.374C318.241 144.007 332.569 148.737 347.563 152.672C362.676 156.628 378.455 159.358 395.099 160.584C414.136 161.981 433.41 161.745 452.487 161.057C453.232 161.035 453.232 160.39 452.487 160.412C435.254 161.035 417.865 161.293 400.673 160.304C383.244 159.294 366.601 156.8 350.704 152.779C335.591 148.931 321.303 144.201 306.112 140.46C291.196 136.719 275.377 134.246 259.087 133.193C240.521 131.967 221.601 132.569 203.426 134.934C202.681 135.02 202.995 135.644 203.74 135.558Z" fill="black"/>
<path d="M281.296 195.165C297.635 188.5 316.184 189.36 333.323 192.671C351.449 196.175 368.893 202.281 387.184 205.119C397.316 206.688 407.661 207.247 417.864 205.785C418.31 205.721 418.122 205.097 417.676 205.162C398.727 207.849 379.778 203.549 361.652 198.863C344.302 194.369 326.74 189.381 308.496 189.51C299.045 189.575 289.618 191.08 280.943 194.606C280.52 194.778 280.872 195.337 281.296 195.165Z" fill="black"/>
<path d="M372.796 200.712C394.942 201.12 416.383 195.509 438.035 192.176C444.359 191.209 450.73 190.435 457.149 190.048C457.595 190.026 457.595 189.381 457.149 189.403C434.979 190.736 413.608 196.799 391.603 199.164C385.373 199.83 379.096 200.196 372.819 200.088C372.325 200.067 372.325 200.712 372.796 200.712Z" fill="black"/>
<path d="M476.309 193.488C484.185 191.94 492.343 191.682 500.313 192.8C507.648 193.832 514.677 196.046 521.612 198.411C528.454 200.733 535.248 203.206 542.348 204.861C549.683 206.56 557.136 206.99 564.706 206.99C573.639 206.99 582.644 206.667 591.413 208.473C591.86 208.559 592.048 207.936 591.601 207.85C576.108 204.668 560.051 207.893 544.558 204.668C530.099 201.658 516.887 194.885 502.264 192.456C493.612 191.015 484.726 191.187 476.145 192.864C475.674 192.95 475.862 193.574 476.309 193.488Z" fill="black"/>
<path d="M347.899 110.82C345.877 110.261 341.904 108.734 343.385 106.154C344.443 104.305 347.593 104.155 349.544 104.219C356.127 104.391 362.71 104.908 369.293 104.413C375.476 103.94 381.377 102.328 387.395 101.038C393.508 99.7045 399.973 98.737 406.132 100.371C408.836 101.081 411.352 102.263 414.008 103.08C415.278 103.467 416.594 103.768 417.934 103.897C419.533 104.047 421.132 103.833 422.707 103.768C424.329 103.704 425.998 103.747 427.385 104.628C428.655 105.424 429.713 106.928 428.89 108.326C427.714 110.347 424.282 109.788 422.307 109.401C416.453 108.283 410.552 107.939 404.604 108.67C401.454 109.057 398.374 109.766 395.365 110.648C392.121 111.594 388.97 112.432 385.514 112.002C382.293 111.594 379.214 110.648 375.946 110.54C372.678 110.411 369.434 110.798 366.213 111.185C359.959 111.959 353.282 112.948 347.429 110.175C347.029 109.981 346.676 110.54 347.076 110.734C352.554 113.335 358.737 112.733 364.661 112.024C367.764 111.637 370.891 111.228 374.042 111.164C377.497 111.099 380.718 111.83 384.08 112.432C387.513 113.034 390.616 112.712 393.954 111.766C397.269 110.82 400.537 109.895 403.969 109.422C407.519 108.928 411.116 108.799 414.69 109.035C417.864 109.229 420.896 110.003 424.023 110.325C425.881 110.519 428.255 110.454 429.407 108.863C430.724 107.036 429.313 104.907 427.503 103.897C424.752 102.371 421.343 103.446 418.357 103.274C415.066 103.08 412.033 101.683 409.001 100.608C402.7 98.3715 396.258 98.651 389.746 99.9195C382.858 101.253 376.157 103.295 369.105 103.811C365.037 104.112 360.923 104.047 356.856 103.897C354.74 103.811 352.601 103.725 350.485 103.639C349.168 103.596 347.875 103.575 346.582 103.811C344.584 104.177 342.303 105.252 342.444 107.423C342.609 109.809 345.618 110.906 347.734 111.486C348.134 111.572 348.322 110.949 347.899 110.82Z" fill="black"/>
<path d="M521.4 31.5066C519.379 31.2486 516.064 30.5821 515.476 28.4751C514.63 25.5511 519.191 24.6266 521.4 24.2611C527.866 23.2506 534.495 24.1751 541.008 24.1751C553.914 24.1536 566.633 21.9176 579.47 21.0791C585.888 20.6491 592.353 20.5846 598.748 21.3371C600.205 21.5091 601.733 21.6381 603.144 22.0251C603.732 22.1756 604.39 22.4336 604.837 22.8206C605.918 23.7881 604.86 24.6696 603.873 25.1426C601.334 26.3681 598.442 26.8626 595.597 26.9701C589.908 27.2066 584.242 26.1316 578.553 26.3251C575.896 26.4111 573.286 26.8196 570.771 27.6581C567.832 28.6471 565.105 30.0446 562.143 30.9691C558.71 32.0441 555.09 32.5816 551.446 32.5816C547.755 32.5816 544.111 32.0656 540.467 31.6786C533.085 30.9046 525.679 30.9261 518.321 31.8291C517.874 31.8936 517.874 32.5386 518.321 32.4741C525.515 31.5926 532.803 31.5281 540.02 32.2806C543.594 32.6461 547.167 33.1621 550.788 33.2266C554.126 33.2911 557.488 32.9041 560.709 32.0656C564 31.2056 567.009 29.7221 570.183 28.5611C573.263 27.4431 576.437 26.9486 579.728 26.9486C585.794 26.9056 591.883 28.1526 597.948 27.4216C599.429 27.2496 600.863 26.9486 602.274 26.4756C603.355 26.1101 604.813 25.6586 605.589 24.8201C607.046 23.2076 604.931 21.7886 603.355 21.3801C600.252 20.5416 596.749 20.3911 593.528 20.2191C590.025 20.0256 586.522 20.0471 583.02 20.1976C568.843 20.8211 554.831 23.5301 540.608 23.4871C536.564 23.4871 532.521 23.1431 528.477 23.1216C525.044 23.1001 521.118 23.1646 517.898 24.3901C515.876 25.1641 513.901 26.9701 515.029 29.0986C516.087 31.0981 519.073 31.7861 521.236 32.0656C521.659 32.1946 521.847 31.5711 521.4 31.5066Z" fill="black"/>
<path d="M294.038 60.854C313.645 53.071 335.133 60.338 353.212 68.1425C362.428 72.12 371.503 76.377 381.118 79.516C390.545 82.5905 400.349 84.719 410.294 85.9445C430.253 88.417 450.683 87.3205 470.314 83.3C490.885 79.086 510.375 71.432 530.781 66.6375C552.01 61.6495 574.204 60.5745 595.856 63.778C598.489 64.165 601.099 64.6165 603.708 65.1325C604.155 65.2185 604.343 64.595 603.896 64.509C582.879 60.424 561.038 60.2305 539.973 64.0575C518.909 67.8845 499.09 75.7105 478.425 80.806C458.371 85.751 437.424 87.7505 416.712 85.966C406.415 85.0845 396.211 83.257 386.337 80.419C376.134 77.495 366.566 73.238 356.95 69.024C339.576 61.3915 319.969 53.6515 300.315 58.188C298.035 58.704 295.848 59.4135 293.685 60.2735C293.286 60.467 293.638 61.026 294.038 60.854Z" fill="black"/>
<path d="M374.488 53.157C397.457 64.8745 424.799 65.756 450.284 62.488C479.13 58.79 506.919 50.0825 535.812 46.6855C551.893 44.7935 568.303 44.557 584.219 47.782C584.665 47.868 584.853 47.2445 584.407 47.1585C556.266 41.4825 527.396 46.492 499.842 52.3615C472.688 58.145 445.229 64.896 417.088 63.2405C402.394 62.3805 387.771 59.177 374.841 52.598C374.465 52.383 374.112 52.942 374.488 53.157Z" fill="black"/>
<path d="M506.213 143.328C504.145 142.941 500.759 141.974 500.595 139.63C500.501 138.19 501.817 137.136 503.204 136.749C504.873 136.255 506.637 136.706 508.259 137.136C511.221 137.932 514.207 138.577 517.31 138.684C520.202 138.792 523.07 138.405 525.868 137.717C528.877 136.986 531.816 135.997 534.801 135.223C537.952 134.406 541.172 133.976 544.464 133.933C550.741 133.847 556.947 134.879 563.201 135.115C566.328 135.223 569.408 135.072 572.487 134.642C575.826 134.169 579.235 133.46 582.644 133.825C585.089 134.083 589.015 135.588 588.215 138.469C587.51 140.985 583.608 142.404 581.21 143.113C569.173 146.682 556.759 140.748 544.558 142.318C537.528 143.221 530.899 145.93 523.799 146.446C520.554 146.682 517.216 146.489 514.136 145.435C511.315 144.446 508.776 142.296 505.555 142.812C505.108 142.877 505.297 143.5 505.743 143.436C507.671 143.135 509.364 143.973 510.986 144.79C512.302 145.435 513.619 146.037 515.053 146.424C517.992 147.241 521.142 147.349 524.198 147.091C530.922 146.51 537.246 144.081 543.9 143.092C551.235 142.017 558.452 143.565 565.693 144.446C571.594 145.156 577.918 145.328 583.466 143.07C585.582 142.21 588.404 140.834 588.944 138.555C589.438 136.513 587.722 134.879 585.864 134.04C583.114 132.815 579.799 133.051 576.884 133.417C573.334 133.847 569.878 134.535 566.281 134.578C559.275 134.685 552.363 133.374 545.381 133.352C542.042 133.352 538.727 133.696 535.483 134.47C532.262 135.244 529.135 136.319 525.938 137.115C521.988 138.082 518.015 138.383 513.972 137.803C511.95 137.502 510.046 136.986 508.094 136.47C506.637 136.083 505.061 135.76 503.533 136.061C501.253 136.513 499.184 138.491 500.195 140.705C501.112 142.726 503.909 143.608 506.072 144.016C506.449 144.038 506.637 143.414 506.213 143.328Z" fill="black"/>
<path d="M444.443 232C453.236 230.065 461.841 227.421 470.14 224.131C474.442 222.411 478.65 220.455 483.235 219.423C487.631 218.413 492.192 218.112 496.729 218.219C501.972 218.327 507.168 218.972 512.34 219.724C512.786 219.789 512.974 219.165 512.528 219.1C503.712 217.832 494.637 216.8 485.774 218.262C481.213 219.014 477.028 220.605 472.843 222.347C468.447 224.174 464.004 225.83 459.443 227.292C454.459 228.883 449.404 230.259 444.255 231.377C443.809 231.463 443.997 232.086 444.443 232Z" fill="black"/>
<path d="M499.997 218.455C503.947 218.369 507.849 217.853 511.658 216.843C515.537 215.832 519.369 214.413 523.483 214.779C525.576 214.951 527.621 215.488 529.643 215.961C531.759 216.456 533.851 216.95 535.967 217.445C540.034 218.391 544.078 219.337 548.145 220.283C548.592 220.39 548.78 219.767 548.333 219.659C544.125 218.67 539.916 217.703 535.708 216.714C531.853 215.811 527.903 214.607 523.953 214.177C520.074 213.768 516.407 214.865 512.739 215.897C508.578 217.058 504.346 217.724 500.02 217.832C499.55 217.81 499.55 218.455 499.997 218.455Z" fill="black"/>
<path d="M541.163 221.788C550.402 219.917 560.111 218.305 569.492 220.283C574.147 221.272 578.52 223.164 582.869 224.905C587.43 226.754 592.014 228.582 596.575 230.431C596.998 230.603 597.351 230.044 596.928 229.872C589.781 226.991 582.704 223.873 575.416 221.315C568.363 218.842 561.028 218.348 553.552 219.122C549.32 219.573 545.112 220.326 540.951 221.186C540.528 221.25 540.716 221.874 541.163 221.788Z" fill="black"/>
<path d="M457.632 239.461C460.054 239.074 462.499 238.687 464.92 238.3C467.342 237.913 469.787 237.418 472.232 237.182C474.489 236.967 476.793 237.332 479.026 237.526C481.495 237.762 483.987 237.977 486.455 238.214C486.902 238.257 486.902 237.612 486.455 237.569C483.987 237.332 481.495 237.117 479.026 236.881C476.628 236.666 474.207 236.3 471.785 236.58C466.989 237.117 462.217 238.085 457.444 238.837C456.998 238.923 457.186 239.547 457.632 239.461Z" fill="black"/>
<path d="M411.528 137.235C413.138 137.235 414.443 136.041 414.443 134.569C414.443 133.096 413.138 131.903 411.528 131.903C409.918 131.903 408.613 133.096 408.613 134.569C408.613 136.041 409.918 137.235 411.528 137.235Z" fill="black"/>
<path d="M419.404 143.083C420.248 143.083 420.932 142.457 420.932 141.685C420.932 140.913 420.248 140.288 419.404 140.288C418.56 140.288 417.875 140.913 417.875 141.685C417.875 142.457 418.56 143.083 419.404 143.083Z" fill="black"/>
<path d="M583.361 6.579C585.347 6.579 586.958 5.10624 586.958 3.2895C586.958 1.47276 585.347 0 583.361 0C581.374 0 579.764 1.47276 579.764 3.2895C579.764 5.10624 581.374 6.579 583.361 6.579Z" fill="#7BE495"/>
<path d="M591.73 10.2986C592.859 10.2986 593.775 9.46117 593.775 8.42812C593.775 7.39507 592.859 6.55762 591.73 6.55762C590.6 6.55762 589.685 7.39507 589.685 8.42812C589.685 9.46117 590.6 10.2986 591.73 10.2986Z" fill="#7BE495"/>
<path d="M590.366 9.52455C592.249 9.52455 593.775 8.1288 593.775 6.40705C593.775 4.6853 592.249 3.28955 590.366 3.28955C588.484 3.28955 586.958 4.6853 586.958 6.40705C586.958 8.1288 588.484 9.52455 590.366 9.52455Z" fill="black"/>
<path d="M582.208 169.958C584.753 169.958 586.816 168.071 586.816 165.744C586.816 163.416 584.753 161.53 582.208 161.53C579.664 161.53 577.601 163.416 577.601 165.744C577.601 168.071 579.664 169.958 582.208 169.958Z" fill="#7BE495"/>
<path d="M461.416 192.446C463.402 192.446 465.013 190.974 465.013 189.157C465.013 187.34 463.402 185.867 461.416 185.867C459.429 185.867 457.819 187.34 457.819 189.157C457.819 190.974 459.429 192.446 461.416 192.446Z" fill="#7BE495"/>
<path d="M458.917 141.518C458.423 141.325 458.988 140.529 459.246 140.422C459.552 140.293 460.163 140.465 460.492 140.551C461.009 140.701 461.456 140.959 461.973 141.088C462.538 141.239 463.219 141.282 463.76 141.045C465.641 140.164 463.407 137.197 466.158 137.197C467.663 137.197 468.932 139.239 470.178 137.713C470.625 137.175 470.813 136.487 471.048 135.842C471.236 135.283 471.401 134.703 471.824 134.251C472.318 133.735 473.822 133.219 473.987 134.337C474.034 134.746 474.763 134.746 474.692 134.337C474.575 133.563 473.963 133.047 473.093 133.004C472.059 132.94 471.307 133.649 470.884 134.423C470.578 134.961 470.437 135.563 470.225 136.143C470.084 136.552 469.896 137.261 469.496 137.519C469.073 137.777 468.744 137.498 468.391 137.304C467.475 136.745 466.37 136.315 465.265 136.681C464.254 137.025 463.854 137.82 463.901 138.766C463.901 139.046 463.995 139.39 463.972 139.669C463.807 140.658 463.078 140.701 462.326 140.551C461.574 140.4 460.939 139.97 460.163 139.841C459.34 139.691 458.517 139.884 458.141 140.637C457.836 141.282 458.024 141.927 458.729 142.185C459.152 142.292 459.34 141.669 458.917 141.518Z" fill="black"/>
<path d="M475.946 147.072C475.594 146.577 475.594 145.954 475.97 145.459C476.51 144.75 477.263 144.857 478.086 144.965C478.697 145.051 479.449 145.158 479.896 144.664C480.201 144.341 480.154 143.954 480.272 143.589C480.437 143.051 480.813 142.578 481.306 142.256C482.341 141.568 483.798 141.46 484.833 142.191C485.091 142.363 485.397 142.256 485.444 141.955C485.726 139.869 487.983 138.321 490.24 138.687C490.687 138.751 490.875 138.128 490.428 138.063C487.678 137.633 485.068 139.439 484.739 141.955C484.95 141.869 485.138 141.804 485.35 141.718C484.386 141.03 483.164 140.858 482.012 141.224C480.695 141.632 480.084 142.428 479.59 143.546C479.355 144.105 479.073 144.449 478.391 144.363C478.015 144.32 477.662 144.234 477.286 144.212C476.746 144.191 476.275 144.32 475.852 144.642C474.959 145.33 474.724 146.513 475.358 147.416C475.594 147.76 476.205 147.437 475.946 147.072Z" fill="black"/>
<path d="M511.397 13.9319C510.998 13.5879 511.115 13.3729 511.726 13.2654C511.985 12.9429 512.267 12.8784 512.573 13.0934C512.996 13.1794 513.278 13.5234 513.584 13.7814C513.96 14.0824 514.289 14.4264 514.712 14.6629C515.3 14.9639 516.029 15.0929 516.64 14.8134C517.392 14.4694 517.416 13.7814 517.674 13.1364C518.38 11.4164 520.778 11.2444 521.906 12.7064C522.047 12.8784 522.4 12.9429 522.517 12.7064C522.964 11.7389 523.528 10.6424 524.539 10.0619C525.55 9.48143 527.243 9.54593 527.69 10.7499C527.831 11.1369 528.512 10.9649 528.371 10.5779C527.925 9.41693 526.632 8.90093 525.339 9.09443C523.552 9.37393 522.564 11.0079 521.906 12.3839C522.118 12.3839 522.306 12.3839 522.517 12.3839C521.695 11.3089 520.284 10.7284 518.873 11.2014C518.286 11.3949 517.745 11.7819 517.392 12.2764C517.204 12.5344 517.087 12.8139 516.969 13.1149C516.899 13.3084 516.899 13.5449 516.781 13.7169C516.475 14.1899 515.629 14.3834 515.088 14.1039C513.936 13.5234 512.808 11.6744 511.209 12.4269C510.316 12.8354 510.198 13.9964 511.045 14.4909C511.444 14.7059 511.797 14.1469 511.397 13.9319Z" fill="#7BE495"/>
<path d="M526.49 13.76C526.326 11.61 529.335 12.3195 530.534 12.857C531.145 13.1365 531.898 13.6525 532.556 13.1795C532.768 13.029 532.862 12.814 532.956 12.599C533.308 11.8895 533.543 11.3735 534.484 11.1155C535.941 10.7285 537.352 11.567 538.527 12.255C538.904 12.47 539.256 11.911 538.88 11.696C537.634 10.9865 536.223 10.191 534.695 10.4275C534.202 10.492 533.708 10.664 533.308 10.9435C532.697 11.352 532.579 12.0615 531.968 12.4055C531.38 12.728 531.145 12.4055 530.558 12.1475C530.252 12.0185 529.946 11.8895 529.617 11.782C529.006 11.5885 528.348 11.5025 527.713 11.6315C526.608 11.868 525.715 12.685 525.785 13.76C525.809 14.1685 526.514 14.1685 526.49 13.76Z" fill="#7BE495"/>
<path d="M594.528 102.813C592.976 99.6956 598.854 98.3196 599.253 101.588C599.394 102.684 598.736 103.845 597.514 104.146C596.15 104.469 594.693 103.63 594.316 102.426C594.199 102.018 593.517 102.19 593.635 102.598C594.105 104.146 595.962 105.178 597.702 104.77C599.418 104.361 600.264 102.62 599.865 101.115C599.441 99.5236 597.631 98.7496 595.962 99.1581C594.011 99.6311 593.094 101.502 593.917 103.179C594.105 103.523 594.716 103.179 594.528 102.813Z" fill="#7BE495"/>
<path d="M598.9 105.286C597.631 105.178 597.161 103.63 598.031 102.856C598.759 102.19 600.005 102.233 600.781 102.792C601.58 103.372 602.356 105.071 601.463 105.888C600.287 106.963 598.853 105.221 598.289 104.447C598.031 104.103 597.419 104.426 597.678 104.77C598.501 105.931 600.381 107.758 601.957 106.339C603.203 105.221 602.309 102.964 601.087 102.168C599.841 101.351 597.795 101.631 597.09 102.964C596.385 104.254 597.419 105.802 598.924 105.931C599.347 105.974 599.347 105.329 598.9 105.286Z" fill="#7BE495"/>
<path d="M385.338 78.26C386.278 78.217 386.772 77.6365 387.43 77.099C388.982 75.8305 390.769 77.0345 391.756 78.2815C392.697 79.464 394.06 80.3025 395.259 78.8835C395.823 78.217 396.105 77.228 396.881 76.755C398.456 75.7875 399.797 77.701 400.784 78.5395C401.912 79.4855 404.24 79.9155 404.757 78.1525C404.875 77.744 404.193 77.572 404.075 77.9805C403.817 78.905 402.594 78.8835 401.865 78.4965C401.301 78.1955 400.901 77.7225 400.455 77.314C399.797 76.669 399.068 76.0455 398.08 75.8735C396.458 75.6155 395.729 76.9485 395.001 78.0235C394.812 78.3245 394.577 78.733 394.225 78.905C393.378 79.3135 392.767 78.4965 392.32 77.959C391.756 77.228 391.121 76.6045 390.205 76.2175C389.452 75.895 388.559 75.7875 387.783 76.0885C386.89 76.4325 386.325 77.5935 385.315 77.6365C384.891 77.6365 384.891 78.2815 385.338 78.26Z" fill="#7BE495"/>
<path d="M401.771 73.8309C402.759 74.9059 404.522 76.3464 406.074 75.1639C406.45 74.8629 406.661 74.4329 407.061 74.1319C407.649 73.7234 408.425 73.6374 409.106 73.8309C410.588 74.1964 411.457 75.4864 412.233 76.5829C412.374 76.7764 412.727 76.8194 412.845 76.5829C413.855 74.5619 416.559 74.0674 418.675 74.8414C419.098 74.9919 419.286 74.3684 418.863 74.2179C416.489 73.3364 413.362 73.9814 412.233 76.2389C412.445 76.2389 412.633 76.2389 412.845 76.2389C411.787 74.7339 410.447 73.0139 408.237 73.0784C407.461 73.0999 406.756 73.4009 406.238 73.9169C405.627 74.5619 405.11 75.0779 404.099 74.7984C403.323 74.5834 402.759 73.9169 402.242 73.3579C401.983 73.0569 401.489 73.5084 401.771 73.8309Z" fill="#7BE495"/>
<path d="M444.112 96.3201C443.807 95.7611 443.454 95.1806 443.172 94.6001C442.866 93.9981 443.007 93.7616 443.407 93.2456C443.924 92.5791 444.724 91.9771 445.64 92.4286C446.299 92.7511 446.722 93.4821 446.91 94.1056C447.239 95.1591 446.957 96.6641 445.617 97.0081C444.512 97.2876 443.078 96.6641 443.125 95.5031C443.125 95.0946 442.42 95.0946 442.42 95.5031C442.373 96.9436 443.948 97.8466 445.405 97.6961C447.192 97.5026 447.944 95.7826 447.686 94.3206C447.427 92.9016 445.993 91.0956 444.206 91.7621C443.337 92.0846 442.678 92.9231 442.279 93.6756C442.043 94.1271 442.091 94.1486 442.326 94.6001C442.702 95.2881 443.078 95.9761 443.454 96.6426C443.713 97.0081 444.324 96.6856 444.112 96.3201Z" fill="#7BE495"/>
<path d="M446.722 100.534C445.828 99.5666 444.3 97.6746 445.617 96.4706C446.557 95.6106 448.25 95.9331 449.026 96.7931C449.825 97.6746 449.99 99.3946 448.744 100.04C447.686 100.599 446.158 100.061 445.97 98.9431C445.899 98.5346 445.217 98.7066 445.288 99.1151C445.57 100.577 447.521 101.265 448.932 100.685C450.648 99.9536 450.718 97.7821 449.708 96.5136C448.744 95.2881 446.628 94.8581 445.311 95.8686C443.407 97.3091 445.053 99.6741 446.252 100.964C446.51 101.308 447.004 100.857 446.722 100.534Z" fill="black"/>
<path d="M585.735 57.0179C585.759 55.1259 588.603 55.6849 589.826 55.8139C590.884 55.9214 591.848 55.7924 592.788 55.3194C593.823 54.8249 594.669 54.0509 595.68 53.5134C596.338 53.1479 597.137 52.8254 597.913 52.8254C598.736 52.8469 599.253 53.2984 599.982 53.5779C601.675 54.2014 602.756 52.7609 603.814 51.8149C605.907 49.9444 608.892 50.7184 611.337 51.4924C611.76 51.6214 611.949 50.9979 611.525 50.8689C609.339 50.1809 606.565 49.4284 604.402 50.5679C603.367 51.1054 602.756 52.0944 601.816 52.7179C600.476 53.5994 599.347 52.2019 597.937 52.1804C594.904 52.1374 593.305 55.3409 590.249 55.1904C588.933 55.1259 587.663 54.6744 586.393 55.2119C585.571 55.5559 585.053 56.1579 585.03 56.9964C585.006 57.4264 585.712 57.4264 585.735 57.0179Z" fill="black"/>
<path d="M603.32 56.2869C604.825 54.3304 607.646 53.3844 610.185 54.0509C611.29 54.3519 612.324 55.1689 613.547 55.1044C614.558 55.0399 615.099 54.2874 615.78 53.7069C616.885 52.7824 618.319 52.0299 619.871 52.0729C620.811 52.0944 621.54 52.4169 622.269 52.9759C622.504 53.1694 622.692 53.3414 623.021 53.4274C623.492 53.5349 623.915 53.3414 624.338 53.1694C625.067 52.8684 625.819 52.6104 626.595 52.4169C628.194 52.0514 629.816 51.9869 631.438 52.1804C631.885 52.2234 631.885 51.5784 631.438 51.5354C629.886 51.3419 628.335 51.3849 626.806 51.7074C626.125 51.8579 625.443 52.0514 624.785 52.2879C624.267 52.4814 624.009 52.6104 623.421 52.6104C622.786 52.6104 622.833 52.5244 622.41 52.2234C620.412 50.8259 617.732 51.4709 615.921 52.7824C615.428 53.1264 615.028 53.5994 614.558 53.9434C613.429 54.7604 612.536 54.2444 611.384 53.7714C610.397 53.3629 609.362 53.1694 608.281 53.2124C606.047 53.2984 604.026 54.3089 602.756 55.9644C602.45 56.3084 603.062 56.6309 603.32 56.2869Z" fill="black"/>
<path d="M533.357 205.749C533.804 208.329 534.251 210.93 534.674 213.51C525.388 216.262 520.827 218.004 521.015 218.735C521.25 219.638 528.679 218.971 543.302 216.8C542.456 212.715 541.633 208.63 540.787 204.545C538.294 204.932 535.826 205.34 533.357 205.749Z" fill="black"/>
<path d="M513.374 119.362C513.209 122.286 512.974 126.457 512.763 131.509C512.551 136.863 512.434 139.658 512.457 143.098C512.457 144.581 512.528 150.623 513.374 158.406C514.079 164.963 515.184 174.767 519.11 186.829C520.662 191.602 523.06 198.009 526.798 205.319C528.514 205.555 530.536 205.684 532.84 205.598C537.166 205.405 540.669 204.437 543.09 203.534C542.385 201.427 541.398 198.439 540.363 194.848C538.976 189.989 534.979 175.348 533.428 155.675C532.652 145.785 532.37 133.444 533.733 119.254C526.963 119.276 520.168 119.319 513.374 119.362Z" fill="#7BE495"/>
<path opacity="0.09" d="M533.146 121.017C532.699 122.565 532.111 124.801 531.476 127.51C529.831 134.67 528.138 144.882 528.303 162.147C528.397 172.768 529.219 187.452 532.229 205.19C533.404 205.082 534.603 204.953 535.849 204.781C538.459 204.416 540.88 203.943 543.09 203.405C542.103 200.481 540.739 196.138 539.329 190.849C534.321 171.994 532.911 155.998 532.534 145.441C532.323 139.163 532.323 130.843 533.146 121.017Z" fill="#606060"/>
<path d="M533.216 119.921C530.866 141.679 532.323 163.759 537.519 185.109C539 191.172 540.763 197.149 542.832 203.061C542.973 203.448 543.655 203.276 543.514 202.889C536.273 182.099 532.652 160.298 532.84 138.475C532.887 132.283 533.263 126.07 533.922 119.899C533.969 119.512 533.263 119.512 533.216 119.921Z" fill="black"/>
<path d="M512.41 139.206C511.54 156.836 514.244 174.574 520.309 191.322C522.002 196.009 523.977 200.61 526.21 205.104C526.398 205.491 527.01 205.147 526.822 204.781C518.946 188.764 514.314 171.456 513.21 153.934C512.904 149.032 512.88 144.13 513.115 139.206C513.139 138.776 512.434 138.798 512.41 139.206Z" fill="black"/>
<path d="M526.492 205.297C527.292 206.114 529.125 205.921 530.207 205.942C531.853 205.964 533.522 205.813 535.144 205.598C536.907 205.362 538.67 205.018 540.41 204.631C541.28 204.437 543.09 204.394 543.537 203.513C543.725 203.147 543.114 202.803 542.926 203.19C542.714 203.642 541.539 203.728 541.092 203.814C540.434 203.964 539.799 204.093 539.141 204.244C537.895 204.502 536.672 204.738 535.426 204.91C534.133 205.104 532.84 205.233 531.547 205.276C530.56 205.319 527.738 205.598 527.01 204.846C526.68 204.523 526.187 204.996 526.492 205.297Z" fill="black"/>
<path d="M506.439 119.233C505.757 120.587 504.84 123.167 504.182 125.446C503.359 128.349 503.147 130.09 502.677 132.627C501.807 137.314 501.219 138.11 499.95 143.248C498.61 148.752 497.999 152.988 497.528 156.363C497.152 158.986 496.47 164.34 496.165 171.263C496.024 174.251 495.953 176.014 496.024 178.444C496.212 186.076 497.552 191.989 498.14 194.311C499.715 200.696 502.019 206.157 504.323 210.586C505.381 211.081 506.979 211.704 509.001 212.113C511.493 212.607 514.69 213.252 517.747 211.833C518.593 211.446 520.521 210.371 521.979 207.834C520.85 205.018 519.463 201.019 518.358 196.117C515.631 183.948 516.618 174.316 517.3 168.253C518.57 156.793 521.485 148.193 526.492 133.358C528.185 128.37 529.69 124.328 530.724 121.641C531.077 119.512 531.9 113.127 528.162 110.461C522.684 106.505 509.918 112.374 506.439 119.233Z" fill="#7BE495"/>
<path opacity="0.08" d="M527.409 130.671C525.881 132.885 523.765 136.175 521.673 140.324C519.087 145.441 515.278 154.428 513.233 172.338C512.104 182.12 511.352 195.816 513.092 212.349C513.821 212.414 516.924 212.65 519.58 210.694C520.944 209.683 521.649 208.522 522.002 207.791C520.85 204.889 519.369 200.632 518.24 195.364C514.902 180.013 516.994 167.672 518.546 159.072C519.816 151.891 522.284 141.98 527.409 130.671Z" fill="#606060"/>
<path d="M510.13 212.07C510.929 214.693 511.728 217.337 512.528 219.96C499.926 223.465 493.743 225.658 493.955 226.518C494.19 227.507 502.771 226.776 519.698 224.325C519.251 220.111 518.805 215.918 518.382 211.704C515.607 211.812 512.857 211.941 510.13 212.07Z" fill="black"/>
<path d="M506.18 119.491C503.688 125.253 502.419 131.359 501.079 137.422C499.668 143.764 498.304 150.107 497.317 156.514C495.483 168.382 494.919 180.529 497.435 192.354C498.775 198.718 501.032 204.91 504.346 210.629C504.558 210.995 505.169 210.672 504.958 210.307C492.38 188.441 496.188 162.856 501.314 139.658C502.795 132.928 504.111 126.07 506.885 119.663C507.027 119.276 506.345 119.104 506.18 119.491Z" fill="black"/>
<path d="M527.104 130.628C519.228 149.827 513.962 170.467 517.018 191.043C517.865 196.719 519.346 202.287 521.509 207.662C521.673 208.049 522.355 207.877 522.19 207.49C514.362 188.162 515.96 166.963 521.838 147.376C523.53 141.765 525.552 136.239 527.786 130.778C527.95 130.391 527.268 130.241 527.104 130.628Z" fill="black"/>
<path d="M504.417 210.608C507.732 212.285 511.54 212.994 515.302 212.543C518.382 212.156 521.955 210.866 522.261 207.619C522.308 207.211 521.602 207.211 521.555 207.619C521.226 210.995 516.759 211.898 513.727 212.027C510.6 212.156 507.52 211.446 504.793 210.049C504.37 209.855 504.017 210.414 504.417 210.608Z" fill="black"/>
<path d="M509.332 66.6069L509.332 66.607L509.335 66.6017C510.151 65.254 511.013 64.2338 511.632 63.5609C512.07 63.1728 513.53 61.9144 515.385 60.9221C517.287 59.904 519.482 59.2322 521.392 59.8923L521.395 59.8934C522.754 60.352 523.687 61.3877 524.412 62.8266C525.142 64.2761 525.63 66.0724 526.126 67.9739L526.126 67.975C526.188 68.2082 526.249 68.4392 526.309 68.6679C529.461 80.6346 531.04 86.6252 531.473 90.7543C532.173 97.4333 533.381 106.922 535.579 118.76C533.286 120.24 524.458 125.516 513.926 123.259C510.274 122.474 507.441 121.017 505.445 119.713C507.666 108.955 507.498 100.501 506.865 94.5835L506.865 94.5832C506.207 88.4627 506.231 85.5499 506.276 80.0714C506.277 79.8997 506.279 79.7255 506.28 79.5486C506.327 75.56 506.518 71.1249 509.332 66.6069Z" fill="white" stroke="black"/>
<path opacity="0.1" d="M532.963 103.99L532.963 103.99L532.965 103.995C532.983 104.074 533.003 104.158 533.023 104.247C533.346 105.628 533.94 108.165 534.533 111.724C534.997 114.571 535.294 116.959 535.463 118.602C534.544 119.229 533.469 119.886 532.239 120.506C530.489 121.389 528.825 121.984 527.384 122.403C527.139 103.833 526.373 89.4668 525.698 81.7576C525.037 74.188 524.094 69.094 523.385 65.7244C522.945 63.6055 522.504 61.8132 522.152 60.4627C522.637 60.6134 523.119 60.7679 523.6 60.935C524.28 62.599 525.31 65.2503 526.296 68.5499L526.296 68.5507C527.037 71.014 527.448 72.7708 528.131 75.6855C528.396 76.82 528.703 78.1298 529.086 79.725L529.087 79.7281C529.181 80.1101 529.284 80.5293 529.396 80.9837C529.865 82.8928 530.486 85.4228 531.26 88.4254C531.358 95.4849 532.207 100.574 532.963 103.99Z" fill="#606060" stroke="black"/>
<path d="M511.258 65.266C511.47 65.653 511.823 65.782 512.598 66.126C513.257 66.427 513.891 66.7925 514.55 67.0505C516.572 67.846 518.946 71.372 519.322 71.931C520.756 74.0595 522.425 76.5535 523.389 80.1655C523.648 81.1115 524.236 83.5625 523.554 91.84C522.825 100.332 521.885 101.515 522.614 105.75C523.154 108.825 523.836 112.501 527.151 114.501C530.231 116.35 533.781 115.705 534.509 115.576C538.976 114.78 541.515 111.62 543.984 108.546C547.745 103.88 549.18 99.2145 549.791 96.5055C550.073 95.237 550.026 91.5175 549.955 84.1C549.861 76.446 549.72 73.8015 547.534 71.5655C546.053 70.0605 544.243 69.351 542.997 68.9855C543.091 68.5125 543.114 67.803 542.691 67.201C541.892 66.083 539.987 66.1045 538.765 66.126C533.522 66.255 529.619 69.48 529.431 69.6305C526.164 72.404 525.2 75.801 524.894 77.22C524.236 74.554 523.154 72.5115 522.308 71.2C521.579 70.0605 520.498 68.8995 518.311 66.5345C516.595 64.6855 515.772 63.976 514.479 63.589C514.197 63.503 512.058 62.9225 511.352 63.804C511.023 64.2125 511.023 64.836 511.258 65.266Z" fill="white"/>
<path opacity="0.11" d="M511.094 64.4724C511.235 64.2359 512.81 64.7734 512.974 64.8379C515.302 65.6549 517.371 67.3534 520.027 71.2879C521.391 73.3089 523.107 76.1684 524.565 79.8879C525.599 78.9204 526.469 78.1249 527.151 77.5229C527.151 77.5229 529.666 75.3083 533.734 73.1583C534.133 72.9433 534.627 72.6854 534.98 72.8789C535.708 73.2444 534.933 75.0289 535.144 76.6844C535.309 77.9314 536.108 79.6513 539.141 81.5648C539.211 81.9303 539.235 82.4464 538.906 82.7904C538.247 83.4569 536.555 82.9193 535.685 82.6398C534.274 82.1883 531.547 81.0059 528.326 77.5444C528.021 78.6624 527.621 80.2533 527.315 82.2098C527.033 83.9083 526.257 89.5628 527.55 96.8298C528.068 99.7108 529.032 103.559 531.006 107.945C531.876 108.289 532.981 108.612 534.298 108.805C537.048 109.192 539.329 108.698 540.645 108.311C539.87 108.655 538.812 109.235 537.895 110.246C536.79 111.471 536.766 112.396 535.849 113.535C535.238 114.309 534.133 115.277 532.088 115.965C531.453 115.9 530.489 115.75 529.431 115.32C526.21 114.008 524.753 111.235 524.095 109.945C523.225 108.203 521.885 104.677 523.154 92.7448C523.883 85.9293 524.682 83.8009 523.46 79.9094C522.519 76.9209 520.897 74.4483 520.333 73.6098C519.322 72.1049 517.512 69.4174 514.22 66.9449C512.669 65.7409 510.953 64.7519 511.094 64.4724Z" fill="#606060"/>
<path d="M537.307 69.2883C536.884 69.8043 536.343 70.5568 535.92 71.5458C535.685 72.1263 535.121 73.4808 535.262 75.2008C535.52 78.6193 538.2 80.7048 538.694 81.0703C539.023 81.3068 539.305 81.5003 539.493 81.6078C539.211 82.4893 538.882 83.8008 538.765 85.4133C538.576 87.6923 538.388 90.2508 539.846 91.0033C540.786 91.4763 542.197 91.1538 542.973 90.4658C543.161 90.2938 543.702 89.7563 543.843 87.3268C544.007 84.4458 543.349 83.2418 544.289 82.4033C544.689 82.0163 545.371 81.7798 545.959 81.5433C546.617 81.2853 547.205 81.1563 547.628 81.0703C547.369 82.8333 547.181 84.4028 547.04 85.6713C546.875 87.2408 546.805 88.0363 547.393 88.5308C547.933 88.9823 548.827 89.0683 549.509 88.7888C550.402 88.4233 550.684 87.4128 551.178 85.3918C551.577 83.8008 551.907 82.4678 551.695 80.6618C551.577 79.7373 551.366 78.9848 551.178 78.4688C551.131 78.1033 551.013 77.5658 550.825 76.9423C550.425 75.6953 550.049 75.3298 549.814 74.5343C549.462 73.3948 549.861 72.8358 549.955 71.5458C550.049 70.5353 549.955 69.0948 549.156 67.2888C548.85 67.3103 548.216 67.3533 547.557 67.7618C546.758 68.2348 546.429 68.9228 546.311 69.1593C545.7 69.0303 544.595 68.9013 543.325 69.2238C541.139 69.7613 539.987 71.2448 539.681 71.6963C540.293 70.4708 539.775 69.2668 538.953 68.9658C538.247 68.6863 537.401 69.2453 537.307 69.2883Z" fill="black"/>
<path d="M539.964 75.9533C540.199 75.5448 541.374 74.6418 541.774 75.3943C541.962 75.7598 542.573 75.4373 542.385 75.0718C542.127 74.5773 541.492 74.4268 540.928 74.5343C540.246 74.6418 539.682 75.0718 539.352 75.6308C539.141 75.9963 539.752 76.3188 539.964 75.9533Z" fill="white"/>
<path d="M546.852 74.2978C546.993 74.0183 547.134 73.6958 547.369 73.4808C547.604 73.2658 548.309 73.0293 548.333 73.5238C548.356 73.9323 549.062 73.9323 549.038 73.5238C548.991 72.9003 548.403 72.4918 547.722 72.5778C546.946 72.7068 546.546 73.3518 546.241 73.9538C546.053 74.3408 546.664 74.6848 546.852 74.2978Z" fill="white"/>
<path d="M547.04 76.3404C547.04 76.3619 547.04 76.3834 547.04 76.4049C546.993 76.4479 546.946 76.4909 546.922 76.5124C546.805 76.5769 546.617 76.5124 546.64 76.3834C546.64 76.3834 546.64 76.3189 546.664 76.3404L546.593 76.4049C546.758 76.4049 546.922 76.4049 547.087 76.4049C547.063 76.3834 547.063 76.3834 547.04 76.3619C547.063 76.3834 547.063 76.3834 547.063 76.3834C547.04 76.3619 547.063 76.3619 547.063 76.4049C547.087 76.5339 547.016 76.6199 546.828 76.6844C546.758 76.6629 546.711 76.6629 546.64 76.6414C546.546 76.5984 546.57 76.4694 546.593 76.4049C546.617 76.3834 546.593 76.3834 546.57 76.4264C546.593 76.4049 546.593 76.4049 546.57 76.4264C546.405 76.5339 546.335 76.7059 546.452 76.8779C546.546 77.0069 546.781 77.0929 546.946 76.9854C547.11 76.8779 547.275 76.7274 547.299 76.5124C547.299 76.2759 547.11 76.0609 546.852 76.0609C546.593 76.0609 546.405 76.2114 546.382 76.4479C546.358 76.6199 546.476 76.7704 546.593 76.8779C546.734 77.0069 546.946 76.9854 547.087 76.8779C547.393 76.6629 547.463 76.2114 547.11 75.9964C546.946 75.9104 546.734 75.8889 546.57 75.9749C546.358 76.0824 546.335 76.3404 546.382 76.5339C546.405 76.7059 546.64 76.7919 546.805 76.7489C546.993 76.6844 547.063 76.5124 547.04 76.3404Z" fill="white"/>
<path d="M543.279 77.0068C542.597 77.3723 541.68 77.2003 541.233 76.5982C540.975 76.2542 540.363 76.5767 540.622 76.9207C541.304 77.8023 542.597 78.1033 543.655 77.5658C544.031 77.3508 543.678 76.7917 543.279 77.0068Z" fill="white"/>
<path d="M542.761 78.4043C542.244 78.7698 541.797 79.2428 541.492 79.7803C541.28 80.1458 541.891 80.4683 542.103 80.1028C542.385 79.6083 542.785 79.1998 543.278 78.8558C543.419 78.7483 543.396 78.5118 543.278 78.4043C543.114 78.2753 542.902 78.2968 542.761 78.4043Z" fill="white"/>
<path d="M548.474 76.0393C548.945 75.5448 549.297 74.9858 549.532 74.3623C549.673 73.9753 548.992 73.8033 548.851 74.1903C548.663 74.7063 548.357 75.1793 547.981 75.5878C547.699 75.9103 548.192 76.3618 548.474 76.0393Z" fill="white"/>
<path d="M548.521 76.8563C549.086 76.7488 549.744 76.6198 550.191 77.0498C550.496 77.3508 550.99 76.8993 550.684 76.5983C550.05 75.9748 549.133 76.0823 548.31 76.2543C547.887 76.3188 548.075 76.9423 548.521 76.8563Z" fill="white"/>
<path d="M510.976 64.7733C512.058 63.2253 514.62 64.1498 515.913 64.9238C517.465 65.8268 518.64 67.1813 519.698 68.5358C521.838 71.2663 523.742 74.2333 524.447 77.5658C524.541 77.9743 525.223 77.8023 525.129 77.3938C524.306 73.4163 521.767 69.5893 518.899 66.5363C517.23 64.7733 512.504 61.4408 510.365 64.4723C510.13 64.7948 510.741 65.1388 510.976 64.7733Z" fill="black"/>
<path d="M512.434 66.2353C518.076 69.1378 521.25 74.5773 522.848 80.1243C522.966 80.5328 523.648 80.3608 523.53 79.9523C521.885 74.2548 518.57 68.6433 512.786 65.6763C512.387 65.4613 512.034 66.0203 512.434 66.2353Z" fill="black"/>
<path d="M525.129 77.2862C525.717 73.4807 528.373 70.2987 532.017 68.4712C533.898 67.5252 535.991 66.9447 538.13 66.6652C539.141 66.5363 540.316 66.4072 541.304 66.7512C542.385 67.1167 543.42 68.6862 542.056 69.3957C541.656 69.5892 542.009 70.1482 542.409 69.9547C543.913 69.1807 543.537 67.2027 542.221 66.4503C540.175 65.2678 536.79 66.1062 534.698 66.7512C529.525 68.2777 525.247 72.1047 524.471 77.1572C524.377 77.5227 525.059 77.6947 525.129 77.2862Z" fill="black"/>
<path d="M526.704 78.2539C527.856 77.0284 529.314 75.9964 530.724 75.0289C532.088 74.0829 533.545 73.3089 535.238 72.9649C535.685 72.8789 535.497 72.2554 535.05 72.3414C533.31 72.7069 531.782 73.5024 530.372 74.4699C528.914 75.4804 527.409 76.5339 526.21 77.8024C525.905 78.1034 526.398 78.5764 526.704 78.2539Z" fill="black"/>
<path d="M535.332 73.0294C535.826 71.9974 536.461 71.0084 537.237 70.1269C537.378 69.9764 537.542 69.7184 537.73 69.6109C537.895 69.3314 538.106 69.3099 538.412 69.5679C538.788 69.5679 538.953 69.6969 538.953 69.9979C539.211 70.4494 539.235 71.2234 539.329 71.7394C539.423 72.1479 540.105 71.9759 540.011 71.5674C539.823 70.7504 539.588 67.8264 537.895 68.6219C537.237 68.9229 536.743 69.6754 536.32 70.1914C535.685 70.9869 535.168 71.8254 534.721 72.7069C534.533 73.0724 535.144 73.4164 535.332 73.0294Z" fill="black"/>
<path d="M539.87 71.9329C541.069 70.5139 543.514 68.5574 545.606 69.6109C546.006 69.8044 546.358 69.2454 545.959 69.0519C543.537 67.8694 540.81 69.8044 539.352 71.4814C539.094 71.8039 539.587 72.2554 539.87 71.9329Z" fill="black"/>
<path d="M546.288 69.5033C546.617 69.0303 548.145 67.3318 548.804 67.7833C549.156 68.0198 549.227 68.8583 549.321 69.2453C549.462 69.8473 549.509 70.4493 549.532 71.0728C549.556 71.4813 550.261 71.4813 550.238 71.0728C550.214 70.2128 550.097 69.3743 549.862 68.5358C549.72 68.0628 549.603 67.1598 548.992 67.0093C548.427 66.8803 547.652 67.3748 547.228 67.6543C546.594 68.0628 546.1 68.5788 545.7 69.1808C545.442 69.5248 546.053 69.8473 546.288 69.5033Z" fill="black"/>
<path d="M527.621 77.2003C529.243 78.6408 530.959 79.9738 532.793 81.1778C534.603 82.3603 536.367 83.1988 538.647 83.0913C539.094 83.0698 539.094 82.4248 538.647 82.4463C536.32 82.5538 534.603 81.6078 532.793 80.4038C531.124 79.2858 529.572 78.0603 528.091 76.7488C527.786 76.4693 527.292 76.9208 527.621 77.2003Z" fill="black"/>
<path d="M522.872 79.4149C525.435 89.8209 518.758 101.194 524.283 111.149C525.317 113.019 526.892 114.718 529.055 115.556C531.171 116.373 533.616 116.309 535.802 115.664C540.645 114.245 543.772 110.138 546.17 106.268C547.698 103.839 548.968 101.237 549.72 98.5069C550.096 97.1524 550.331 95.7334 550.402 94.3359C550.472 92.7234 550.237 91.1109 550.308 89.4984C550.331 89.0899 549.626 89.0899 549.603 89.4984C549.508 92.1214 549.885 94.6154 549.32 97.2169C548.827 99.5389 547.91 101.796 546.758 103.903C544.618 107.859 541.727 112.31 537.283 114.395C534.979 115.47 532.135 115.879 529.666 115.04C527.245 114.223 525.646 112.267 524.612 110.181C522.402 105.645 522.66 100.485 523.248 95.6689C523.906 90.2079 524.941 84.6824 523.601 79.2214C523.436 78.8559 522.754 79.0064 522.872 79.4149Z" fill="black"/>
<path d="M533.334 100.936C532.017 103.043 531.147 105.322 530.771 107.73C530.701 108.139 531.382 108.311 531.453 107.902C531.829 105.537 532.652 103.323 533.945 101.259C534.18 100.915 533.569 100.592 533.334 100.936Z" fill="black"/>
<path d="M533.78 101.173C537.26 100.893 540.927 100.291 544.407 100.635C544.853 100.678 544.853 100.033 544.407 99.9903C540.927 99.6248 537.26 100.248 533.78 100.528C533.334 100.571 533.334 101.216 533.78 101.173Z" fill="black"/>
<path d="M531.124 108.311C532.84 109.235 534.838 109.149 536.766 109.106C538.788 109.042 540.81 108.827 542.573 107.859C542.973 107.644 542.596 107.085 542.22 107.3C540.551 108.225 538.67 108.397 536.766 108.461C534.979 108.526 533.099 108.633 531.476 107.773C531.1 107.558 530.748 108.117 531.124 108.311Z" fill="black"/>
<path d="M544.078 100.485C543.631 102.85 542.949 105.129 542.032 107.365C541.868 107.752 542.549 107.924 542.714 107.537C543.654 105.301 544.336 103 544.759 100.657C544.83 100.248 544.148 100.076 544.078 100.485Z" fill="black"/>
<path d="M533.146 102.054C534.298 104.376 537.566 104.957 540.081 104.978C540.528 104.978 540.528 104.333 540.081 104.333C537.824 104.29 534.792 103.817 533.757 101.71C533.569 101.345 532.958 101.689 533.146 102.054Z" fill="black"/>
<path d="M538.224 104.14C538.154 104.677 538.083 105.215 538.013 105.731C537.965 106.139 538.671 106.139 538.718 105.731C538.788 105.193 538.859 104.656 538.929 104.14C538.976 103.731 538.271 103.731 538.224 104.14Z" fill="black"/>
<path d="M539.564 104.14C539.493 104.677 539.423 105.215 539.376 105.752C539.329 106.161 540.034 106.161 540.081 105.752C540.152 105.215 540.222 104.677 540.269 104.14C540.316 103.731 539.611 103.731 539.564 104.14Z" fill="black"/>
<path d="M540.175 105.043C541.845 104.699 543.232 103.753 544.102 102.42C544.337 102.054 543.725 101.732 543.49 102.097C542.691 103.301 541.468 104.097 539.987 104.419C539.541 104.527 539.729 105.15 540.175 105.043Z" fill="black"/>
<path d="M535.027 71.8683C534.321 75.6738 535.097 80.2103 539.353 81.9518C539.752 82.1238 540.128 81.5648 539.705 81.3928C535.732 79.7588 535.05 75.5663 535.709 72.0403C535.779 71.6318 535.097 71.4598 535.027 71.8683Z" fill="black"/>
<path d="M549.485 70.8365C549.532 72.062 549.508 73.309 549.697 74.513C549.885 75.8245 551.178 77.2865 550.496 78.598C550.308 78.9635 550.919 79.3075 551.107 78.9205C551.718 77.738 551.178 76.749 550.731 75.588C550.143 74.1045 550.284 72.3845 550.214 70.815C550.167 70.4065 549.461 70.4065 549.485 70.8365Z" fill="black"/>
<path d="M541.28 81.5003C542.315 81.0058 543.49 81.5218 543.725 82.5538C543.749 82.6613 543.914 82.6183 543.89 82.5108C543.608 81.3713 542.315 80.8122 541.186 81.3498C541.092 81.4143 541.186 81.5648 541.28 81.5003Z" fill="white"/>
<path d="M543.067 82.5968C543.232 82.7688 543.349 82.9623 543.42 83.1773C543.467 83.2848 543.631 83.2418 543.584 83.1343C543.49 82.8978 543.349 82.6828 543.185 82.4893C543.114 82.4033 542.973 82.5323 543.067 82.5968Z" fill="white"/>
<path d="M547.792 81.0918C548.004 80.2104 548.615 79.4794 549.509 79.0709C549.603 79.0279 549.532 78.8774 549.415 78.9419C548.474 79.3504 547.839 80.1244 547.628 81.0488C547.604 81.1563 547.769 81.1993 547.792 81.0918Z" fill="white"/>
<path d="M506.391 35.5118C504.769 36.2643 503.406 37.6833 502.794 38.3068C501.29 39.8763 500.514 41.3383 499.668 42.9723C498.962 44.3053 498.139 46.1973 497.481 48.5623C498.398 48.7128 499.315 48.8418 500.232 48.9923C500.185 49.8093 500.185 51.0133 500.537 52.4323C500.867 53.7223 501.407 55.7863 503.288 57.2268C505.874 59.2478 509.307 58.7533 509.941 58.6673C509.988 59.6778 510.223 61.1183 511.117 62.6018C511.352 62.9673 511.587 63.3113 511.822 63.6123C513.115 63.2683 515.114 62.5588 517.065 61.0968C522.049 57.4203 522.731 51.9378 522.942 50.3468C523.248 47.8958 523.836 43.2733 520.521 39.4463C517.065 35.4903 510.506 33.6198 506.391 35.5118Z" fill="white"/>
<path d="M501.572 39.9838C502.23 39.0808 503.5 37.7478 504.934 36.8233C507.238 35.3398 508.272 35.9633 509.448 34.6518C510.294 33.7058 510.835 32.1578 510.2 31.4268C509.189 30.2658 505.592 31.6633 505.122 31.8568C504.087 32.2653 500.678 33.5768 499.315 36.8878C498.186 39.6613 498.939 42.6928 499.456 42.7573C499.597 42.7788 499.691 42.5638 500.443 41.5103C500.796 40.9728 501.196 40.4783 501.572 39.9838Z" fill="black"/>
<path d="M506.697 33.5122C506.509 34.0712 506.227 35.1892 507.167 37.3822C508.836 41.3167 512.739 44.8427 514.69 44.1977C515.113 44.0472 515.56 43.6602 516.407 43.6172C516.618 43.6172 517.464 43.5742 518.123 44.0472C519.157 44.7997 519.204 46.4337 518.522 47.4872C518.405 47.6807 517.77 48.5622 516.806 48.6267C515.96 48.6912 515.678 48.0892 514.996 48.0462C513.327 47.9602 511.893 51.3142 511.705 51.7657C511.328 52.6257 510.412 54.8617 511.07 57.7212C511.211 58.3447 511.54 59.6562 512.551 61.0107C514.737 63.9132 518.405 64.6227 519.768 64.8807C521.108 65.1387 526.21 66.1062 530.183 63.0962C530.818 62.6232 532.91 60.9892 533.475 58.2157C534.438 53.5287 530.136 50.0242 529.878 49.8307C529.69 47.4012 529.055 43.5312 526.821 39.2957C525.411 36.6082 524.094 34.1357 521.108 32.2652C517.182 29.8357 511.469 29.1477 508.484 31.2547C508.178 31.5127 507.167 32.2437 506.697 33.5122Z" fill="black"/>
<path d="M502.23 56.5818C501.878 56.9043 500.843 57.8933 500.655 59.4413C500.396 61.5913 501.972 63.0748 502.301 63.3758C504.017 64.9883 506.885 65.6333 508.954 64.6658C509.119 64.6013 510.929 63.7198 510.999 62.4513C511.023 61.8923 510.694 61.6128 510.223 60.3658C509.918 59.5488 509.73 58.8823 509.589 58.4308C508.954 58.6243 507.872 58.8823 506.532 58.7103C504.134 58.4308 502.653 57.0118 502.23 56.5818Z" fill="black"/>
<path opacity="0.12" d="M506.932 35.4043C506.956 36.0708 507.05 37.0598 507.543 38.1133C507.873 38.8228 508.202 39.2528 508.46 39.5968C509.448 40.9728 509.777 42.2628 510.294 43.7033C511.117 45.9393 510.976 47.8098 510.811 50.1318C510.67 52.0668 510.2 55.0123 508.672 58.4308C509.307 58.6028 510.223 58.9468 511.211 59.5488C513.021 60.6668 513.844 61.9998 514.361 62.6233C515.419 63.8918 517.77 65.2248 523.436 65.1388C522.872 64.6228 522.072 63.8488 521.202 62.9028C519.157 60.7098 517.37 58.7963 516.312 56.4743C515.701 55.1413 514.761 52.4108 515.49 48.4548C516.148 48.7558 516.924 48.7343 517.535 48.3688C518.17 47.9818 518.569 47.2078 518.358 46.4983C518.099 45.6813 517.018 45.1223 515.913 45.3803C515.678 44.8428 515.302 44.0688 514.69 43.2303C513.726 41.9188 512.716 41.1018 512.339 40.8008C511.14 39.8548 509.401 38.2423 506.932 35.4043Z" fill="#606060"/>
<path opacity="0.14" d="M497.74 48.1753C497.763 47.8313 498.962 47.5517 499.973 47.6162C500.867 47.6807 501.924 48.0463 501.901 48.3688C501.877 48.6698 500.89 48.9063 500.161 48.9278C499.033 48.9708 497.74 48.5193 497.74 48.1753Z" fill="#606060"/>
<path d="M500.655 40.1773C499.315 42.8648 498.116 45.5953 497.082 48.3903C497.011 48.5623 497.152 48.7343 497.317 48.7773C498.234 49.0998 499.15 49.2503 500.114 49.2288C500.561 49.2288 500.561 48.5838 500.114 48.5838C499.197 48.5838 498.351 48.4333 497.505 48.1538C497.575 48.2828 497.669 48.4118 497.74 48.5408C498.751 45.7888 499.903 43.1013 501.243 40.4783C501.454 40.1343 500.843 39.7903 500.655 40.1773Z" fill="black"/>
<path d="M500.02 49.3576C500.208 52.1311 500.491 55.2056 502.747 57.2911C504.91 59.3121 508.037 59.1401 510.882 58.8391C511.328 58.7961 511.328 58.1511 510.882 58.1941C508.249 58.4736 505.263 58.7101 503.241 56.8396C501.125 54.8831 500.914 51.9591 500.726 49.3576C500.702 48.9491 499.997 48.9491 500.02 49.3576Z" fill="black"/>
<path d="M509.495 58.9036C509.8 60.4086 510.365 61.8491 511.164 63.1821C511.376 63.5476 511.987 63.2251 511.775 62.8596C510.999 61.5481 510.482 60.1936 510.177 58.7316C510.106 58.3231 509.424 58.4951 509.495 58.9036Z" fill="black"/>
<path d="M500.491 52.6472C501.643 53.5717 503.359 53.1417 503.805 51.7872C503.946 51.3787 503.265 51.2282 503.124 51.6152C502.842 52.4752 501.737 52.7977 501.008 52.1742C500.655 51.9162 500.161 52.3677 500.491 52.6472Z" fill="black"/>
<path d="M502.653 51.7658C503.029 51.8518 503.312 52.0453 503.547 52.3033C503.664 52.4323 503.923 52.4108 504.04 52.3033C504.181 52.1743 504.158 51.9808 504.04 51.8518C503.735 51.5078 503.312 51.2498 502.841 51.1423C502.418 51.0348 502.23 51.6583 502.653 51.7658Z" fill="black"/>
<path d="M503.711 43.7248C503.899 42.8218 505.122 42.9938 505.78 43.3163C506.344 43.5958 506.744 44.0473 506.979 44.5848C507.144 44.9718 507.826 44.7998 507.661 44.4128C507.285 43.4883 506.509 42.7573 505.428 42.4993C504.44 42.2628 503.265 42.5423 503.053 43.5528C502.959 43.9613 503.641 44.1333 503.711 43.7248Z" fill="black"/>
<path d="M503.688 39.9193C504.746 38.3068 506.815 39.5538 507.238 40.9083C507.355 41.3168 508.037 41.1448 507.92 40.7363C507.614 39.7473 506.862 38.8228 505.71 38.5648C504.675 38.3498 503.617 38.7583 503.077 39.5753C502.841 39.9623 503.453 40.2848 503.688 39.9193Z" fill="black"/>
<path d="M504.393 47.3796C504.84 47.3796 504.84 46.7346 504.393 46.7346C503.947 46.7346 503.923 47.3796 504.393 47.3796Z" fill="black"/>
<path d="M505.733 46.4123C505.757 46.4123 505.804 46.4123 505.827 46.4123C506.015 46.4123 506.18 46.2618 506.18 46.0898C506.18 45.9178 506.015 45.7673 505.827 45.7673C505.804 45.7673 505.757 45.7673 505.733 45.7673C505.545 45.7673 505.38 45.9178 505.38 46.0898C505.38 46.2833 505.545 46.4123 505.733 46.4123Z" fill="black"/>
<path d="M505.757 47.5088C505.757 47.5303 505.757 47.5518 505.757 47.5733C505.757 47.9818 506.462 47.9818 506.462 47.5733C506.462 47.5518 506.462 47.5303 506.462 47.5088C506.462 47.1003 505.757 47.1003 505.757 47.5088C505.757 47.5303 505.757 47.5518 505.757 47.5733C505.757 47.9818 506.462 47.9818 506.462 47.5733C506.462 47.5518 506.462 47.5303 506.462 47.5088C506.462 47.1003 505.757 47.1003 505.757 47.5088Z" fill="black"/>
<path d="M516.007 44.2192C516.642 43.3808 517.723 43.9183 518.099 44.6062C518.405 45.1437 518.405 45.7887 518.382 46.3692C518.288 47.8312 516.947 48.8632 515.396 47.9602C515.02 47.7237 514.667 48.2827 515.043 48.5192C515.96 49.0782 517.136 49.1427 518.052 48.4977C518.993 47.8312 519.157 46.7347 519.087 45.7027C519.016 44.7138 518.593 43.6173 517.465 43.2518C516.665 42.9938 515.866 43.2733 515.396 43.8967C515.161 44.2192 515.772 44.5417 516.007 44.2192Z" fill="black"/>
<path d="M452.767 31.9421C452.273 31.9421 451.78 31.9636 451.31 31.9636C450.51 33.3826 450.064 34.6726 449.805 35.6186C449.053 38.3921 449.241 40.6925 449.382 41.8105C449.476 42.563 449.617 43.1865 449.734 43.6165C450.158 43.6165 450.581 43.6165 451.004 43.6165C451.168 44.1325 451.333 44.6486 451.498 45.1645C455.471 45.143 458.739 45.143 461.019 45.1645C474.843 45.272 484.482 45.7665 486.715 45.874C489.513 46.0245 491.793 46.175 493.204 46.261C493.251 45.4655 493.486 45.186 493.698 45.1C494.074 44.9495 494.403 45.315 494.897 45.229C495.414 45.143 495.743 44.6486 495.955 44.1971C496.378 44.3905 497.154 44.6486 498.07 44.5196C498.282 44.498 498.47 44.4335 498.635 44.3905C499.034 43.6595 499.434 42.9285 499.834 42.1975C499.269 42.0255 498.47 41.8751 497.506 41.8751C496.965 41.8751 496.495 41.9395 496.096 42.004C496.049 41.8965 495.672 40.929 494.685 40.714C494.379 40.6495 494.121 40.671 493.909 40.714C493.768 40.4775 493.627 40.2411 493.486 40.0046C492.922 39.9186 492.052 39.7896 491.017 39.6176C482.625 38.2201 476.771 36.5216 472.304 35.2961C468.025 34.1136 461.795 32.5011 453.802 30.7166C453.472 31.1251 453.12 31.5336 452.767 31.9421Z" fill="white"/>
<path opacity="0.07" d="M449.452 40.2847C449.663 40.2417 449.898 40.7362 450.157 40.6717C450.58 40.5857 450.486 39.2312 450.58 38.2207C450.651 37.2532 450.956 35.8557 451.991 34.1572C452.672 34.4152 453.707 34.8237 454.953 35.3182C459.443 37.1027 462.547 38.4787 463.487 38.8657C469.694 41.5102 476.511 42.6927 478.228 42.9937C482.13 43.6817 487.537 44.2837 494.026 44.0257C493.744 44.7352 493.462 45.4447 493.18 46.1542C492.098 46.1327 490.523 46.1327 488.595 46.0897C480.32 45.9392 474.537 45.7027 471.222 45.5737C466.543 45.4017 459.843 45.2297 451.379 45.2512C451.285 44.6707 451.191 44.0902 451.097 43.5097C450.557 43.5957 450.016 43.6817 449.475 43.7677C449.122 41.0802 449.217 40.3277 449.452 40.2847Z" fill="#606060"/>
<path d="M453.259 30.7387C450.321 34.8882 449.498 40.0482 451.002 44.7997C451.12 45.2082 451.802 45.0362 451.684 44.6277C450.227 40.0267 451.026 35.0817 453.871 31.0612C454.129 30.6957 453.518 30.3732 453.259 30.7387Z" fill="black"/>
<path d="M453.871 31.3615C467.107 34.4145 480.319 37.4675 493.555 40.499C494.002 40.6065 494.19 39.983 493.743 39.8755C480.507 36.8225 467.295 33.7695 454.059 30.738C453.636 30.6305 453.448 31.254 453.871 31.3615Z" fill="black"/>
<path d="M451.496 45.5093C465.297 45.4018 479.097 45.7028 492.874 46.3908C493.32 46.4123 493.32 45.7673 492.874 45.7458C479.097 45.0578 465.297 44.7568 451.496 44.8643C451.05 44.8643 451.05 45.5093 451.496 45.5093Z" fill="black"/>
<path d="M493.344 40.2631C494.284 42.1766 494.072 44.3481 492.779 46.0896C492.521 46.4336 493.132 46.7561 493.391 46.4121C494.825 44.4771 495.013 42.0691 493.955 39.9406C493.767 39.5751 493.155 39.8976 493.344 40.2631Z" fill="black"/>
<path d="M494.049 41.1017C494.307 41.2737 494.496 41.2092 494.801 41.2737C495.389 41.4242 495.624 41.9187 495.742 42.4347C495.93 43.3807 495.671 45.3802 494.143 44.8212C493.72 44.6707 493.532 45.2942 493.955 45.4447C495.506 46.0037 496.517 44.5202 496.517 43.2732C496.517 42.5852 496.423 41.8112 496 41.2307C495.859 41.0372 495.671 40.8437 495.436 40.7362C495.13 40.6072 494.707 40.6932 494.449 40.5212C494.025 40.3062 493.673 40.8652 494.049 41.1017Z" fill="black"/>
<path d="M496.118 42.2842C497.317 42.2198 498.516 42.2413 499.691 42.3917C500.138 42.4347 500.138 41.7898 499.691 41.7468C498.492 41.6178 497.317 41.5748 496.118 41.6393C495.671 41.6823 495.671 42.3272 496.118 42.2842Z" fill="black"/>
<path d="M496.024 44.6491C496.988 44.7996 497.952 44.8641 498.915 44.7781C499.362 44.7351 499.362 44.0901 498.915 44.1331C497.999 44.1976 497.105 44.1761 496.212 44.0256C495.765 43.9611 495.577 44.5631 496.024 44.6491Z" fill="black"/>
<path d="M452.86 31.7708C450.579 30.5668 449.945 34.3293 449.639 35.5118C448.934 38.2423 448.605 41.0588 449.474 43.7893C449.521 43.9183 449.663 44.0258 449.804 44.0258C450.109 44.0258 450.438 44.0258 450.744 44.0258C451.191 44.0258 451.191 43.3808 450.744 43.3808C450.438 43.3808 450.109 43.3808 449.804 43.3808C449.921 43.4668 450.039 43.5313 450.133 43.6173C449.521 41.6393 449.521 39.6398 449.874 37.6188C450.039 36.7158 450.25 35.8128 450.509 34.9313C450.673 34.3508 451.191 31.6203 452.484 32.3298C452.907 32.5448 453.26 31.9858 452.86 31.7708Z" fill="black"/>
<path d="M478.275 36.3932C477.851 35.9202 477.146 35.9847 477.052 35.9847C476.276 36.0277 475.524 36.6727 474.701 38.2422C473.102 41.2306 473.032 44.2191 473.032 44.6921C473.008 46.7561 473.22 50.1102 474.819 54.1091C474.96 55.7861 475.265 58.1296 475.947 60.8601C477.146 65.7621 478.416 70.9221 482.788 75.5016C484.434 77.2431 487.678 80.6186 493.321 81.8441C499.222 83.1341 504.018 81.2206 505.193 80.7261C506.228 80.2746 509.119 78.9416 511.564 76.1251C513.046 74.4266 514.762 72.5776 514.48 70.2986C514.362 69.3096 513.892 68.4711 513.187 67.1381C512.481 65.8051 512.105 65.1386 511.353 64.8806C510.318 64.5151 509.213 65.1601 507.991 65.8051C505.922 66.8801 505.734 67.9121 503.501 68.9871C502.913 69.2666 502.325 69.4601 501.15 69.8041C499.292 70.3631 497.459 70.9221 495.766 71.0296C492.075 71.2661 489.113 69.3311 488.266 68.7721C485.139 66.7296 483.917 63.9991 483.118 62.2146C481.331 58.2156 481.472 54.5392 481.778 52.3892C482.883 52.2172 483.564 51.8086 483.893 51.5721C485.139 50.6906 485.445 49.4652 485.915 47.5732C486.221 46.3907 486.362 45.7672 486.033 45.5307C485.351 45.0577 483.259 46.6056 482.788 46.9712C482.882 45.5092 483.118 44.3267 483.353 43.4882C483.658 42.3702 483.823 41.7897 484.246 41.3382C485.069 40.4567 486.033 40.5427 486.362 39.7042C486.55 39.2527 486.527 38.6292 486.127 38.2637C485.657 37.8337 484.646 37.8552 483.776 38.4787C483.494 37.9197 482.93 37.5757 482.318 37.5542C481.707 37.5327 481.307 37.8767 481.19 37.9627C481.26 37.3822 480.978 36.8447 480.508 36.6297C479.873 36.3287 478.862 36.6727 478.486 37.5542C478.51 37.4467 478.674 36.8447 478.275 36.3932Z" fill="white"/>
<path opacity="0.12" d="M477.052 35.9846C476.488 36.8876 475.782 38.2206 475.312 39.9621C474.278 43.7461 475.124 46.9066 475.5 48.4331C479.544 64.1926 477.781 64.5796 480.602 68.2776C481.636 69.6106 488.736 78.5546 499.316 77.3721C508.179 76.3831 512.881 69.0086 513.492 68.0196C513.845 68.8796 514.268 70.3416 513.986 72.0831C513.563 74.6416 511.823 76.2541 511.188 76.8561C510.577 77.4151 509.825 77.9096 508.296 78.8771C506.933 79.7586 505.593 80.5326 505.005 80.8121C502.207 82.2526 497.882 82.5966 494.872 82.2311C486.691 81.2421 481.777 74.1471 479.732 71.2016C475.054 64.4721 474.583 57.6566 474.63 54.2596C474.184 52.8836 473.737 51.4861 473.29 50.1101C472.985 47.9816 472.961 46.2186 473.008 44.9931C473.126 41.9186 473.22 39.6181 474.936 37.6616C475.688 36.8016 476.511 36.2856 477.052 35.9846Z" fill="#606060"/>
<path d="M508.884 78.5545C512.598 76.942 515.09 73.5665 514.479 69.7395C514.126 67.4175 512.081 63.4185 508.813 64.8375C507.356 65.4825 506.157 66.665 504.817 67.5035C502.959 68.6645 500.82 69.5675 498.681 70.191C495.953 70.9865 492.921 71.1585 490.288 69.9545C488.36 69.073 486.855 67.6325 485.703 65.9985C483.164 62.408 481.848 58.1725 482.153 53.894C482.177 53.4855 481.471 53.4855 481.448 53.894C481.189 57.506 482.059 60.946 483.799 64.171C485.327 67.052 487.56 69.761 490.946 70.922C495.06 72.3195 499.55 70.9005 503.265 69.116C504.934 68.299 506.368 67.2455 507.873 66.192C509.236 65.2245 510.6 64.7515 511.987 66.0415C513.703 67.6325 514.221 70.406 513.703 72.513C513.069 75.0285 511.023 76.9205 508.531 77.9955C508.132 78.1675 508.484 78.7265 508.884 78.5545Z" fill="black"/>
<path d="M482.106 54.1736C481.8 52.9911 482.717 52.6901 483.564 52.1311C484.057 51.8086 484.434 51.3571 484.786 50.9056C485.68 49.7231 486.385 48.3471 486.573 46.9066C486.667 46.1971 486.832 45.0791 485.774 45.0361C484.528 44.9931 484.01 46.4336 482.835 46.5411C482.388 46.5841 482.388 47.2291 482.835 47.1861C483.728 47.1001 484.175 46.5841 484.857 46.1111C485.256 45.8316 485.703 45.5091 485.915 46.1326C486.032 46.4766 485.844 47.1216 485.75 47.4656C485.586 48.1966 485.233 48.9061 484.857 49.5726C484.504 50.1746 484.104 50.7981 483.564 51.2926C483.07 51.7656 482.388 51.8731 481.847 52.2601C481.119 52.7761 481.236 53.6576 481.424 54.3671C481.542 54.7541 482.224 54.5821 482.106 54.1736Z" fill="black"/>
<path d="M473.901 50.7766C473.431 48.0031 473.384 45.1651 473.854 42.3916C474.042 41.2736 474.277 40.1341 474.701 39.0591C474.959 38.3926 475.312 37.6186 475.829 37.0811C476.534 36.3716 477.921 36.0061 478.297 37.2101C478.415 37.6186 479.097 37.4466 478.979 37.0381C478.65 36.0061 477.569 35.4471 476.44 35.8556C475.006 36.3931 474.324 38.0056 473.878 39.2311C472.561 42.9506 472.561 47.1216 473.196 50.9486C473.29 51.3571 473.972 51.1851 473.901 50.7766Z" fill="black"/>
<path d="M477.31 39.6827C477.874 38.4142 479.473 35.8557 481.213 37.5972C481.518 37.8982 482.012 37.4467 481.706 37.1457C480.907 36.3502 479.755 36.2212 478.744 36.7587C477.616 37.3392 477.098 38.4787 476.628 39.5322C476.464 39.8977 477.145 40.0697 477.31 39.6827Z" fill="black"/>
<path d="M480.272 40.22C480.296 39.403 480.648 38.5 481.518 38.113C482.247 37.7905 483.117 37.941 483.611 38.5215C483.893 38.844 484.386 38.3925 484.104 38.07C483.423 37.296 482.2 37.1025 481.236 37.511C480.108 38.0055 479.59 39.1235 479.567 40.22C479.543 40.6285 480.249 40.6285 480.272 40.22Z" fill="black"/>
<path d="M482.318 40.4352C482.741 38.9947 484.504 37.6832 486.032 38.8442C486.385 39.1022 486.879 38.6507 486.526 38.3927C484.575 36.9307 482.224 38.3067 481.636 40.2632C481.518 40.6717 482.2 40.8437 482.318 40.4352Z" fill="black"/>
<path d="M485.891 38.7366C486.643 39.7041 484.974 40.3061 484.386 40.7576C483.893 41.1231 483.611 41.5961 483.399 42.1336C482.835 43.6171 482.576 45.2296 482.435 46.7776C482.388 47.1861 483.093 47.1861 483.14 46.7776C483.258 45.6381 483.446 44.4986 483.752 43.3806C483.846 43.0151 483.94 42.6496 484.081 42.2841C484.386 41.5316 484.833 41.2521 485.515 40.8006C486.361 40.2416 487.255 39.3386 486.502 38.3711C486.244 38.0701 485.632 38.3926 485.891 38.7366Z" fill="black"/>
<path d="M473.032 50.1317C473.408 51.5937 473.878 53.0342 474.466 54.4532C474.631 54.8402 475.312 54.6682 475.148 54.2812C474.56 52.8622 474.09 51.4217 473.714 49.9597C473.62 49.5512 472.938 49.7232 473.032 50.1317Z" fill="black"/>
<path d="M474.348 54.8616C475.241 62.2576 477.24 69.8471 482.67 75.6091C486.996 80.1886 493.861 83.6716 500.632 82.5321C503.829 81.9946 506.744 80.5326 509.072 78.4901C509.401 78.2106 508.907 77.7376 508.578 78.0386C503.923 82.1236 497.293 83.1986 491.393 80.7691C485.045 78.1246 480.602 73.1581 478.086 67.2886C476.393 63.3111 475.547 59.0971 475.03 54.8831C475.006 54.4531 474.301 54.4531 474.348 54.8616Z" fill="black"/>
<path d="M632.574 42.5875C634.457 42.5875 635.983 41.1918 635.983 39.47C635.983 37.7483 634.457 36.3525 632.574 36.3525C630.691 36.3525 629.165 37.7483 629.165 39.47C629.165 41.1918 630.691 42.5875 632.574 42.5875Z" fill="black"/>
<path d="M196.939 38.375C198.562 38.375 199.877 37.1718 199.877 35.6875C199.877 34.2032 198.562 33 196.939 33C195.316 33 194 34.2032 194 35.6875C194 37.1718 195.316 38.375 196.939 38.375Z" fill="black"/>
<path d="M193.597 41.579C195.584 41.579 197.194 40.1062 197.194 38.2895C197.194 36.4728 195.584 35 193.597 35C191.61 35 190 36.4728 190 38.2895C190 40.1062 191.61 41.579 193.597 41.579Z" fill="#7BE495"/>
<path d="M224.282 87.2055C222.213 86.8185 218.828 85.851 218.663 83.5075C218.569 82.067 219.885 81.0135 221.273 80.6265C222.942 80.132 224.705 80.5835 226.327 81.0135C229.289 81.809 232.275 82.454 235.378 82.5615C238.27 82.669 241.138 82.282 243.936 81.594C246.945 80.863 249.884 79.874 252.87 79.1C256.02 78.283 259.241 77.853 262.532 77.81C268.809 77.724 275.016 78.756 281.269 78.9925C284.396 79.1 287.476 78.9495 290.556 78.5195C293.894 78.0465 297.303 77.337 300.712 77.7025C303.157 77.9605 307.083 79.4655 306.284 82.3465C305.578 84.862 301.676 86.281 299.278 86.9905C287.241 90.5595 274.828 84.6255 262.626 86.195C255.597 87.098 248.967 89.807 241.867 90.323C238.623 90.5595 235.284 90.366 232.205 89.3125C229.383 88.3235 226.844 86.1735 223.623 86.6895C223.177 86.754 223.365 87.3775 223.812 87.313C225.739 87.012 227.432 87.8505 229.054 88.6675C230.371 89.3125 231.687 89.9145 233.121 90.3015C236.06 91.1185 239.21 91.226 242.267 90.968C248.991 90.3875 255.315 87.958 261.968 86.969C269.303 85.894 276.52 87.442 283.761 88.3235C289.662 89.033 295.987 89.205 301.535 86.9475C303.651 86.0875 306.472 84.7115 307.013 82.4325C307.506 80.39 305.79 78.756 303.933 77.9175C301.182 76.692 297.867 76.9285 294.952 77.294C291.402 77.724 287.946 78.412 284.349 78.455C277.343 78.5625 270.431 77.251 263.449 77.2295C260.111 77.2295 256.796 77.5735 253.551 78.3475C250.331 79.1215 247.204 80.1965 244.006 80.992C240.057 81.9595 236.084 82.2605 232.04 81.68C230.018 81.379 228.114 80.863 226.163 80.347C224.705 79.96 223.13 79.6375 221.602 79.9385C219.321 80.39 217.252 82.368 218.263 84.5825C219.18 86.6035 221.978 87.485 224.141 87.8935C224.517 87.915 224.705 87.2915 224.282 87.2055Z" fill="black"/>
<path d="M172.531 202.632C156.057 203.041 140.108 197.429 124.002 194.097C119.297 193.129 114.558 192.355 109.784 191.968C109.451 191.947 109.451 191.302 109.784 191.323C126.275 192.656 142.172 198.719 158.541 201.084C163.175 201.751 167.844 202.116 172.514 202.009C172.881 201.987 172.881 202.632 172.531 202.632Z" fill="black"/>
<path d="M95.5307 195.408C89.6722 193.86 83.6038 193.602 77.6753 194.72C72.219 195.752 66.99 197.967 61.831 200.332C56.742 202.654 51.6879 205.126 46.4065 206.782C40.9502 208.48 35.4064 208.91 29.7752 208.91C23.1297 208.91 16.4317 208.588 9.90865 210.394C9.57637 210.48 9.43648 209.856 9.76875 209.77C21.2935 206.588 33.2379 209.813 44.7626 206.588C55.5178 203.578 65.3462 196.806 76.2238 194.376C82.6595 192.936 89.27 193.108 95.6532 194.785C96.0029 194.871 95.863 195.494 95.5307 195.408Z" fill="black"/>
<path d="M191.051 112.741C192.555 112.182 195.511 110.655 194.409 108.075C193.622 106.226 191.279 106.076 189.827 106.14C184.931 106.312 180.034 106.828 175.137 106.334C170.538 105.861 166.148 104.248 161.671 102.958C157.124 101.625 152.315 100.658 147.733 102.292C145.722 103.001 143.851 104.184 141.875 105.001C140.93 105.388 139.951 105.689 138.954 105.818C137.765 105.968 136.576 105.753 135.404 105.689C134.197 105.624 132.956 105.667 131.924 106.549C130.98 107.344 130.193 108.849 130.805 110.247C131.679 112.268 134.232 111.709 135.701 111.322C140.056 110.204 144.445 109.86 148.87 110.591C151.213 110.978 153.504 111.687 155.743 112.569C158.156 113.515 160.5 114.353 163.07 113.923C165.466 113.515 167.757 112.569 170.188 112.461C172.619 112.332 175.032 112.719 177.428 113.106C182.08 113.88 187.047 114.869 191.401 112.096C191.698 111.902 191.961 112.461 191.663 112.655C187.589 115.256 182.989 114.654 178.582 113.945C176.274 113.558 173.948 113.149 171.605 113.085C169.034 113.02 166.638 113.751 164.137 114.353C161.584 114.955 159.275 114.633 156.792 113.687C154.326 112.741 151.895 111.816 149.342 111.343C146.701 110.849 144.026 110.72 141.368 110.956C139.007 111.15 136.751 111.924 134.425 112.246C133.043 112.44 131.277 112.375 130.42 110.784C129.441 108.957 130.49 106.828 131.836 105.818C133.883 104.291 136.418 105.366 138.639 105.194C141.088 105.001 143.344 103.603 145.6 102.528C150.286 100.292 155.078 100.572 159.922 101.84C165.046 103.173 170.031 105.216 175.277 105.732C178.303 106.033 181.363 105.968 184.388 105.818C185.962 105.732 187.554 105.646 189.128 105.56C190.107 105.517 191.069 105.495 192.031 105.732C193.517 106.097 195.214 107.172 195.109 109.344C194.986 111.73 192.748 112.827 191.174 113.407C190.877 113.493 190.737 112.87 191.051 112.741Z" fill="black"/>
<path d="M132.989 49.4273C134.493 49.1693 136.959 48.5028 137.396 46.3958C138.025 43.4718 134.633 42.5473 132.989 42.1818C128.18 41.1713 123.248 42.0958 118.404 42.0958C108.803 42.0743 99.3415 39.8383 89.793 38.9998C85.0187 38.5698 80.2095 38.5053 75.4527 39.2578C74.3684 39.4298 73.2317 39.5588 72.1824 39.9458C71.7452 40.0963 71.2555 40.3543 70.9232 40.7413C70.1188 41.7088 70.9058 42.5903 71.6403 43.0633C73.529 44.2888 75.68 44.7833 77.7961 44.8908C82.0282 45.1273 86.2429 44.0523 90.475 44.2458C92.4512 44.3318 94.3924 44.7403 96.2636 45.5788C98.4496 46.5678 100.478 47.9653 102.682 48.8898C105.235 49.9648 107.928 50.5023 110.639 50.5023C113.385 50.5023 116.095 49.9863 118.806 49.5993C124.297 48.8253 129.806 48.8468 135.28 49.7498C135.612 49.8143 135.612 50.4593 135.28 50.3948C129.928 49.5133 124.507 49.4488 119.138 50.2013C116.48 50.5668 113.822 51.0828 111.129 51.1473C108.645 51.2118 106.144 50.8248 103.749 49.9863C101.3 49.1263 99.0617 47.6428 96.7008 46.4818C94.4099 45.3638 92.049 44.8693 89.6006 44.8693C85.0887 44.8263 80.5592 46.0733 76.0473 45.3423C74.9455 45.1703 73.8787 44.8693 72.8295 44.3963C72.025 44.0308 70.9407 43.5793 70.3636 42.7408C69.2794 41.1283 70.8533 39.7093 72.025 39.3008C74.3334 38.4623 76.9392 38.3117 79.335 38.1397C81.9408 37.9462 84.5465 37.9678 87.1523 38.1183C97.6976 38.7418 108.121 41.4508 118.701 41.4078C121.709 41.4078 124.717 41.0638 127.725 41.0423C130.278 41.0208 133.199 41.0853 135.594 42.3108C137.098 43.0848 138.567 44.8908 137.728 47.0193C136.941 49.0188 134.72 49.7068 133.111 49.9863C132.796 50.1153 132.656 49.4918 132.989 49.4273Z" fill="black"/>
<path d="M231.117 62.7747C216.532 54.9917 200.547 62.2587 187.099 70.0632C180.244 74.0407 173.493 78.2977 166.34 81.4367C159.328 84.5112 152.035 86.6397 144.638 87.8652C129.79 90.3377 114.593 89.2412 99.9904 85.2207C84.6882 81.0067 70.1905 73.3527 55.0108 68.5582C39.2189 63.5702 22.7101 62.4952 6.60353 65.6987C4.64487 66.0857 2.70367 66.5372 0.762482 67.0532C0.430206 67.1392 0.290298 66.5157 0.622574 66.4297C16.257 62.3447 32.5035 62.1512 48.1729 65.9782C63.8423 69.8052 78.5848 77.6312 93.9569 82.7267C108.874 87.6717 124.456 89.6712 139.863 87.8867C147.523 87.0052 155.113 85.1777 162.458 82.3397C170.048 79.4157 177.166 75.1587 184.318 70.9447C197.242 63.3122 211.827 55.5722 226.447 60.1087C228.144 60.6247 229.77 61.3342 231.379 62.1942C231.676 62.3877 231.414 62.9467 231.117 62.7747Z" fill="black"/>
<path d="M73.2859 145.249C74.8249 144.862 77.3432 143.894 77.4656 141.551C77.5355 140.11 76.5562 139.057 75.5244 138.67C74.2828 138.175 72.9711 138.627 71.7645 139.057C69.5609 139.852 67.3399 140.497 65.0315 140.605C62.8805 140.712 60.7469 140.325 58.6658 139.637C56.4273 138.906 54.2413 137.917 52.0203 137.143C49.6769 136.326 47.281 135.896 44.8327 135.853C40.1633 135.767 35.5464 136.799 30.8946 137.036C28.5686 137.143 26.2777 136.993 23.9867 136.563C21.5034 136.09 18.9676 135.38 16.4319 135.746C14.6131 136.004 11.6926 137.509 12.2872 140.39C12.8118 142.905 15.7148 144.324 17.4986 145.034C26.4526 148.603 35.6863 142.669 44.7627 144.238C49.9917 145.141 54.9233 147.85 60.2048 148.366C62.6181 148.603 65.1015 148.409 67.3924 147.356C69.491 146.367 71.3797 144.217 73.7756 144.733C74.1079 144.797 73.968 145.421 73.6357 145.356C72.2017 145.055 70.9425 145.894 69.7358 146.711C68.7565 147.356 67.7771 147.958 66.7104 148.345C64.5243 149.162 62.1809 149.269 59.9075 149.011C54.9058 148.431 50.2015 146.001 45.2524 145.012C39.7961 143.937 34.4272 145.485 29.0408 146.367C24.6513 147.076 19.947 147.248 15.8198 144.991C14.2458 144.131 12.1472 142.755 11.745 140.476C11.3778 138.433 12.6544 136.799 14.036 135.961C16.0821 134.735 18.5479 134.972 20.7165 135.337C23.3572 135.767 25.9279 136.455 28.6036 136.498C33.8151 136.606 38.9566 135.294 44.1506 135.273C46.6339 135.273 49.0998 135.617 51.5131 136.391C53.909 137.165 56.2349 138.24 58.6133 139.035C61.5513 140.003 64.5069 140.304 67.5148 139.723C69.0188 139.422 70.4353 138.906 71.8869 138.39C72.9711 138.003 74.1428 137.681 75.2796 137.982C76.9759 138.433 78.5149 140.411 77.7629 142.626C77.0809 144.647 74.9998 145.528 73.3908 145.937C73.111 145.958 72.9711 145.335 73.2859 145.249Z" fill="black"/>
<path d="M151.755 230.152C145.215 228.217 138.814 225.573 132.641 222.283C129.44 220.563 126.31 218.607 122.9 217.575C119.63 216.564 116.237 216.263 112.862 216.371C108.962 216.478 105.097 217.123 101.249 217.876C100.917 217.94 100.777 217.317 101.11 217.252C107.668 215.984 114.418 214.952 121.011 216.414C124.404 217.166 127.517 218.757 130.63 220.499C133.9 222.326 137.205 223.982 140.598 225.444C144.305 227.035 148.065 228.411 151.895 229.529C152.227 229.615 152.088 230.238 151.755 230.152Z" fill="black"/>
<path d="M110.431 216.607C107.493 216.521 104.59 216.005 101.757 214.995C98.8713 213.984 96.0207 212.565 92.9602 212.931C91.4038 213.103 89.8823 213.64 88.3784 214.113C86.8044 214.608 85.248 215.102 83.674 215.597C80.6486 216.543 77.6406 217.489 74.6152 218.435C74.2829 218.542 74.143 217.919 74.4753 217.811C77.6057 216.822 80.736 215.855 83.8664 214.866C86.7345 213.963 89.6725 212.759 92.6105 212.329C95.496 211.92 98.2242 213.017 100.952 214.049C104.048 215.21 107.196 215.876 110.413 215.984C110.763 215.962 110.763 216.607 110.431 216.607Z" fill="black"/>
<path d="M79.809 219.94C72.9362 218.069 65.7136 216.457 58.7358 218.435C55.2732 219.424 52.0203 221.316 48.785 223.057C45.3923 224.906 41.9821 226.734 38.5894 228.583C38.2746 228.755 38.0123 228.196 38.3271 228.024C43.6435 225.143 48.9074 222.025 54.3288 219.467C59.5752 216.994 65.0315 216.5 70.5928 217.274C73.7406 217.725 76.871 218.478 79.9664 219.338C80.2812 219.402 80.1413 220.026 79.809 219.94Z" fill="black"/>
<path d="M141.945 237.613C140.143 237.226 138.324 236.839 136.523 236.452C134.722 236.065 132.903 235.57 131.084 235.334C129.405 235.119 127.692 235.484 126.03 235.678C124.194 235.914 122.34 236.129 120.504 236.366C120.172 236.409 120.172 235.764 120.504 235.721C122.34 235.484 124.194 235.269 126.03 235.033C127.814 234.818 129.615 234.452 131.417 234.732C134.984 235.269 138.534 236.237 142.084 236.989C142.417 237.075 142.277 237.699 141.945 237.613Z" fill="black"/>
<path d="M277.517 171.657C257.513 164.992 234.802 165.852 213.819 169.163C191.627 172.667 170.269 178.773 147.875 181.611C135.47 183.181 122.805 183.74 110.313 182.278C109.766 182.213 109.996 181.59 110.543 181.654C133.743 184.342 156.942 180.042 179.135 175.355C200.377 170.861 221.878 165.873 244.215 166.002C255.786 166.067 267.328 167.572 277.949 171.098C278.467 171.27 278.036 171.829 277.517 171.657Z" fill="black"/>
<path d="M924.807 146.657C910.142 139.992 893.493 140.852 878.11 144.163C861.841 147.667 846.183 153.773 829.767 156.611C820.672 158.181 811.387 158.74 802.229 157.278C801.828 157.213 801.997 156.59 802.398 156.654C819.406 159.342 836.413 155.042 852.683 150.355C868.256 145.861 884.018 140.873 900.393 141.002C908.876 141.067 917.338 142.572 925.124 146.098C925.504 146.27 925.187 146.829 924.807 146.657Z" fill="black"/>
<path d="M856.385 196.632C836.508 197.041 817.263 191.429 797.829 188.097C792.153 187.129 786.434 186.355 780.673 185.968C780.272 185.947 780.272 185.302 780.673 185.323C800.572 186.656 819.753 192.719 839.504 195.084C845.096 195.751 850.73 196.116 856.364 196.009C856.807 195.987 856.807 196.632 856.385 196.632Z" fill="black"/>
<path d="M752.197 203.007C740.119 201.459 727.608 201.201 715.386 202.319C704.138 203.351 693.358 205.565 682.722 207.93C672.231 210.252 661.811 212.725 650.923 214.38C639.675 216.079 628.246 216.509 616.637 216.509C602.936 216.509 589.128 216.186 575.68 217.992C574.995 218.078 574.707 217.455 575.392 217.369C599.151 214.187 623.775 217.412 647.534 214.187C669.707 211.177 689.969 204.404 712.394 201.975C725.662 200.534 739.29 200.706 752.449 202.383C753.17 202.469 752.882 203.093 752.197 203.007Z" fill="black"/>
<path d="M878.731 106.741C880.546 106.182 884.112 104.655 882.783 102.075C881.833 100.226 879.006 100.076 877.254 100.14C871.346 100.312 865.437 100.828 859.529 100.334C853.979 99.8607 848.683 98.2482 843.281 96.9582C837.794 95.6252 831.992 94.6577 826.463 96.2917C824.036 97.0012 821.778 98.1837 819.394 99.0007C818.255 99.3877 817.073 99.6887 815.87 99.8177C814.435 99.9682 813 99.7532 811.586 99.6887C810.13 99.6242 808.632 99.6672 807.387 100.549C806.248 101.344 805.298 102.849 806.037 104.247C807.092 106.268 810.173 105.709 811.945 105.322C817.199 104.204 822.496 103.86 827.835 104.591C830.662 104.978 833.426 105.687 836.127 106.569C839.039 107.515 841.867 108.353 844.969 107.923C847.86 107.515 850.624 106.569 853.557 106.461C856.49 106.332 859.402 106.719 862.293 107.106C867.906 107.88 873.899 108.869 879.153 106.096C879.512 105.902 879.828 106.461 879.47 106.655C874.553 109.256 869.003 108.654 863.686 107.945C860.9 107.558 858.094 107.149 855.266 107.085C852.165 107.02 849.274 107.751 846.256 108.353C843.175 108.955 840.39 108.633 837.394 107.687C834.418 106.741 831.485 105.816 828.404 105.343C825.218 104.849 821.989 104.72 818.782 104.956C815.933 105.15 813.211 105.924 810.405 106.246C808.738 106.44 806.607 106.375 805.573 104.784C804.391 102.957 805.657 100.828 807.282 99.8177C809.751 98.2912 812.81 99.3662 815.49 99.1942C818.444 99.0007 821.167 97.6032 823.889 96.5282C829.544 94.2922 835.326 94.5717 841.171 95.8402C847.353 97.1732 853.367 99.2157 859.698 99.7317C863.348 100.033 867.041 99.9682 870.692 99.8177C872.591 99.7317 874.511 99.6457 876.41 99.5597C877.592 99.5167 878.752 99.4952 879.913 99.7317C881.707 100.097 883.753 101.172 883.627 103.344C883.479 105.73 880.778 106.827 878.879 107.407C878.52 107.493 878.351 106.87 878.731 106.741Z" fill="black"/>
<path d="M723.003 27.4273C724.818 27.1693 727.793 26.5028 728.321 24.3958C729.08 21.4718 724.987 20.5473 723.003 20.1818C717.2 19.1713 711.25 20.0958 705.405 20.0958C693.82 20.0743 682.404 17.8383 670.883 16.9998C665.122 16.5698 659.319 16.5053 653.579 17.2578C652.271 17.4298 650.9 17.5588 649.634 17.9458C649.106 18.0963 648.515 18.3543 648.114 18.7413C647.144 19.7088 648.093 20.5903 648.979 21.0633C651.258 22.2888 653.854 22.7833 656.407 22.8908C661.514 23.1273 666.599 22.0523 671.706 22.2458C674.09 22.3318 676.432 22.7403 678.69 23.5788C681.328 24.5678 683.776 25.9653 686.434 26.8898C689.515 27.9648 692.765 28.5023 696.036 28.5023C699.348 28.5023 702.619 27.9863 705.89 27.5993C712.516 26.8253 719.163 26.8468 725.767 27.7498C726.168 27.8143 726.168 28.4593 725.767 28.3948C719.31 27.5133 712.769 27.4488 706.291 28.2013C703.083 28.5668 699.876 29.0828 696.626 29.1473C693.63 29.2118 690.612 28.8248 687.722 27.9863C684.767 27.1263 682.066 25.6428 679.218 24.4818C676.453 23.3638 673.605 22.8693 670.651 22.8693C665.206 22.8263 659.741 24.0733 654.297 23.3423C652.968 23.1703 651.68 22.8693 650.414 22.3963C649.444 22.0308 648.135 21.5793 647.439 20.7408C646.131 19.1283 648.03 17.7093 649.444 17.3008C652.229 16.4623 655.373 16.3117 658.264 16.1397C661.408 15.9462 664.552 15.9678 667.696 16.1183C680.42 16.7418 692.997 19.4508 705.763 19.4078C709.393 19.4078 713.022 19.0638 716.652 19.0423C719.732 19.0208 723.256 19.0853 726.147 20.3108C727.962 21.0848 729.735 22.8908 728.722 25.0193C727.772 27.0188 725.092 27.7068 723.151 27.9863C722.771 28.1153 722.602 27.4918 723.003 27.4273Z" fill="black"/>
<path d="M927.075 56.7747C909.476 48.9917 890.19 56.2587 873.963 64.0632C865.691 68.0407 857.546 72.2977 848.915 75.4367C840.454 78.5112 831.654 80.6397 822.728 81.8652C804.813 84.3377 786.476 83.2412 768.856 79.2207C750.393 75.0067 732.9 67.3527 714.584 62.5582C695.529 57.5702 675.609 56.4952 656.175 59.6987C653.812 60.0857 651.469 60.5372 649.127 61.0532C648.726 61.1392 648.557 60.5157 648.958 60.4297C667.823 56.3447 687.426 56.1512 706.333 59.9782C725.24 63.8052 743.028 71.6312 761.576 76.7267C779.576 81.6717 798.377 83.6712 816.968 81.8867C826.21 81.0052 835.368 79.1777 844.231 76.3397C853.389 73.4157 861.977 69.1587 870.608 64.9447C886.202 57.3122 903.8 49.5722 921.441 54.1087C923.488 54.6247 925.45 55.3342 927.392 56.1942C927.75 56.3877 927.434 56.9467 927.075 56.7747Z" fill="black"/>
<path d="M854.865 49.0776C834.249 60.7952 809.708 61.6767 786.834 58.4087C760.943 54.7107 736.001 46.0031 710.067 42.6061C695.634 40.7141 680.905 40.4776 666.62 43.7026C666.219 43.7886 666.05 43.1651 666.451 43.0791C691.709 37.4031 717.622 42.4126 742.353 48.2822C766.725 54.0657 791.371 60.8167 816.63 59.1612C829.818 58.3012 842.943 55.0977 854.549 48.5187C854.887 48.3037 855.203 48.8626 854.865 49.0776Z" fill="black"/>
<path d="M736.634 139.249C738.491 138.862 741.53 137.894 741.677 135.551C741.762 134.11 740.58 133.057 739.335 132.67C737.837 132.175 736.254 132.627 734.798 133.057C732.14 133.852 729.46 134.497 726.674 134.605C724.079 134.712 721.504 134.325 718.993 133.637C716.292 132.906 713.655 131.917 710.975 131.143C708.147 130.326 705.256 129.896 702.302 129.853C696.668 129.767 691.097 130.799 685.484 131.036C682.678 131.143 679.914 130.993 677.149 130.563C674.153 130.09 671.093 129.38 668.033 129.746C665.839 130.004 662.315 131.509 663.032 134.39C663.665 136.905 667.168 138.324 669.321 139.034C680.125 142.603 691.266 136.669 702.218 138.238C708.527 139.141 714.478 141.85 720.85 142.366C723.762 142.603 726.759 142.409 729.523 141.356C732.055 140.367 734.334 138.217 737.225 138.733C737.626 138.797 737.457 139.421 737.056 139.356C735.326 139.055 733.807 139.894 732.351 140.711C731.169 141.356 729.987 141.958 728.7 142.345C726.062 143.162 723.235 143.269 720.492 143.011C714.457 142.431 708.78 140.001 702.809 139.012C696.225 137.937 689.747 139.485 683.248 140.367C677.951 141.076 672.275 141.248 667.295 138.991C665.396 138.131 662.864 136.755 662.378 134.476C661.935 132.433 663.476 130.799 665.143 129.961C667.611 128.735 670.587 128.972 673.203 129.337C676.39 129.767 679.491 130.455 682.72 130.498C689.008 130.606 695.212 129.294 701.479 129.273C704.476 129.273 707.451 129.617 710.363 130.391C713.254 131.165 716.06 132.24 718.93 133.035C722.475 134.003 726.041 134.304 729.671 133.723C731.485 133.422 733.195 132.906 734.946 132.39C736.254 132.003 737.668 131.681 739.04 131.982C741.087 132.433 742.944 134.411 742.036 136.626C741.213 138.647 738.702 139.528 736.761 139.937C736.423 139.958 736.254 139.335 736.634 139.249Z" fill="black"/>
<path d="M831.316 224.152C823.424 222.217 815.701 219.573 808.252 216.283C804.391 214.563 800.614 212.607 796.499 211.575C792.553 210.564 788.459 210.263 784.387 210.371C779.681 210.478 775.018 211.123 770.375 211.876C769.974 211.94 769.806 211.317 770.207 211.252C778.12 209.984 786.265 208.952 794.22 210.414C798.314 211.166 802.07 212.757 805.826 214.499C809.772 216.326 813.76 217.982 817.854 219.444C822.327 221.035 826.864 222.411 831.485 223.529C831.886 223.615 831.717 224.238 831.316 224.152Z" fill="black"/>
<path d="M781.454 210.607C777.909 210.521 774.406 210.005 770.988 208.995C767.506 207.984 764.066 206.565 760.374 206.931C758.496 207.103 756.66 207.64 754.845 208.113C752.946 208.608 751.068 209.102 749.169 209.597C745.518 210.543 741.889 211.489 738.238 212.435C737.837 212.542 737.668 211.919 738.069 211.811C741.847 210.822 745.624 209.855 749.401 208.866C752.861 207.963 756.406 206.759 759.952 206.329C763.433 205.92 766.725 207.017 770.017 208.049C773.752 209.21 777.55 209.876 781.433 209.984C781.855 209.962 781.855 210.607 781.454 210.607Z" fill="black"/>
<path d="M744.505 213.94C736.212 212.069 727.497 210.457 719.078 212.435C714.9 213.424 710.975 215.316 707.071 217.057C702.977 218.906 698.863 220.734 694.769 222.583C694.389 222.755 694.073 222.196 694.452 222.024C700.867 219.143 707.219 216.025 713.76 213.467C720.091 210.994 726.674 210.5 733.385 211.274C737.183 211.725 740.96 212.478 744.695 213.338C745.075 213.402 744.906 214.026 744.505 213.94Z" fill="black"/>
<path d="M819.478 231.613C817.305 231.226 815.11 230.839 812.937 230.452C810.764 230.065 808.569 229.57 806.374 229.334C804.349 229.119 802.281 229.484 800.276 229.678C798.06 229.914 795.824 230.129 793.608 230.366C793.207 230.409 793.207 229.764 793.608 229.721C795.824 229.484 798.06 229.269 800.276 229.033C802.428 228.818 804.602 228.452 806.775 228.732C811.08 229.269 815.364 230.237 819.647 230.989C820.048 231.075 819.879 231.699 819.478 231.613Z" fill="black"/>
</svg>
