<svg width="413" height="244" viewBox="0 0 413 244" fill="none" xmlns="http://www.w3.org/2000/svg">
<path d="M368.309 49.222C370.136 49.222 371.617 47.8292 371.617 46.111C371.617 44.3928 370.136 43 368.309 43C366.481 43 365 44.3928 365 46.111C365 47.8292 366.481 49.222 368.309 49.222Z" fill="#7BE495"/>
<path d="M319.778 112.652C317.875 112.286 314.761 111.371 314.61 109.154C314.523 107.792 315.734 106.796 317.01 106.43C318.546 105.962 320.167 106.389 321.66 106.796C324.384 107.548 327.131 108.158 329.985 108.26C332.645 108.361 335.283 107.995 337.857 107.345C340.625 106.653 343.328 105.718 346.074 104.986C348.972 104.213 351.935 103.807 354.962 103.766C360.736 103.685 366.445 104.661 372.197 104.884C375.073 104.986 377.906 104.844 380.739 104.437C383.81 103.99 386.945 103.319 390.081 103.664C392.33 103.908 395.941 105.332 395.206 108.056C394.557 110.435 390.968 111.777 388.762 112.448C377.69 115.824 366.272 110.212 355.049 111.696C348.583 112.55 342.484 115.112 335.954 115.6C332.969 115.824 329.899 115.641 327.066 114.644C324.471 113.709 322.135 111.676 319.173 112.164C318.762 112.225 318.935 112.814 319.346 112.753C321.119 112.469 322.676 113.262 324.168 114.034C325.379 114.644 326.59 115.214 327.909 115.58C330.612 116.352 333.51 116.454 336.321 116.21C342.506 115.661 348.323 113.363 354.443 112.428C361.19 111.411 367.829 112.875 374.489 113.709C379.917 114.38 385.734 114.543 390.838 112.408C392.784 111.594 395.379 110.293 395.877 108.138C396.331 106.206 394.752 104.661 393.044 103.868C390.514 102.709 387.464 102.932 384.783 103.278C381.518 103.685 378.339 104.335 375.03 104.376C368.586 104.478 362.228 103.237 355.805 103.217C352.735 103.217 349.686 103.542 346.701 104.274C343.739 105.006 340.863 106.023 337.922 106.775C334.289 107.69 330.634 107.975 326.914 107.426C325.055 107.141 323.303 106.653 321.508 106.165C320.167 105.799 318.719 105.494 317.313 105.779C315.215 106.206 313.312 108.077 314.242 110.171C315.086 112.082 317.659 112.916 319.648 113.302C319.994 113.323 320.167 112.733 319.778 112.652Z" fill="#205072"/>
<path d="M-22.3189 134.822C8.01023 130.755 40.3613 132.362 68.9574 139.377C83.0026 142.813 96.1813 147.286 109.974 151.007C123.875 154.749 138.389 157.331 153.698 158.49C171.21 159.812 188.938 159.588 206.485 158.937C207.172 158.917 207.172 158.307 206.485 158.327C190.635 158.917 174.64 159.161 158.825 158.226C142.794 157.27 127.485 154.911 112.862 151.109C98.9615 147.469 85.8189 142.996 71.8458 139.458C58.1255 135.92 43.5748 133.582 28.5907 132.585C11.5125 131.426 -5.89061 131.996 -22.6077 134.232C-23.2938 134.314 -23.0049 134.903 -22.3189 134.822Z" fill="#205072"/>
<path d="M49.0189 191.194C64.0483 184.891 81.1104 185.704 96.875 188.836C113.548 192.15 129.594 197.925 146.418 200.609C155.738 202.093 165.253 202.622 174.639 201.239C175.049 201.178 174.876 200.588 174.466 200.649C157.036 203.191 139.606 199.124 122.933 194.692C106.974 190.442 90.82 185.725 74.039 185.847C65.3458 185.908 56.6741 187.331 48.6945 190.666C48.3053 190.828 48.6296 191.357 49.0189 191.194Z" fill="#205072"/>
<path d="M133.183 196.44C153.554 196.827 173.276 191.52 193.193 188.368C199.01 187.453 204.87 186.721 210.774 186.355C211.185 186.335 211.185 185.725 210.774 185.745C190.382 187.006 170.724 192.74 150.483 194.976C144.753 195.607 138.979 195.952 133.205 195.851C132.751 195.83 132.751 196.44 133.183 196.44Z" fill="#205072"/>
<path d="M228.398 189.608C235.643 188.144 243.146 187.9 250.477 188.958C257.224 189.934 263.69 192.028 270.07 194.265C276.362 196.461 282.612 198.799 289.143 200.365C295.89 201.971 302.745 202.378 309.708 202.378C317.926 202.378 326.208 202.073 334.274 203.781C334.685 203.862 334.858 203.272 334.447 203.191C320.196 200.182 305.426 203.232 291.176 200.182C277.876 197.335 265.723 190.93 252.272 188.632C244.314 187.27 236.14 187.433 228.247 189.019C227.814 189.1 227.987 189.69 228.398 189.608Z" fill="#205072"/>
<path d="M110.282 111.427C108.423 110.898 104.768 109.454 106.13 107.014C107.104 105.266 110.001 105.123 111.796 105.184C117.851 105.347 123.906 105.835 129.961 105.367C135.649 104.92 141.076 103.395 146.612 102.175C152.235 100.914 158.182 99.9993 163.848 101.545C166.334 102.216 168.648 103.334 171.092 104.107C172.26 104.473 173.471 104.757 174.703 104.879C176.174 105.022 177.644 104.818 179.093 104.757C180.585 104.696 182.121 104.737 183.397 105.571C184.564 106.323 185.537 107.746 184.781 109.068C183.699 110.979 180.542 110.451 178.726 110.085C173.341 109.027 167.913 108.702 162.442 109.393C159.544 109.759 156.711 110.43 153.943 111.264C150.959 112.159 148.061 112.952 144.882 112.545C141.92 112.159 139.087 111.264 136.081 111.162C133.075 111.04 130.091 111.406 127.128 111.772C121.376 112.504 115.235 113.44 109.85 110.817C109.482 110.634 109.158 111.162 109.526 111.345C114.564 113.806 120.252 113.236 125.701 112.565C128.556 112.199 131.432 111.813 134.329 111.752C137.508 111.691 140.471 112.382 143.563 112.952C146.721 113.521 149.575 113.216 152.646 112.321C155.695 111.427 158.701 110.552 161.858 110.105C165.123 109.637 168.432 109.515 171.719 109.739C174.638 109.922 177.428 110.654 180.304 110.959C182.013 111.142 184.197 111.081 185.256 109.576C186.467 107.848 185.17 105.835 183.505 104.879C180.975 103.436 177.839 104.452 175.093 104.29C172.065 104.107 169.275 102.785 166.486 101.768C160.69 99.6537 154.765 99.918 148.775 101.118C142.439 102.378 136.276 104.31 129.788 104.798C126.047 105.083 122.263 105.022 118.522 104.879C116.575 104.798 114.607 104.717 112.661 104.635C111.45 104.595 110.261 104.574 109.071 104.798C107.233 105.144 105.136 106.16 105.265 108.214C105.417 110.471 108.185 111.508 110.131 112.057C110.499 112.138 110.672 111.549 110.282 111.427Z" fill="#205072"/>
<path d="M269.875 36.417C268.015 36.173 264.966 35.5427 264.426 33.55C263.647 30.7847 267.842 29.9103 269.875 29.5647C275.822 28.609 281.92 29.4833 287.91 29.4833C299.782 29.463 311.482 27.3483 323.289 26.5553C329.192 26.1487 335.139 26.0877 341.021 26.7993C342.362 26.962 343.768 27.084 345.065 27.45C345.606 27.5923 346.211 27.8363 346.622 28.2023C347.617 29.1173 346.644 29.951 345.736 30.3983C343.4 31.5573 340.74 32.025 338.124 32.1267C332.89 32.3503 327.679 31.3337 322.445 31.5167C320.002 31.598 317.601 31.9843 315.288 32.7773C312.584 33.7127 310.076 35.0343 307.351 35.9087C304.194 36.9253 300.864 37.4337 297.512 37.4337C294.117 37.4337 290.765 36.9457 287.413 36.5797C280.623 35.8477 273.811 35.868 267.042 36.722C266.631 36.783 266.631 37.393 267.042 37.332C273.659 36.4983 280.363 36.4373 287.002 37.149C290.289 37.4947 293.576 37.9827 296.906 38.0437C299.977 38.1047 303.069 37.7387 306.032 36.9457C309.06 36.1323 311.828 34.7293 314.747 33.6313C317.58 32.574 320.499 32.1063 323.527 32.1063C329.106 32.0657 334.707 33.245 340.286 32.5537C341.648 32.391 342.968 32.1063 344.265 31.659C345.26 31.3133 346.601 30.8863 347.314 30.0933C348.655 28.5683 346.709 27.2263 345.26 26.84C342.405 26.047 339.183 25.9047 336.221 25.742C332.998 25.559 329.776 25.5793 326.554 25.7217C313.514 26.3113 300.626 28.8733 287.543 28.8327C283.823 28.8327 280.104 28.5073 276.384 28.487C273.227 28.4667 269.616 28.5277 266.653 29.6867C264.793 30.4187 262.977 32.1267 264.015 34.1397C264.988 36.0307 267.734 36.6813 269.724 36.9457C270.113 37.0677 270.286 36.478 269.875 36.417Z" fill="#205072"/>
<path d="M60.7396 64.172C78.7749 56.8113 98.5401 63.684 115.17 71.065C123.647 74.8267 131.994 78.8527 140.839 81.8213C149.51 84.729 158.528 86.742 167.675 87.901C186.035 90.2393 204.827 89.2023 222.884 85.4C241.806 81.4147 259.733 74.176 278.503 69.6417C298.031 64.9243 318.445 63.9077 338.361 66.9373C340.783 67.3033 343.184 67.7303 345.584 68.2183C345.995 68.2997 346.168 67.71 345.757 67.6287C326.424 63.7653 306.335 63.5823 286.959 67.2017C267.583 70.821 249.353 78.2223 230.344 83.0413C211.898 87.718 192.63 89.609 173.579 87.9213C164.107 87.0877 154.722 85.3593 145.639 82.6753C136.254 79.91 127.453 75.884 118.608 71.8987C102.627 64.6803 84.592 57.3603 66.5135 61.6507C64.4159 62.1387 62.4048 62.8097 60.4153 63.623C60.0476 63.806 60.372 64.3347 60.7396 64.172Z" fill="#205072"/>
<path d="M134.74 56.8927C155.868 67.9744 181.018 68.808 204.459 65.7174C230.993 62.22 256.554 53.985 283.131 50.7723C297.923 48.983 313.017 48.7593 327.657 51.8094C328.068 51.8907 328.241 51.301 327.83 51.2197C301.945 45.8517 275.389 50.5894 250.045 56.1404C225.068 61.61 199.81 67.9947 173.925 66.429C160.409 65.6157 146.959 62.586 135.065 56.364C134.719 56.1607 134.394 56.6894 134.74 56.8927Z" fill="#205072"/>
<path d="M71.6603 18.9303C89.8253 14.8637 109.201 16.47 126.328 23.485C134.74 26.9213 142.634 31.3947 150.894 35.1157C159.22 38.857 167.913 41.4393 177.082 42.5983C187.57 43.92 198.188 43.6963 208.698 43.0457C209.109 43.0253 209.109 42.4153 208.698 42.4357C199.205 43.0253 189.625 43.2693 180.153 42.334C170.551 41.3783 161.382 39.0197 152.624 35.2173C144.299 31.5777 136.427 27.1043 128.058 23.5663C119.841 20.0283 111.126 17.69 102.152 16.6937C91.9229 15.5347 81.4996 16.104 71.4873 18.3407C71.0764 18.422 71.2494 19.0117 71.6603 18.9303Z" fill="#205072"/>
<path d="M255.905 142.171C254.002 141.805 250.888 140.89 250.737 138.673C250.65 137.311 251.861 136.315 253.137 135.949C254.673 135.481 256.294 135.908 257.787 136.315C260.511 137.067 263.258 137.677 266.112 137.779C268.772 137.88 271.41 137.514 273.984 136.864C276.752 136.172 279.455 135.237 282.201 134.505C285.099 133.732 288.062 133.326 291.089 133.285C296.863 133.204 302.572 134.18 308.324 134.403C311.2 134.505 314.033 134.363 316.866 133.956C319.937 133.509 323.073 132.838 326.208 133.183C328.457 133.427 332.068 134.851 331.333 137.575C330.684 139.954 327.095 141.296 324.889 141.967C313.817 145.343 302.399 139.731 291.176 141.215C284.71 142.069 278.611 144.631 272.081 145.119C269.096 145.343 266.026 145.16 263.193 144.163C260.598 143.228 258.262 141.195 255.3 141.683C254.889 141.744 255.062 142.333 255.473 142.272C257.246 141.988 258.803 142.781 260.295 143.553C261.506 144.163 262.717 144.733 264.036 145.099C266.739 145.871 269.637 145.973 272.448 145.729C278.633 145.18 284.45 142.882 290.57 141.947C297.317 140.93 303.956 142.394 310.617 143.228C316.044 143.899 321.862 144.062 326.965 141.927C328.911 141.113 331.506 139.812 332.004 137.657C332.458 135.725 330.879 134.18 329.171 133.387C326.641 132.228 323.592 132.451 320.91 132.797C317.645 133.204 314.466 133.854 311.157 133.895C304.713 133.997 298.355 132.756 291.932 132.736C288.862 132.736 285.813 133.061 282.828 133.793C279.866 134.525 276.99 135.542 274.049 136.294C270.416 137.209 266.761 137.494 263.042 136.945C261.182 136.66 259.43 136.172 257.635 135.684C256.295 135.318 254.846 135.013 253.44 135.298C251.342 135.725 249.439 137.596 250.369 139.69C251.213 141.601 253.786 142.435 255.776 142.821C256.122 142.842 256.295 142.252 255.905 142.171Z" fill="#205072"/>
<path d="M158.874 222.467C166.962 220.637 174.876 218.136 182.51 215.025C186.467 213.398 190.338 211.548 194.555 210.572C198.599 209.616 202.794 209.332 206.968 209.433C211.79 209.535 216.569 210.145 221.327 210.857C221.738 210.918 221.911 210.328 221.5 210.267C213.391 209.067 205.043 208.091 196.891 209.474C192.695 210.186 188.846 211.69 184.997 213.337C180.953 215.066 176.866 216.631 172.671 218.014C168.086 219.519 163.437 220.82 158.701 221.877C158.29 221.959 158.463 222.548 158.874 222.467Z" fill="#205072"/>
<path d="M209.974 209.657C213.607 209.576 217.196 209.088 220.7 208.132C224.268 207.176 227.793 205.834 231.577 206.18C233.502 206.343 235.383 206.851 237.243 207.298C239.189 207.766 241.114 208.234 243.06 208.701C246.801 209.596 250.521 210.491 254.262 211.385C254.673 211.487 254.846 210.897 254.435 210.796C250.564 209.86 246.693 208.945 242.822 208.01C239.276 207.156 235.643 206.017 232.01 205.611C228.441 205.224 225.068 206.261 221.694 207.237C217.867 208.335 213.974 208.966 209.995 209.067C209.563 209.047 209.563 209.657 209.974 209.657Z" fill="#205072"/>
<path d="M247.839 212.809C256.338 211.04 265.269 209.515 273.897 211.385C278.179 212.321 282.201 214.11 286.202 215.757C290.397 217.506 294.614 219.234 298.809 220.983C299.199 221.145 299.523 220.617 299.134 220.454C292.56 217.729 286.051 214.781 279.347 212.361C272.859 210.023 266.112 209.555 259.236 210.287C255.343 210.714 251.472 211.426 247.645 212.239C247.255 212.3 247.428 212.89 247.839 212.809Z" fill="#205072"/>
<path d="M171.005 229.523C173.233 229.157 175.482 228.791 177.709 228.425C179.937 228.059 182.186 227.591 184.435 227.367C186.511 227.164 188.63 227.51 190.684 227.693C192.955 227.916 195.247 228.12 197.518 228.343C197.929 228.384 197.929 227.774 197.518 227.733C195.247 227.51 192.955 227.306 190.684 227.083C188.478 226.879 186.251 226.534 184.024 226.798C179.612 227.306 175.222 228.221 170.832 228.933C170.422 229.014 170.595 229.604 171.005 229.523Z" fill="#205072"/>
<path d="M111.277 137.819C112.758 137.819 113.959 136.691 113.959 135.298C113.959 133.906 112.758 132.777 111.277 132.777C109.796 132.777 108.596 133.906 108.596 135.298C108.596 136.691 109.796 137.819 111.277 137.819Z" fill="#205072"/>
<path d="M118.522 143.35C119.298 143.35 119.927 142.758 119.927 142.028C119.927 141.298 119.298 140.707 118.522 140.707C117.745 140.707 117.116 141.298 117.116 142.028C117.116 142.758 117.745 143.35 118.522 143.35Z" fill="#205072"/>
<path d="M269.334 14.2537C271.162 14.2537 272.643 12.8608 272.643 11.1427C272.643 9.42452 271.162 8.03168 269.334 8.03168C267.507 8.03168 266.026 9.42452 266.026 11.1427C266.026 12.8608 267.507 14.2537 269.334 14.2537Z" fill="#7BE495"/>
<path d="M277.033 17.7713C278.072 17.7713 278.914 16.9793 278.914 16.0023C278.914 15.0253 278.072 14.2333 277.033 14.2333C275.994 14.2333 275.152 15.0253 275.152 16.0023C275.152 16.9793 275.994 17.7713 277.033 17.7713Z" fill="#7BE495"/>
<path d="M275.779 17.0394C277.51 17.0394 278.914 15.7194 278.914 14.091C278.914 12.4627 277.51 11.1427 275.779 11.1427C274.047 11.1427 272.643 12.4627 272.643 14.091C272.643 15.7194 274.047 17.0394 275.779 17.0394Z" fill="#205072"/>
<path d="M268.275 168.767C270.616 168.767 272.513 166.982 272.513 164.781C272.513 162.58 270.616 160.796 268.275 160.796C265.934 160.796 264.036 162.58 264.036 164.781C264.036 166.982 265.934 168.767 268.275 168.767Z" fill="#7BE495"/>
<path d="M112.703 28.0833C114.196 28.0833 115.406 26.9454 115.406 25.5417C115.406 24.1379 114.196 23 112.703 23C111.21 23 110 24.1379 110 25.5417C110 26.9454 111.21 28.0833 112.703 28.0833Z" fill="#205072"/>
<path d="M157.166 190.035C158.993 190.035 160.474 188.643 160.474 186.924C160.474 185.206 158.993 183.813 157.166 183.813C155.338 183.813 153.857 185.206 153.857 186.924C153.857 188.643 155.338 190.035 157.166 190.035Z" fill="#7BE495"/>
<path d="M181.04 131.516C180.585 131.333 181.104 130.581 181.342 130.479C181.623 130.357 182.186 130.52 182.488 130.601C182.964 130.743 183.375 130.987 183.851 131.109C184.37 131.252 184.997 131.292 185.494 131.069C187.224 130.235 185.17 127.429 187.7 127.429C189.084 127.429 190.252 129.361 191.398 127.917C191.809 127.409 191.982 126.758 192.198 126.148C192.371 125.619 192.522 125.07 192.912 124.643C193.366 124.155 194.75 123.667 194.901 124.725C194.944 125.111 195.615 125.111 195.55 124.725C195.442 123.993 194.88 123.505 194.079 123.464C193.128 123.403 192.436 124.074 192.047 124.806C191.766 125.314 191.636 125.884 191.441 126.433C191.311 126.819 191.138 127.49 190.771 127.734C190.382 127.978 190.079 127.714 189.754 127.531C188.911 127.002 187.895 126.595 186.878 126.941C185.948 127.266 185.581 128.019 185.624 128.913C185.624 129.178 185.711 129.503 185.689 129.767C185.538 130.703 184.867 130.743 184.175 130.601C183.483 130.459 182.899 130.052 182.186 129.93C181.429 129.788 180.672 129.971 180.326 130.682C180.045 131.292 180.218 131.902 180.867 132.146C181.256 132.248 181.429 131.658 181.04 131.516Z" fill="#205072"/>
<path d="M192.198 132.492C191.874 132.024 191.874 131.435 192.22 130.967C192.717 130.296 193.409 130.398 194.166 130.499C194.728 130.581 195.42 130.682 195.831 130.215C196.112 129.91 196.069 129.544 196.177 129.198C196.328 128.69 196.674 128.242 197.129 127.937C198.08 127.287 199.421 127.185 200.372 127.876C200.61 128.039 200.891 127.937 200.935 127.653C201.194 125.68 203.27 124.216 205.346 124.562C205.757 124.623 205.93 124.033 205.519 123.972C202.989 123.566 200.589 125.274 200.286 127.653C200.48 127.571 200.653 127.51 200.848 127.429C199.961 126.778 198.837 126.616 197.777 126.961C196.566 127.348 196.004 128.1 195.55 129.157C195.334 129.686 195.074 130.011 194.447 129.93C194.101 129.889 193.777 129.808 193.431 129.788C192.933 129.767 192.501 129.889 192.112 130.194C191.29 130.845 191.074 131.963 191.657 132.817C191.874 133.143 192.436 132.838 192.198 132.492Z" fill="#205072"/>
<path d="M203.14 21.2077C202.773 20.8823 202.881 20.679 203.443 20.5773C203.681 20.2723 203.94 20.2113 204.222 20.4147C204.611 20.496 204.87 20.8213 205.151 21.0653C205.497 21.35 205.8 21.6753 206.189 21.899C206.73 22.1837 207.4 22.3057 207.963 22.0413C208.655 21.716 208.676 21.0653 208.914 20.4553C209.563 18.8287 211.769 18.666 212.807 20.0487C212.936 20.2113 213.261 20.2723 213.369 20.0487C213.78 19.1337 214.299 18.0967 215.229 17.5477C216.159 16.9987 217.716 17.0597 218.126 18.1983C218.256 18.5643 218.883 18.4017 218.754 18.0357C218.343 16.9377 217.153 16.4497 215.964 16.6327C214.32 16.897 213.412 18.4423 212.807 19.7437C213.001 19.7437 213.174 19.7437 213.369 19.7437C212.612 18.727 211.315 18.178 210.017 18.6253C209.476 18.8083 208.979 19.1743 208.655 19.642C208.482 19.886 208.374 20.1503 208.265 20.435C208.201 20.618 208.201 20.8417 208.092 21.0043C207.811 21.4517 207.033 21.6347 206.535 21.3703C205.476 20.8213 204.438 19.0727 202.967 19.7843C202.146 20.1707 202.037 21.2687 202.816 21.7363C203.184 21.9397 203.508 21.411 203.14 21.2077Z" fill="#7BE495"/>
<path d="M217.023 21.045C216.872 19.0117 219.64 19.6827 220.743 20.191C221.305 20.4553 221.997 20.9433 222.603 20.496C222.797 20.3537 222.884 20.1503 222.97 19.947C223.295 19.276 223.511 18.788 224.376 18.544C225.717 18.178 227.014 18.971 228.095 19.6217C228.441 19.825 228.766 19.2963 228.42 19.093C227.274 18.422 225.976 17.6697 224.571 17.8933C224.116 17.9543 223.662 18.117 223.295 18.3813C222.732 18.7677 222.624 19.4387 222.062 19.764C221.521 20.069 221.305 19.764 220.765 19.52C220.483 19.398 220.202 19.276 219.9 19.1743C219.337 18.9913 218.732 18.91 218.148 19.032C217.132 19.2557 216.31 20.0283 216.375 21.045C216.396 21.4313 217.045 21.4313 217.023 21.045Z" fill="#7BE495"/>
<path d="M279.606 105.266C278.179 102.317 283.585 101.016 283.953 104.107C284.083 105.144 283.477 106.242 282.353 106.526C281.098 106.831 279.758 106.038 279.412 104.9C279.303 104.513 278.676 104.676 278.784 105.062C279.217 106.526 280.925 107.502 282.526 107.116C284.104 106.73 284.883 105.083 284.515 103.659C284.126 102.155 282.461 101.423 280.925 101.809C279.13 102.256 278.287 104.025 279.044 105.611C279.217 105.937 279.779 105.611 279.606 105.266Z" fill="#7BE495"/>
<path d="M283.628 107.604C282.461 107.502 282.028 106.038 282.828 105.306C283.499 104.676 284.645 104.717 285.358 105.245C286.094 105.794 286.807 107.401 285.986 108.173C284.904 109.19 283.585 107.543 283.066 106.811C282.828 106.486 282.266 106.791 282.504 107.116C283.261 108.214 284.991 109.942 286.44 108.6C287.586 107.543 286.764 105.408 285.64 104.656C284.493 103.883 282.612 104.147 281.963 105.408C281.315 106.628 282.266 108.092 283.65 108.214C284.039 108.255 284.039 107.645 283.628 107.604Z" fill="#7BE495"/>
<path d="M87.187 82.045C88.052 82.0043 88.5061 81.4553 89.1116 80.947C90.5389 79.7473 92.1824 80.886 93.0906 82.0653C93.9556 83.1837 95.2099 83.9767 96.3128 82.6347C96.8318 82.0043 97.0913 81.069 97.8049 80.6217C99.2538 79.7067 100.486 81.5163 101.395 82.3093C102.433 83.204 104.574 83.6107 105.049 81.9433C105.157 81.557 104.53 81.3943 104.422 81.7807C104.184 82.655 103.06 82.6347 102.389 82.2687C101.87 81.984 101.503 81.5367 101.092 81.1503C100.486 80.5403 99.816 79.9507 98.9078 79.788C97.4156 79.544 96.7453 80.8047 96.0749 81.8213C95.9019 82.106 95.6856 82.4923 95.3613 82.655C94.5828 83.0413 94.0205 82.2687 93.6096 81.7603C93.0906 81.069 92.5068 80.4793 91.6634 80.1133C90.9714 79.8083 90.1496 79.7067 89.436 79.9913C88.6143 80.3167 88.0953 81.4147 87.1654 81.4553C86.7761 81.4553 86.7761 82.0653 87.187 82.045Z" fill="#7BE495"/>
<path d="M102.303 77.8563C103.211 78.873 104.833 80.2354 106.26 79.117C106.606 78.8324 106.801 78.4257 107.169 78.141C107.709 77.7547 108.423 77.6733 109.05 77.8563C110.412 78.202 111.212 79.422 111.926 80.459C112.056 80.642 112.38 80.6827 112.488 80.459C113.418 78.5477 115.905 78.08 117.851 78.812C118.241 78.9544 118.414 78.3647 118.024 78.2223C115.84 77.3887 112.964 77.9987 111.926 80.1337C112.121 80.1337 112.294 80.1337 112.488 80.1337C111.515 78.7104 110.283 77.0837 108.25 77.1447C107.536 77.165 106.887 77.4497 106.412 77.9377C105.849 78.5477 105.374 79.0357 104.444 78.7714C103.73 78.568 103.211 77.9377 102.735 77.409C102.498 77.1243 102.043 77.5513 102.303 77.8563Z" fill="#7BE495"/>
<path d="M141.25 99.125C140.968 98.5963 140.644 98.0473 140.385 97.4983C140.103 96.929 140.233 96.7053 140.601 96.2173C141.077 95.587 141.812 95.0176 142.655 95.4446C143.261 95.7496 143.65 96.441 143.823 97.0306C144.126 98.027 143.866 99.4503 142.634 99.7756C141.617 100.04 140.298 99.4503 140.341 98.3523C140.341 97.966 139.693 97.966 139.693 98.3523C139.649 99.7146 141.098 100.569 142.439 100.426C144.082 100.243 144.774 98.6166 144.537 97.234C144.299 95.892 142.98 94.184 141.336 94.8143C140.536 95.1193 139.93 95.9123 139.563 96.624C139.347 97.051 139.39 97.0713 139.606 97.4983C139.952 98.149 140.298 98.7996 140.644 99.43C140.882 99.7756 141.444 99.4706 141.25 99.125Z" fill="#7BE495"/>
<path d="M143.65 103.11C142.828 102.195 141.423 100.406 142.634 99.2674C143.499 98.454 145.056 98.759 145.769 99.5724C146.504 100.406 146.656 102.033 145.51 102.643C144.537 103.171 143.131 102.663 142.958 101.606C142.893 101.219 142.266 101.382 142.331 101.768C142.59 103.151 144.385 103.802 145.683 103.253C147.261 102.561 147.326 100.508 146.396 99.308C145.51 98.149 143.563 97.7424 142.352 98.698C140.601 100.06 142.115 102.297 143.217 103.517C143.455 103.842 143.909 103.415 143.65 103.11Z" fill="#205072"/>
<path d="M271.519 61.9557C271.54 60.1663 274.157 60.695 275.281 60.817C276.254 60.9187 277.141 60.7967 278.006 60.3493C278.958 59.8817 279.736 59.1497 280.666 58.6413C281.271 58.2957 282.007 57.9907 282.72 57.9907C283.477 58.011 283.953 58.438 284.623 58.7023C286.18 59.292 287.175 57.9297 288.148 57.035C290.073 55.266 292.819 55.998 295.068 56.73C295.457 56.852 295.63 56.2624 295.241 56.1404C293.23 55.4897 290.678 54.778 288.689 55.8557C287.737 56.364 287.175 57.2993 286.31 57.889C285.077 58.7227 284.039 57.401 282.742 57.3807C279.952 57.34 278.482 60.3697 275.671 60.2273C274.46 60.1663 273.292 59.7393 272.124 60.2477C271.367 60.573 270.891 61.1423 270.87 61.9353C270.848 62.342 271.497 62.342 271.519 61.9557Z" fill="#205072"/>
<path d="M287.694 61.2643C289.078 59.414 291.673 58.5193 294.009 59.1497C295.025 59.4343 295.976 60.207 297.101 60.146C298.031 60.085 298.528 59.3733 299.155 58.8243C300.172 57.95 301.491 57.2383 302.918 57.279C303.783 57.2993 304.453 57.6043 305.124 58.133C305.34 58.316 305.513 58.4787 305.816 58.56C306.248 58.6617 306.638 58.4787 307.027 58.316C307.697 58.0313 308.389 57.7873 309.103 57.6043C310.573 57.2587 312.065 57.1977 313.558 57.3807C313.968 57.4213 313.968 56.8113 313.558 56.7707C312.13 56.5877 310.703 56.6283 309.297 56.9333C308.67 57.0757 308.043 57.2587 307.438 57.4823C306.962 57.6653 306.724 57.7873 306.183 57.7873C305.6 57.7873 305.643 57.706 305.254 57.4213C303.415 56.0997 300.95 56.7097 299.285 57.95C298.831 58.2753 298.463 58.7227 298.031 59.048C296.993 59.8207 296.171 59.3327 295.111 58.8853C294.203 58.499 293.252 58.316 292.257 58.3567C290.203 58.438 288.343 59.3937 287.175 60.9593C286.894 61.2847 287.456 61.5897 287.694 61.2643Z" fill="#205072"/>
<path d="M240.66 197.64C241.071 200.08 241.481 202.54 241.871 204.98C233.329 207.583 229.134 209.23 229.307 209.921C229.523 210.775 236.356 210.145 249.807 208.091C249.028 204.228 248.272 200.365 247.493 196.501C245.201 196.867 242.93 197.254 240.66 197.64Z" fill="black"/>
<path d="M222.279 115.941C222.127 118.706 221.911 122.651 221.716 127.429C221.522 132.492 221.414 135.135 221.435 138.389C221.435 139.792 221.5 145.505 222.279 152.866C222.927 159.068 223.944 168.34 227.555 179.747C228.982 184.261 231.188 190.32 234.627 197.233C236.205 197.457 238.065 197.579 240.184 197.498C244.163 197.315 247.385 196.4 249.613 195.546C248.964 193.553 248.056 190.727 247.104 187.331C245.828 182.736 242.152 168.889 240.725 150.284C240.011 140.93 239.752 129.259 241.006 115.839C234.778 115.859 228.528 115.9 222.279 115.941Z" fill="#7BE495"/>
<path opacity="0.09" d="M240.465 117.506C240.054 118.97 239.514 121.085 238.93 123.647C237.416 130.418 235.859 140.076 236.01 156.404C236.097 166.449 236.854 180.336 239.622 197.111C240.703 197.01 241.806 196.888 242.952 196.725C245.352 196.379 247.58 195.932 249.612 195.424C248.704 192.658 247.45 188.551 246.152 183.549C241.546 165.717 240.249 150.589 239.903 140.605C239.708 134.668 239.708 126.799 240.465 117.506Z" fill="#606060"/>
<path d="M240.53 116.469C238.367 137.047 239.708 157.929 244.487 178.12C245.85 183.854 247.472 189.507 249.374 195.098C249.504 195.464 250.131 195.302 250.002 194.936C243.341 175.273 240.011 154.655 240.184 134.017C240.227 128.161 240.573 122.285 241.179 116.449C241.222 116.083 240.573 116.083 240.53 116.469Z" fill="#161616"/>
<path d="M221.392 134.708C220.592 151.382 223.079 168.157 228.658 183.996C230.215 188.429 232.031 192.78 234.086 197.03C234.259 197.396 234.821 197.071 234.648 196.725C227.404 181.577 223.143 165.208 222.127 148.637C221.846 144.001 221.824 139.365 222.041 134.708C222.062 134.302 221.413 134.322 221.392 134.708Z" fill="#161616"/>
<path d="M234.345 197.213C235.08 197.986 236.767 197.803 237.762 197.823C239.276 197.843 240.811 197.701 242.303 197.498C243.925 197.274 245.547 196.949 247.147 196.583C247.947 196.4 249.612 196.359 250.023 195.525C250.196 195.18 249.634 194.854 249.461 195.22C249.266 195.647 248.185 195.729 247.774 195.81C247.169 195.952 246.585 196.074 245.979 196.217C244.833 196.461 243.709 196.684 242.563 196.847C241.373 197.03 240.184 197.152 238.995 197.193C238.086 197.233 235.491 197.498 234.821 196.786C234.518 196.481 234.064 196.928 234.345 197.213Z" fill="#161616"/>
<path d="M215.899 115.819C215.272 117.1 214.429 119.54 213.823 121.695C213.066 124.44 212.872 126.087 212.439 128.486C211.639 132.919 211.098 133.671 209.931 138.531C208.698 143.736 208.136 147.742 207.703 150.934C207.357 153.415 206.73 158.478 206.449 165.025C206.319 167.852 206.254 169.519 206.319 171.817C206.492 179.035 207.725 184.627 208.265 186.823C209.714 192.862 211.834 198.026 213.953 202.215C214.926 202.683 216.396 203.272 218.256 203.659C220.548 204.126 223.489 204.736 226.301 203.394C227.079 203.028 228.852 202.012 230.193 199.612C229.155 196.949 227.879 193.167 226.863 188.531C224.354 177.022 225.263 167.913 225.89 162.179C227.058 151.341 229.739 143.208 234.345 129.178C235.902 124.46 237.286 120.638 238.238 118.096C238.562 116.083 239.319 110.044 235.881 107.523C230.842 103.781 219.1 109.332 215.899 115.819Z" fill="#7BE495"/>
<path opacity="0.08" d="M235.189 126.636C233.783 128.73 231.837 131.841 229.912 135.766C227.533 140.605 224.03 149.104 222.149 166.042C221.111 175.294 220.419 188.246 222.019 203.882C222.689 203.943 225.544 204.167 227.987 202.317C229.242 201.361 229.89 200.263 230.215 199.572C229.155 196.827 227.793 192.801 226.755 187.819C223.684 173.301 225.609 161.63 227.036 153.496C228.204 146.705 230.474 137.331 235.189 126.636Z" fill="#606060"/>
<path d="M219.294 203.618C220.029 206.099 220.765 208.6 221.5 211.08C209.909 214.395 204.222 216.469 204.416 217.282C204.632 218.217 212.526 217.526 228.096 215.208C227.685 211.223 227.274 207.258 226.885 203.272C224.333 203.374 221.803 203.496 219.294 203.618Z" fill="black"/>
<path d="M215.661 116.063C213.369 121.512 212.201 127.287 210.969 133.021C209.671 139.019 208.417 145.017 207.509 151.077C205.822 162.301 205.303 173.789 207.617 184.972C208.849 190.991 210.925 196.847 213.974 202.256C214.169 202.601 214.731 202.296 214.537 201.951C202.967 181.272 206.471 157.075 211.185 135.135C212.547 128.771 213.758 122.285 216.31 116.225C216.44 115.859 215.813 115.697 215.661 116.063Z" fill="#161616"/>
<path d="M234.907 126.595C227.663 144.753 222.819 164.273 225.63 183.732C226.409 189.1 227.771 194.366 229.761 199.45C229.912 199.816 230.539 199.653 230.388 199.287C223.187 181.007 224.657 160.959 230.063 142.435C231.62 137.128 233.48 131.902 235.535 126.738C235.686 126.372 235.059 126.229 234.907 126.595Z" fill="#161616"/>
<path d="M214.039 202.235C217.088 203.821 220.592 204.492 224.052 204.065C226.885 203.699 230.172 202.479 230.453 199.409C230.496 199.023 229.847 199.023 229.804 199.409C229.501 202.601 225.392 203.455 222.603 203.577C219.727 203.699 216.894 203.028 214.385 201.707C213.996 201.524 213.672 202.052 214.039 202.235Z" fill="#161616"/>
<path d="M218.597 66.0577L218.597 66.0577C216.013 70.3253 215.837 74.5157 215.794 78.2882C215.792 78.4555 215.791 78.6202 215.79 78.7826C215.748 83.9637 215.726 86.7178 216.331 92.5054L216.331 92.5056C216.914 98.1009 217.068 106.094 215.028 116.264C216.859 117.493 219.454 118.862 222.797 119.6L218.597 66.0577ZM218.597 66.0577L218.6 66.0525M218.597 66.0577L218.6 66.0525M218.6 66.0525C219.35 64.7807 220.141 63.8177 220.709 63.1824C221.113 62.8145 222.452 61.6285 224.152 60.6934C225.9 59.7317 227.901 59.106 229.637 59.7225L229.64 59.7237C230.873 60.1519 231.727 61.1211 232.393 62.4807C233.064 63.8493 233.512 65.5462 233.969 67.345L233.969 67.3461M218.6 66.0525L233.969 67.3461M233.969 67.3461C234.025 67.5659 234.081 67.7835 234.136 67.9991M233.969 67.3461L234.136 67.9991M242.661 115.362C240.53 116.774 232.441 121.725 222.797 119.6L242.661 115.362ZM242.661 115.362C240.641 104.172 239.53 95.2016 238.886 88.8871M242.661 115.362L238.886 88.8871M238.886 88.8871C238.488 84.9831 237.037 79.3185 234.136 67.9991M238.886 88.8871L234.136 67.9991" fill="white" stroke="black"/>
<path opacity="0.1" d="M240.259 101.411L240.257 101.406C239.561 98.1748 238.781 93.3615 238.69 86.685C237.979 83.8459 237.407 81.4536 236.976 79.6485C236.873 79.2188 236.779 78.8224 236.692 78.4611L236.691 78.4581C236.339 76.9492 236.056 75.7102 235.812 74.6373C235.184 71.881 234.806 70.2201 234.125 67.891L234.125 67.8902C233.22 64.7786 232.276 62.2768 231.65 60.7027C231.236 60.5551 230.822 60.4179 230.405 60.2843C230.727 61.5557 231.127 63.2329 231.527 65.211C232.178 68.3983 233.047 73.2164 233.654 80.3759L240.259 101.411ZM240.259 101.411C240.275 101.486 240.294 101.565 240.313 101.649C240.61 102.955 241.155 105.354 241.701 108.72C242.127 111.406 242.399 113.66 242.556 115.213C241.714 115.802 240.731 116.419 239.608 117.002C238.023 117.824 236.515 118.381 235.205 118.776M240.259 101.411L235.205 118.776M235.205 118.776C234.979 101.233 234.275 87.6617 233.654 80.3761L235.205 118.776Z" fill="#606060" stroke="black"/>
<path d="M220.332 64.7797C220.527 65.1457 220.851 65.2677 221.565 65.593C222.17 65.8777 222.754 66.2234 223.36 66.4674C225.219 67.2197 227.404 70.5544 227.75 71.083C229.069 73.096 230.604 75.4547 231.491 78.8707C231.729 79.7654 232.269 82.0834 231.642 89.9117C230.972 97.9434 230.107 99.0617 230.777 103.067C231.274 105.975 231.902 109.452 234.951 111.343C237.784 113.092 241.049 112.482 241.719 112.36C245.828 111.607 248.164 108.618 250.434 105.711C253.894 101.298 255.213 96.886 255.776 94.324C256.035 93.1244 255.992 89.6067 255.927 82.5917C255.84 75.353 255.711 72.852 253.7 70.7374C252.337 69.314 250.672 68.643 249.526 68.2974C249.612 67.85 249.634 67.179 249.245 66.6097C248.51 65.5524 246.758 65.5727 245.633 65.593C240.811 65.715 237.221 68.765 237.048 68.9074C234.042 71.5304 233.156 74.743 232.875 76.085C232.269 73.5637 231.274 71.632 230.496 70.3917C229.826 69.314 228.831 68.216 226.82 65.9794C225.241 64.2307 224.484 63.5597 223.295 63.1937C223.035 63.1124 221.067 62.5634 220.419 63.397C220.116 63.7834 220.116 64.373 220.332 64.7797Z" fill="white"/>
<path opacity="0.11" d="M220.181 64.0297C220.311 63.806 221.759 64.3143 221.911 64.3753C224.052 65.148 225.955 66.7543 228.398 70.4753C229.653 72.3867 231.231 75.091 232.572 78.6087C233.523 77.6937 234.324 76.9413 234.951 76.372C234.951 76.372 237.265 74.2777 241.006 72.2443C241.373 72.041 241.827 71.797 242.152 71.98C242.822 72.3257 242.109 74.0133 242.303 75.579C242.455 76.7583 243.19 78.385 245.979 80.1947C246.044 80.5403 246.066 81.0283 245.763 81.3537C245.158 81.984 243.601 81.4757 242.801 81.2113C241.503 80.7843 238.995 79.666 236.032 76.3923C235.751 77.4497 235.383 78.9543 235.102 80.8047C234.843 82.411 234.129 87.7587 235.318 94.6313C235.794 97.356 236.681 100.996 238.497 105.144C239.297 105.469 240.314 105.774 241.525 105.957C244.055 106.323 246.152 105.855 247.363 105.489C246.65 105.815 245.677 106.364 244.833 107.319C243.817 108.478 243.795 109.353 242.952 110.43C242.39 111.162 241.373 112.077 239.492 112.728C238.908 112.667 238.021 112.525 237.048 112.118C234.086 110.878 232.745 108.255 232.139 107.035C231.339 105.388 230.107 102.053 231.274 90.768C231.945 84.3223 232.68 82.3093 231.556 78.629C230.691 75.8027 229.198 73.4643 228.679 72.6713C227.75 71.248 226.084 68.7063 223.057 66.368C221.63 65.2293 220.051 64.294 220.181 64.0297Z" fill="#606060"/>
<path d="M244.293 68.5844C243.903 69.0724 243.406 69.784 243.017 70.7194C242.801 71.2684 242.282 72.5494 242.411 74.176C242.649 77.409 245.114 79.3814 245.569 79.727C245.871 79.9507 246.131 80.1337 246.304 80.2354C246.044 81.069 245.742 82.3094 245.633 83.8344C245.46 85.9897 245.287 88.4094 246.628 89.121C247.493 89.5684 248.791 89.2634 249.504 88.6127C249.677 88.45 250.175 87.9417 250.304 85.644C250.456 82.9194 249.85 81.7807 250.715 80.9877C251.083 80.6217 251.71 80.398 252.251 80.1744C252.856 79.9304 253.397 79.8084 253.786 79.727C253.548 81.3944 253.375 82.8787 253.245 84.0784C253.094 85.5627 253.029 86.315 253.57 86.7827C254.067 87.2097 254.889 87.291 255.516 87.0267C256.338 86.681 256.597 85.7254 257.051 83.814C257.419 82.3094 257.722 81.0487 257.527 79.3407C257.419 78.4664 257.224 77.7547 257.051 77.2667C257.008 76.921 256.9 76.4127 256.727 75.823C256.359 74.6437 256.013 74.298 255.797 73.5457C255.473 72.468 255.84 71.9394 255.927 70.7194C256.013 69.7637 255.927 68.4014 255.192 66.6934C254.911 66.7137 254.327 66.7544 253.721 67.1407C252.986 67.588 252.683 68.2387 252.575 68.4624C252.013 68.3404 250.996 68.2184 249.829 68.5234C247.818 69.0317 246.758 70.4347 246.477 70.8617C247.039 69.7027 246.563 68.564 245.806 68.2794C245.158 68.015 244.379 68.5437 244.293 68.5844Z" fill="black"/>
<path d="M246.736 74.8877C246.953 74.5014 248.034 73.6474 248.401 74.359C248.574 74.7047 249.137 74.3997 248.964 74.0541C248.726 73.5864 248.142 73.4441 247.623 73.5457C246.996 73.6474 246.477 74.054 246.174 74.5827C245.979 74.9284 246.542 75.2334 246.736 74.8877Z" fill="white"/>
<path d="M253.072 73.322C253.202 73.0577 253.332 72.7527 253.548 72.5494C253.764 72.346 254.413 72.1224 254.435 72.59C254.456 72.9764 255.105 72.9764 255.084 72.59C255.04 72.0004 254.5 71.614 253.873 71.6954C253.159 71.8174 252.791 72.4274 252.51 72.9967C252.337 73.3627 252.899 73.688 253.072 73.322Z" fill="white"/>
<path d="M253.245 75.2536C253.245 75.274 253.245 75.2943 253.245 75.3146C253.202 75.3553 253.159 75.396 253.137 75.4163C253.029 75.4773 252.856 75.4163 252.878 75.2943C252.878 75.2943 252.878 75.2333 252.899 75.2536L252.835 75.3146C252.986 75.3146 253.137 75.3146 253.289 75.3146C253.267 75.2943 253.267 75.2943 253.245 75.274C253.267 75.2943 253.267 75.2943 253.267 75.2943C253.245 75.274 253.267 75.274 253.267 75.3146C253.289 75.4366 253.224 75.518 253.051 75.579C252.986 75.5587 252.943 75.5587 252.878 75.5383C252.791 75.4977 252.813 75.3756 252.835 75.3146C252.856 75.2943 252.835 75.2943 252.813 75.335C252.835 75.3146 252.835 75.3146 252.813 75.335C252.662 75.4367 252.597 75.5993 252.705 75.762C252.791 75.884 253.008 75.9653 253.159 75.8637C253.31 75.762 253.462 75.6197 253.483 75.4163C253.483 75.1926 253.31 74.9893 253.072 74.9893C252.835 74.9893 252.662 75.1316 252.64 75.3553C252.618 75.518 252.726 75.6603 252.835 75.762C252.964 75.884 253.159 75.8637 253.289 75.762C253.57 75.5587 253.635 75.1316 253.31 74.9283C253.159 74.847 252.964 74.8266 252.813 74.908C252.618 75.0096 252.597 75.2536 252.64 75.4367C252.662 75.5993 252.878 75.6807 253.029 75.64C253.202 75.579 253.267 75.4163 253.245 75.2536Z" fill="white"/>
<path d="M249.785 75.884C249.158 76.2297 248.315 76.067 247.904 75.4977C247.666 75.1723 247.104 75.4773 247.342 75.8027C247.969 76.6364 249.158 76.921 250.131 76.4127C250.477 76.2093 250.153 75.6807 249.785 75.884Z" fill="white"/>
<path d="M249.31 77.2057C248.834 77.5514 248.423 77.9987 248.142 78.507C247.947 78.8527 248.51 79.1577 248.704 78.812C248.964 78.3444 249.331 77.958 249.785 77.6327C249.915 77.531 249.894 77.3074 249.785 77.2057C249.634 77.0837 249.439 77.104 249.31 77.2057Z" fill="white"/>
<path d="M254.565 74.9691C254.997 74.5014 255.321 73.9727 255.538 73.3831C255.667 73.0171 255.04 72.8544 254.911 73.2204C254.738 73.7084 254.456 74.1557 254.11 74.5421C253.851 74.8471 254.305 75.2741 254.565 74.9691Z" fill="white"/>
<path d="M254.608 75.7417C255.127 75.64 255.732 75.518 256.143 75.9247C256.424 76.2094 256.878 75.7824 256.597 75.4977C256.013 74.908 255.17 75.0097 254.413 75.1724C254.024 75.2334 254.197 75.823 254.608 75.7417Z" fill="white"/>
<path d="M220.073 64.3144C221.067 62.8504 223.425 63.7247 224.614 64.4567C226.041 65.3107 227.122 66.5917 228.096 67.8727C230.063 70.455 231.815 73.261 232.464 76.4127C232.55 76.799 233.177 76.6364 233.091 76.25C232.334 72.4884 229.999 68.869 227.36 65.9817C225.825 64.3144 221.478 61.1627 219.51 64.0297C219.294 64.3347 219.856 64.66 220.073 64.3144Z" fill="#161616"/>
<path d="M221.413 65.697C226.603 68.442 229.523 73.5864 230.993 78.8324C231.101 79.2187 231.729 79.056 231.62 78.6697C230.107 73.2814 227.058 67.9744 221.738 65.1684C221.37 64.965 221.046 65.4937 221.413 65.697Z" fill="#161616"/>
<path d="M233.091 76.1484C233.632 72.5494 236.075 69.5401 239.427 67.8117C241.157 66.9171 243.082 66.3681 245.05 66.1037C245.979 65.9817 247.061 65.8597 247.969 66.1851C248.964 66.5307 249.915 68.0151 248.661 68.6861C248.293 68.8691 248.618 69.3977 248.985 69.2147C250.369 68.4827 250.023 66.6121 248.812 65.9004C246.931 64.7821 243.817 65.5751 241.892 66.1851C237.135 67.6287 233.199 71.2481 232.485 76.0264C232.399 76.372 233.026 76.5347 233.091 76.1484Z" fill="#161616"/>
<path d="M234.54 77.0634C235.599 75.9044 236.94 74.9284 238.238 74.0134C239.492 73.1187 240.833 72.3867 242.39 72.0614C242.801 71.9801 242.628 71.3904 242.217 71.4717C240.616 71.8174 239.211 72.5697 237.913 73.4847C236.573 74.4404 235.189 75.4367 234.086 76.6364C233.805 76.9211 234.259 77.3684 234.54 77.0634Z" fill="#161616"/>
<path d="M242.476 72.1223C242.93 71.1463 243.514 70.211 244.228 69.3773C244.358 69.235 244.509 68.991 244.682 68.8893C244.833 68.625 245.028 68.6047 245.309 68.8487C245.655 68.8487 245.806 68.9707 245.806 69.2553C246.044 69.6823 246.066 70.4143 246.152 70.9023C246.239 71.2887 246.866 71.126 246.78 70.7397C246.607 69.967 246.39 67.2017 244.833 67.954C244.228 68.2387 243.774 68.9503 243.384 69.4383C242.801 70.1907 242.325 70.9837 241.914 71.8173C241.741 72.163 242.303 72.4883 242.476 72.1223Z" fill="#161616"/>
<path d="M246.65 71.0853C247.753 69.7433 250.002 67.893 251.926 68.8893C252.294 69.0723 252.618 68.5437 252.251 68.3607C250.023 67.2423 247.515 69.0723 246.174 70.6583C245.936 70.9633 246.39 71.3904 246.65 71.0853Z" fill="#161616"/>
<path d="M252.553 68.7877C252.856 68.3404 254.262 66.734 254.867 67.161C255.192 67.3847 255.257 68.1777 255.343 68.5437C255.473 69.113 255.516 69.6824 255.538 70.272C255.559 70.6584 256.208 70.6584 256.186 70.272C256.165 69.4587 256.057 68.6657 255.84 67.8727C255.711 67.4254 255.603 66.5714 255.04 66.429C254.521 66.307 253.808 66.7747 253.418 67.039C252.835 67.4254 252.38 67.9134 252.013 68.4827C251.775 68.808 252.337 69.113 252.553 68.7877Z" fill="#161616"/>
<path d="M235.383 76.067C236.875 77.4293 238.454 78.69 240.141 79.8287C241.806 80.947 243.428 81.74 245.525 81.6383C245.936 81.618 245.936 81.008 245.525 81.0283C243.384 81.13 241.806 80.2353 240.141 79.0967C238.605 78.0393 237.178 76.8803 235.816 75.64C235.535 75.3757 235.08 75.8027 235.383 76.067Z" fill="#161616"/>
<path d="M231.015 78.1613C233.372 88.0027 227.231 98.759 232.312 108.173C233.264 109.942 234.713 111.549 236.702 112.342C238.649 113.114 240.898 113.053 242.909 112.443C247.363 111.101 250.239 107.218 252.445 103.558C253.851 101.26 255.019 98.7997 255.711 96.2173C256.057 94.9363 256.273 93.5943 256.338 92.2727C256.403 90.7477 256.186 89.2227 256.251 87.6977C256.273 87.3113 255.624 87.3113 255.602 87.6977C255.516 90.1783 255.862 92.537 255.343 94.9973C254.889 97.1933 254.045 99.3283 252.986 101.321C251.018 105.062 248.358 109.271 244.271 111.244C242.152 112.26 239.535 112.647 237.265 111.854C235.037 111.081 233.567 109.231 232.615 107.258C230.582 102.968 230.82 98.088 231.361 93.5333C231.966 88.3687 232.918 83.143 231.685 77.9783C231.534 77.6327 230.907 77.775 231.015 78.1613Z" fill="#161616"/>
<path d="M240.638 98.5151C239.427 100.508 238.627 102.663 238.281 104.94C238.216 105.327 238.843 105.489 238.908 105.103C239.254 102.866 240.011 100.772 241.2 98.8201C241.417 98.4947 240.854 98.1897 240.638 98.5151Z" fill="#161616"/>
<path d="M241.049 98.7387C244.249 98.4744 247.623 97.905 250.823 98.2304C251.234 98.271 251.234 97.661 250.823 97.6204C247.623 97.2747 244.249 97.8644 241.049 98.1287C240.638 98.1694 240.638 98.7794 241.049 98.7387Z" fill="#161616"/>
<path d="M238.605 105.489C240.184 106.364 242.022 106.282 243.795 106.242C245.655 106.181 247.515 105.977 249.137 105.062C249.504 104.859 249.158 104.33 248.812 104.534C247.277 105.408 245.547 105.571 243.795 105.632C242.152 105.693 240.422 105.794 238.93 104.981C238.584 104.778 238.259 105.306 238.605 105.489Z" fill="#161616"/>
<path d="M250.521 98.088C250.11 100.325 249.483 102.48 248.639 104.595C248.488 104.961 249.115 105.123 249.266 104.757C250.132 102.643 250.759 100.467 251.148 98.2507C251.213 97.8644 250.586 97.7017 250.521 98.088Z" fill="#161616"/>
<path d="M240.465 99.5723C241.525 101.768 244.531 102.317 246.844 102.338C247.255 102.338 247.255 101.728 246.844 101.728C244.768 101.687 241.979 101.24 241.027 99.247C240.854 98.9013 240.292 99.2267 240.465 99.5723Z" fill="#161616"/>
<path d="M245.136 101.545C245.071 102.053 245.006 102.561 244.941 103.049C244.898 103.436 245.547 103.436 245.59 103.049C245.655 102.541 245.72 102.033 245.785 101.545C245.828 101.158 245.179 101.158 245.136 101.545Z" fill="#161616"/>
<path d="M246.369 101.545C246.304 102.053 246.239 102.561 246.196 103.07C246.152 103.456 246.801 103.456 246.844 103.07C246.909 102.561 246.974 102.053 247.017 101.545C247.061 101.158 246.412 101.158 246.369 101.545Z" fill="#161616"/>
<path d="M246.931 102.399C248.466 102.073 249.742 101.179 250.542 99.9181C250.759 99.5724 250.196 99.2674 249.98 99.6131C249.245 100.752 248.12 101.504 246.758 101.809C246.347 101.911 246.52 102.5 246.931 102.399Z" fill="#161616"/>
<path d="M242.195 71.0244C241.546 74.6234 242.26 78.9137 246.174 80.5607C246.542 80.7234 246.888 80.1947 246.498 80.032C242.844 78.4867 242.217 74.5217 242.822 71.187C242.887 70.8007 242.26 70.638 242.195 71.0244Z" fill="#161616"/>
<path d="M255.494 70.0484C255.538 71.2074 255.516 72.3867 255.689 73.5254C255.862 74.7657 257.051 76.1484 256.424 77.3887C256.251 77.7344 256.814 78.0597 256.987 77.6937C257.549 76.5754 257.051 75.64 256.641 74.542C256.1 73.139 256.23 71.5124 256.165 70.028C256.122 69.6417 255.473 69.6417 255.494 70.0484Z" fill="#161616"/>
<path d="M247.947 80.1337C248.899 79.666 249.98 80.154 250.196 81.13C250.218 81.2317 250.369 81.191 250.348 81.0894C250.088 80.0117 248.899 79.483 247.861 79.9913C247.774 80.0523 247.861 80.1947 247.947 80.1337Z" fill="white"/>
<path d="M249.591 81.1707C249.742 81.3333 249.85 81.5163 249.915 81.7197C249.958 81.8213 250.11 81.7807 250.067 81.679C249.98 81.4553 249.85 81.252 249.699 81.069C249.634 80.9877 249.504 81.1097 249.591 81.1707Z" fill="white"/>
<path d="M253.937 79.7473C254.132 78.9137 254.694 78.2223 255.516 77.836C255.603 77.7953 255.538 77.653 255.43 77.714C254.565 78.1003 253.981 78.8323 253.786 79.7067C253.764 79.8083 253.916 79.849 253.937 79.7473Z" fill="white"/>
<path d="M215.856 36.6407C214.364 37.3523 213.109 38.6943 212.547 39.284C211.163 40.7683 210.45 42.151 209.671 43.6963C209.022 44.957 208.265 46.7463 207.66 48.983C208.503 49.1253 209.347 49.2473 210.19 49.3897C210.147 50.1623 210.147 51.301 210.471 52.643C210.774 53.863 211.271 55.815 213.001 57.1773C215.38 59.0887 218.537 58.621 219.121 58.5397C219.164 59.4953 219.381 60.8577 220.202 62.2607C220.419 62.6063 220.635 62.9317 220.851 63.2163C222.041 62.891 223.879 62.22 225.674 60.8373C230.258 57.3603 230.885 52.1753 231.08 50.6707C231.361 48.3527 231.902 43.981 228.852 40.3617C225.674 36.6203 219.64 34.8513 215.856 36.6407Z" fill="white"/>
<path d="M211.423 40.87C212.028 40.016 213.196 38.7553 214.515 37.881C216.634 36.478 217.586 37.0677 218.667 35.8273C219.445 34.9327 219.943 33.4687 219.359 32.7773C218.429 31.6793 215.12 33.001 214.688 33.184C213.736 33.5703 210.601 34.8107 209.347 37.942C208.309 40.565 209.001 43.432 209.476 43.493C209.606 43.5133 209.693 43.31 210.385 42.3137C210.709 41.8053 211.077 41.3377 211.423 40.87Z" fill="#434244"/>
<path d="M216.137 34.7497C215.964 35.2783 215.704 36.3357 216.569 38.4097C218.105 42.1307 221.694 45.4653 223.489 44.8553C223.879 44.713 224.289 44.347 225.068 44.3063C225.263 44.3063 226.041 44.2657 226.647 44.713C227.598 45.4247 227.641 46.97 227.014 47.9663C226.906 48.1493 226.322 48.983 225.436 49.044C224.657 49.105 224.398 48.5357 223.77 48.495C222.235 48.4137 220.916 51.5857 220.743 52.0127C220.397 52.826 219.554 54.9407 220.159 57.645C220.289 58.2347 220.592 59.475 221.521 60.756C223.533 63.501 226.906 64.172 228.16 64.416C229.393 64.66 234.086 65.575 237.74 62.7283C238.324 62.281 240.249 60.7357 240.768 58.1127C241.654 53.68 237.697 50.3657 237.459 50.1827C237.286 47.885 236.702 44.225 234.648 40.2193C233.35 37.6777 232.139 35.3393 229.393 33.5703C225.782 31.2727 220.527 30.622 217.78 32.6147C217.499 32.8587 216.569 33.55 216.137 34.7497Z" fill="#434244"/>
<path d="M212.028 56.5673C211.704 56.8723 210.752 57.8077 210.579 59.2716C210.341 61.305 211.79 62.708 212.093 62.9926C213.672 64.5176 216.31 65.1276 218.213 64.2126C218.364 64.1516 220.029 63.318 220.094 62.1183C220.116 61.5896 219.813 61.3253 219.381 60.146C219.099 59.3733 218.926 58.743 218.797 58.316C218.213 58.499 217.218 58.743 215.985 58.5803C213.78 58.316 212.417 56.974 212.028 56.5673Z" fill="#434244"/>
<path opacity="0.12" d="M216.353 36.539C216.375 37.1693 216.461 38.1047 216.915 39.101C217.218 39.772 217.521 40.1787 217.759 40.504C218.667 41.8053 218.97 43.0253 219.446 44.3877C220.202 46.5023 220.073 48.2713 219.921 50.4673C219.792 52.2973 219.359 55.083 217.953 58.316C218.537 58.4787 219.381 58.804 220.289 59.3733C221.954 60.4307 222.711 61.6913 223.187 62.281C224.16 63.4807 226.322 64.7413 231.534 64.66C231.015 64.172 230.28 63.44 229.479 62.5453C227.598 60.4713 225.955 58.6617 224.981 56.4657C224.419 55.205 223.554 52.6227 224.225 48.8813C224.83 49.166 225.544 49.1457 226.106 48.8C226.69 48.434 227.057 47.702 226.863 47.031C226.625 46.2583 225.63 45.7297 224.614 45.9737C224.398 45.4653 224.052 44.7333 223.489 43.9403C222.603 42.7 221.673 41.9273 221.327 41.6427C220.224 40.748 218.624 39.223 216.353 36.539Z" fill="#606060"/>
<path opacity="0.14" d="M207.898 48.617C207.919 48.2917 209.022 48.0273 209.952 48.0883C210.774 48.1493 211.747 48.495 211.725 48.8C211.704 49.0847 210.795 49.3083 210.125 49.3287C209.087 49.3693 207.898 48.9423 207.898 48.617Z" fill="#606060"/>
<path d="M210.579 41.053C209.347 43.5947 208.244 46.177 207.292 48.8204C207.227 48.983 207.357 49.1457 207.509 49.1863C208.352 49.4914 209.195 49.6337 210.082 49.6134C210.493 49.6134 210.493 49.0034 210.082 49.0034C209.239 49.0034 208.46 48.861 207.682 48.5967C207.746 48.7187 207.833 48.8407 207.898 48.9627C208.828 46.36 209.887 43.8183 211.12 41.3377C211.315 41.0123 210.752 40.687 210.579 41.053Z" fill="#161616"/>
<path d="M209.995 49.7354C210.168 52.3584 210.428 55.266 212.504 57.2384C214.493 59.1497 217.369 58.987 219.986 58.7024C220.397 58.6617 220.397 58.0517 219.986 58.0924C217.564 58.3567 214.818 58.5804 212.958 56.8114C211.012 54.961 210.817 52.1957 210.644 49.7354C210.623 49.349 209.974 49.349 209.995 49.7354Z" fill="#161616"/>
<path d="M218.71 58.7633C218.991 60.1867 219.51 61.549 220.246 62.8097C220.44 63.1553 221.002 62.8503 220.808 62.5047C220.094 61.2643 219.618 59.9833 219.337 58.6007C219.273 58.2143 218.645 58.377 218.71 58.7633Z" fill="#161616"/>
<path d="M210.428 52.8463C211.487 53.7207 213.066 53.314 213.477 52.033C213.607 51.6467 212.98 51.5043 212.85 51.8703C212.59 52.6837 211.574 52.9887 210.904 52.399C210.579 52.155 210.125 52.582 210.428 52.8463Z" fill="#161616"/>
<path d="M212.417 52.0127C212.763 52.094 213.023 52.277 213.239 52.521C213.347 52.643 213.585 52.6227 213.693 52.521C213.823 52.399 213.801 52.216 213.693 52.094C213.412 51.7687 213.023 51.5247 212.59 51.423C212.201 51.3213 212.028 51.911 212.417 52.0127Z" fill="#161616"/>
<path d="M213.391 44.408C213.564 43.554 214.688 43.7166 215.294 44.0216C215.813 44.286 216.18 44.713 216.396 45.2213C216.548 45.5873 217.175 45.4246 217.024 45.0586C216.678 44.1843 215.964 43.493 214.969 43.249C214.061 43.0253 212.98 43.2896 212.785 44.2453C212.699 44.6316 213.326 44.7943 213.391 44.408Z" fill="#161616"/>
<path d="M213.369 40.809C214.342 39.284 216.245 40.4633 216.634 41.7443C216.742 42.1307 217.37 41.968 217.261 41.5817C216.98 40.6463 216.288 39.772 215.229 39.528C214.277 39.3247 213.304 39.711 212.807 40.4837C212.59 40.8497 213.153 41.1547 213.369 40.809Z" fill="#161616"/>
<path d="M214.018 47.8647C214.428 47.8647 214.428 47.2547 214.018 47.2547C213.607 47.2547 213.585 47.8647 214.018 47.8647Z" fill="#161616"/>
<path d="M215.25 46.9497C215.272 46.9497 215.315 46.9497 215.337 46.9497C215.51 46.9497 215.661 46.8073 215.661 46.6447C215.661 46.482 215.51 46.3397 215.337 46.3397C215.315 46.3397 215.272 46.3397 215.25 46.3397C215.077 46.3397 214.926 46.482 214.926 46.6447C214.926 46.8277 215.077 46.9497 215.25 46.9497Z" fill="#161616"/>
<path d="M215.272 47.9866C215.272 48.007 215.272 48.0273 215.272 48.0476C215.272 48.434 215.921 48.434 215.921 48.0476C215.921 48.0273 215.921 48.007 215.921 47.9866C215.921 47.6003 215.272 47.6003 215.272 47.9866C215.272 48.007 215.272 48.0273 215.272 48.0476C215.272 48.434 215.921 48.434 215.921 48.0476C215.921 48.0273 215.921 48.007 215.921 47.9866C215.921 47.6003 215.272 47.6003 215.272 47.9866Z" fill="#161616"/>
<path d="M224.7 44.8757C225.284 44.0827 226.279 44.591 226.625 45.2417C226.906 45.75 226.906 46.36 226.884 46.909C226.798 48.2917 225.565 49.2677 224.138 48.4137C223.792 48.19 223.468 48.7187 223.814 48.9423C224.657 49.471 225.738 49.532 226.582 48.922C227.447 48.2917 227.598 47.2547 227.533 46.2787C227.468 45.3433 227.079 44.3063 226.041 43.9607C225.306 43.7167 224.571 43.981 224.138 44.5707C223.922 44.8757 224.484 45.1807 224.7 44.8757Z" fill="#161616"/>
<path d="M166.53 33.2653C166.076 33.2653 165.621 33.2857 165.189 33.2857C164.454 34.6277 164.043 35.8477 163.805 36.7423C163.113 39.3653 163.286 41.541 163.416 42.5983C163.502 43.31 163.632 43.8997 163.74 44.3063C164.129 44.3063 164.519 44.3063 164.908 44.3063C165.059 44.7943 165.211 45.2823 165.362 45.7703C169.017 45.75 172.022 45.75 174.12 45.7703C186.836 45.872 195.702 46.3397 197.756 46.4413C200.33 46.5837 202.427 46.726 203.725 46.8073C203.768 46.055 203.984 45.7907 204.179 45.7093C204.525 45.567 204.828 45.9127 205.282 45.8313C205.757 45.75 206.06 45.2823 206.255 44.8553C206.644 45.0383 207.358 45.2823 208.201 45.1603C208.396 45.14 208.569 45.079 208.72 45.0383C209.088 44.347 209.455 43.6557 209.823 42.9643C209.304 42.8017 208.569 42.6593 207.682 42.6593C207.185 42.6593 206.752 42.7203 206.385 42.7813C206.341 42.6797 205.995 41.7647 205.087 41.5613C204.806 41.5003 204.568 41.5207 204.373 41.5613C204.244 41.3377 204.114 41.114 203.984 40.8903C203.465 40.809 202.665 40.687 201.714 40.5243C193.993 39.2027 188.609 37.5963 184.5 36.4373C180.564 35.319 174.834 33.794 167.481 32.1063C167.178 32.4927 166.854 32.879 166.53 33.2653Z" fill="white"/>
<path opacity="0.07" d="M163.48 41.1547C163.675 41.114 163.891 41.5817 164.129 41.5207C164.518 41.4393 164.432 40.1583 164.518 39.2027C164.583 38.2877 164.864 36.966 165.816 35.3597C166.443 35.6037 167.395 35.99 168.541 36.4577C172.671 38.1453 175.526 39.4467 176.391 39.8127C182.1 42.3137 188.371 43.432 189.949 43.7167C193.539 44.3673 198.513 44.9367 204.481 44.6927C204.222 45.3637 203.962 46.0347 203.703 46.7057C202.708 46.6853 201.259 46.6853 199.486 46.6447C191.874 46.5023 186.554 46.2787 183.505 46.1567C179.202 45.994 173.039 45.8313 165.254 45.8517C165.167 45.3027 165.081 44.7537 164.994 44.2047C164.497 44.286 163.999 44.3673 163.502 44.4487C163.178 41.907 163.264 41.1953 163.48 41.1547Z" fill="#606060"/>
<path d="M166.983 32.1267C164.28 36.051 163.523 40.931 164.907 45.4247C165.015 45.811 165.642 45.6483 165.534 45.262C164.194 40.9107 164.929 36.234 167.545 32.4317C167.783 32.086 167.221 31.781 166.983 32.1267Z" fill="#161616"/>
<path d="M167.546 32.7164C179.72 35.6037 191.874 38.491 204.049 41.358C204.459 41.4597 204.632 40.87 204.222 40.7684C192.047 37.881 179.893 34.9937 167.719 32.1267C167.329 32.025 167.156 32.6147 167.546 32.7164Z" fill="#161616"/>
<path d="M165.361 46.0957C178.055 45.994 190.749 46.2787 203.421 46.9294C203.832 46.9497 203.832 46.3397 203.421 46.3194C190.749 45.6687 178.055 45.384 165.361 45.4857C164.951 45.4857 164.951 46.0957 165.361 46.0957Z" fill="#161616"/>
<path d="M203.854 41.1343C204.719 42.944 204.524 44.9977 203.335 46.6447C203.097 46.97 203.659 47.275 203.897 46.9497C205.216 45.1197 205.389 42.8423 204.416 40.8293C204.243 40.4837 203.681 40.7887 203.854 41.1343Z" fill="#161616"/>
<path d="M204.503 41.9274C204.741 42.09 204.914 42.029 205.195 42.09C205.735 42.2324 205.952 42.7 206.06 43.188C206.233 44.0827 205.995 45.9737 204.589 45.445C204.2 45.3027 204.027 45.8923 204.416 46.0347C205.843 46.5633 206.773 45.1604 206.773 43.981C206.773 43.3304 206.687 42.5984 206.298 42.0494C206.168 41.8664 205.995 41.6834 205.779 41.5817C205.497 41.4597 205.108 41.541 204.87 41.3784C204.481 41.175 204.157 41.7037 204.503 41.9274Z" fill="#161616"/>
<path d="M206.406 43.0457C207.508 42.9847 208.611 43.005 209.693 43.1473C210.103 43.188 210.103 42.578 209.693 42.5373C208.59 42.4153 207.508 42.3747 206.406 42.4357C205.995 42.4763 205.995 43.0863 206.406 43.0457Z" fill="#161616"/>
<path d="M206.319 45.2823C207.206 45.4247 208.092 45.4857 208.979 45.4043C209.39 45.3637 209.39 44.7537 208.979 44.7943C208.136 44.8553 207.314 44.835 206.492 44.6927C206.081 44.6317 205.908 45.201 206.319 45.2823Z" fill="#161616"/>
<path d="M166.616 33.1026C164.518 31.964 163.934 35.5223 163.653 36.6406C163.004 39.223 162.702 41.8867 163.502 44.469C163.545 44.591 163.675 44.6927 163.804 44.6927C164.086 44.6927 164.388 44.6927 164.669 44.6927C165.08 44.6927 165.08 44.0827 164.669 44.0827C164.388 44.0827 164.086 44.0827 163.804 44.0827C163.913 44.164 164.021 44.225 164.107 44.3063C163.545 42.4357 163.545 40.5447 163.869 38.6333C164.021 37.7793 164.215 36.9253 164.453 36.0916C164.605 35.5426 165.08 32.9603 166.27 33.6313C166.659 33.8346 166.983 33.306 166.616 33.1026Z" fill="#161616"/>
<path d="M189.993 37.4743C189.603 37.027 188.955 37.088 188.868 37.088C188.155 37.1287 187.463 37.7387 186.706 39.223C185.235 42.0493 185.17 44.8757 185.17 45.323C185.149 47.275 185.343 50.447 186.814 54.229C186.944 55.815 187.225 58.0313 187.852 60.6137C188.955 65.2497 190.122 70.1297 194.145 74.4607C195.658 76.1077 198.643 79.3 203.833 80.459C209.261 81.679 213.672 79.8693 214.753 79.4017C215.705 78.9747 218.365 77.714 220.614 75.0503C221.976 73.444 223.555 71.6953 223.295 69.54C223.187 68.6047 222.755 67.8117 222.106 66.551C221.457 65.2903 221.111 64.66 220.419 64.416C219.468 64.0703 218.451 64.6803 217.327 65.2903C215.424 66.307 215.251 67.283 213.196 68.2997C212.656 68.564 212.115 68.747 211.034 69.0723C209.325 69.601 207.639 70.1297 206.082 70.2313C202.687 70.455 199.962 68.625 199.183 68.0963C196.307 66.1647 195.183 63.5823 194.447 61.8947C192.804 58.1127 192.934 54.6357 193.215 52.6023C194.231 52.4397 194.858 52.0533 195.161 51.8297C196.307 50.996 196.588 49.837 197.021 48.0477C197.302 46.9293 197.432 46.3397 197.129 46.116C196.502 45.6687 194.577 47.1327 194.145 47.4783C194.231 46.0957 194.447 44.9773 194.664 44.1843C194.945 43.127 195.096 42.578 195.485 42.151C196.242 41.3173 197.129 41.3987 197.432 40.6057C197.605 40.1787 197.583 39.589 197.215 39.2433C196.783 38.8367 195.853 38.857 195.053 39.4467C194.793 38.918 194.274 38.5927 193.712 38.5723C193.15 38.552 192.782 38.8773 192.674 38.9587C192.739 38.4097 192.48 37.9013 192.047 37.698C191.463 37.4133 190.533 37.7387 190.187 38.5723C190.209 38.4707 190.36 37.9013 189.993 37.4743Z" fill="white"/>
<path opacity="0.12" d="M188.868 37.088C188.349 37.942 187.7 39.2027 187.268 40.8497C186.316 44.4283 187.095 47.4173 187.441 48.861C191.16 63.7653 189.538 64.1313 192.133 67.6287C193.085 68.8893 199.616 77.348 209.347 76.2297C217.5 75.2943 221.825 68.32 222.387 67.3847C222.711 68.198 223.1 69.5807 222.841 71.2277C222.452 73.6473 220.851 75.1723 220.268 75.7417C219.705 76.2703 219.013 76.738 217.608 77.653C216.353 78.4867 215.121 79.2187 214.58 79.483C212.007 80.8453 208.028 81.1707 205.26 80.825C197.734 79.8897 193.215 73.1797 191.333 70.394C187.03 64.0297 186.597 57.584 186.641 54.3713C186.23 53.07 185.819 51.7483 185.408 50.447C185.127 48.434 185.105 46.7667 185.149 45.6077C185.257 42.7 185.343 40.5243 186.922 38.674C187.614 37.8607 188.371 37.3727 188.868 37.088Z" fill="#606060"/>
<path d="M218.148 77.348C221.565 75.823 223.857 72.6307 223.295 69.0113C222.97 66.8153 221.089 63.0333 218.083 64.3753C216.742 64.9853 215.64 66.1037 214.407 66.8967C212.699 67.9947 210.731 68.8487 208.763 69.4383C206.254 70.1907 203.465 70.3533 201.043 69.2147C199.269 68.381 197.885 67.0187 196.826 65.4733C194.49 62.0777 193.279 58.072 193.56 54.0257C193.582 53.6393 192.933 53.6393 192.912 54.0257C192.674 57.4417 193.474 60.695 195.074 63.745C196.48 66.4697 198.534 69.0317 201.648 70.1297C205.432 71.4513 209.563 70.1093 212.98 68.4217C214.515 67.649 215.834 66.6527 217.218 65.6563C218.472 64.7413 219.727 64.294 221.003 65.514C222.581 67.0187 223.057 69.6417 222.581 71.6343C221.997 74.0133 220.116 75.8027 217.824 76.8193C217.456 76.982 217.78 77.5107 218.148 77.348Z" fill="#161616"/>
<path d="M193.517 54.29C193.236 53.1717 194.079 52.887 194.858 52.3584C195.312 52.0534 195.658 51.6264 195.982 51.1994C196.804 50.081 197.453 48.7797 197.626 47.4174C197.712 46.7464 197.864 45.689 196.891 45.6484C195.745 45.6077 195.269 46.97 194.188 47.0717C193.777 47.1124 193.777 47.7224 194.188 47.6817C195.009 47.6004 195.42 47.1124 196.047 46.665C196.415 46.4007 196.826 46.0957 197.02 46.6854C197.129 47.0107 196.956 47.6207 196.869 47.946C196.718 48.6374 196.393 49.3084 196.047 49.9387C195.723 50.508 195.355 51.0977 194.858 51.5654C194.404 52.0127 193.777 52.1144 193.279 52.4804C192.609 52.9684 192.717 53.802 192.89 54.473C192.998 54.839 193.625 54.6764 193.517 54.29Z" fill="#161616"/>
<path d="M185.97 51.0773C185.538 48.4543 185.494 45.7703 185.927 43.1473C186.1 42.09 186.316 41.0123 186.705 39.9957C186.943 39.3653 187.268 38.6333 187.743 38.125C188.392 37.454 189.668 37.1083 190.014 38.247C190.122 38.6333 190.749 38.4707 190.641 38.0843C190.338 37.1083 189.344 36.5797 188.306 36.966C186.986 37.4743 186.359 38.9993 185.948 40.1583C184.737 43.676 184.737 47.6207 185.321 51.24C185.408 51.6263 186.035 51.4637 185.97 51.0773Z" fill="#161616"/>
<path d="M189.106 40.5853C189.625 39.3857 191.095 36.966 192.695 38.613C192.977 38.8977 193.431 38.4707 193.15 38.186C192.414 37.4337 191.355 37.3117 190.425 37.82C189.387 38.369 188.911 39.4467 188.479 40.443C188.327 40.7887 188.954 40.9513 189.106 40.5853Z" fill="#161616"/>
<path d="M191.83 41.0937C191.852 40.321 192.176 39.467 192.977 39.101C193.647 38.796 194.447 38.9383 194.901 39.4873C195.161 39.7923 195.615 39.3653 195.355 39.0603C194.728 38.3283 193.604 38.1453 192.717 38.5316C191.679 38.9993 191.203 40.0567 191.182 41.0937C191.16 41.48 191.809 41.48 191.83 41.0937Z" fill="#161616"/>
<path d="M193.712 41.297C194.101 39.9347 195.723 38.6943 197.129 39.7923C197.453 40.0363 197.907 39.6093 197.583 39.3653C195.788 37.9827 193.625 39.284 193.085 41.1343C192.977 41.5207 193.604 41.6833 193.712 41.297Z" fill="#161616"/>
<path d="M196.999 39.6907C197.691 40.6057 196.155 41.175 195.615 41.602C195.161 41.9477 194.901 42.395 194.707 42.9034C194.188 44.3064 193.95 45.8314 193.82 47.2954C193.777 47.6817 194.425 47.6817 194.469 47.2954C194.577 46.2177 194.75 45.14 195.031 44.0827C195.117 43.737 195.204 43.3913 195.334 43.0457C195.615 42.334 196.026 42.0697 196.653 41.6427C197.431 41.114 198.253 40.26 197.561 39.345C197.323 39.0603 196.761 39.3653 196.999 39.6907Z" fill="#161616"/>
<path d="M185.17 50.4673C185.516 51.85 185.949 53.2123 186.489 54.5543C186.641 54.9203 187.268 54.7577 187.117 54.3917C186.576 53.0496 186.143 51.6873 185.797 50.3046C185.711 49.9183 185.084 50.081 185.17 50.4673Z" fill="#161616"/>
<path d="M186.381 54.9407C187.203 61.9354 189.041 69.113 194.036 74.5624C198.015 78.8933 204.33 82.1873 210.558 81.1097C213.499 80.6013 216.18 79.2187 218.321 77.287C218.624 77.0227 218.17 76.5753 217.867 76.86C213.585 80.7233 207.487 81.74 202.059 79.4423C196.22 76.9414 192.133 72.2444 189.819 66.6934C188.262 62.9317 187.484 58.9464 187.008 54.961C186.986 54.5544 186.338 54.5544 186.381 54.9407Z" fill="#161616"/>
<path d="M372.136 46.8967C373.867 46.8967 375.271 45.5767 375.271 43.9483C375.271 42.32 373.867 41 372.136 41C370.404 41 369 42.32 369 43.9483C369 45.5767 370.404 46.8967 372.136 46.8967Z" fill="#205072"/>
<path d="M108.309 30.222C110.136 30.222 111.617 28.8292 111.617 27.111C111.617 25.3928 110.136 24 108.309 24C106.481 24 105 25.3928 105 27.111C105 28.8292 106.481 30.222 108.309 30.222Z" fill="#7BE495"/>
<path d="M241.509 154.822C264.19 150.755 288.383 152.362 309.768 159.377C320.272 162.813 330.127 167.286 340.441 171.007C350.837 174.749 361.691 177.331 373.14 178.49C386.235 179.812 399.493 179.588 412.615 178.937C413.128 178.917 413.128 178.307 412.615 178.327C400.762 178.917 388.8 179.161 376.974 178.226C364.985 177.27 353.537 174.911 342.601 171.109C332.206 167.469 322.378 162.996 311.928 159.458C301.668 155.92 290.786 153.582 279.581 152.585C266.809 151.426 253.795 151.996 241.293 154.232C240.78 154.314 240.996 154.903 241.509 154.822Z" fill="#205072"/>
<path d="M13.7782 42.6517C11.8752 42.2857 8.76117 41.3707 8.6098 39.1544C8.5233 37.7921 9.73429 36.7957 11.0102 36.4297C12.5455 35.9621 14.1674 36.3891 15.6595 36.7957C18.3843 37.5481 21.1307 38.1581 23.9852 38.2597C26.645 38.3614 29.2833 37.9954 31.8567 37.3447C34.6247 36.6534 37.3278 35.7181 40.0742 34.9861C42.9719 34.2134 45.9345 33.8067 48.962 33.7661C54.7359 33.6847 60.4449 34.6607 66.1972 34.8844C69.0733 34.9861 71.9062 34.8437 74.7391 34.4371C77.8098 33.9897 80.9454 33.3187 84.0811 33.6644C86.3301 33.9084 89.9414 35.3317 89.2062 38.0564C88.5574 40.4354 84.9677 41.7774 82.7619 42.4484C71.6899 45.8237 60.2719 40.2117 49.0485 41.6961C42.5827 42.5501 36.4844 45.112 29.9537 45.6C26.9694 45.8237 23.8987 45.6407 21.0658 44.6444C18.4708 43.7091 16.1353 41.6757 13.1727 42.1637C12.7618 42.2247 12.9348 42.8144 13.3457 42.7534C15.1189 42.4687 16.6759 43.2617 18.168 44.0344C19.379 44.6444 20.59 45.2137 21.9092 45.5797C24.6123 46.3524 27.5101 46.454 30.3213 46.21C36.5061 45.661 42.3232 43.3634 48.443 42.428C55.19 41.4114 61.8289 42.8754 68.4894 43.7091C73.9173 44.3801 79.7344 44.5427 84.8379 42.4077C86.7842 41.5944 89.3792 40.2931 89.8766 38.1377C90.3307 36.2061 88.752 34.6607 87.0437 33.8677C84.5135 32.7087 81.4644 32.9324 78.7829 33.2781C75.5176 33.6847 72.3387 34.3354 69.0301 34.3761C62.5858 34.4777 56.2281 33.2374 49.8054 33.2171C46.7347 33.2171 43.6856 33.5424 40.7013 34.2744C37.7387 35.0064 34.8626 36.0231 31.9216 36.7754C28.2886 37.6904 24.6339 37.9751 20.9144 37.4261C19.0547 37.1414 17.3031 36.6534 15.5082 36.1654C14.1674 35.7994 12.7185 35.4944 11.3129 35.7791C9.2153 36.2061 7.31229 38.0767 8.24217 40.1711C9.08554 42.0824 11.6589 42.9161 13.6484 43.3024C13.9944 43.3227 14.1674 42.7331 13.7782 42.6517Z" fill="#205072"/>
</svg>
