<svg width="39" height="46" viewBox="0 0 39 46" fill="none" xmlns="http://www.w3.org/2000/svg">
<path d="M31.1665 7.65385C31.1446 6.15999 30.4206 4.73244 29.149 3.67605C27.8775 2.61966 26.1591 2.01816 24.361 2C22.5628 2.01816 20.8445 2.61966 19.5729 3.67605C18.3013 4.73244 17.5773 6.15999 17.5554 7.65385C17.5367 7.01611 17.2234 6.40879 16.6804 5.95771C16.1375 5.50663 15.4064 5.24634 14.6388 5.23077C13.8711 5.24634 13.1401 5.50663 12.5972 5.95771C12.0542 6.40879 11.7409 7.01611 11.7221 7.65385V16.5385C11.7221 18.2522 12.5416 19.8957 14.0002 21.1075C15.4588 22.3192 17.4371 23 19.4999 23C21.5627 23 23.541 22.3192 24.9996 21.1075C26.4582 19.8957 27.2776 18.2522 27.2776 16.5385V11.6923H31.1665V7.65385Z" stroke="#205072" stroke-width="3" stroke-miterlimit="10" stroke-linecap="round" stroke-linejoin="round"/>
<path d="M15.611 22.1923V23.8076C15.6249 25.0125 15.2313 26.1964 14.475 27.2245C13.7187 28.2526 12.6302 29.0837 11.3333 29.623L7.44442 31.2384C6.3619 31.7318 5.43056 32.4255 4.72249 33.2659C4.01442 34.1062 3.5486 35.0707 3.3611 36.0846L2 43.9999" stroke="#205072" stroke-width="3" stroke-miterlimit="10" stroke-linecap="round" stroke-linejoin="round"/>
<path d="M37.0001 44.0001L35.639 35.9231C35.4515 34.9093 34.9857 33.9448 34.2776 33.1045C33.5695 32.2641 32.6382 31.5704 31.5557 31.077L23.389 27.6847L19.5002 29.4616L14.6391 26.7155" stroke="#205072" stroke-width="3" stroke-miterlimit="10" stroke-linecap="round" stroke-linejoin="round"/>
</svg>
