<svg width="55" height="61" viewBox="0 0 55 61" fill="none" xmlns="http://www.w3.org/2000/svg">
<path fill-rule="evenodd" clip-rule="evenodd" d="M27.4999 15.2709L22.9166 10.2988L9.16658 10.1945C6.63528 10.1945 4.58325 12.4704 4.58325 15.2779V40.5831C4.58325 43.377 6.61622 45.6472 9.13523 45.6663L22.9166 45.7709L27.5093 50.8333L32.0833 45.7709L45.8646 45.6663C48.3836 45.6472 50.4166 43.377 50.4166 40.5831L50.4166 15.243C50.4131 12.4355 48.3583 10.1628 45.827 10.1666L32.0833 10.1875L27.4999 15.2709ZM29.7916 40.681L45.8332 40.5622V15.229L33.9843 15.2471L29.8272 19.8577L29.7916 40.681ZM25.2083 19.8577L21.0347 15.347L9.16658 15.257V40.5622L25.2083 40.681V19.8577Z" fill="#7BE495"/>
</svg>
