<svg width="410" height="211" viewBox="0 0 410 211" fill="none" xmlns="http://www.w3.org/2000/svg">
<path d="M64.32 111.149C67.3156 111.149 69.744 108.435 69.744 105.087C69.744 101.739 67.3156 99.0243 64.32 99.0243C61.3244 99.0243 58.896 101.739 58.896 105.087C58.896 108.435 61.3244 111.149 64.32 111.149Z" fill="#329D9C"/>
<path d="M58.776 109.137C61.4137 109.137 63.552 106.867 63.552 104.068C63.552 101.269 61.4137 99 58.776 99C56.1383 99 54 101.269 54 104.068C54 106.867 56.1383 109.137 58.776 109.137Z" fill="#7BE495"/>
<path d="M106.537 108.048C105.062 109.651 102.965 110.965 100.549 110.741C97.9194 110.5 96.6224 108.609 96.3736 106.398C95.9472 102.728 96.9422 98.3371 94.1882 95.2121C93.1044 93.9782 91.4876 93.3212 89.7464 93.7058C87.6498 94.1545 86.0152 95.6448 84.1496 96.5262C81.9465 97.5679 78.9082 98.1287 76.9183 96.382C75.4613 95.1 75.1415 93.1449 74.6618 91.4462C74.2176 89.9078 73.4536 88.2091 71.9256 87.2956C71.0017 86.7508 69.989 86.7027 68.9229 86.7668C67.7325 86.8469 65.2984 86.911 65.5471 85.2284C65.5826 84.9239 65.0496 84.9239 65.0141 85.2284C64.9253 85.8854 65.2628 86.4142 65.8492 86.7988C66.7731 87.4078 67.8391 87.3117 68.9229 87.2476C70.1489 87.1674 71.1972 87.2636 72.1388 88.0488C72.9917 88.7539 73.5069 89.7475 73.88 90.725C74.5019 92.4077 74.6796 94.2506 75.7456 95.7891C76.7939 97.3115 78.6062 98.0486 80.5606 97.9845C83.0303 97.9044 85.1091 96.6224 87.0813 95.4365C88.0229 94.8756 89.0357 94.2827 90.1906 94.1064C91.5764 93.8981 92.8024 94.4429 93.6907 95.3724C95.3609 97.1352 95.6274 99.6512 95.7162 101.863C95.8051 103.93 95.503 106.173 96.267 108.177C96.96 110.004 98.7189 111.141 100.833 111.237C103.285 111.35 105.435 110.02 106.945 108.385C107.141 108.145 106.768 107.808 106.537 108.048Z" fill="#205072"/>
<path d="M97.0899 79.1813C96.5139 80.3696 97.3299 81.5578 98.5299 81.8731C99.4419 82.1156 100.402 81.8973 101.338 81.9458C102.346 81.9943 103.354 82.2368 104.266 82.6491C106.282 83.5706 107.578 85.2438 107.65 87.4991C107.722 89.3906 107.17 91.3548 107.986 93.1493C109.714 96.9323 114.466 94.0466 116.914 96.4958C118.954 98.5571 118.114 102.316 120.85 103.892C121.258 104.135 121.618 103.504 121.21 103.262C118.762 101.855 119.338 98.1933 117.61 96.1563C116.698 95.0893 115.378 94.7983 114.034 94.7013C112.402 94.6043 110.29 94.9438 109.09 93.5373C107.698 91.8883 108.442 89.4148 108.37 87.4748C108.322 85.9471 107.818 84.5648 106.762 83.4736C105.826 82.5278 104.602 81.8731 103.33 81.5336C102.682 81.3638 102.01 81.2426 101.338 81.2183C100.474 81.1698 96.7299 81.6063 97.7379 79.5451C97.9299 79.1328 97.3059 78.7691 97.0899 79.1813Z" fill="#205072"/>
<path d="M70.441 166.438C74.353 165.468 78.289 165.371 82.273 166.001C83.953 166.268 85.657 166.535 87.361 166.389C89.017 166.244 90.625 165.734 92.233 165.298C94.057 164.789 95.881 164.401 97.801 164.546C99.769 164.692 101.665 165.249 103.585 165.686C105.241 166.074 106.921 166.341 108.625 166.316C110.425 166.268 112.201 165.953 113.953 165.686C118.753 164.91 123.265 165.395 128.017 166.195C128.473 166.268 128.665 165.565 128.209 165.492C124.369 164.861 120.505 164.207 116.593 164.595C112.513 165.007 108.721 166.025 104.593 165.177C101.137 164.473 97.849 163.382 94.297 164.061C92.401 164.425 90.601 165.104 88.705 165.468C86.593 165.88 84.553 165.637 82.441 165.298C78.337 164.667 74.281 164.716 70.225 165.734C69.817 165.856 70.009 166.559 70.441 166.438Z" fill="#205072"/>
<path d="M107.305 159.066C114.841 158.653 122.377 158.241 129.913 157.853C133.633 157.659 137.233 157.732 140.929 158.241C142.585 158.459 144.169 158.508 145.825 158.314C147.673 158.096 149.593 157.805 151.321 158.702C151.729 158.92 152.089 158.29 151.681 158.071C148.753 156.568 145.369 157.974 142.225 157.683C140.353 157.514 138.529 157.15 136.657 157.053C134.713 156.956 132.769 157.004 130.825 157.101C122.977 157.465 115.129 157.95 107.281 158.362C106.849 158.362 106.849 159.09 107.305 159.066Z" fill="#205072"/>
<path d="M38.7379 157.728C30.4872 157.728 22.2104 157.728 13.9597 157.728C13.4652 157.728 13.4652 157 13.9597 157C22.2104 157 30.4872 157 38.7379 157C39.2325 157 39.2325 157.728 38.7379 157.728Z" fill="#205072"/>
<path d="M75.5409 158.964C70.8299 158.964 66.1449 158.964 61.4339 158.964C60.9394 158.964 60.9394 158.237 61.4339 158.237C66.1449 158.237 70.8299 158.237 75.5409 158.237C76.0614 158.237 76.0614 158.964 75.5409 158.964Z" fill="#205072"/>
<path d="M67.9408 175.406C58.8832 175.406 49.8517 175.406 40.7941 175.406C40.2995 175.406 40.2995 174.678 40.7941 174.678C49.8517 174.678 58.8832 174.678 67.9408 174.678C68.4614 174.678 68.4614 175.406 67.9408 175.406Z" fill="#205072"/>
<path d="M41.8873 170.847C33.4804 170.847 25.0475 170.847 16.6406 170.847C16.146 170.847 16.146 170.119 16.6406 170.119C25.0475 170.119 33.4804 170.119 41.8873 170.119C42.4078 170.119 42.4078 170.847 41.8873 170.847Z" fill="#205072"/>
<path d="M0.342001 151.728C4.87801 151.728 9.39003 151.728 13.926 151.728C14.382 151.728 14.382 151 13.926 151C9.39003 151 4.87801 151 0.342001 151C-0.114 151 -0.114 151.728 0.342001 151.728Z" fill="#205072"/>
<path d="M40.342 150.727C59.902 150.727 79.462 150.727 99.022 150.727C104.59 150.727 110.158 150.727 115.726 150.727C116.182 150.727 116.182 150 115.726 150C96.166 150 76.606 150 57.046 150C51.478 150 45.91 150 40.342 150C39.886 150 39.886 150.727 40.342 150.727Z" fill="#205072"/>
<path d="M160.32 105.149C163.316 105.149 165.744 102.435 165.744 99.0868C165.744 95.7386 163.316 93.0243 160.32 93.0243C157.324 93.0243 154.896 95.7386 154.896 99.0868C154.896 102.435 157.324 105.149 160.32 105.149Z" fill="#329D9C"/>
<path d="M343.32 99.7787C345.547 99.7787 347.352 98.0199 347.352 95.8502C347.352 93.6806 345.547 91.9218 343.32 91.9218C341.093 91.9218 339.288 93.6806 339.288 95.8502C339.288 98.0199 341.093 99.7787 343.32 99.7787Z" fill="#329D9C"/>
<path d="M220.368 76.0623C222.025 76.0623 223.368 74.7051 223.368 73.031C223.368 71.3569 222.025 69.9998 220.368 69.9998C218.711 69.9998 217.368 71.3569 217.368 73.031C217.368 74.7051 218.711 76.0623 220.368 76.0623Z" fill="#329D9C"/>
<path d="M154.776 103.137C157.414 103.137 159.552 100.867 159.552 98.0683C159.552 95.2691 157.414 93 154.776 93C152.138 93 150 95.2691 150 98.0683C150 100.867 152.138 103.137 154.776 103.137Z" fill="#7BE495"/>
<path d="M342.216 93.5707C343.846 93.5707 345.168 92.181 345.168 90.4667C345.168 88.7524 343.846 87.3627 342.216 87.3627C340.586 87.3627 339.264 88.7524 339.264 90.4667C339.264 92.181 340.586 93.5707 342.216 93.5707Z" fill="#7BE495"/>
<path d="M381.672 7.96825C383.461 7.96825 384.912 6.40483 384.912 4.47625C384.912 2.54767 383.461 0.984253 381.672 0.984253C379.883 0.984253 378.432 2.54767 378.432 4.47625C378.432 6.40483 379.883 7.96825 381.672 7.96825Z" fill="#7BE495"/>
<path d="M311.304 29.5507C310.776 28.702 309.912 29.5022 309.552 30.0842C308.808 31.2967 308.328 32.8002 308.88 34.1825C309.288 35.2253 310.296 36.0983 311.472 35.9285C312.552 35.783 313.368 34.8858 313.344 33.7945C313.344 33.5035 312.936 33.2852 312.72 33.5277C311.448 35.1525 309.888 37.4563 311.16 39.5418C312.048 40.9725 314.232 41.1665 315.096 39.6145C314.88 39.5903 314.664 39.566 314.448 39.5175C314.568 40.1965 314.688 40.8755 314.784 41.5545C314.856 42.0153 315.552 41.8213 315.48 41.3605C315.36 40.6815 315.24 40.0025 315.144 39.3235C315.096 39.0083 314.616 38.984 314.496 39.2265C314.112 39.9055 313.248 40.148 312.552 39.8085C311.784 39.4205 311.448 38.5475 311.448 37.6988C311.448 36.2923 312.432 35.0555 313.248 34.0127C313.032 33.9157 312.84 33.843 312.624 33.746C312.648 34.6675 311.76 35.3465 310.872 35.1525C310.2 35.007 309.768 34.425 309.528 33.7945C309.288 33.1397 309.312 32.485 309.504 31.8302C309.528 31.7817 310.512 29.6235 310.656 29.866C310.92 30.3025 311.544 29.9387 311.304 29.5507Z" fill="#329D9C"/>
<path d="M219.739 36.5447C220.267 35.0897 222.019 35.7202 222.571 36.7387C222.763 37.0782 222.859 37.4662 222.907 37.8542C223.003 38.5817 222.931 38.8727 222.307 39.3092C221.635 39.9882 221.467 39.7215 221.827 38.509C221.995 38.4362 222.187 38.3635 222.355 38.2907C222.811 38.1695 223.339 38.1937 223.795 38.3392C224.947 38.7272 225.523 39.964 225.355 41.1037C225.307 41.3947 225.595 41.6857 225.883 41.516C227.443 40.6187 229.507 41.613 229.867 43.3832C229.963 43.844 230.659 43.65 230.563 43.1892C230.107 40.9582 227.491 39.7942 225.523 40.9097C225.691 41.0552 225.883 41.1765 226.051 41.322C226.363 39.188 224.755 37.1994 222.523 37.539C221.755 37.6602 220.603 38.1452 220.507 39.0667C220.435 39.8185 221.131 40.3762 221.827 40.449C223.891 40.643 223.843 37.6117 223.171 36.3992C222.259 34.7502 219.739 34.3379 219.019 36.3749C218.875 36.7872 219.571 36.9812 219.739 36.5447Z" fill="#7BE495"/>
<path d="M176.208 144.859C176.736 150.122 177.648 155.311 178.92 160.452C179.04 160.913 179.736 160.719 179.616 160.258C178.368 155.19 177.456 150.049 176.928 144.859C176.88 144.399 176.16 144.399 176.208 144.859Z" fill="#205072"/>
<path d="M179.064 160.695C183.792 161.932 188.712 161.932 193.44 160.695C193.896 160.574 193.704 159.87 193.248 159.992C188.64 161.204 183.864 161.204 179.256 159.992C178.824 159.87 178.632 160.574 179.064 160.695Z" fill="#205072"/>
<path d="M193.992 159.967C194.304 154.802 194.712 149.637 195.192 144.472C195.24 144.011 194.52 144.011 194.472 144.472C193.992 149.637 193.584 154.802 193.272 159.967C193.248 160.428 193.968 160.428 193.992 159.967Z" fill="#205072"/>
<path d="M176.616 145.248C182.592 146.484 188.736 146.436 194.712 145.078C195.168 144.981 194.976 144.278 194.52 144.375C188.688 145.684 182.664 145.757 176.808 144.544C176.352 144.447 176.16 145.151 176.616 145.248Z" fill="#205072"/>
<path d="M176.544 146.994C176.736 147.988 177.984 147.939 178.752 148.012C180.696 148.182 182.664 148.23 184.608 148.182C186.48 148.133 188.352 147.988 190.224 147.77C191.712 147.576 193.152 147.382 194.472 146.63C194.88 146.411 194.52 145.781 194.112 145.999C191.736 147.333 188.448 147.285 185.784 147.406C184.464 147.454 183.12 147.479 181.8 147.454C181.104 147.43 177.384 147.6 177.24 146.8C177.144 146.339 176.472 146.533 176.544 146.994Z" fill="#205072"/>
<path d="M177.912 155.408C179.064 157.47 180.528 159.288 182.28 160.865C182.616 161.18 183.144 160.67 182.784 160.355C181.056 158.827 179.64 157.057 178.536 155.045C178.32 154.632 177.696 154.996 177.912 155.408Z" fill="#205072"/>
<path d="M176.976 149.807C179.424 153.978 182.4 157.809 185.808 161.253C186.144 161.592 186.648 161.059 186.312 160.743C182.952 157.348 180.024 153.565 177.6 149.443C177.36 149.055 176.736 149.419 176.976 149.807Z" fill="#205072"/>
<path d="M180.984 148.06C183.528 152.644 186.48 156.984 189.816 161.034C190.104 161.398 190.608 160.889 190.32 160.525C187.032 156.524 184.104 152.231 181.608 147.697C181.392 147.284 180.768 147.648 180.984 148.06Z" fill="#205072"/>
<path d="M185.568 148.23C188.04 151.965 190.536 155.675 193.056 159.385C193.32 159.773 193.944 159.41 193.68 159.022C191.16 155.311 188.664 151.601 186.192 147.867C185.928 147.479 185.304 147.842 185.568 148.23Z" fill="#205072"/>
<path d="M189.408 148.012C190.656 150.049 192 152.038 193.392 153.978C193.656 154.341 194.28 153.978 194.016 153.614C192.624 151.674 191.28 149.685 190.032 147.648C189.792 147.26 189.168 147.624 189.408 148.012Z" fill="#205072"/>
<path d="M168.648 123.52C168.936 125.193 169.224 126.89 169.536 128.564C169.632 129.024 169.704 129.509 170.088 129.8C170.352 130.019 171.216 129.994 171.384 130.237C171.408 130.091 171.432 129.946 171.432 129.8C171.072 130.164 170.712 130.528 170.328 130.867C170.232 130.964 170.208 131.11 170.232 131.231C170.448 131.886 170.592 132.856 171.024 133.414C171.24 133.705 171.624 133.656 171.792 133.826C171.936 133.971 171.888 133.874 171.816 134.311C171.768 134.675 171.768 135.063 171.816 135.451C171.888 136.033 172.056 136.59 172.272 137.124C173.52 140.179 175.944 142.653 178.272 144.932C178.608 145.248 179.112 144.738 178.776 144.423C177.288 142.968 175.8 141.465 174.576 139.767C173.376 138.094 171.96 135.839 172.704 133.705C172.752 133.583 172.704 133.414 172.608 133.341C172.152 132.977 171.696 133.123 171.384 132.541C170.784 131.449 171.12 131.086 171.888 130.334C172.008 130.237 172.032 130.019 171.936 129.897C171.744 129.606 171.6 129.509 171.288 129.412C171.096 129.34 170.808 129.412 170.616 129.315C170.208 129.097 170.208 128.564 170.136 128.176C169.848 126.575 169.56 124.95 169.296 123.35C169.248 122.865 168.552 123.059 168.648 123.52Z" fill="#205072"/>
<path d="M169.176 123.423C178.536 126.575 184.944 135.402 185.136 145.393C185.136 145.854 185.856 145.854 185.856 145.393C185.664 135.087 179.04 125.993 169.368 122.719C168.936 122.574 168.744 123.277 169.176 123.423Z" fill="#205072"/>
<path d="M183.552 135.45C185.88 128.927 189.312 122.622 194.808 118.33C195.168 118.039 194.808 117.408 194.448 117.699C188.784 122.137 185.256 128.539 182.856 135.256C182.712 135.693 183.408 135.887 183.552 135.45Z" fill="#205072"/>
<path d="M194.184 118.185C194.352 120.416 194.544 122.647 194.712 124.902C194.76 125.363 195.48 125.363 195.432 124.902C195.264 122.671 195.072 120.44 194.904 118.185C194.88 117.724 194.16 117.724 194.184 118.185Z" fill="#205072"/>
<path d="M195.024 124.659C194.712 124.732 194.4 124.805 194.112 124.902C193.656 125.023 193.848 125.726 194.304 125.605C194.616 125.532 194.928 125.46 195.216 125.363C195.672 125.241 195.48 124.562 195.024 124.659Z" fill="#205072"/>
<path d="M193.752 125.557C193.848 126.017 194.232 126.308 194.664 126.357C194.856 126.381 195.024 126.187 195.024 125.993C195.024 125.775 194.856 125.654 194.664 125.629C194.736 125.629 194.664 125.629 194.64 125.629C194.616 125.629 194.568 125.605 194.616 125.629C194.592 125.605 194.568 125.605 194.544 125.581C194.496 125.557 194.592 125.629 194.52 125.557C194.496 125.532 194.496 125.532 194.472 125.508C194.52 125.557 194.472 125.508 194.472 125.484C194.448 125.46 194.448 125.411 194.448 125.46C194.448 125.435 194.424 125.387 194.424 125.363C194.376 125.169 194.16 125.047 193.992 125.12C193.8 125.169 193.704 125.363 193.752 125.557Z" fill="#205072"/>
<path d="M194.304 126.09C194.328 127.472 194.28 128.83 194.136 130.188C194.088 130.625 194.16 131.643 193.872 131.983C193.848 132.007 193.416 132.08 193.32 132.153C192.96 132.444 193.464 132.953 193.824 132.662C193.944 132.565 194.232 132.662 194.424 132.444C194.712 132.153 194.664 131.474 194.712 131.134C194.928 129.461 195.024 127.763 195 126.066C195.024 125.629 194.304 125.629 194.304 126.09Z" fill="#205072"/>
<path d="M193.032 132.783C193.8 133.705 193.584 135.232 193.512 136.348C193.416 137.633 193.2 138.821 192.576 139.937C191.688 141.586 190.44 142.968 189.792 144.763C189.624 145.199 190.32 145.393 190.488 144.957C191.352 142.604 193.344 140.858 193.944 138.385C194.376 136.615 194.784 133.777 193.536 132.274C193.248 131.934 192.744 132.444 193.032 132.783Z" fill="#205072"/>
<path d="M187.368 145.102C188.04 138.215 189.84 131.498 192.72 125.241C192.912 124.829 192.288 124.441 192.096 124.878C189.168 131.28 187.32 138.094 186.648 145.126C186.6 145.587 187.32 145.563 187.368 145.102Z" fill="#205072"/>
<path d="M173.208 127.472C177.408 132.807 180.48 138.943 182.28 145.49C182.4 145.951 183.096 145.757 182.976 145.296C181.128 138.603 177.984 132.395 173.712 126.963C173.424 126.599 172.92 127.109 173.208 127.472Z" fill="#205072"/>
<path d="M173.664 136.421C175.68 136.299 177.552 136.784 179.256 137.851C179.64 138.094 180.024 137.463 179.616 137.221C177.816 136.105 175.776 135.572 173.664 135.693C173.184 135.717 173.184 136.445 173.664 136.421Z" fill="#205072"/>
<path d="M178.056 133.171C177.912 131.837 178.08 130.552 178.584 129.291C178.752 128.854 178.056 128.66 177.888 129.097C177.36 130.406 177.192 131.764 177.336 133.171C177.384 133.632 178.104 133.632 178.056 133.171Z" fill="#205072"/>
<path d="M185.832 129.146C186.624 131.11 187.776 133.195 188.064 135.281C188.136 135.742 188.832 135.548 188.76 135.087C188.448 132.977 187.296 130.892 186.528 128.952C186.36 128.515 185.664 128.709 185.832 129.146Z" fill="#205072"/>
<path d="M190.248 131.449C190.944 130.649 191.616 129.703 192.504 129.097C193.248 128.588 194.064 128.248 194.64 127.545C194.928 127.181 194.424 126.672 194.136 127.036C193.512 127.788 192.6 128.103 191.856 128.685C191.04 129.315 190.416 130.164 189.744 130.94C189.432 131.304 189.936 131.813 190.248 131.449Z" fill="#205072"/>
<path d="M190.488 144.86C191.64 144.544 192.816 144.423 194.016 144.496C194.472 144.52 194.472 143.793 194.016 143.768C192.744 143.696 191.52 143.817 190.296 144.156C189.864 144.278 190.032 144.981 190.488 144.86Z" fill="#205072"/>
<path d="M190.392 145.15C191.736 145.272 193.032 145.102 194.328 144.69C194.76 144.544 194.568 143.841 194.136 143.986C192.912 144.374 191.664 144.52 190.392 144.423C189.936 144.399 189.936 145.126 190.392 145.15Z" fill="#205072"/>
<path d="M176.928 145.029C177.24 145.029 177.528 145.029 177.84 145.029C178.296 145.029 178.296 144.302 177.84 144.302C177.528 144.302 177.24 144.302 176.928 144.302C176.472 144.302 176.472 145.029 176.928 145.029Z" fill="#205072"/>
<path d="M194.52 150.898C202.128 150.898 209.76 150.898 217.368 150.898C217.824 150.898 217.824 150.17 217.368 150.17C209.76 150.17 202.128 150.17 194.52 150.17C194.064 150.17 194.064 150.898 194.52 150.898Z" fill="#205072"/>
<path d="M323.304 146.096C327.84 146.096 332.352 146.096 336.888 146.096C337.344 146.096 337.344 145.369 336.888 145.369C332.352 145.369 327.84 145.369 323.304 145.369C322.848 145.369 322.848 146.096 323.304 146.096Z" fill="#205072"/>
<path d="M364.572 146.533C388.963 146.533 413.354 146.533 437.744 146.533C444.687 146.533 451.63 146.533 458.574 146.533C459.142 146.533 459.142 145.805 458.574 145.805C434.183 145.805 409.792 145.805 385.402 145.805C378.459 145.805 371.516 145.805 364.572 145.805C364.004 145.805 364.004 146.533 364.572 146.533Z" fill="#205072"/>
<path d="M335.52 66.92C333.696 70.7272 331.728 74.4617 329.64 78.1235C329.544 78.3175 329.616 78.6328 329.856 78.657C340.152 80.2333 349.368 85.3985 358.248 90.6123C358.656 90.8548 359.016 90.2242 358.608 89.9817C349.656 84.7437 340.392 79.5542 330.024 77.9537C330.096 78.1235 330.168 78.3175 330.24 78.4873C332.352 74.8255 334.296 71.091 336.12 67.2837C336.336 66.8715 335.736 66.4835 335.52 66.92Z" fill="#205072"/>
<path d="M337.104 80.1363C337.824 78.0508 338.544 75.941 339.264 73.8555C339.576 72.9825 339.792 72.0125 340.2 71.1638C340.296 70.6545 340.608 70.2665 341.088 69.9755C341.376 70.0483 341.664 70.121 341.952 70.1938C342.384 70.315 342.816 70.412 343.224 70.5333C344.208 70.7758 345.792 70.7758 345.624 72.1095C345.504 73.0553 344.952 74.0738 344.64 74.9953C343.92 77.0565 343.224 79.1178 342.504 81.179C342.36 81.6155 343.056 81.8095 343.2 81.373C344.136 78.657 345.072 75.9168 346.008 73.2008C346.224 72.5703 346.824 71.5033 346.344 70.8243C345.816 70.0968 344.232 70.0483 343.416 69.83C342.624 69.636 341.232 68.9085 340.416 69.2965C339.72 69.6118 339.576 70.8243 339.36 71.4305C338.376 74.2678 337.392 77.1293 336.408 79.9665C336.264 80.3788 336.96 80.5728 337.104 80.1363Z" fill="#205072"/>
<path d="M346.368 82.731C347.904 79.4572 349.464 76.1592 351 72.8855C351.768 71.2365 352.536 69.6117 353.328 67.9627C353.688 67.211 353.976 66.3137 354.432 65.6105C354.816 65.0042 354.912 64.8587 355.584 65.1255C355.944 65.271 356.376 65.6347 356.688 65.853C357.096 66.144 357.744 66.4592 358.032 66.8472C358.392 67.308 358.248 67.793 358.032 68.375C357.744 69.151 357.312 69.9027 356.952 70.6545C356.16 72.3035 355.368 73.9525 354.528 75.6015C352.944 78.7297 351.288 81.8337 349.584 84.9135C349.344 85.3257 349.968 85.6895 350.208 85.2772C352.296 81.5427 354.288 77.7597 356.16 73.9282C357.096 72.0367 358.128 70.0967 358.92 68.1325C359.472 66.7017 358.272 66.1197 357.216 65.368C356.376 64.786 355.056 63.4523 354.144 64.5435C353.568 65.2225 353.256 66.3622 352.872 67.1867C352.392 68.181 351.936 69.1752 351.456 70.1937C349.536 74.2677 347.616 78.3417 345.72 82.4157C345.552 82.7795 346.176 83.1675 346.368 82.731Z" fill="#205072"/>
<path d="M354.336 87.775C356.4 84.5013 358.728 81.3973 361.296 78.5358C361.152 78.56 361.008 78.5843 360.864 78.5843C361.776 79.2148 362.664 79.821 363.576 80.4515C363.528 80.2818 363.48 80.112 363.456 79.9423C361.416 83.1675 359.376 86.3685 357.336 89.5938C357.096 89.9818 357.696 90.3455 357.96 89.9575C360 86.7323 362.04 83.5313 364.08 80.306C364.2 80.1363 364.104 79.918 363.96 79.7968C363.048 79.1663 362.16 78.56 361.248 77.9295C361.128 77.8325 360.912 77.881 360.816 77.978C358.2 80.9123 355.824 84.0405 353.736 87.3628C353.472 87.8235 354.096 88.1873 354.336 87.775Z" fill="#205072"/>
<path d="M382.968 64.7133C380.568 63.7918 379.056 61.3668 379.488 58.772C379.92 56.1288 382.488 53.7765 385.128 55.3528C386.952 56.444 387.888 58.9175 387.192 60.9303C386.472 63.0885 384.12 64.3738 381.936 64.0343C381.48 63.9615 381.288 64.6648 381.744 64.7375C384.312 65.1255 387.024 63.6948 387.888 61.1243C388.752 58.5538 387.36 55.4498 384.864 54.407C381.936 53.1945 379.272 55.7408 378.768 58.578C378.24 61.585 379.992 64.3495 382.752 65.4165C383.208 65.5863 383.4 64.883 382.968 64.7133Z" fill="#205072"/>
<path d="M387.888 64.2525C383.112 64.107 384.912 56.3713 389.136 56.6623C393.36 56.9775 391.632 65.6833 387 64.0828C386.568 63.9373 386.376 64.6405 386.808 64.786C392.16 66.629 394.56 56.7835 389.448 55.959C386.952 55.5468 384.696 57.9233 384.312 60.2755C383.928 62.6035 385.488 64.883 387.888 64.9558C388.344 65.0043 388.344 64.2768 387.888 64.2525Z" fill="#205072"/>
<path d="M384.312 42.3063C383.904 41.8698 383.712 41.1665 384.024 40.633C384.336 40.1238 385.104 39.8813 385.584 40.2693C386.016 40.6088 386.112 41.3363 385.704 41.7C385.224 42.1365 384.456 41.9183 384 41.5545C383.64 41.2635 383.136 41.7728 383.496 42.0638C384.24 42.6458 385.392 42.9368 386.184 42.2335C386.904 41.5788 386.832 40.3663 386.112 39.7358C385.368 39.0811 384.192 39.2751 383.568 40.0025C382.872 40.827 383.064 42.0638 383.784 42.8155C384.12 43.155 384.624 42.6458 384.312 42.3063Z" fill="#205072"/>
<path d="M314.664 60.5665C313.992 56.444 316.368 51.4728 320.976 51.5213C323.328 51.5455 325.608 52.5155 327.984 52.176C329.664 51.9335 331.104 50.9635 332.112 49.6298C333.12 48.296 333.696 46.6228 333.792 44.9495C333.912 42.476 332.976 39.954 333.648 37.5048C333.984 36.268 334.704 35.1283 335.928 34.6675C337.104 34.2553 338.376 34.4978 339.6 34.4493C341.376 34.3765 342.768 33.6005 343.656 32.0243C344.904 29.8175 344.616 27.1743 345.48 24.8463C346.512 22.0333 349.416 19.6325 352.488 21.0148C352.896 21.2088 353.28 20.5783 352.848 20.3843C348.672 18.4928 345.192 22.3 344.376 26.1315C343.848 28.6293 343.944 32.5093 340.992 33.5035C338.928 34.2068 336.6 33.1155 334.704 34.5463C333.144 35.7103 332.688 37.8443 332.712 39.7115C332.784 42.4518 333.624 45.1193 332.424 47.7383C331.32 50.2118 329.136 51.691 326.424 51.5213C324.024 51.3758 321.648 50.3815 319.224 51.012C315.12 52.0548 313.368 56.9533 314.016 60.7848C314.064 61.197 314.76 61.003 314.664 60.5665Z" fill="#205072"/>
<path d="M345 43.2762C344.112 41.2392 345.336 39.2992 347.28 38.6445C348.696 38.1595 350.256 38.1352 351.48 37.1652C352.44 36.4135 352.752 35.4677 352.632 34.2552C352.512 33.1155 352.512 32.2182 353.4 31.4422C354.144 30.7875 355.128 30.545 356.088 30.4965C358.728 30.3995 362.352 31.7575 364.272 29.1627C365.16 27.9502 364.896 26.4467 365.304 25.0887C365.856 23.1972 367.656 22.0332 369.576 22.1302C370.032 22.1545 370.032 21.427 369.576 21.4027C368.112 21.33 366.696 21.8877 365.688 22.9547C364.44 24.2885 364.608 25.792 364.224 27.4652C363.192 32.0485 356.88 28.8232 353.904 30.254C352.8 30.7875 351.912 31.7332 351.816 32.9942C351.696 34.4735 352.368 35.686 350.88 36.7045C350.088 37.238 349.176 37.4077 348.264 37.626C346.752 37.9897 345.264 38.4505 344.496 39.9297C343.872 41.0937 343.872 42.4275 344.4 43.6157C344.568 44.0765 345.168 43.6885 345 43.2762Z" fill="#205072"/>
<path d="M387.768 10.9753C387.672 10.757 387.576 10.5145 387.504 10.272C387.816 9.90827 388.104 9.54452 388.416 9.18077C388.512 9.15652 388.944 9.44752 389.088 9.44752C389.448 9.49602 389.76 9.39902 390.048 9.18077C390.936 8.47752 390.624 7.36202 390.888 6.41627C391.32 4.79151 393.216 5.90701 394.08 4.69451C394.944 3.50626 394.632 0.984254 396.936 1.66326C397.392 1.78451 397.584 1.08126 397.128 0.960006C395.808 0.572005 394.608 1.2025 394.128 2.48776C393.984 2.85151 393.936 3.26376 393.792 3.62751C393.48 4.47626 393.144 4.59752 392.232 4.64602C391.56 4.69452 391.032 4.64601 390.576 5.22802C390.192 5.73727 390.192 6.39201 390.12 6.99827C390.048 7.89552 390.12 8.64727 388.8 8.55027C388.536 8.52602 388.32 8.28352 388.032 8.28352C386.448 8.25927 386.712 10.2235 387.096 11.1693C387.24 11.6058 387.96 11.4118 387.768 10.9753Z" fill="#205072"/>
<path d="M392.28 12.988C391.896 12.4788 391.248 10.9995 392.376 10.6115C392.784 10.466 393.312 10.6358 393.744 10.6358C394.128 10.6358 394.464 10.6358 394.776 10.369C395.736 9.59301 395.04 8.21076 395.544 7.24076C396.36 5.66451 397.992 6.90126 399.144 6.07676C399.96 5.49476 400.176 4.37926 400.32 3.45776C400.392 2.99701 399.696 2.80301 399.624 3.26376C399.456 4.35501 399.264 5.56751 397.92 5.68876C397.224 5.76151 396.696 5.51901 396.048 5.83426C394.992 6.34351 394.656 7.28926 394.632 8.38051C394.608 9.30201 394.824 9.76276 393.288 9.83551C393.096 9.83551 392.904 9.78701 392.712 9.78701C392.16 9.83551 391.68 10.1265 391.368 10.5873C390.696 11.5573 391.08 12.6728 391.752 13.5215C392.064 13.8853 392.568 13.3518 392.28 12.988Z" fill="#205072"/>
<path d="M201.463 38.7748C202.938 36.8818 205.035 35.3296 207.451 35.5946C210.081 35.8786 211.378 38.1122 211.626 40.7245C212.053 45.0593 211.058 50.246 213.812 53.9372C214.896 55.3948 216.512 56.1709 218.254 55.7166C220.35 55.1866 221.985 53.4261 223.85 52.385C226.054 51.1546 229.092 50.4921 231.082 52.5554C232.539 54.0697 232.858 56.3791 233.338 58.3856C233.782 60.2029 234.546 62.2094 236.074 63.2884C236.998 63.932 238.011 63.9887 239.077 63.913C240.267 63.8184 242.702 63.7427 242.453 65.7303C242.417 66.0899 242.95 66.0899 242.986 65.7303C243.075 64.9541 242.737 64.3295 242.151 63.8752C241.227 63.1559 240.161 63.2694 239.077 63.3451C237.851 63.4398 236.803 63.3262 235.861 62.3987C235.008 61.5658 234.493 60.3922 234.12 59.2375C233.498 57.2499 233.32 55.073 232.254 53.2558C231.206 51.4575 229.394 50.5867 227.439 50.6624C224.97 50.7571 222.891 52.2714 220.919 53.6722C219.977 54.3347 218.964 55.0351 217.809 55.2434C216.424 55.4894 215.198 54.8458 214.309 53.7479C212.639 51.6657 212.373 48.6938 212.284 46.0815C212.195 43.6396 212.497 40.9895 211.733 38.6233C211.04 36.4654 209.281 35.1214 207.167 35.0078C204.715 34.8753 202.565 36.4464 201.055 38.3773C200.859 38.6612 201.232 39.0587 201.463 38.7748Z" fill="#205072"/>
<path d="M176.112 63.5492C179.856 69.8542 183.192 76.3775 186.144 83.0947C186.336 83.5312 186.96 83.1432 186.768 82.731C183.816 76.0137 180.456 69.4905 176.736 63.1855C176.496 62.7732 175.872 63.137 176.112 63.5492Z" fill="#205072"/>
<path d="M176.568 63.2583C182.4 59.5966 188.4 56.1773 194.568 53.0733C194.976 52.855 194.616 52.2245 194.208 52.4428C188.064 55.5468 182.064 58.966 176.208 62.6278C175.8 62.8946 176.16 63.5251 176.568 63.2583Z" fill="#205072"/>
<path d="M194.136 52.758C197.184 59.2328 200.4 65.6105 203.808 71.8913C204.024 72.3035 204.648 71.9398 204.432 71.5275C201.024 65.2468 197.784 58.869 194.76 52.3942C194.544 51.9577 193.944 52.3215 194.136 52.758Z" fill="#205072"/>
<path d="M186.96 83.2402C192.696 79.7482 198.36 76.1593 203.976 72.4733C204.36 72.2308 204 71.6002 203.616 71.8427C198 75.5287 192.336 79.1178 186.6 82.6097C186.216 82.8522 186.576 83.4827 186.96 83.2402Z" fill="#205072"/>
<path d="M186.504 61.1242C186.36 65.7802 186.624 70.412 187.296 75.0195C187.368 75.4802 188.064 75.2862 187.992 74.8255C187.32 70.2907 187.08 65.7075 187.224 61.1242C187.248 60.6635 186.528 60.6635 186.504 61.1242Z" fill="#205072"/>
<path d="M186.528 60.8818C189.864 63.525 193.2 66.1198 196.584 68.6903C196.944 68.9813 197.304 68.3508 196.944 68.0598C193.608 65.5378 190.296 62.9673 187.032 60.3725C186.672 60.0815 186.168 60.5908 186.528 60.8818Z" fill="#205072"/>
<path d="M188.04 75.165C190.8 72.6673 194.4 71.3335 197.016 68.6418C197.352 68.3023 196.824 67.793 196.512 68.1325C193.896 70.8 190.32 72.158 187.536 74.6558C187.176 74.9468 187.704 75.456 188.04 75.165Z" fill="#205072"/>
<path d="M177.072 67.3565C177.84 66.9685 178.608 66.6047 179.376 66.2167C179.784 66.0227 179.424 65.3923 179.016 65.5863C178.248 65.9742 177.48 66.338 176.712 66.726C176.304 66.9442 176.664 67.5505 177.072 67.3565Z" fill="#205072"/>
<path d="M179.544 71.479C180.192 71.0425 180.888 70.6787 181.608 70.3635C182.04 70.1938 181.848 69.4905 181.416 69.6603C180.624 69.9998 179.88 70.3878 179.16 70.8485C178.8 71.1152 179.16 71.7457 179.544 71.479Z" fill="#205072"/>
<path d="M182.256 76.232C182.928 75.8925 183.6 75.553 184.272 75.2378C184.68 75.0195 184.32 74.4133 183.912 74.6073C183.24 74.9468 182.568 75.2863 181.896 75.6015C181.488 75.7955 181.848 76.4261 182.256 76.232Z" fill="#205072"/>
<path d="M183.648 80.985C184.392 80.3303 185.16 79.7725 186.024 79.2875C186.432 79.045 186.072 78.4388 185.664 78.657C184.776 79.1663 183.936 79.7725 183.144 80.4758C182.784 80.791 183.288 81.3003 183.648 80.985Z" fill="#205072"/>
<path d="M195.504 57.5353C196.056 57.1473 196.632 56.8805 197.28 56.7108C197.736 56.5895 197.544 55.9105 197.088 56.0075C196.392 56.1772 195.72 56.4683 195.12 56.9048C194.76 57.1715 195.12 57.802 195.504 57.5353Z" fill="#205072"/>
<path d="M197.64 61.6821C198.408 61.1971 199.176 60.7121 199.92 60.2028C200.304 59.9603 199.944 59.3298 199.56 59.5723C198.792 60.0573 198.024 60.5423 197.28 61.0516C196.872 61.3183 197.232 61.9488 197.64 61.6821Z" fill="#205072"/>
<path d="M200.088 66.6533C200.904 66.2896 201.744 65.9258 202.56 65.562C202.992 65.368 202.608 64.7375 202.2 64.9315C201.384 65.2953 200.544 65.659 199.728 66.0228C199.296 66.2168 199.68 66.8473 200.088 66.6533Z" fill="#205072"/>
<path d="M201.84 69.9028C202.488 69.2723 203.208 68.7388 204 68.278C204.408 68.0598 204.048 67.4293 203.64 67.6475C202.8 68.1326 202.032 68.6903 201.336 69.3693C201 69.7088 201.504 70.2181 201.84 69.9028Z" fill="#205072"/>
<path d="M189 80.0393C189.6 80.9366 190.104 81.8823 190.488 82.8766C190.656 83.3131 191.352 83.1191 191.184 82.6826C190.776 81.6156 190.272 80.5971 189.624 79.6513C189.36 79.2875 188.736 79.6513 189 80.0393Z" fill="#205072"/>
<path d="M192.672 78.0265C193.128 78.851 193.56 79.6513 194.016 80.4758C194.232 80.888 194.856 80.5243 194.64 80.112C194.184 79.2875 193.752 78.4873 193.296 77.6628C193.08 77.2505 192.456 77.6143 192.672 78.0265Z" fill="#205072"/>
<path d="M196.92 74.9468C197.4 75.8198 197.88 76.6928 198.36 77.5658C198.576 77.9781 199.2 77.6143 198.984 77.202C198.504 76.329 198.024 75.456 197.544 74.583C197.328 74.1708 196.704 74.5345 196.92 74.9468Z" fill="#205072"/>
<path d="M200.736 72.643C201.12 73.5645 201.504 74.486 201.912 75.3832C202.104 75.8197 202.704 75.4317 202.536 75.0195C202.152 74.098 201.768 73.1765 201.36 72.2792C201.168 71.867 200.544 72.2307 200.736 72.643Z" fill="#205072"/>
<path d="M178.968 59.5238C179.424 60.2755 179.856 61.0273 180.312 61.7548C180.552 62.167 181.176 61.779 180.936 61.391C180.48 60.6393 180.048 59.8875 179.592 59.16C179.352 58.772 178.728 59.1358 178.968 59.5238Z" fill="#205072"/>
<path d="M183.096 57.0988C183.528 58.0688 183.96 59.0388 184.392 60.0088C184.584 60.4453 185.208 60.0573 185.016 59.645C184.584 58.675 184.152 57.705 183.72 56.735C183.504 56.2985 182.904 56.6623 183.096 57.0988Z" fill="#205072"/>
<path d="M186.816 54.7708C187.464 55.6438 187.968 56.5895 188.304 57.608C188.448 58.0445 189.144 57.8505 189 57.414C188.64 56.3228 188.136 55.3043 187.44 54.407C187.176 54.0433 186.552 54.3828 186.816 54.7708Z" fill="#205072"/>
<path d="M190.824 52.9035C191.328 53.6795 191.808 54.4313 192.312 55.2073C192.552 55.5953 193.176 55.2315 192.936 54.8435C192.432 54.0675 191.952 53.3158 191.448 52.5398C191.184 52.1518 190.56 52.5155 190.824 52.9035Z" fill="#205072"/>
<path d="M209.727 116.541C207.399 115.813 207.279 113.316 208.383 111.448C209.463 109.63 211.551 109.145 213.183 110.648C214.527 111.909 214.647 114.067 213.399 115.45C212.151 116.856 210.111 116.832 208.671 115.765C208.311 115.474 207.951 116.104 208.311 116.395C210.135 117.753 212.799 117.535 214.167 115.619C215.583 113.679 215.079 110.963 213.087 109.654C208.287 106.526 204.159 115.547 209.535 117.244C209.991 117.39 210.183 116.686 209.727 116.541Z" fill="#205072"/>
<path d="M213.591 117.171C211.791 117.729 211.359 115.547 212.151 114.383C212.799 113.437 214.071 112.879 215.223 113.194C216.327 113.485 217.119 114.625 216.831 115.765C216.471 117.196 214.983 117.705 213.663 117.487C213.207 117.414 213.015 118.117 213.471 118.19C215.247 118.505 217.167 117.729 217.551 115.789C217.887 114.116 216.591 112.588 214.983 112.394C213.207 112.176 211.263 113.485 211.023 115.328C210.807 116.929 212.247 118.36 213.831 117.85C214.239 117.729 214.047 117.026 213.591 117.171Z" fill="#205072"/>
<path d="M223.17 27.1599C222.652 28.2078 223.385 29.2557 224.463 29.5337C225.283 29.7476 226.145 29.5551 226.986 29.5979C227.892 29.6407 228.797 29.8545 229.616 30.2181C231.428 31.0307 232.592 32.5063 232.657 34.4952C232.721 36.1633 232.225 37.8955 232.958 39.4781C234.511 42.8142 238.78 40.2693 240.979 42.4293C242.812 44.2471 242.057 47.5618 244.515 48.9519C244.882 49.1658 245.205 48.6097 244.839 48.3959C242.64 47.1555 243.157 43.9263 241.605 42.1299C240.785 41.1889 239.599 40.9323 238.392 40.8467C236.926 40.7612 235.028 41.0606 233.95 39.8202C232.7 38.366 233.368 36.1847 233.303 34.4738C233.26 33.1265 232.808 31.9075 231.859 30.9452C231.018 30.1111 229.918 29.5337 228.776 29.2343C228.193 29.0846 227.59 28.9777 226.986 28.9563C226.21 28.9135 222.846 29.2985 223.752 27.4807C223.924 27.1172 223.364 26.7964 223.17 27.1599Z" fill="#205072"/>
<path d="M160.584 152.135C164.928 152.135 169.248 152.135 173.592 152.135C174.048 152.135 174.048 151.407 173.592 151.407C169.248 151.407 164.928 151.407 160.584 151.407C160.104 151.407 160.104 152.135 160.584 152.135Z" fill="#205072"/>
<path d="M167.592 168.576C175.944 168.576 184.272 168.576 192.624 168.576C193.08 168.576 193.08 167.849 192.624 167.849C184.272 167.849 175.944 167.849 167.592 167.849C167.112 167.849 167.112 168.576 167.592 168.576Z" fill="#205072"/>
<path d="M191.616 164.017C199.368 164.017 207.144 164.017 214.896 164.017C215.352 164.017 215.352 163.29 214.896 163.29C207.144 163.29 199.368 163.29 191.616 163.29C191.136 163.29 191.136 164.017 191.616 164.017Z" fill="#205072"/>
<path d="M320.712 162.756C324.624 161.786 328.56 161.689 332.544 162.319C334.224 162.586 335.928 162.853 337.632 162.707C339.288 162.562 340.896 162.053 342.504 161.616C344.328 161.107 346.152 160.719 348.072 160.864C350.04 161.01 351.936 161.568 353.856 162.004C355.512 162.392 357.192 162.659 358.896 162.635C360.696 162.586 362.472 162.271 364.224 162.004C369.024 161.228 373.536 161.713 378.288 162.513C378.744 162.586 378.936 161.883 378.48 161.81C374.64 161.18 370.776 160.525 366.864 160.913C362.784 161.325 358.992 162.344 354.864 161.495C351.408 160.792 348.12 159.7 344.568 160.379C342.672 160.743 340.872 161.422 338.976 161.786C336.864 162.198 334.824 161.956 332.712 161.616C328.608 160.986 324.552 161.034 320.496 162.053C320.088 162.174 320.28 162.877 320.712 162.756Z" fill="#205072"/>
<path d="M357.576 155.384C365.112 154.972 372.648 154.559 380.184 154.171C383.904 153.977 387.504 154.05 391.2 154.56C392.856 154.778 394.44 154.826 396.096 154.632C397.944 154.414 399.864 154.123 401.592 155.02C402 155.239 402.36 154.608 401.952 154.39C399.024 152.886 395.64 154.293 392.496 154.002C390.624 153.832 388.8 153.468 386.928 153.371C384.984 153.274 383.04 153.323 381.096 153.42C373.248 153.783 365.4 154.268 357.552 154.681C357.12 154.681 357.12 155.408 357.576 155.384Z" fill="#205072"/>
<path d="M210 176.215C213.552 176.554 217.128 176.894 220.68 176.482C222.336 176.288 223.92 175.924 225.528 175.439C227.616 174.808 229.488 174.639 231.648 175.027C233.304 175.318 234.936 175.73 236.592 175.875C238.344 176.021 240.096 175.924 241.848 175.754C245.52 175.39 249.192 174.76 252.84 175.584C253.296 175.681 253.488 174.978 253.032 174.881C249.528 174.105 246.024 174.614 242.496 174.978C240.744 175.148 238.992 175.318 237.24 175.221C235.248 175.124 233.328 174.59 231.384 174.275C229.752 174.008 228.192 174.008 226.584 174.396C224.856 174.833 223.224 175.415 221.448 175.681C217.656 176.239 213.792 175.851 210 175.512C209.52 175.439 209.544 176.166 210 176.215Z" fill="#205072"/>
<path d="M329.597 21.3812C328.661 20.7264 327.389 19.6836 327.773 18.3741C328.181 17.0161 329.189 17.6709 330.125 17.3556C331.373 16.9434 331.301 15.4157 330.941 14.4214C330.581 13.4514 329.813 11.0992 331.805 11.8994C332.261 12.0934 332.597 12.4087 333.125 12.2389C333.605 12.0934 333.845 11.6569 333.965 11.1962C334.061 10.7839 333.989 10.3474 333.965 9.9109C333.917 9.6199 333.893 9.30465 333.893 9.01365C333.797 8.3104 334.229 8.0194 335.141 8.14065C335.165 8.6014 335.885 8.6014 335.861 8.14065C335.813 7.46165 335.309 6.97665 334.589 7.0009C333.749 7.02515 333.293 7.84965 333.197 8.62565C333.125 9.15915 333.557 10.3959 333.317 10.8324C333.029 11.0264 332.741 11.2447 332.429 11.4387C332.309 11.3659 332.189 11.2931 332.069 11.2204C331.853 11.1476 331.685 11.0022 331.469 10.9537C330.725 10.7839 330.125 11.2447 329.861 11.9237C329.405 13.0877 330.221 14.0577 330.461 15.1489C330.773 16.6524 329.645 16.4827 328.661 16.6524C328.229 16.7252 327.869 16.9434 327.581 17.2587C326.069 19.0289 327.821 20.9931 329.261 22.0116C329.621 22.2784 329.981 21.6479 329.597 21.3812Z" fill="#205072"/>
<path d="M334.325 20.7022C333.533 19.7807 332.933 18.5197 334.469 18.0347C334.853 17.9134 335.285 17.9619 335.645 17.7194C336.437 17.1617 336.101 16.4099 335.957 15.6339C335.885 15.1974 335.717 14.6154 335.981 14.1789C336.173 13.8637 336.869 13.7424 337.229 13.6697C337.733 13.5484 338.261 13.4757 338.693 13.1847C339.341 12.7239 339.581 11.8994 339.149 11.1962C338.909 10.8082 338.285 11.1719 338.525 11.5599C339.245 12.7239 335.885 13.0391 335.309 13.8879C334.637 14.8821 336.053 16.6282 334.877 17.2587C334.421 17.5012 333.845 17.3314 333.413 17.6466C333.101 17.8649 332.885 18.2044 332.789 18.5682C332.525 19.6109 333.221 20.5082 333.845 21.2357C334.133 21.5752 334.637 21.0659 334.325 20.7022Z" fill="#205072"/>
<path d="M151.208 57.4621C150.584 57.0256 150.512 56.2496 150.704 55.5706C150.824 55.1099 151.4 53.8488 151.952 53.8003C152.864 53.7033 153.32 54.8673 153.56 55.5463C153.776 56.2011 153.848 56.8559 153.872 57.5349C153.872 57.9956 154.592 57.9956 154.592 57.5349C154.568 56.1769 153.68 52.0058 151.472 53.2183C150.632 53.6791 150.008 55.0129 149.912 55.9344C149.816 56.8074 150.152 57.5834 150.848 58.0926C151.208 58.3594 151.568 57.7289 151.208 57.4621Z" fill="#205072"/>
<path d="M150.92 57.8501C150.056 58.0684 149.192 58.2866 148.304 58.5049C147.8 58.6261 146.936 58.6746 146.528 59.0626C145.832 59.7174 146.024 61.7301 146.024 62.5789C146.024 62.8214 146.264 62.9911 146.48 62.9184C146.6 62.8941 146.72 62.8456 146.864 62.8214C147.488 62.4819 147.8 62.7001 147.824 63.4276C148.304 63.9126 148.304 64.2036 147.824 64.2521C147.536 64.3734 147.248 64.4219 146.936 64.4219C146.744 64.4461 146.576 64.5674 146.576 64.7856C146.624 66.3376 146.744 67.8654 146.912 69.4174C146.96 69.8781 147.68 69.8781 147.632 69.4174C147.464 67.8654 147.344 66.3376 147.296 64.7856C147.176 64.9069 147.056 65.0281 146.936 65.1494C147.944 65.0281 149.552 64.6159 149.336 63.2336C149.096 61.7544 147.32 61.9241 146.312 62.2151C146.456 62.3364 146.624 62.4576 146.768 62.5546C146.768 61.9969 146.768 61.4634 146.816 60.9056C146.888 60.0326 146.84 59.7174 147.632 59.4021C148.712 58.9656 149.984 58.8201 151.112 58.5291C151.568 58.4564 151.376 57.7531 150.92 57.8501Z" fill="#205072"/>
<path d="M154.376 58.0684C155.384 58.0199 156.416 58.0199 157.424 58.1411C158.384 58.2624 158.336 58.4079 158.48 59.2566C158.576 59.7901 158.6 60.3479 158.648 60.8814C158.84 62.9669 158.984 65.0524 159.104 67.1379C159.128 67.5986 159.848 67.5986 159.824 67.1379C159.68 64.3006 159.584 61.3906 159.128 58.5776C159.008 57.8744 158.888 57.6561 158.168 57.5349C156.92 57.2924 155.624 57.2924 154.376 57.3651C153.92 57.3651 153.92 58.0926 154.376 58.0684Z" fill="#205072"/>
<path d="M147.44 69.9266C148.856 69.6841 150.272 69.4416 151.664 69.1991C153.272 68.9324 154.808 69.0536 156.416 68.9324C157.16 68.8596 160.688 68.4959 159.392 67.0166C159.08 66.6771 158.576 67.1864 158.888 67.5259C159.08 67.7441 155.816 68.2291 155.744 68.2291C154.736 68.2534 153.728 68.2049 152.72 68.3261C150.896 68.5444 149.072 68.9324 147.248 69.2476C146.792 69.2961 146.984 69.9994 147.44 69.9266Z" fill="#205072"/>
<path d="M287.904 168.794C283.344 174.444 278.808 180.071 274.248 185.721C279.6 204.733 282.624 209.728 284.424 209.461C285.72 209.267 286.344 206.43 287.04 203.253C288.768 195.324 287.736 188.51 286.68 184.266C289.56 181.016 292.416 177.742 295.296 174.493C292.824 172.601 290.376 170.71 287.904 168.794Z" fill="#161616" stroke="#161616" stroke-width="2" stroke-miterlimit="10"/>
<path d="M271.08 139.694C273.936 141.925 276.672 141.125 282.336 142.095C287.16 142.919 292.584 144.738 298.344 148.376C292.2 155.651 286.056 163.338 279.96 171.437C278.496 173.402 277.032 175.366 275.616 177.33C277.968 177.888 280.8 178.761 283.872 180.167C286.872 181.525 289.32 183.053 291.264 184.435C300.408 176.384 308.568 168.6 315.84 161.252C319.2 157.857 323.952 152.668 324.696 145.32C324.744 144.908 324.744 144.544 324.744 144.18C324.576 131.983 309.384 123.156 300.144 119.906C290.04 116.366 272.664 114.45 267.816 122.913C264.96 127.909 266.64 136.226 271.08 139.694Z" fill="#7BE495"/>
<path opacity="0.26" d="M288.816 127.496C288.648 129.8 288.24 132.54 287.4 135.572C286.8 137.73 286.08 139.646 285.36 141.27C284.568 141.586 283.8 141.901 283.008 142.216C288.168 144.277 293.352 146.339 298.512 148.4C294.672 152.838 290.808 157.494 286.92 162.344C282.912 167.339 279.096 172.238 275.472 177.063C278.04 177.912 280.584 178.761 283.152 179.585C292.344 169.352 301.536 159.094 310.728 148.861C311.688 146.072 311.64 143.889 311.352 142.362C310.032 134.893 300.984 128.806 288.816 127.496Z" fill="#6D6C6C"/>
<path opacity="0.23" d="M298.464 148.351C299.304 149.637 300.12 150.946 300.96 152.231C293.808 160.937 286.656 169.619 279.504 178.324C278.232 177.985 276.936 177.621 275.664 177.282C280.248 170.928 285.192 164.405 290.544 157.833C293.208 154.559 295.848 151.407 298.464 148.351Z" fill="#6D6C6C"/>
<path d="M274.584 159.579C281.664 160.889 288.768 162.174 295.848 163.483C304.032 181.526 304.944 187.346 303.408 188.34C302.304 189.043 300 187.297 297.432 185.333C291 180.41 287.424 174.542 285.48 170.589C281.208 170.007 276.936 169.4 272.664 168.818C273.288 165.739 273.936 162.659 274.584 159.579Z" fill="#161616" stroke="#161616" stroke-width="2" stroke-miterlimit="10"/>
<path d="M259.992 119.397C247.08 123.229 239.208 131.183 234.144 136.421C227.304 143.526 218.904 152.232 221.328 158.658C222.576 161.932 226.368 163.944 244.032 167.048C257.376 169.401 268.944 170.662 277.968 171.365C279.096 167.194 280.224 163.047 281.328 158.876C272.256 155.918 263.208 152.983 254.136 150.025C259.704 148.837 265.56 147.43 271.656 145.708C276.288 144.399 280.704 143.041 284.904 141.61C288.792 133.68 289.632 125.12 285.576 120.27C279.912 113.48 267.216 117.239 259.992 119.397Z" fill="#7BE495"/>
<path opacity="0.29" d="M288.72 127.787C288.6 130.188 288.192 133.268 287.088 136.663C286.416 138.724 285.648 140.519 284.88 141.998C284.232 142.046 283.584 142.119 282.936 142.168C277.464 143.986 271.632 145.708 265.464 147.309C261.48 148.351 257.592 149.249 253.824 150.073C262.92 152.959 272.016 155.82 281.112 158.706C280.92 159.7 280.68 160.743 280.392 161.834C280.056 163.095 279.672 164.259 279.312 165.326C266.76 162.198 254.208 159.07 241.656 155.942C241.08 155.238 239.184 152.692 239.472 149.321C239.784 145.66 243.24 143.065 247.656 140.688C260.424 133.85 281.832 129.218 288.72 127.787Z" fill="#6D6C6C"/>
<path opacity="0.24" d="M247.368 150.583C249.648 150.413 251.952 150.243 254.232 150.049C263.184 153.056 272.136 156.087 281.088 159.094C280.704 160.525 280.32 161.98 279.936 163.411C269.088 159.119 258.216 154.851 247.368 150.583Z" fill="#6D6C6C"/>
<path d="M256.608 64.4465C260.16 62.3368 266.328 59.3298 274.536 58.4568C287.112 57.123 296.76 61.682 300.576 63.7433C299.88 73.2735 298.8 80.888 297.936 86.126C296.904 92.3825 296.064 95.8503 295.68 101.598C295.2 108.8 295.8 114.717 296.352 118.597C292.176 119.906 285.864 121.337 278.088 121.167C270.6 120.998 264.552 119.349 260.496 117.918C261.576 109.236 261.216 102.349 260.688 97.669C260.088 92.4553 259.272 89.909 258.288 83.604C257.016 75.456 256.68 68.7873 256.608 64.4465Z" fill="white" stroke="#161616" stroke-width="2" stroke-miterlimit="10"/>
<path opacity="0.14" d="M282.576 61.3425C283.08 63.1855 283.656 65.7318 284.04 68.7873C284.304 70.8485 285.384 80.1848 282.024 92.5038C279.96 100.094 277.776 108.121 270.624 114.717C268.32 116.851 266.088 118.282 264.456 119.179C268.08 120.125 272.808 121.022 278.4 121.07C285.72 121.143 291.768 119.809 295.968 118.5C295.728 116.681 295.416 113.941 295.296 110.643C295.2 107.757 295.2 103.15 297.168 90.1758C298.728 79.9665 299.832 75.5773 300.384 66.338C300.456 65.271 300.48 64.3738 300.528 63.7675C298.776 62.7248 296.496 61.585 293.688 60.6635C291.096 59.8148 288.768 59.3783 286.848 59.1843C285.456 59.8875 284.016 60.615 282.576 61.3425Z" fill="#6D6C6C"/>
<path opacity="0.17" d="M299.832 67.7203C298.488 75.4075 296.712 81.6155 295.32 85.932C291.24 98.542 288.384 107.029 280.68 113.237C275.904 117.093 270.936 118.718 267.744 119.494C270.984 120.415 275.568 121.313 281.112 121.191C287.496 121.046 292.656 119.591 296.04 118.354C295.584 115.396 295.056 110.958 295.2 105.55C295.368 98.542 296.496 94.3225 297.744 86.6353C298.44 82.1248 299.328 75.6743 299.832 67.7203Z" fill="#6D6C6C"/>
<path d="M256.464 64.3253C253.344 66.5078 249.336 69.9513 245.832 75.068C237.936 86.6595 238.152 98.9543 238.464 103.489C239.904 107.393 242.376 112.51 246.696 117.53C249.216 120.464 252.912 124.684 259.224 127.4C261.336 128.321 263.184 128.83 264.528 129.121C265.68 128.079 266.808 127.036 267.96 125.993C264.264 121.628 260.544 117.045 256.824 112.316C253.968 108.703 251.232 105.114 248.592 101.573C248.688 98.5905 249.312 93.1828 252.528 87.5325C254.352 84.3315 256.488 82.0035 258.192 80.4273C257.616 75.068 257.04 69.7088 256.464 64.3253Z" fill="white" stroke="#161616" stroke-width="2" stroke-miterlimit="10"/>
<path opacity="0.13" d="M256.92 69.733C250.008 77.6143 246.72 85.0833 245.088 89.7878C242.232 97.9358 242.832 102.204 243.264 104.241C243.624 105.841 244.416 108.582 247.32 112.753C249.84 116.366 255.144 122.841 265.248 128.176C266.136 127.303 267.024 126.454 267.912 125.581C265.056 122.331 262.176 118.912 259.272 115.347C255.456 110.667 251.904 106.06 248.616 101.549C248.712 99.0998 249.12 95.6805 250.536 91.849C252.672 86.1018 256.032 82.3188 258.12 80.306C257.688 76.7898 257.304 73.2735 256.92 69.733Z" fill="#6D6C6C"/>
<path opacity="0.16" d="M248.592 101.864C249.024 104.702 249.912 108.315 251.784 112.219C255.912 120.707 262.368 125.387 265.656 127.424C266.304 126.842 266.928 126.284 267.576 125.702C261.24 117.748 254.928 109.794 248.592 101.864Z" fill="#6D6C6C"/>
<path d="M300.936 63.8887C304.44 66.047 308.952 69.4177 312.864 74.4375C321.744 85.8107 321.48 97.8872 321.144 102.349C319.512 106.181 316.752 111.2 311.904 116.147C309.072 119.009 304.92 123.156 297.84 125.847C295.464 126.745 293.376 127.254 291.864 127.545C290.592 126.526 289.296 125.508 288.024 124.49C292.152 120.197 296.352 115.711 300.528 111.055C303.72 107.49 306.792 103.974 309.768 100.506C309.648 97.5962 308.976 92.2855 305.352 86.708C303.288 83.5555 300.912 81.276 298.992 79.724C299.664 74.4375 300.312 69.1752 300.936 63.8887Z" fill="white" stroke="#161616" stroke-width="2" stroke-miterlimit="10"/>
<path opacity="0.16" d="M300.768 69.7815C303.816 73.0067 307.968 78.172 311.208 85.3742C312.744 88.7935 315.24 94.3468 315.288 99.5848C315.456 115.517 293.136 126.478 291.84 127.109C290.568 126.284 289.32 125.484 288.048 124.659C295.272 116.657 302.472 108.654 309.696 100.652C309.552 98.0327 308.952 93.1585 306.072 87.969C303.696 83.701 300.744 80.9365 298.8 79.4087C299.472 76.2077 300.12 73.0067 300.768 69.7815Z" fill="#6D6C6C"/>
<path opacity="0.12" d="M309.936 100.724C309.576 102.834 308.976 105.138 308.04 107.514C303.816 118.281 295.272 124.174 290.952 126.696C289.92 126.017 288.912 125.338 287.88 124.659C295.224 116.681 302.568 108.703 309.936 100.724Z" fill="#6D6C6C"/>
<path d="M306.456 102.519H247.44V140.276H306.456V102.519Z" fill="white" stroke="#161616" stroke-width="2" stroke-miterlimit="10"/>
<path d="M276.096 124.999C272.976 125.387 271.464 121.555 272.28 119.009C273.072 116.487 276.024 115.299 278.424 116.172C280.8 117.045 281.952 119.979 281.112 122.331C280.176 124.95 276.912 126.017 274.512 124.853C274.104 124.659 273.72 125.29 274.152 125.484C276.288 126.526 278.904 126.138 280.608 124.441C282.264 122.768 282.504 120.124 281.472 118.063C279.12 113.359 271.848 114.862 271.344 120.027C271.08 122.792 273.048 126.114 276.096 125.75C276.552 125.678 276.552 124.95 276.096 124.999Z" fill="#161616"/>
<path opacity="0.14" d="M269.592 102.422C277.584 105.235 283.032 112.437 283.2 120.173C283.416 129.873 275.352 138.991 264.36 139.912C278.352 140.034 292.344 140.155 306.36 140.276C306.312 127.618 306.288 114.959 306.24 102.325C294.024 102.325 281.808 102.373 269.592 102.422Z" fill="#6D6C6C"/>
<path opacity="0.26" d="M306.36 102.301C306.144 110.012 304.632 116.026 303.36 119.979C301.488 125.726 300.144 129.921 296.28 133.632C291.024 138.724 284.472 139.67 281.592 139.912C289.776 139.985 297.96 140.058 306.144 140.155C306.168 132.953 306.216 125.75 306.264 118.524C306.264 113.116 306.312 107.709 306.36 102.301Z" fill="#6D6C6C"/>
<path d="M275.208 44.8768C273.888 46.5015 275.16 48.49 274.92 53.8008C274.8 56.4441 274.368 58.5781 274.032 60.0088C275.16 60.5423 277.152 61.2941 279.72 61.3668C282.888 61.4396 285.288 60.4453 286.464 59.8633C285.936 58.7963 285.24 57.1473 284.808 55.0133C283.728 49.5813 285.648 47.035 284.064 45.0223C282.216 42.6943 276.984 42.67 275.208 44.8768Z" fill="white" stroke="#161616" stroke-width="2" stroke-miterlimit="10"/>
<path d="M266.832 21.5482C265.32 25.4767 265.896 29.0172 266.232 30.545C266.088 30.5692 263.28 31.1755 262.512 33.358C261.744 35.5647 263.328 38.693 266.64 39.7115C267.84 42.67 270.744 48.393 276.864 51.5212C277.896 52.0305 278.88 52.4427 279.864 52.7337C280.752 52.3942 281.952 51.8608 283.32 51.0605C287.592 48.5627 289.968 45.4587 290.52 44.707C291.528 43.349 292.896 41.1665 293.856 38.1595C294.384 38.2565 295.32 38.305 296.232 37.8442C298.296 36.7772 299.328 33.455 297.888 31.2967C296.688 29.5022 294.36 29.4295 294.072 29.4295C294.384 28.1685 295.344 23.6337 292.92 19.1475C290.136 13.9822 284.16 11.2662 278.544 12.0422C270.24 13.1335 266.976 21.1602 266.832 21.5482Z" fill="white" stroke="#161616" stroke-width="2" stroke-miterlimit="10"/>
<path d="M274.896 51.303C276.36 52.176 277.968 53.534 279.768 53.3885C281.256 53.2673 282.912 52.3943 284.04 51.4728C284.4 51.1818 283.896 50.6725 283.536 50.9635C282.48 51.8123 280.776 52.7095 279.384 52.6853C277.92 52.661 276.432 51.4243 275.232 50.6725C274.872 50.43 274.512 51.0605 274.896 51.303Z" fill="#161616"/>
<path d="M274.8 51.6183C276.168 52.8065 277.728 54.1403 279.648 54.0433C281.52 53.9463 283.272 52.6853 284.496 51.3273C284.808 50.9878 284.304 50.4785 283.992 50.818C282.936 51.982 281.448 53.1218 279.816 53.2915C278.016 53.4613 276.576 52.2245 275.304 51.109C274.968 50.7938 274.464 51.303 274.8 51.6183Z" fill="#161616"/>
<path d="M275.712 51.7638C275.712 51.7395 275.712 51.7395 275.712 51.7638C275.568 51.5455 275.304 51.4971 275.136 51.6668C275.136 51.6668 275.136 51.6668 275.112 51.6911C274.968 51.8123 274.968 52.079 275.112 52.2003C277.752 54.7465 282.6 55.5711 284.496 51.6668C284.688 51.2546 284.088 50.8666 283.872 51.3031C282.192 54.7951 277.944 53.9463 275.64 51.6911C275.64 51.8608 275.64 52.0305 275.64 52.2003C275.64 52.2003 275.64 52.2003 275.664 52.1761C275.472 52.1518 275.28 52.1275 275.088 52.1033V52.1275C275.328 52.5155 275.952 52.1518 275.712 51.7638Z" fill="#161616"/>
<path d="M278.592 29.3325C278.28 33.261 278.448 37.1653 279.072 41.0453C279.096 41.2393 279.336 41.3605 279.504 41.2878C280.44 40.9725 281.112 40.4148 281.616 39.566C281.856 39.1538 281.232 38.79 280.992 39.2023C280.584 39.9055 280.08 40.3178 279.312 40.5845C279.456 40.6573 279.6 40.7543 279.744 40.827C279.12 37.0198 278.976 33.164 279.288 29.3083C279.36 28.8475 278.64 28.8475 278.592 29.3325Z" fill="#161616"/>
<path d="M274.32 33.1883C274.368 33.4065 274.728 34.7645 274.32 34.9828C273.912 35.201 272.76 34.328 272.4 33.1883C272.112 32.2183 272.352 31.0058 272.808 30.9088C273.288 30.7875 274.032 32.1213 274.32 33.1883Z" fill="#161616" stroke="#161616" stroke-miterlimit="10"/>
<path d="M286.704 33.1883C286.752 33.4065 287.112 34.7645 286.704 34.9828C286.296 35.201 285.144 34.328 284.784 33.1883C284.496 32.2183 284.736 31.0058 285.192 30.9088C285.672 30.7875 286.416 32.1213 286.704 33.1883Z" fill="#161616" stroke="#161616" stroke-miterlimit="10"/>
<path d="M277.728 44.2463C280.656 45.5073 283.32 43.737 285.48 41.8213C285.84 41.506 285.312 40.9968 284.976 41.312C283.104 42.961 280.704 44.7313 278.112 43.6158C277.656 43.446 277.296 44.0765 277.728 44.2463Z" fill="#161616"/>
<path d="M286.176 37.0441C286.632 37.0441 286.632 36.3165 286.176 36.3165C285.72 36.3165 285.72 37.0441 286.176 37.0441Z" fill="#161616"/>
<path d="M288.84 35.686C288.864 35.6618 288.888 35.6375 288.912 35.6133C289.056 35.4678 289.056 35.2495 288.912 35.104C288.768 34.9585 288.552 34.9585 288.408 35.104C288.384 35.1282 288.36 35.1525 288.336 35.1768C288.192 35.3223 288.192 35.5405 288.336 35.686C288.48 35.8315 288.696 35.8315 288.84 35.686Z" fill="#161616"/>
<path d="M288.048 37.4563C288.072 37.4563 288.096 37.4563 288.12 37.4563C288.312 37.4563 288.48 37.2865 288.48 37.0925C288.48 36.8985 288.312 36.7288 288.12 36.7288C288.096 36.7288 288.072 36.7288 288.048 36.7288C287.856 36.7288 287.688 36.8985 287.688 37.0925C287.688 37.2865 287.832 37.4563 288.048 37.4563Z" fill="#161616"/>
<path d="M271.488 28.8475C272.4 28.0715 273.744 28.0473 274.656 28.799C275.016 29.09 275.52 28.5808 275.16 28.2898C273.912 27.2713 272.184 27.2713 270.96 28.3383C270.624 28.6293 271.152 29.1385 271.488 28.8475Z" fill="#161616"/>
<path d="M283.2 28.5808C284.232 27.6593 285.696 27.4895 286.92 28.1443C287.328 28.3625 287.688 27.732 287.28 27.5138C285.768 26.6893 283.968 26.9075 282.696 28.0715C282.336 28.3868 282.84 28.896 283.2 28.5808Z" fill="#161616"/>
<path d="M271.68 36.9713C272.136 36.9713 272.136 36.2438 271.68 36.2438C271.224 36.2438 271.224 36.9713 271.68 36.9713Z" fill="#161616"/>
<path d="M274.224 36.6317C274.68 36.6317 274.68 35.9043 274.224 35.9043C273.768 35.9043 273.768 36.6317 274.224 36.6317Z" fill="#161616"/>
<path d="M272.952 37.1895C272.928 37.2138 272.904 37.238 272.88 37.2623C272.736 37.4078 272.736 37.626 272.88 37.7715C273.024 37.917 273.24 37.917 273.384 37.7715C273.408 37.7473 273.432 37.723 273.456 37.6988C273.6 37.5533 273.6 37.335 273.456 37.1895C273.312 37.044 273.096 37.044 272.952 37.1895Z" fill="#161616"/>
<path d="M270.744 13.667C269.304 14.5643 266.16 16.5285 264.024 20.554C261.888 24.5553 261.912 28.3383 262.008 29.963C258.504 36.3408 256.92 41.9668 256.152 45.7983C254.904 51.885 255.576 54.116 256.44 55.5953C258.552 59.2328 262.8 60.13 263.832 60.3483C269.136 61.488 273.36 58.7478 274.32 58.1173C274.584 57.317 274.848 56.3228 274.992 55.2073C275.256 53.2915 275.112 51.6425 274.896 50.4543C273.696 49.46 272.304 48.1263 270.96 46.3803C268.92 43.7128 267.768 41.0938 267.12 39.2023C265.008 38.984 263.424 37.529 263.28 35.9043C263.136 34.3765 264.192 32.4123 265.584 32.4123C266.616 32.4123 267.36 33.4793 267.504 33.6733C268.296 33.2125 269.4 32.4123 270.384 31.1513C271.8 29.3325 272.04 27.7078 272.688 26.0103C273.312 24.3613 274.512 22.0818 277.104 19.7053C279.6 20.6025 281.592 21.4755 282.96 22.1303C287.352 24.1915 289.848 25.404 291.792 28.0473C292.872 29.5023 293.424 30.933 293.712 31.8303C295.944 30.1085 296.856 30.5693 297.048 30.6663C298.464 31.4665 298.416 35.8558 296.208 37.0683C295.368 37.529 294.408 37.4078 293.808 37.2623C293.112 39.7115 291.576 43.7128 288.048 47.2533C286.872 48.4415 285.672 49.363 284.592 50.0663C284.496 50.9635 284.448 52.2003 284.688 53.6553C284.904 54.989 285.288 56.0803 285.648 56.8563C291.48 60.7363 298.728 60.033 302.664 55.862C306.168 52.1275 306.168 46.4773 304.848 42.6215C303.648 39.1053 301.32 36.9955 300.168 36.074C300.48 34.716 302.208 26.665 297.192 19.2688C295.896 17.353 292.272 12.7213 285.744 11.1208C278.832 9.42327 273.144 12.1878 270.744 13.667Z" fill="#434244"/>
<path opacity="0.17" d="M285.96 23.6338C288.672 27.0773 289.392 30.254 289.632 31.903C290.616 38.8385 286.632 44.4645 284.616 47.3503C282.96 49.7025 281.256 51.3758 280.032 52.467C281.088 55.3285 282.12 58.1658 283.176 61.0273C284.256 60.6635 285.336 60.2998 286.416 59.936C285.912 59.0388 285.384 57.9233 284.976 56.5653C284.232 54.1403 284.184 52.0063 284.256 50.5513C285.576 49.6055 287.112 48.3203 288.6 46.6228C291.576 43.2278 293.064 39.7358 293.832 37.3835C294.312 37.4805 295.344 37.6018 296.328 37.044C298.392 35.8558 298.056 32.8973 298.032 32.7033C297.96 32.0728 297.816 31.0543 297.096 30.642C296.256 30.1813 294.864 30.6178 293.76 31.9273C293.424 30.739 292.464 27.9988 289.872 25.8163C288.432 24.6038 286.968 23.9733 285.96 23.6338Z" fill="#6D6C6C"/>
<path opacity="0.19" d="M278.928 29.5507C278.784 29.5265 278.304 31.6362 276.84 40.9482C277.68 40.9482 278.52 40.9482 279.36 40.9482C279.192 39.7115 279 37.917 278.904 35.7345C278.784 32 279.072 29.575 278.928 29.5507Z" fill="#6D6C6C"/>
<path opacity="0.54" d="M300.024 36.3165C299.616 36.559 301.152 38.6445 300.936 41.7485C300.864 42.7185 300.72 44.9253 298.992 46.4045C298.872 46.5015 296.304 48.6355 293.76 47.2775C292.248 46.4773 291.336 44.7798 291.384 42.9368C290.664 44.2948 289.488 46.0893 287.64 47.8353C286.488 48.9265 285.36 49.7268 284.376 50.333C284.304 51.4 284.304 52.855 284.688 54.504C284.904 55.4013 285.168 56.1773 285.432 56.8078C286.176 57.2928 287.28 57.9475 288.72 58.4568C289.632 58.772 294.648 60.5423 299.544 58.093C300.408 57.6565 302.328 56.6623 303.72 54.5283C303.888 54.2615 304.512 53.3158 304.968 51.7153C306.6 46.2348 304.2 41.2878 303.984 40.8755C302.664 38.1838 300.528 36.0255 300.024 36.3165Z" fill="#3D3D3D"/>
<path opacity="0.35" d="M267.096 39.2993C266.88 39.3235 267.36 41.312 266.832 43.2763C266.448 44.7313 265.224 47.1078 263.136 47.5928C260.952 48.0778 258.24 46.453 256.992 43.4218C256.416 44.7555 255.648 46.8896 255.528 49.6056C255.456 51.3758 255.36 53.2673 256.224 55.1346C258.168 59.3056 263.88 60.9303 268.128 60.5423C270.96 60.2756 273.096 59.1601 274.248 58.4083C274.536 57.5838 274.824 56.5896 275.016 55.4498C275.328 53.4856 275.256 51.7638 275.088 50.5028C273.192 49.1205 271.896 47.6898 271.08 46.647C269.928 45.1678 268.368 43.1793 267.576 40.4148C267.456 40.0995 267.24 39.275 267.096 39.2993Z" fill="#3D3D3D"/>
<path d="M159.149 176.728C150.898 176.728 142.622 176.728 134.371 176.728C133.876 176.728 133.876 176 134.371 176C142.622 176 150.898 176 159.149 176C159.644 176 159.644 176.728 159.149 176.728Z" fill="#205072"/>
<path d="M138.814 163.727C148.636 163.727 158.404 163.727 168.227 163.727C169.258 163.727 169.258 163 168.227 163C158.404 163 148.636 163 138.814 163C137.729 163 137.729 163.727 138.814 163.727Z" fill="#205072"/>
<path d="M407.95 174.127C404.098 174.467 400.22 174.806 396.368 174.394C394.572 174.2 392.854 173.836 391.11 173.351C388.846 172.721 386.816 172.551 384.473 172.939C382.677 173.23 380.907 173.642 379.112 173.788C377.212 173.933 375.312 173.836 373.412 173.666C369.429 173.303 365.447 172.672 361.491 173.497C360.996 173.594 360.788 172.89 361.283 172.793C365.083 172.017 368.883 172.527 372.709 172.89C374.609 173.06 376.509 173.23 378.409 173.133C380.569 173.036 382.651 172.502 384.76 172.187C386.529 171.92 388.221 171.92 389.965 172.308C391.839 172.745 393.609 173.327 395.535 173.594C399.647 174.151 403.838 173.763 407.95 173.424C408.471 173.351 408.445 174.079 407.95 174.127Z" fill="#205072"/>
</svg>
