<svg width="837" height="291" viewBox="0 0 837 291" fill="none" xmlns="http://www.w3.org/2000/svg">
<path d="M286.32 176.149C289.316 176.149 291.744 173.435 291.744 170.087C291.744 166.739 289.316 164.024 286.32 164.024C283.324 164.024 280.896 166.739 280.896 170.087C280.896 173.435 283.324 176.149 286.32 176.149Z" fill="#329D9C"/>
<path d="M280.776 174.137C283.414 174.137 285.552 171.867 285.552 169.068C285.552 166.269 283.414 164 280.776 164C278.138 164 276 166.269 276 169.068C276 171.867 278.138 174.137 280.776 174.137Z" fill="#7BE495"/>
<path d="M328.537 173.048C327.062 174.651 324.965 175.965 322.549 175.741C319.919 175.5 318.622 173.609 318.374 171.398C317.947 167.728 318.942 163.337 316.188 160.212C315.104 158.978 313.488 158.321 311.746 158.706C309.65 159.155 308.015 160.645 306.15 161.526C303.946 162.568 300.908 163.129 298.918 161.382C297.461 160.1 297.142 158.145 296.662 156.446C296.218 154.908 295.454 153.209 293.926 152.296C293.002 151.751 291.989 151.703 290.923 151.767C289.733 151.847 287.298 151.911 287.547 150.228C287.583 149.924 287.05 149.924 287.014 150.228C286.925 150.885 287.263 151.414 287.849 151.799C288.773 152.408 289.839 152.312 290.923 152.248C292.149 152.167 293.197 152.264 294.139 153.049C294.992 153.754 295.507 154.748 295.88 155.725C296.502 157.408 296.68 159.251 297.746 160.789C298.794 162.312 300.606 163.049 302.561 162.985C305.03 162.904 307.109 161.622 309.081 160.437C310.023 159.876 311.036 159.283 312.191 159.106C313.576 158.898 314.802 159.443 315.691 160.372C317.361 162.135 317.627 164.651 317.716 166.863C317.805 168.93 317.503 171.174 318.267 173.177C318.96 175.004 320.719 176.141 322.833 176.238C325.285 176.35 327.435 175.02 328.945 173.385C329.141 173.145 328.768 172.808 328.537 173.048Z" fill="#205072"/>
<path d="M319.09 144.181C318.514 145.37 319.33 146.558 320.53 146.873C321.442 147.116 322.402 146.897 323.338 146.946C324.346 146.994 325.354 147.237 326.266 147.649C328.282 148.571 329.578 150.244 329.65 152.499C329.722 154.391 329.17 156.355 329.986 158.149C331.714 161.932 336.466 159.047 338.914 161.496C340.954 163.557 340.114 167.316 342.85 168.892C343.258 169.135 343.618 168.504 343.21 168.262C340.762 166.855 341.338 163.193 339.61 161.156C338.698 160.089 337.378 159.798 336.034 159.701C334.402 159.604 332.29 159.944 331.09 158.537C329.698 156.888 330.442 154.415 330.37 152.475C330.322 150.947 329.818 149.565 328.762 148.474C327.826 147.528 326.602 146.873 325.33 146.534C324.682 146.364 324.01 146.243 323.338 146.218C322.474 146.17 318.73 146.606 319.738 144.545C319.93 144.133 319.306 143.769 319.09 144.181Z" fill="#205072"/>
<path d="M292.441 231.438C296.353 230.468 300.289 230.371 304.273 231.001C305.953 231.268 307.657 231.535 309.361 231.389C311.017 231.244 312.625 230.735 314.233 230.298C316.057 229.789 317.881 229.401 319.801 229.546C321.769 229.692 323.665 230.249 325.585 230.686C327.241 231.074 328.921 231.341 330.625 231.317C332.425 231.268 334.201 230.953 335.953 230.686C340.753 229.91 345.265 230.395 350.017 231.195C350.473 231.268 350.665 230.565 350.209 230.492C346.369 229.862 342.505 229.207 338.593 229.595C334.513 230.007 330.721 231.026 326.593 230.177C323.137 229.474 319.849 228.382 316.297 229.061C314.401 229.425 312.601 230.104 310.705 230.468C308.593 230.88 306.553 230.638 304.441 230.298C300.337 229.668 296.281 229.716 292.225 230.735C291.817 230.856 292.009 231.559 292.441 231.438Z" fill="#205072"/>
<path d="M329.305 224.066C336.841 223.653 344.377 223.241 351.913 222.853C355.633 222.659 359.233 222.732 362.929 223.241C364.585 223.459 366.169 223.508 367.825 223.314C369.673 223.096 371.593 222.805 373.321 223.702C373.729 223.92 374.089 223.29 373.681 223.071C370.753 221.568 367.369 222.974 364.225 222.683C362.353 222.514 360.529 222.15 358.657 222.053C356.713 221.956 354.769 222.004 352.825 222.101C344.977 222.465 337.129 222.95 329.281 223.362C328.849 223.362 328.849 224.09 329.305 224.066Z" fill="#205072"/>
<path d="M260.738 222.728C252.487 222.728 244.21 222.728 235.96 222.728C235.465 222.728 235.465 222 235.96 222C244.21 222 252.487 222 260.738 222C261.232 222 261.232 222.728 260.738 222.728Z" fill="#205072"/>
<path d="M297.541 223.964C292.83 223.964 288.145 223.964 283.434 223.964C282.939 223.964 282.939 223.237 283.434 223.237C288.145 223.237 292.83 223.237 297.541 223.237C298.061 223.237 298.061 223.964 297.541 223.964Z" fill="#205072"/>
<path d="M289.941 240.406C280.883 240.406 271.851 240.406 262.794 240.406C262.299 240.406 262.299 239.678 262.794 239.678C271.851 239.678 280.883 239.678 289.941 239.678C290.461 239.678 290.461 240.406 289.941 240.406Z" fill="#205072"/>
<path d="M263.887 235.847C255.48 235.847 247.047 235.847 238.64 235.847C238.146 235.847 238.146 235.119 238.64 235.119C247.047 235.119 255.48 235.119 263.887 235.119C264.408 235.119 264.408 235.847 263.887 235.847Z" fill="#205072"/>
<path d="M222.342 216.728C226.878 216.728 231.39 216.728 235.926 216.728C236.382 216.728 236.382 216 235.926 216C231.39 216 226.878 216 222.342 216C221.886 216 221.886 216.728 222.342 216.728Z" fill="#205072"/>
<path d="M262.342 215.727C281.902 215.727 301.462 215.727 321.022 215.727C326.59 215.727 332.158 215.727 337.726 215.727C338.182 215.727 338.182 215 337.726 215C318.166 215 298.606 215 279.046 215C273.478 215 267.91 215 262.342 215C261.886 215 261.886 215.727 262.342 215.727Z" fill="#205072"/>
<path d="M442.32 67.6333C445.316 67.6333 447.744 64.919 447.744 61.5708C447.744 58.2226 445.316 55.5083 442.32 55.5083C439.324 55.5083 436.896 58.2226 436.896 61.5708C436.896 64.919 439.324 67.6333 442.32 67.6333Z" fill="#329D9C"/>
<path d="M565.32 164.779C567.547 164.779 569.352 163.02 569.352 160.85C569.352 158.681 567.547 156.922 565.32 156.922C563.093 156.922 561.288 158.681 561.288 160.85C561.288 163.02 563.093 164.779 565.32 164.779Z" fill="#329D9C"/>
<path d="M442.368 141.062C444.025 141.062 445.368 139.705 445.368 138.031C445.368 136.357 444.025 135 442.368 135C440.711 135 439.368 136.357 439.368 138.031C439.368 139.705 440.711 141.062 442.368 141.062Z" fill="#329D9C"/>
<path d="M436.776 65.6205C439.414 65.6205 441.552 63.3514 441.552 60.5523C441.552 57.7531 439.414 55.484 436.776 55.484C434.138 55.484 432 57.7531 432 60.5523C432 63.3514 434.138 65.6205 436.776 65.6205Z" fill="#7BE495"/>
<path d="M564.216 158.571C565.846 158.571 567.168 157.181 567.168 155.467C567.168 153.752 565.846 152.363 564.216 152.363C562.586 152.363 561.264 153.752 561.264 155.467C561.264 157.181 562.586 158.571 564.216 158.571Z" fill="#7BE495"/>
<path d="M603.672 72.9683C605.462 72.9683 606.912 71.4048 606.912 69.4763C606.912 67.5477 605.462 65.9843 603.672 65.9843C601.883 65.9843 600.432 67.5477 600.432 69.4763C600.432 71.4048 601.883 72.9683 603.672 72.9683Z" fill="#7BE495"/>
<path d="M533.304 94.5507C532.776 93.702 531.912 94.5022 531.552 95.0842C530.808 96.2967 530.328 97.8002 530.88 99.1825C531.288 100.225 532.296 101.098 533.472 100.929C534.552 100.783 535.368 99.8858 535.344 98.7945C535.344 98.5035 534.936 98.2852 534.72 98.5277C533.448 100.153 531.888 102.456 533.16 104.542C534.048 105.973 536.232 106.167 537.096 104.615C536.88 104.59 536.664 104.566 536.448 104.518C536.568 105.197 536.688 105.876 536.784 106.555C536.856 107.015 537.552 106.821 537.48 106.361C537.36 105.682 537.24 105.003 537.144 104.324C537.096 104.008 536.616 103.984 536.496 104.227C536.112 104.906 535.248 105.148 534.552 104.809C533.784 104.421 533.448 103.548 533.448 102.699C533.448 101.292 534.432 100.056 535.248 99.0127C535.032 98.9157 534.84 98.843 534.624 98.746C534.648 99.6675 533.76 100.347 532.872 100.153C532.2 100.007 531.768 99.425 531.528 98.7945C531.288 98.1397 531.312 97.485 531.504 96.8302C531.528 96.7817 532.512 94.6235 532.656 94.866C532.92 95.3025 533.544 94.9387 533.304 94.5507Z" fill="#329D9C"/>
<path d="M435.312 96.7333C435.84 95.2783 437.592 95.9088 438.144 96.9273C438.336 97.2668 438.432 97.6548 438.48 98.0428C438.576 98.7703 438.504 99.0613 437.88 99.4978C437.208 100.177 437.04 99.9101 437.4 98.6976C437.568 98.6248 437.76 98.5521 437.928 98.4793C438.384 98.3581 438.912 98.3823 439.368 98.5278C440.52 98.9158 441.096 100.153 440.928 101.292C440.88 101.583 441.168 101.874 441.456 101.705C443.016 100.807 445.08 101.802 445.44 103.572C445.536 104.033 446.232 103.839 446.136 103.378C445.68 101.147 443.064 99.9828 441.096 101.098C441.264 101.244 441.456 101.365 441.624 101.511C441.936 99.3766 440.328 97.388 438.096 97.7276C437.328 97.8488 436.176 98.3338 436.08 99.2553C436.008 100.007 436.704 100.565 437.4 100.638C439.464 100.832 439.416 97.8003 438.744 96.5878C437.832 94.9388 435.312 94.5265 434.592 96.5635C434.448 96.9758 435.144 97.1698 435.312 96.7333Z" fill="#7BE495"/>
<path d="M398.208 209.859C398.736 215.122 399.648 220.311 400.92 225.452C401.04 225.913 401.736 225.719 401.616 225.258C400.368 220.19 399.456 215.049 398.928 209.859C398.88 209.399 398.16 209.399 398.208 209.859Z" fill="#205072"/>
<path d="M401.064 225.695C405.792 226.932 410.712 226.932 415.44 225.695C415.896 225.574 415.704 224.87 415.248 224.992C410.64 226.204 405.864 226.204 401.256 224.992C400.824 224.87 400.632 225.574 401.064 225.695Z" fill="#205072"/>
<path d="M415.992 224.967C416.304 219.802 416.712 214.637 417.192 209.472C417.24 209.011 416.52 209.011 416.472 209.472C415.992 214.637 415.584 219.802 415.272 224.967C415.248 225.428 415.968 225.428 415.992 224.967Z" fill="#205072"/>
<path d="M398.616 210.248C404.592 211.484 410.736 211.436 416.712 210.078C417.168 209.981 416.976 209.278 416.52 209.375C410.688 210.684 404.664 210.757 398.808 209.544C398.352 209.447 398.16 210.151 398.616 210.248Z" fill="#205072"/>
<path d="M398.544 211.994C398.736 212.988 399.984 212.939 400.752 213.012C402.696 213.182 404.664 213.23 406.608 213.182C408.48 213.133 410.352 212.988 412.224 212.77C413.712 212.576 415.152 212.382 416.472 211.63C416.88 211.411 416.52 210.781 416.112 210.999C413.736 212.333 410.448 212.285 407.784 212.406C406.464 212.454 405.12 212.479 403.8 212.454C403.104 212.43 399.384 212.6 399.24 211.8C399.144 211.339 398.472 211.533 398.544 211.994Z" fill="#205072"/>
<path d="M399.912 220.408C401.064 222.47 402.528 224.288 404.28 225.865C404.616 226.18 405.144 225.67 404.784 225.355C403.056 223.827 401.64 222.057 400.536 220.045C400.32 219.632 399.696 219.996 399.912 220.408Z" fill="#205072"/>
<path d="M398.976 214.806C401.424 218.977 404.4 222.809 407.808 226.252C408.144 226.592 408.648 226.058 408.312 225.743C404.952 222.348 402.024 218.565 399.6 214.443C399.36 214.055 398.736 214.418 398.976 214.806Z" fill="#205072"/>
<path d="M402.984 213.06C405.528 217.644 408.48 221.984 411.816 226.034C412.104 226.398 412.608 225.889 412.32 225.525C409.032 221.524 406.104 217.231 403.608 212.697C403.392 212.284 402.768 212.648 402.984 213.06Z" fill="#205072"/>
<path d="M407.568 213.23C410.04 216.965 412.536 220.675 415.056 224.385C415.32 224.773 415.944 224.41 415.68 224.022C413.16 220.311 410.664 216.601 408.192 212.867C407.928 212.479 407.304 212.842 407.568 213.23Z" fill="#205072"/>
<path d="M411.408 213.012C412.656 215.049 414 217.038 415.392 218.978C415.656 219.341 416.28 218.978 416.016 218.614C414.624 216.674 413.28 214.685 412.032 212.648C411.792 212.26 411.168 212.624 411.408 213.012Z" fill="#205072"/>
<path d="M390.648 188.52C390.936 190.193 391.224 191.89 391.536 193.564C391.632 194.024 391.704 194.509 392.088 194.8C392.352 195.019 393.216 194.994 393.384 195.237C393.408 195.091 393.432 194.946 393.432 194.8C393.072 195.164 392.712 195.528 392.328 195.867C392.232 195.964 392.208 196.11 392.232 196.231C392.448 196.886 392.592 197.856 393.024 198.414C393.24 198.705 393.624 198.656 393.792 198.826C393.936 198.971 393.888 198.874 393.816 199.311C393.768 199.675 393.768 200.063 393.816 200.451C393.888 201.033 394.056 201.59 394.272 202.124C395.52 205.179 397.944 207.653 400.272 209.932C400.608 210.248 401.112 209.738 400.776 209.423C399.288 207.968 397.8 206.465 396.576 204.767C395.376 203.094 393.96 200.839 394.704 198.705C394.752 198.583 394.704 198.414 394.608 198.341C394.152 197.977 393.696 198.123 393.384 197.541C392.784 196.449 393.12 196.086 393.888 195.334C394.008 195.237 394.032 195.019 393.936 194.897C393.744 194.606 393.6 194.509 393.288 194.412C393.096 194.34 392.808 194.412 392.616 194.315C392.208 194.097 392.208 193.564 392.136 193.176C391.848 191.575 391.56 189.95 391.296 188.35C391.248 187.865 390.552 188.059 390.648 188.52Z" fill="#205072"/>
<path d="M391.176 188.423C400.536 191.575 406.944 200.402 407.136 210.393C407.136 210.854 407.856 210.854 407.856 210.393C407.664 200.087 401.04 190.993 391.368 187.719C390.936 187.574 390.744 188.277 391.176 188.423Z" fill="#205072"/>
<path d="M405.552 200.451C407.88 193.927 411.312 187.622 416.808 183.33C417.168 183.039 416.808 182.409 416.448 182.7C410.784 187.137 407.256 193.539 404.856 200.257C404.712 200.693 405.408 200.887 405.552 200.451Z" fill="#205072"/>
<path d="M416.184 183.185C416.352 185.416 416.544 187.647 416.712 189.902C416.76 190.363 417.48 190.363 417.432 189.902C417.264 187.671 417.072 185.44 416.904 183.185C416.88 182.724 416.16 182.724 416.184 183.185Z" fill="#205072"/>
<path d="M417.024 189.659C416.712 189.732 416.4 189.805 416.112 189.902C415.656 190.023 415.848 190.726 416.304 190.605C416.616 190.532 416.928 190.46 417.216 190.363C417.672 190.241 417.48 189.562 417.024 189.659Z" fill="#205072"/>
<path d="M415.752 190.556C415.848 191.017 416.232 191.308 416.664 191.357C416.856 191.381 417.024 191.187 417.024 190.993C417.024 190.775 416.856 190.653 416.664 190.629C416.736 190.629 416.664 190.629 416.64 190.629C416.616 190.629 416.568 190.605 416.616 190.629C416.592 190.605 416.568 190.605 416.544 190.581C416.496 190.556 416.592 190.629 416.52 190.556C416.496 190.532 416.496 190.532 416.472 190.508C416.52 190.556 416.472 190.508 416.472 190.484C416.448 190.459 416.448 190.411 416.448 190.459C416.448 190.435 416.424 190.387 416.424 190.362C416.376 190.168 416.16 190.047 415.992 190.12C415.8 190.168 415.704 190.362 415.752 190.556Z" fill="#205072"/>
<path d="M416.304 191.09C416.328 192.472 416.28 193.83 416.136 195.188C416.088 195.625 416.16 196.643 415.872 196.983C415.848 197.007 415.416 197.08 415.32 197.153C414.96 197.444 415.464 197.953 415.824 197.662C415.944 197.565 416.232 197.662 416.424 197.444C416.712 197.153 416.664 196.474 416.712 196.134C416.928 194.461 417.024 192.763 417 191.066C417.024 190.629 416.304 190.629 416.304 191.09Z" fill="#205072"/>
<path d="M415.032 197.783C415.8 198.705 415.584 200.232 415.512 201.348C415.416 202.633 415.2 203.821 414.576 204.937C413.688 206.586 412.44 207.968 411.792 209.763C411.624 210.199 412.32 210.393 412.488 209.957C413.352 207.604 415.344 205.858 415.944 203.385C416.376 201.615 416.784 198.777 415.536 197.274C415.248 196.934 414.744 197.444 415.032 197.783Z" fill="#205072"/>
<path d="M409.368 210.102C410.04 203.215 411.84 196.498 414.72 190.241C414.912 189.829 414.288 189.441 414.096 189.878C411.168 196.28 409.32 203.094 408.648 210.126C408.6 210.587 409.32 210.563 409.368 210.102Z" fill="#205072"/>
<path d="M395.208 192.472C399.408 197.807 402.48 203.943 404.28 210.49C404.4 210.951 405.096 210.757 404.976 210.296C403.128 203.603 399.984 197.395 395.712 191.963C395.424 191.599 394.92 192.109 395.208 192.472Z" fill="#205072"/>
<path d="M395.664 201.421C397.68 201.299 399.552 201.784 401.256 202.851C401.64 203.094 402.024 202.463 401.616 202.221C399.816 201.105 397.776 200.572 395.664 200.693C395.184 200.717 395.184 201.445 395.664 201.421Z" fill="#205072"/>
<path d="M400.056 198.171C399.912 196.837 400.08 195.552 400.584 194.291C400.752 193.854 400.056 193.66 399.888 194.097C399.36 195.406 399.192 196.764 399.336 198.171C399.384 198.632 400.104 198.632 400.056 198.171Z" fill="#205072"/>
<path d="M407.832 194.146C408.624 196.11 409.776 198.195 410.064 200.281C410.136 200.742 410.832 200.548 410.76 200.087C410.448 197.977 409.296 195.892 408.528 193.952C408.36 193.515 407.664 193.709 407.832 194.146Z" fill="#205072"/>
<path d="M412.248 196.449C412.944 195.649 413.616 194.703 414.504 194.097C415.248 193.588 416.064 193.248 416.64 192.545C416.928 192.181 416.424 191.672 416.136 192.036C415.512 192.788 414.6 193.103 413.856 193.685C413.04 194.315 412.416 195.164 411.744 195.94C411.432 196.304 411.936 196.813 412.248 196.449Z" fill="#205072"/>
<path d="M412.488 209.86C413.64 209.544 414.816 209.423 416.016 209.496C416.472 209.52 416.472 208.793 416.016 208.768C414.744 208.696 413.52 208.817 412.296 209.156C411.864 209.278 412.032 209.981 412.488 209.86Z" fill="#205072"/>
<path d="M412.392 210.15C413.736 210.272 415.032 210.102 416.328 209.69C416.76 209.544 416.568 208.841 416.136 208.986C414.912 209.374 413.664 209.52 412.392 209.423C411.936 209.399 411.936 210.126 412.392 210.15Z" fill="#205072"/>
<path d="M398.928 210.029C399.24 210.029 399.528 210.029 399.84 210.029C400.296 210.029 400.296 209.302 399.84 209.302C399.528 209.302 399.24 209.302 398.928 209.302C398.472 209.302 398.472 210.029 398.928 210.029Z" fill="#205072"/>
<path d="M416.52 215.898C424.128 215.898 431.76 215.898 439.368 215.898C439.824 215.898 439.824 215.17 439.368 215.17C431.76 215.17 424.128 215.17 416.52 215.17C416.064 215.17 416.064 215.898 416.52 215.898Z" fill="#205072"/>
<path d="M545.304 211.096C549.84 211.096 554.352 211.096 558.888 211.096C559.344 211.096 559.344 210.369 558.888 210.369C554.352 210.369 549.84 210.369 545.304 210.369C544.848 210.369 544.848 211.096 545.304 211.096Z" fill="#205072"/>
<path d="M586.488 211.533C606.048 211.533 625.608 211.533 645.168 211.533C650.736 211.533 656.304 211.533 661.872 211.533C662.328 211.533 662.328 210.805 661.872 210.805C642.312 210.805 622.752 210.805 603.192 210.805C597.624 210.805 592.056 210.805 586.488 210.805C586.032 210.805 586.032 211.533 586.488 211.533Z" fill="#205072"/>
<path d="M557.52 131.92C555.696 135.727 553.728 139.462 551.64 143.123C551.544 143.318 551.616 143.633 551.856 143.657C562.152 145.233 571.368 150.399 580.248 155.612C580.656 155.855 581.016 155.224 580.608 154.982C571.656 149.744 562.392 144.554 552.024 142.954C552.096 143.123 552.168 143.318 552.24 143.487C554.352 139.825 556.296 136.091 558.12 132.284C558.336 131.871 557.736 131.483 557.52 131.92Z" fill="#205072"/>
<path d="M559.104 145.136C559.824 143.051 560.544 140.941 561.264 138.856C561.576 137.983 561.792 137.013 562.2 136.164C562.296 135.655 562.608 135.267 563.088 134.976C563.376 135.048 563.664 135.121 563.952 135.194C564.384 135.315 564.816 135.412 565.224 135.533C566.208 135.776 567.792 135.776 567.624 137.11C567.504 138.055 566.952 139.074 566.64 139.995C565.92 142.057 565.224 144.118 564.504 146.179C564.36 146.616 565.056 146.81 565.2 146.373C566.136 143.657 567.072 140.917 568.008 138.201C568.224 137.57 568.824 136.503 568.344 135.824C567.816 135.097 566.232 135.048 565.416 134.83C564.624 134.636 563.232 133.909 562.416 134.297C561.72 134.612 561.576 135.824 561.36 136.431C560.376 139.268 559.392 142.129 558.408 144.967C558.264 145.379 558.96 145.573 559.104 145.136Z" fill="#205072"/>
<path d="M568.368 147.731C569.904 144.457 571.464 141.159 573 137.885C573.768 136.236 574.536 134.612 575.328 132.963C575.688 132.211 575.976 131.314 576.432 130.61C576.816 130.004 576.912 129.859 577.584 130.125C577.944 130.271 578.376 130.635 578.688 130.853C579.096 131.144 579.744 131.459 580.032 131.847C580.392 132.308 580.248 132.793 580.032 133.375C579.744 134.151 579.312 134.903 578.952 135.654C578.16 137.303 577.368 138.952 576.528 140.601C574.944 143.73 573.288 146.834 571.584 149.913C571.344 150.326 571.968 150.689 572.208 150.277C574.296 146.543 576.288 142.76 578.16 138.928C579.096 137.037 580.128 135.097 580.92 133.132C581.472 131.702 580.272 131.12 579.216 130.368C578.376 129.786 577.056 128.452 576.144 129.543C575.568 130.222 575.256 131.362 574.872 132.187C574.392 133.181 573.936 134.175 573.456 135.194C571.536 139.268 569.616 143.342 567.72 147.416C567.552 147.779 568.176 148.167 568.368 147.731Z" fill="#205072"/>
<path d="M576.336 152.775C578.4 149.501 580.728 146.397 583.296 143.536C583.152 143.56 583.008 143.584 582.864 143.584C583.776 144.215 584.664 144.821 585.576 145.452C585.528 145.282 585.48 145.112 585.456 144.942C583.416 148.168 581.376 151.369 579.336 154.594C579.096 154.982 579.696 155.346 579.96 154.958C582 151.732 584.04 148.531 586.08 145.306C586.2 145.136 586.104 144.918 585.96 144.797C585.048 144.166 584.16 143.56 583.248 142.93C583.128 142.833 582.912 142.881 582.816 142.978C580.2 145.912 577.824 149.041 575.736 152.363C575.472 152.824 576.096 153.187 576.336 152.775Z" fill="#205072"/>
<path d="M604.968 129.713C602.568 128.792 601.056 126.367 601.488 123.772C601.92 121.129 604.488 118.776 607.128 120.353C608.952 121.444 609.888 123.917 609.192 125.93C608.472 128.088 606.12 129.374 603.936 129.034C603.48 128.961 603.288 129.665 603.744 129.737C606.312 130.125 609.024 128.695 609.888 126.124C610.752 123.554 609.36 120.45 606.864 119.407C603.936 118.194 601.272 120.741 600.768 123.578C600.24 126.585 601.992 129.349 604.752 130.416C605.208 130.586 605.4 129.883 604.968 129.713Z" fill="#205072"/>
<path d="M609.888 129.253C605.112 129.107 606.912 121.371 611.136 121.662C615.36 121.978 613.632 130.683 609 129.083C608.568 128.937 608.376 129.641 608.808 129.786C614.16 131.629 616.56 121.784 611.448 120.959C608.952 120.547 606.696 122.923 606.312 125.276C605.928 127.604 607.488 129.883 609.888 129.956C610.344 130.004 610.344 129.277 609.888 129.253Z" fill="#205072"/>
<path d="M606.312 107.306C605.904 106.87 605.712 106.167 606.024 105.633C606.336 105.124 607.104 104.881 607.584 105.269C608.016 105.609 608.112 106.336 607.704 106.7C607.224 107.137 606.456 106.918 606 106.555C605.64 106.264 605.136 106.773 605.496 107.064C606.24 107.646 607.392 107.937 608.184 107.234C608.904 106.579 608.832 105.366 608.112 104.736C607.368 104.081 606.192 104.275 605.568 105.003C604.872 105.827 605.064 107.064 605.784 107.816C606.12 108.155 606.624 107.646 606.312 107.306Z" fill="#205072"/>
<path d="M536.664 125.566C535.992 121.444 538.368 116.473 542.976 116.521C545.328 116.545 547.608 117.515 549.984 117.176C551.664 116.933 553.104 115.963 554.112 114.63C555.12 113.296 555.696 111.623 555.792 109.949C555.912 107.476 554.976 104.954 555.648 102.505C555.984 101.268 556.704 100.128 557.928 99.6675C559.104 99.2552 560.376 99.4977 561.6 99.4492C563.376 99.3765 564.768 98.6005 565.656 97.0242C566.904 94.8175 566.616 92.1742 567.48 89.8462C568.512 87.0332 571.416 84.6325 574.488 86.0147C574.896 86.2087 575.28 85.5782 574.848 85.3842C570.672 83.4927 567.192 87.3 566.376 91.1315C565.848 93.6292 565.944 97.5092 562.992 98.5035C560.928 99.2067 558.6 98.1155 556.704 99.5462C555.144 100.71 554.688 102.844 554.712 104.711C554.784 107.452 555.624 110.119 554.424 112.738C553.32 115.212 551.136 116.691 548.424 116.521C546.024 116.376 543.648 115.381 541.224 116.012C537.12 117.055 535.368 121.953 536.016 125.785C536.064 126.197 536.76 126.003 536.664 125.566Z" fill="#205072"/>
<path d="M567 108.276C566.112 106.239 567.336 104.299 569.28 103.645C570.696 103.16 572.256 103.135 573.48 102.165C574.44 101.414 574.752 100.468 574.632 99.2553C574.512 98.1156 574.512 97.2183 575.4 96.4423C576.144 95.7876 577.128 95.5451 578.088 95.4966C580.728 95.3996 584.352 96.7576 586.272 94.1628C587.16 92.9503 586.896 91.4468 587.304 90.0888C587.856 88.1973 589.656 87.0333 591.576 87.1303C592.032 87.1546 592.032 86.4271 591.576 86.4028C590.112 86.3301 588.696 86.8878 587.688 87.9548C586.44 89.2886 586.608 90.7921 586.224 92.4653C585.192 97.0486 578.88 93.8233 575.904 95.2541C574.8 95.7876 573.912 96.7333 573.816 97.9943C573.696 99.4736 574.368 100.686 572.88 101.705C572.088 102.238 571.176 102.408 570.264 102.626C568.752 102.99 567.264 103.451 566.496 104.93C565.872 106.094 565.872 107.428 566.4 108.616C566.568 109.077 567.168 108.689 567 108.276Z" fill="#205072"/>
<path d="M609.768 75.9753C609.672 75.7571 609.576 75.5146 609.504 75.2721C609.816 74.9083 610.104 74.5446 610.416 74.1808C610.512 74.1566 610.944 74.4476 611.088 74.4476C611.448 74.4961 611.76 74.3991 612.048 74.1808C612.936 73.4776 612.624 72.3621 612.888 71.4163C613.32 69.7916 615.216 70.9071 616.08 69.6946C616.944 68.5063 616.632 65.9843 618.936 66.6633C619.392 66.7846 619.584 66.0813 619.128 65.9601C617.808 65.5721 616.608 66.2026 616.128 67.4878C615.984 67.8516 615.936 68.2638 615.792 68.6276C615.48 69.4763 615.144 69.5976 614.232 69.6461C613.56 69.6946 613.032 69.6461 612.576 70.2281C612.192 70.7373 612.192 71.3921 612.12 71.9983C612.048 72.8956 612.12 73.6473 610.8 73.5503C610.536 73.5261 610.32 73.2836 610.032 73.2836C608.448 73.2593 608.712 75.2236 609.096 76.1693C609.24 76.6058 609.96 76.4118 609.768 75.9753Z" fill="#205072"/>
<path d="M614.28 77.9881C613.896 77.4788 613.248 75.9996 614.376 75.6116C614.784 75.4661 615.312 75.6358 615.744 75.6358C616.128 75.6358 616.464 75.6358 616.776 75.3691C617.736 74.5931 617.04 73.2108 617.544 72.2408C618.36 70.6646 619.992 71.9013 621.144 71.0768C621.96 70.4948 622.176 69.3793 622.32 68.4578C622.392 67.9971 621.696 67.8031 621.624 68.2638C621.456 69.3551 621.264 70.5676 619.92 70.6888C619.224 70.7616 618.696 70.5191 618.048 70.8343C616.992 71.3436 616.656 72.2893 616.632 73.3806C616.608 74.3021 616.824 74.7628 615.288 74.8356C615.096 74.8356 614.904 74.7871 614.712 74.7871C614.16 74.8356 613.68 75.1266 613.368 75.5873C612.696 76.5573 613.08 77.6728 613.752 78.5216C614.064 78.8853 614.568 78.3518 614.28 77.9881Z" fill="#205072"/>
<path d="M410.232 91.1315C412.224 88.7065 415.056 86.718 418.32 87.0575C421.872 87.4213 423.624 90.2828 423.96 93.6293C424.536 99.1825 423.192 105.827 426.912 110.556C428.376 112.423 430.56 113.417 432.912 112.835C435.744 112.156 437.952 109.901 440.472 108.567C443.448 106.991 447.552 106.142 450.24 108.786C452.208 110.726 452.64 113.684 453.288 116.255C453.888 118.583 454.92 121.153 456.984 122.535C458.232 123.36 459.6 123.433 461.04 123.336C462.648 123.214 465.936 123.117 465.6 125.664C465.552 126.124 466.272 126.124 466.32 125.664C466.44 124.669 465.984 123.869 465.192 123.287C463.944 122.366 462.504 122.511 461.04 122.608C459.384 122.729 457.968 122.584 456.696 121.396C455.544 120.329 454.848 118.825 454.344 117.346C453.504 114.8 453.264 112.011 451.824 109.683C450.408 107.379 447.96 106.264 445.32 106.361C441.984 106.482 439.176 108.422 436.512 110.216C435.24 111.065 433.872 111.962 432.312 112.229C430.44 112.544 428.784 111.72 427.584 110.313C425.328 107.646 424.968 103.839 424.848 100.492C424.728 97.3638 425.136 93.9688 424.104 90.9375C423.168 88.173 420.792 86.4513 417.936 86.3058C414.624 86.136 411.72 88.1488 409.68 90.6223C409.416 90.986 409.92 91.4953 410.232 91.1315Z" fill="#205072"/>
<path d="M398.112 128.549C401.856 134.854 405.192 141.377 408.144 148.095C408.336 148.531 408.96 148.143 408.768 147.731C405.816 141.014 402.456 134.49 398.736 128.185C398.496 127.773 397.872 128.137 398.112 128.549Z" fill="#205072"/>
<path d="M398.568 128.258C404.4 124.597 410.4 121.177 416.568 118.073C416.976 117.855 416.616 117.225 416.208 117.443C410.064 120.547 404.064 123.966 398.208 127.628C397.8 127.895 398.16 128.525 398.568 128.258Z" fill="#205072"/>
<path d="M416.136 117.758C419.184 124.233 422.4 130.611 425.808 136.891C426.024 137.304 426.648 136.94 426.432 136.528C423.024 130.247 419.784 123.869 416.76 117.394C416.544 116.958 415.944 117.322 416.136 117.758Z" fill="#205072"/>
<path d="M408.96 148.24C414.696 144.748 420.36 141.159 425.976 137.473C426.36 137.231 426 136.6 425.616 136.843C420 140.529 414.336 144.118 408.6 147.61C408.216 147.852 408.576 148.483 408.96 148.24Z" fill="#205072"/>
<path d="M408.504 126.124C408.36 130.78 408.624 135.412 409.296 140.019C409.368 140.48 410.064 140.286 409.992 139.825C409.32 135.291 409.08 130.707 409.224 126.124C409.248 125.663 408.528 125.663 408.504 126.124Z" fill="#205072"/>
<path d="M408.528 125.882C411.864 128.525 415.2 131.12 418.584 133.69C418.944 133.981 419.304 133.351 418.944 133.06C415.608 130.538 412.296 127.967 409.032 125.373C408.672 125.082 408.168 125.591 408.528 125.882Z" fill="#205072"/>
<path d="M410.04 140.165C412.8 137.667 416.4 136.333 419.016 133.642C419.352 133.302 418.824 132.793 418.512 133.132C415.896 135.8 412.32 137.158 409.536 139.656C409.176 139.947 409.704 140.456 410.04 140.165Z" fill="#205072"/>
<path d="M399.072 132.357C399.84 131.969 400.608 131.605 401.376 131.217C401.784 131.023 401.424 130.392 401.016 130.586C400.248 130.974 399.48 131.338 398.712 131.726C398.304 131.944 398.664 132.551 399.072 132.357Z" fill="#205072"/>
<path d="M401.544 136.479C402.192 136.042 402.888 135.679 403.608 135.364C404.04 135.194 403.848 134.491 403.416 134.66C402.624 135 401.88 135.388 401.16 135.848C400.8 136.115 401.16 136.746 401.544 136.479Z" fill="#205072"/>
<path d="M404.256 141.232C404.928 140.893 405.6 140.553 406.272 140.238C406.68 140.02 406.32 139.413 405.912 139.607C405.24 139.947 404.568 140.286 403.896 140.602C403.488 140.796 403.848 141.426 404.256 141.232Z" fill="#205072"/>
<path d="M405.648 145.985C406.392 145.33 407.16 144.773 408.024 144.288C408.432 144.045 408.072 143.439 407.664 143.657C406.776 144.166 405.936 144.773 405.144 145.476C404.784 145.791 405.288 146.3 405.648 145.985Z" fill="#205072"/>
<path d="M417.504 122.535C418.056 122.147 418.632 121.881 419.28 121.711C419.736 121.589 419.544 120.91 419.088 121.007C418.392 121.177 417.72 121.468 417.12 121.905C416.76 122.172 417.12 122.802 417.504 122.535Z" fill="#205072"/>
<path d="M419.64 126.682C420.408 126.197 421.176 125.712 421.92 125.203C422.304 124.96 421.944 124.33 421.56 124.572C420.792 125.057 420.024 125.542 419.28 126.052C418.872 126.318 419.232 126.949 419.64 126.682Z" fill="#205072"/>
<path d="M422.088 131.653C422.904 131.29 423.744 130.926 424.56 130.562C424.992 130.368 424.608 129.738 424.2 129.932C423.384 130.295 422.544 130.659 421.728 131.023C421.296 131.217 421.68 131.847 422.088 131.653Z" fill="#205072"/>
<path d="M423.84 134.903C424.488 134.272 425.208 133.739 426 133.278C426.408 133.06 426.048 132.429 425.64 132.648C424.8 133.133 424.032 133.69 423.336 134.369C423 134.709 423.504 135.218 423.84 134.903Z" fill="#205072"/>
<path d="M411 145.039C411.6 145.937 412.104 146.882 412.488 147.877C412.656 148.313 413.352 148.119 413.184 147.683C412.776 146.616 412.272 145.597 411.624 144.651C411.36 144.288 410.736 144.651 411 145.039Z" fill="#205072"/>
<path d="M414.672 143.027C415.128 143.851 415.56 144.651 416.016 145.476C416.232 145.888 416.856 145.524 416.64 145.112C416.184 144.288 415.752 143.487 415.296 142.663C415.08 142.251 414.456 142.614 414.672 143.027Z" fill="#205072"/>
<path d="M418.92 139.947C419.4 140.82 419.88 141.693 420.36 142.566C420.576 142.978 421.2 142.614 420.984 142.202C420.504 141.329 420.024 140.456 419.544 139.583C419.328 139.171 418.704 139.535 418.92 139.947Z" fill="#205072"/>
<path d="M422.736 137.643C423.12 138.564 423.504 139.486 423.912 140.383C424.104 140.82 424.704 140.432 424.536 140.019C424.152 139.098 423.768 138.176 423.36 137.279C423.168 136.867 422.544 137.231 422.736 137.643Z" fill="#205072"/>
<path d="M400.968 124.524C401.424 125.276 401.856 126.027 402.312 126.755C402.552 127.167 403.176 126.779 402.936 126.391C402.48 125.639 402.048 124.888 401.592 124.16C401.352 123.772 400.728 124.136 400.968 124.524Z" fill="#205072"/>
<path d="M405.096 122.099C405.528 123.069 405.96 124.039 406.392 125.009C406.584 125.445 407.208 125.057 407.016 124.645C406.584 123.675 406.152 122.705 405.72 121.735C405.504 121.299 404.904 121.662 405.096 122.099Z" fill="#205072"/>
<path d="M408.816 119.771C409.464 120.644 409.968 121.59 410.304 122.608C410.448 123.045 411.144 122.851 411 122.414C410.64 121.323 410.136 120.304 409.44 119.407C409.176 119.043 408.552 119.383 408.816 119.771Z" fill="#205072"/>
<path d="M412.824 117.904C413.328 118.68 413.808 119.431 414.312 120.207C414.552 120.595 415.176 120.232 414.936 119.844C414.432 119.068 413.952 118.316 413.448 117.54C413.184 117.152 412.56 117.516 412.824 117.904Z" fill="#205072"/>
<path d="M450.144 69.8158C447.816 69.0883 447.696 66.5905 448.8 64.7233C449.88 62.9045 451.968 62.4195 453.6 63.923C454.944 65.184 455.064 67.3423 453.816 68.7245C452.568 70.131 450.528 70.1068 449.088 69.0398C448.728 68.7488 448.368 69.3793 448.728 69.6703C450.552 71.0283 453.216 70.81 454.584 68.8943C456 66.9543 455.496 64.2383 453.504 62.9288C448.704 59.8005 444.576 68.8215 449.952 70.519C450.408 70.6645 450.6 69.9613 450.144 69.8158Z" fill="#205072"/>
<path d="M454.008 70.4463C452.208 71.004 451.776 68.8215 452.568 67.6575C453.216 66.7118 454.488 66.154 455.64 66.4693C456.744 66.7603 457.536 67.9 457.248 69.0398C456.888 70.4705 455.4 70.9798 454.08 70.7615C453.624 70.6888 453.432 71.392 453.888 71.4648C455.664 71.78 457.584 71.004 457.968 69.064C458.304 67.3908 457.008 65.863 455.4 65.669C453.624 65.4508 451.68 66.7603 451.44 68.6033C451.224 70.2038 452.664 71.6345 454.248 71.1253C454.656 71.004 454.464 70.3008 454.008 70.4463Z" fill="#205072"/>
<path d="M438.696 86.233C438.12 87.4212 438.936 88.6095 440.136 88.9247C441.048 89.1672 442.008 88.949 442.944 88.9975C443.952 89.046 444.96 89.2885 445.872 89.7007C447.888 90.6222 449.184 92.2955 449.256 94.5507C449.328 96.4422 448.776 98.4065 449.592 100.201C451.32 103.984 456.072 101.098 458.52 103.547C460.56 105.609 459.72 109.367 462.456 110.944C462.864 111.186 463.224 110.556 462.816 110.313C460.368 108.907 460.944 105.245 459.216 103.208C458.304 102.141 456.984 101.85 455.64 101.753C454.008 101.656 451.896 101.995 450.696 100.589C449.304 98.94 450.048 96.4665 449.976 94.5265C449.928 92.9987 449.424 91.6165 448.368 90.5252C447.432 89.5795 446.208 88.9247 444.936 88.5852C444.288 88.4155 443.616 88.2942 442.944 88.27C442.08 88.2215 438.336 88.658 439.344 86.5967C439.536 86.1845 438.912 85.8207 438.696 86.233Z" fill="#205072"/>
<path d="M382.584 217.134C386.928 217.134 391.248 217.134 395.592 217.134C396.048 217.134 396.048 216.407 395.592 216.407C391.248 216.407 386.928 216.407 382.584 216.407C382.104 216.407 382.104 217.134 382.584 217.134Z" fill="#205072"/>
<path d="M389.592 233.576C397.944 233.576 406.272 233.576 414.624 233.576C415.08 233.576 415.08 232.849 414.624 232.849C406.272 232.849 397.944 232.849 389.592 232.849C389.112 232.849 389.112 233.576 389.592 233.576Z" fill="#205072"/>
<path d="M413.616 229.017C421.368 229.017 429.144 229.017 436.896 229.017C437.352 229.017 437.352 228.29 436.896 228.29C429.144 228.29 421.368 228.29 413.616 228.29C413.136 228.29 413.136 229.017 413.616 229.017Z" fill="#205072"/>
<path d="M542.712 227.756C546.624 226.786 550.56 226.689 554.544 227.319C556.224 227.586 557.928 227.853 559.632 227.707C561.288 227.562 562.896 227.053 564.504 226.616C566.328 226.107 568.152 225.719 570.072 225.864C572.04 226.01 573.936 226.568 575.856 227.004C577.512 227.392 579.192 227.659 580.896 227.635C582.696 227.586 584.472 227.271 586.224 227.004C591.024 226.228 595.536 226.713 600.288 227.513C600.744 227.586 600.936 226.883 600.48 226.81C596.64 226.18 592.776 225.525 588.864 225.913C584.784 226.325 580.992 227.344 576.864 226.495C573.408 225.792 570.12 224.7 566.568 225.379C564.672 225.743 562.872 226.422 560.976 226.786C558.864 227.198 556.824 226.956 554.712 226.616C550.608 225.986 546.552 226.034 542.496 227.053C542.088 227.174 542.28 227.877 542.712 227.756Z" fill="#205072"/>
<path d="M579.576 220.384C587.112 219.972 594.648 219.559 602.184 219.171C605.904 218.977 609.504 219.05 613.2 219.56C614.856 219.778 616.44 219.826 618.096 219.632C619.944 219.414 621.864 219.123 623.592 220.02C624 220.239 624.36 219.608 623.952 219.39C621.024 217.886 617.64 219.293 614.496 219.002C612.624 218.832 610.8 218.468 608.928 218.371C606.984 218.274 605.04 218.323 603.096 218.42C595.248 218.783 587.4 219.268 579.552 219.681C579.12 219.681 579.12 220.408 579.576 220.384Z" fill="#205072"/>
<path d="M432 241.215C435.552 241.554 439.128 241.894 442.68 241.482C444.336 241.288 445.92 240.924 447.528 240.439C449.616 239.808 451.488 239.639 453.648 240.027C455.304 240.318 456.936 240.73 458.592 240.875C460.344 241.021 462.096 240.924 463.848 240.754C467.52 240.39 471.192 239.76 474.84 240.584C475.296 240.681 475.488 239.978 475.032 239.881C471.528 239.105 468.024 239.614 464.496 239.978C462.744 240.148 460.992 240.318 459.24 240.221C457.248 240.124 455.328 239.59 453.384 239.275C451.752 239.008 450.192 239.008 448.584 239.396C446.856 239.833 445.224 240.415 443.448 240.681C439.656 241.239 435.792 240.851 432 240.512C431.52 240.439 431.544 241.166 432 241.215Z" fill="#205072"/>
<path d="M469.968 45.5415C469.032 44.8868 467.76 43.844 468.144 42.5345C468.552 41.1765 469.56 41.8313 470.496 41.516C471.744 41.1038 471.672 39.576 471.312 38.5818C470.952 37.6118 470.184 35.2595 472.176 36.0598C472.632 36.2538 472.968 36.569 473.496 36.3993C473.976 36.2538 474.216 35.8173 474.336 35.3565C474.432 34.9443 474.36 34.5078 474.336 34.0713C474.288 33.7803 474.264 33.465 474.264 33.174C474.168 32.4708 474.6 32.1798 475.512 32.301C475.536 32.7618 476.256 32.7618 476.232 32.301C476.184 31.622 475.68 31.137 474.96 31.1613C474.12 31.1855 473.664 32.01 473.568 32.786C473.496 33.3195 473.928 34.5563 473.688 34.9928C473.4 35.1868 473.112 35.405 472.8 35.599C472.68 35.5263 472.56 35.4535 472.44 35.3808C472.224 35.308 472.056 35.1625 471.84 35.114C471.096 34.9443 470.496 35.405 470.232 36.084C469.776 37.248 470.592 38.218 470.832 39.3093C471.144 40.8128 470.016 40.643 469.032 40.8128C468.6 40.8855 468.24 41.1038 467.952 41.419C466.44 43.1893 468.192 45.1535 469.632 46.172C469.992 46.4388 470.352 45.8083 469.968 45.5415Z" fill="#205072"/>
<path d="M474.696 44.8626C473.904 43.9411 473.304 42.6801 474.84 42.1951C475.224 42.0738 475.656 42.1223 476.016 41.8798C476.808 41.3221 476.472 40.5703 476.328 39.7943C476.256 39.3578 476.088 38.7758 476.352 38.3393C476.544 38.0241 477.24 37.9028 477.6 37.8301C478.104 37.7088 478.632 37.6361 479.064 37.3451C479.712 36.8843 479.952 36.0598 479.52 35.3566C479.28 34.9686 478.656 35.3323 478.896 35.7203C479.616 36.8843 476.256 37.1995 475.68 38.0483C475.008 39.0426 476.424 40.7886 475.248 41.4191C474.792 41.6616 474.216 41.4918 473.784 41.8071C473.472 42.0253 473.256 42.3648 473.16 42.7286C472.896 43.7713 473.592 44.6686 474.216 45.3961C474.504 45.7356 475.008 45.2263 474.696 44.8626Z" fill="#205072"/>
<path d="M446.352 39.1153C445.728 38.6788 445.656 37.9028 445.848 37.2238C445.968 36.763 446.544 35.502 447.096 35.4535C448.008 35.3565 448.464 36.5205 448.704 37.1995C448.92 37.8543 448.992 38.5091 449.016 39.1881C449.016 39.6488 449.736 39.6488 449.736 39.1881C449.712 37.8301 448.824 33.659 446.616 34.8715C445.776 35.3323 445.152 36.666 445.056 37.5875C444.96 38.4605 445.296 39.2365 445.992 39.7458C446.352 40.0125 446.712 39.3821 446.352 39.1153Z" fill="#205072"/>
<path d="M446.064 39.5033C445.2 39.7216 444.336 39.9398 443.448 40.1581C442.944 40.2793 442.08 40.3278 441.672 40.7158C440.976 41.3706 441.168 43.3833 441.168 44.2321C441.168 44.4746 441.408 44.6443 441.624 44.5716C441.744 44.5473 441.864 44.4988 442.008 44.4746C442.632 44.1351 442.944 44.3533 442.968 45.0808C443.448 45.5658 443.448 45.8568 442.968 45.9053C442.68 46.0266 442.392 46.0751 442.08 46.0751C441.888 46.0993 441.72 46.2206 441.72 46.4388C441.768 47.9908 441.888 49.5186 442.056 51.0706C442.104 51.5313 442.824 51.5313 442.776 51.0706C442.608 49.5186 442.488 47.9908 442.44 46.4388C442.32 46.5601 442.2 46.6813 442.08 46.8026C443.088 46.6813 444.696 46.2691 444.48 44.8868C444.24 43.4076 442.464 43.5773 441.456 43.8683C441.6 43.9896 441.768 44.1108 441.912 44.2078C441.912 43.6501 441.912 43.1166 441.96 42.5588C442.032 41.6858 441.984 41.3706 442.776 41.0553C443.856 40.6188 445.128 40.4733 446.256 40.1823C446.712 40.1096 446.52 39.4063 446.064 39.5033Z" fill="#205072"/>
<path d="M449.52 39.7215C450.528 39.673 451.56 39.673 452.568 39.7942C453.528 39.9155 453.48 40.061 453.624 40.9097C453.72 41.4432 453.744 42.001 453.792 42.5345C453.984 44.62 454.128 46.7055 454.248 48.791C454.272 49.2517 454.992 49.2517 454.968 48.791C454.824 45.9537 454.728 43.0437 454.272 40.2307C454.152 39.5275 454.032 39.3092 453.312 39.188C452.064 38.9455 450.768 38.9455 449.52 39.0182C449.064 39.0182 449.064 39.7457 449.52 39.7215Z" fill="#205072"/>
<path d="M442.584 51.5798C444 51.3373 445.416 51.0948 446.808 50.8523C448.416 50.5856 449.952 50.7068 451.56 50.5856C452.304 50.5128 455.832 50.1491 454.536 48.6698C454.224 48.3303 453.72 48.8396 454.032 49.1791C454.224 49.3973 450.96 49.8823 450.888 49.8823C449.88 49.9066 448.872 49.8581 447.864 49.9793C446.04 50.1976 444.216 50.5856 442.392 50.9008C441.936 50.9493 442.128 51.6526 442.584 51.5798Z" fill="#205072"/>
<path d="M509.904 233.794C505.344 239.444 500.808 245.07 496.248 250.721C501.6 269.733 504.624 274.728 506.424 274.461C507.72 274.267 508.344 271.43 509.04 268.253C510.768 260.324 509.736 253.509 508.68 249.266C511.56 246.016 514.416 242.742 517.296 239.493C514.824 237.601 512.376 235.71 509.904 233.794Z" fill="#161616" stroke="#161616" stroke-width="2" stroke-miterlimit="10"/>
<path d="M493.08 204.694C495.936 206.925 498.672 206.125 504.336 207.095C509.16 207.919 514.584 209.738 520.344 213.376C514.2 220.651 508.056 228.338 501.96 236.437C500.496 238.402 499.032 240.366 497.616 242.33C499.968 242.888 502.8 243.761 505.872 245.167C508.872 246.525 511.32 248.053 513.264 249.435C522.408 241.384 530.568 233.6 537.84 226.252C541.2 222.857 545.952 217.668 546.696 210.32C546.744 209.908 546.744 209.544 546.744 209.18C546.576 196.983 531.384 188.156 522.144 184.906C512.04 181.366 494.664 179.45 489.816 187.913C486.96 192.909 488.64 201.226 493.08 204.694Z" fill="#7BE495"/>
<path opacity="0.26" d="M510.816 192.496C510.648 194.8 510.24 197.54 509.4 200.572C508.8 202.73 508.08 204.646 507.36 206.27C506.568 206.586 505.8 206.901 505.008 207.216C510.168 209.277 515.352 211.339 520.512 213.4C516.672 217.838 512.808 222.494 508.92 227.344C504.912 232.339 501.096 237.238 497.472 242.063C500.04 242.912 502.584 243.761 505.152 244.585C514.344 234.352 523.536 224.094 532.728 213.861C533.688 211.072 533.64 208.889 533.352 207.362C532.032 199.893 522.984 193.806 510.816 192.496Z" fill="#6D6C6C"/>
<path opacity="0.23" d="M520.464 213.351C521.304 214.637 522.12 215.946 522.96 217.231C515.808 225.937 508.656 234.619 501.504 243.324C500.232 242.985 498.936 242.621 497.664 242.282C502.248 235.928 507.192 229.405 512.544 222.833C515.208 219.559 517.848 216.407 520.464 213.351Z" fill="#6D6C6C"/>
<path d="M496.584 224.579C503.664 225.889 510.768 227.174 517.848 228.484C526.032 246.526 526.944 252.346 525.408 253.34C524.304 254.043 522 252.297 519.432 250.333C513 245.41 509.424 239.542 507.48 235.589C503.208 235.007 498.936 234.401 494.664 233.819C495.288 230.739 495.936 227.659 496.584 224.579Z" fill="#161616" stroke="#161616" stroke-width="2" stroke-miterlimit="10"/>
<path d="M481.992 184.397C469.08 188.229 461.208 196.183 456.144 201.421C449.304 208.526 440.904 217.232 443.328 223.658C444.576 226.932 448.368 228.944 466.032 232.048C479.376 234.401 490.944 235.662 499.968 236.365C501.096 232.194 502.224 228.047 503.328 223.876C494.256 220.918 485.208 217.983 476.136 215.025C481.704 213.837 487.56 212.43 493.656 210.708C498.288 209.399 502.704 208.041 506.904 206.61C510.792 198.68 511.632 190.12 507.576 185.27C501.912 178.48 489.216 182.239 481.992 184.397Z" fill="#7BE495"/>
<path opacity="0.29" d="M510.72 192.788C510.6 195.188 510.192 198.268 509.088 201.663C508.416 203.724 507.648 205.519 506.88 206.998C506.232 207.047 505.584 207.119 504.936 207.168C499.464 208.987 493.632 210.708 487.464 212.309C483.48 213.352 479.592 214.249 475.824 215.073C484.92 217.959 494.016 220.821 503.112 223.706C502.92 224.701 502.68 225.743 502.392 226.835C502.056 228.096 501.672 229.26 501.312 230.327C488.76 227.198 476.208 224.07 463.656 220.942C463.08 220.239 461.184 217.692 461.472 214.322C461.784 210.66 465.24 208.065 469.656 205.689C482.424 198.85 503.832 194.218 510.72 192.788Z" fill="#6D6C6C"/>
<path opacity="0.24" d="M469.368 215.583C471.648 215.413 473.952 215.243 476.232 215.049C485.184 218.056 494.136 221.087 503.088 224.094C502.704 225.525 502.32 226.98 501.936 228.411C491.088 224.119 480.216 219.851 469.368 215.583Z" fill="#6D6C6C"/>
<path d="M478.608 129.447C482.16 127.337 488.328 124.33 496.536 123.457C509.112 122.123 518.76 126.682 522.576 128.743C521.88 138.274 520.8 145.888 519.936 151.126C518.904 157.383 518.064 160.85 517.68 166.598C517.2 173.8 517.8 179.717 518.352 183.597C514.176 184.906 507.864 186.337 500.088 186.167C492.6 185.998 486.552 184.349 482.496 182.918C483.576 174.236 483.216 167.349 482.688 162.669C482.088 157.455 481.272 154.909 480.288 148.604C479.016 140.456 478.68 133.787 478.608 129.447Z" fill="white" stroke="#161616" stroke-width="2" stroke-miterlimit="10"/>
<path opacity="0.14" d="M504.576 126.342C505.08 128.185 505.656 130.732 506.04 133.787C506.304 135.848 507.384 145.185 504.024 157.504C501.96 165.094 499.776 173.121 492.624 179.717C490.32 181.851 488.088 183.281 486.456 184.179C490.08 185.124 494.808 186.022 500.4 186.07C507.72 186.143 513.768 184.809 517.968 183.5C517.728 181.681 517.416 178.941 517.296 175.643C517.2 172.757 517.2 168.149 519.168 155.176C520.728 144.966 521.832 140.577 522.384 131.338C522.456 130.271 522.48 129.374 522.528 128.767C520.776 127.725 518.496 126.585 515.688 125.663C513.096 124.815 510.768 124.378 508.848 124.184C507.456 124.887 506.016 125.615 504.576 126.342Z" fill="#6D6C6C"/>
<path opacity="0.17" d="M521.832 132.72C520.488 140.407 518.712 146.615 517.32 150.932C513.24 163.542 510.384 172.029 502.68 178.237C497.904 182.093 492.936 183.718 489.744 184.494C492.984 185.415 497.568 186.313 503.112 186.191C509.496 186.046 514.656 184.591 518.04 183.354C517.584 180.396 517.056 175.958 517.2 170.55C517.368 163.542 518.496 159.322 519.744 151.635C520.44 147.125 521.328 140.674 521.832 132.72Z" fill="#6D6C6C"/>
<path d="M478.464 129.325C475.344 131.508 471.336 134.951 467.832 140.068C459.936 151.659 460.152 163.954 460.464 168.489C461.904 172.393 464.376 177.51 468.696 182.53C471.216 185.464 474.912 189.683 481.224 192.399C483.336 193.321 485.184 193.83 486.528 194.121C487.68 193.078 488.808 192.036 489.96 190.993C486.264 186.628 482.544 182.045 478.824 177.316C475.968 173.703 473.232 170.114 470.592 166.573C470.688 163.59 471.312 158.183 474.528 152.532C476.352 149.331 478.488 147.003 480.192 145.427C479.616 140.068 479.04 134.709 478.464 129.325Z" fill="white" stroke="#161616" stroke-width="2" stroke-miterlimit="10"/>
<path opacity="0.13" d="M478.92 134.733C472.008 142.614 468.72 150.083 467.088 154.788C464.232 162.936 464.832 167.204 465.264 169.241C465.624 170.841 466.416 173.581 469.32 177.752C471.84 181.366 477.144 187.84 487.248 193.175C488.136 192.302 489.024 191.454 489.912 190.581C487.056 187.331 484.176 183.912 481.272 180.347C477.456 175.667 473.904 171.059 470.616 166.549C470.712 164.1 471.12 160.68 472.536 156.849C474.672 151.102 478.032 147.319 480.12 145.306C479.688 141.79 479.304 138.273 478.92 134.733Z" fill="#6D6C6C"/>
<path opacity="0.16" d="M470.592 166.864C471.024 169.702 471.912 173.315 473.784 177.219C477.912 185.707 484.368 190.387 487.656 192.424C488.304 191.842 488.928 191.284 489.576 190.702C483.24 182.748 476.928 174.794 470.592 166.864Z" fill="#6D6C6C"/>
<path d="M522.936 128.889C526.44 131.047 530.952 134.418 534.864 139.438C543.744 150.811 543.48 162.887 543.144 167.349C541.512 171.181 538.752 176.201 533.904 181.148C531.072 184.009 526.92 188.156 519.84 190.848C517.464 191.745 515.376 192.254 513.864 192.545C512.592 191.527 511.296 190.508 510.024 189.49C514.152 185.197 518.352 180.711 522.528 176.055C525.72 172.49 528.792 168.974 531.768 165.506C531.648 162.596 530.976 157.286 527.352 151.708C525.288 148.556 522.912 146.276 520.992 144.724C521.664 139.438 522.312 134.175 522.936 128.889Z" fill="white" stroke="#161616" stroke-width="2" stroke-miterlimit="10"/>
<path opacity="0.16" d="M522.768 134.781C525.816 138.007 529.968 143.172 533.208 150.374C534.744 153.793 537.24 159.347 537.288 164.585C537.456 180.517 515.136 191.478 513.84 192.109C512.568 191.284 511.32 190.484 510.048 189.659C517.272 181.657 524.472 173.654 531.696 165.652C531.552 163.033 530.952 158.158 528.072 152.969C525.696 148.701 522.744 145.936 520.8 144.409C521.472 141.208 522.12 138.007 522.768 134.781Z" fill="#6D6C6C"/>
<path opacity="0.12" d="M531.936 165.725C531.576 167.834 530.976 170.138 530.04 172.515C525.816 183.282 517.272 189.174 512.952 191.696C511.92 191.017 510.912 190.338 509.88 189.659C517.224 181.681 524.568 173.703 531.936 165.725Z" fill="#6D6C6C"/>
<path d="M528.456 167.519H469.44V205.276H528.456V167.519Z" fill="white" stroke="#161616" stroke-width="2" stroke-miterlimit="10"/>
<path d="M498.096 189.999C494.976 190.387 493.464 186.555 494.28 184.009C495.072 181.487 498.024 180.299 500.424 181.172C502.8 182.045 503.952 184.979 503.112 187.331C502.176 189.95 498.912 191.017 496.512 189.853C496.104 189.659 495.72 190.29 496.152 190.484C498.288 191.527 500.904 191.139 502.608 189.441C504.264 187.768 504.504 185.125 503.472 183.063C501.12 178.359 493.848 179.862 493.344 185.028C493.08 187.792 495.048 191.114 498.096 190.75C498.552 190.678 498.552 189.95 498.096 189.999Z" fill="#161616"/>
<path opacity="0.14" d="M491.592 167.422C499.584 170.235 505.032 177.437 505.2 185.173C505.416 194.873 497.352 203.991 486.36 204.912C500.352 205.034 514.344 205.155 528.36 205.276C528.312 192.618 528.288 179.959 528.24 167.325C516.024 167.325 503.808 167.373 491.592 167.422Z" fill="#6D6C6C"/>
<path opacity="0.26" d="M528.36 167.301C528.144 175.012 526.632 181.026 525.36 184.979C523.488 190.726 522.144 194.921 518.28 198.632C513.024 203.724 506.472 204.67 503.592 204.912C511.776 204.985 519.96 205.058 528.144 205.155C528.168 197.953 528.216 190.75 528.264 183.524C528.264 178.116 528.312 172.709 528.36 167.301Z" fill="#6D6C6C"/>
<path d="M497.208 109.877C495.888 111.502 497.16 113.49 496.92 118.801C496.8 121.444 496.368 123.578 496.032 125.009C497.16 125.542 499.152 126.294 501.72 126.367C504.888 126.44 507.288 125.445 508.464 124.863C507.936 123.796 507.24 122.147 506.808 120.013C505.728 114.581 507.648 112.035 506.064 110.022C504.216 107.694 498.984 107.67 497.208 109.877Z" fill="white" stroke="#161616" stroke-width="2" stroke-miterlimit="10"/>
<path d="M488.832 86.5482C487.32 90.4767 487.896 94.0172 488.232 95.5449C488.088 95.5692 485.28 96.1754 484.512 98.3579C483.744 100.565 485.328 103.693 488.64 104.711C489.84 107.67 492.744 113.393 498.864 116.521C499.896 117.03 500.88 117.443 501.864 117.734C502.752 117.394 503.952 116.861 505.32 116.06C509.592 113.563 511.968 110.459 512.52 109.707C513.528 108.349 514.896 106.166 515.856 103.159C516.384 103.256 517.32 103.305 518.232 102.844C520.296 101.777 521.328 98.4549 519.888 96.2967C518.688 94.5022 516.36 94.4294 516.072 94.4294C516.384 93.1684 517.344 88.6337 514.92 84.1474C512.136 78.9822 506.16 76.2662 500.544 77.0422C492.24 78.1334 488.976 86.1602 488.832 86.5482Z" fill="white" stroke="#161616" stroke-width="2" stroke-miterlimit="10"/>
<path d="M496.896 116.303C498.36 117.176 499.968 118.534 501.768 118.388C503.256 118.267 504.912 117.394 506.04 116.473C506.4 116.182 505.896 115.672 505.536 115.963C504.48 116.812 502.776 117.709 501.384 117.685C499.92 117.661 498.432 116.424 497.232 115.672C496.872 115.43 496.512 116.06 496.896 116.303Z" fill="#161616"/>
<path d="M496.8 116.618C498.168 117.807 499.728 119.14 501.648 119.043C503.52 118.946 505.272 117.685 506.496 116.327C506.808 115.988 506.304 115.479 505.992 115.818C504.936 116.982 503.448 118.122 501.816 118.292C500.016 118.461 498.576 117.225 497.304 116.109C496.968 115.794 496.464 116.303 496.8 116.618Z" fill="#161616"/>
<path d="M497.712 116.764C497.712 116.74 497.712 116.74 497.712 116.764C497.568 116.546 497.304 116.497 497.136 116.667C497.136 116.667 497.136 116.667 497.112 116.691C496.968 116.812 496.968 117.079 497.112 117.2C499.752 119.747 504.6 120.571 506.496 116.667C506.688 116.255 506.088 115.867 505.872 116.303C504.192 119.795 499.944 118.946 497.64 116.691C497.64 116.861 497.64 117.031 497.64 117.2C497.64 117.2 497.64 117.2 497.664 117.176C497.472 117.152 497.28 117.128 497.088 117.103V117.128C497.328 117.516 497.952 117.152 497.712 116.764Z" fill="#161616"/>
<path d="M500.592 94.3325C500.28 98.261 500.448 102.165 501.072 106.045C501.096 106.239 501.336 106.361 501.504 106.288C502.44 105.973 503.112 105.415 503.616 104.566C503.856 104.154 503.232 103.79 502.992 104.202C502.584 104.906 502.08 105.318 501.312 105.585C501.456 105.657 501.6 105.754 501.744 105.827C501.12 102.02 500.976 98.164 501.288 94.3083C501.36 93.8475 500.64 93.8475 500.592 94.3325Z" fill="#161616"/>
<path d="M496.32 98.1882C496.368 98.4065 496.728 99.7645 496.32 99.9827C495.912 100.201 494.76 99.328 494.4 98.1882C494.112 97.2182 494.352 96.0057 494.808 95.9087C495.288 95.7875 496.032 97.1212 496.32 98.1882Z" fill="#161616" stroke="#161616" stroke-miterlimit="10"/>
<path d="M508.704 98.1882C508.752 98.4065 509.112 99.7645 508.704 99.9827C508.296 100.201 507.144 99.328 506.784 98.1882C506.496 97.2182 506.736 96.0057 507.192 95.9087C507.672 95.7875 508.416 97.1212 508.704 98.1882Z" fill="#161616" stroke="#161616" stroke-miterlimit="10"/>
<path d="M499.728 109.246C502.656 110.507 505.32 108.737 507.48 106.821C507.84 106.506 507.312 105.997 506.976 106.312C505.104 107.961 502.704 109.731 500.112 108.616C499.656 108.446 499.296 109.076 499.728 109.246Z" fill="#161616"/>
<path d="M508.176 102.044C508.632 102.044 508.632 101.317 508.176 101.317C507.72 101.317 507.72 102.044 508.176 102.044Z" fill="#161616"/>
<path d="M510.84 100.686C510.864 100.662 510.888 100.638 510.912 100.613C511.056 100.468 511.056 100.25 510.912 100.104C510.768 99.9585 510.552 99.9585 510.408 100.104C510.384 100.128 510.36 100.153 510.336 100.177C510.192 100.322 510.192 100.541 510.336 100.686C510.48 100.832 510.696 100.832 510.84 100.686Z" fill="#161616"/>
<path d="M510.048 102.456C510.072 102.456 510.096 102.456 510.12 102.456C510.312 102.456 510.48 102.287 510.48 102.093C510.48 101.899 510.312 101.729 510.12 101.729C510.096 101.729 510.072 101.729 510.048 101.729C509.856 101.729 509.688 101.899 509.688 102.093C509.688 102.287 509.832 102.456 510.048 102.456Z" fill="#161616"/>
<path d="M493.488 93.8475C494.4 93.0715 495.744 93.0473 496.656 93.799C497.016 94.09 497.52 93.5808 497.16 93.2898C495.912 92.2713 494.184 92.2713 492.96 93.3383C492.624 93.6293 493.152 94.1385 493.488 93.8475Z" fill="#161616"/>
<path d="M505.2 93.5808C506.232 92.6593 507.696 92.4895 508.92 93.1443C509.328 93.3625 509.688 92.732 509.28 92.5138C507.768 91.6893 505.968 91.9075 504.696 93.0715C504.336 93.3868 504.84 93.896 505.2 93.5808Z" fill="#161616"/>
<path d="M493.68 101.971C494.136 101.971 494.136 101.244 493.68 101.244C493.224 101.244 493.224 101.971 493.68 101.971Z" fill="#161616"/>
<path d="M496.224 101.632C496.68 101.632 496.68 100.904 496.224 100.904C495.768 100.904 495.768 101.632 496.224 101.632Z" fill="#161616"/>
<path d="M494.952 102.189C494.928 102.214 494.904 102.238 494.88 102.262C494.736 102.408 494.736 102.626 494.88 102.771C495.024 102.917 495.24 102.917 495.384 102.771C495.408 102.747 495.432 102.723 495.456 102.699C495.6 102.553 495.6 102.335 495.456 102.189C495.312 102.044 495.096 102.044 494.952 102.189Z" fill="#161616"/>
<path d="M492.744 78.667C491.304 79.5642 488.16 81.5285 486.024 85.554C483.888 89.5552 483.912 93.3382 484.008 94.963C480.504 101.341 478.92 106.967 478.152 110.798C476.904 116.885 477.576 119.116 478.44 120.595C480.552 124.233 484.8 125.13 485.832 125.348C491.136 126.488 495.36 123.748 496.32 123.117C496.584 122.317 496.848 121.323 496.992 120.207C497.256 118.292 497.112 116.643 496.896 115.454C495.696 114.46 494.304 113.126 492.96 111.38C490.92 108.713 489.768 106.094 489.12 104.202C487.008 103.984 485.424 102.529 485.28 100.904C485.136 99.3765 486.192 97.4122 487.584 97.4122C488.616 97.4122 489.36 98.4792 489.504 98.6732C490.296 98.2125 491.4 97.4122 492.384 96.1512C493.8 94.3325 494.04 92.7077 494.688 91.0102C495.312 89.3612 496.512 87.0817 499.104 84.7052C501.6 85.6025 503.592 86.4755 504.96 87.1302C509.352 89.1915 511.848 90.404 513.792 93.0472C514.872 94.5022 515.424 95.933 515.712 96.8302C517.944 95.1085 518.856 95.5692 519.048 95.6662C520.464 96.4665 520.416 100.856 518.208 102.068C517.368 102.529 516.408 102.408 515.808 102.262C515.112 104.712 513.576 108.713 510.048 112.253C508.872 113.441 507.672 114.363 506.592 115.066C506.496 115.964 506.448 117.2 506.688 118.655C506.904 119.989 507.288 121.08 507.648 121.856C513.48 125.736 520.728 125.033 524.664 120.862C528.168 117.127 528.168 111.477 526.848 107.621C525.648 104.105 523.32 101.995 522.168 101.074C522.48 99.716 524.208 91.665 519.192 84.2687C517.896 82.353 514.272 77.7212 507.744 76.1207C500.832 74.4232 495.144 77.1877 492.744 78.667Z" fill="#434244"/>
<path opacity="0.17" d="M507.96 88.6338C510.672 92.0773 511.392 95.254 511.632 96.903C512.616 103.839 508.632 109.465 506.616 112.35C504.96 114.703 503.256 116.376 502.032 117.467C503.088 120.329 504.12 123.166 505.176 126.027C506.256 125.664 507.336 125.3 508.416 124.936C507.912 124.039 507.384 122.923 506.976 121.565C506.232 119.14 506.184 117.006 506.256 115.551C507.576 114.606 509.112 113.32 510.6 111.623C513.576 108.228 515.064 104.736 515.832 102.384C516.312 102.481 517.344 102.602 518.328 102.044C520.392 100.856 520.056 97.8973 520.032 97.7033C519.96 97.0728 519.816 96.0543 519.096 95.642C518.256 95.1813 516.864 95.6178 515.76 96.9273C515.424 95.739 514.464 92.9988 511.872 90.8163C510.432 89.6038 508.968 88.9733 507.96 88.6338Z" fill="#6D6C6C"/>
<path opacity="0.19" d="M500.928 94.5507C500.784 94.5265 500.304 96.6362 498.84 105.948C499.68 105.948 500.52 105.948 501.36 105.948C501.192 104.711 501 102.917 500.904 100.734C500.784 97 501.072 94.575 500.928 94.5507Z" fill="#6D6C6C"/>
<path opacity="0.54" d="M522.024 101.317C521.616 101.559 523.152 103.645 522.936 106.749C522.864 107.719 522.72 109.925 520.992 111.405C520.872 111.502 518.304 113.636 515.76 112.278C514.248 111.477 513.336 109.78 513.384 107.937C512.664 109.295 511.488 111.089 509.64 112.835C508.488 113.927 507.36 114.727 506.376 115.333C506.304 116.4 506.304 117.855 506.688 119.504C506.904 120.401 507.168 121.177 507.432 121.808C508.176 122.293 509.28 122.948 510.72 123.457C511.632 123.772 516.648 125.542 521.544 123.093C522.408 122.657 524.328 121.662 525.72 119.528C525.888 119.262 526.512 118.316 526.968 116.715C528.6 111.235 526.2 106.288 525.984 105.876C524.664 103.184 522.528 101.026 522.024 101.317Z" fill="#3D3D3D"/>
<path opacity="0.35" d="M489.096 104.299C488.88 104.323 489.36 106.312 488.832 108.276C488.448 109.731 487.224 112.108 485.136 112.593C482.952 113.078 480.24 111.453 478.992 108.422C478.416 109.755 477.648 111.889 477.528 114.605C477.456 116.376 477.36 118.267 478.224 120.134C480.168 124.306 485.88 125.93 490.128 125.542C492.96 125.276 495.096 124.16 496.248 123.408C496.536 122.584 496.824 121.59 497.016 120.45C497.328 118.485 497.256 116.764 497.088 115.503C495.192 114.12 493.896 112.69 493.08 111.647C491.928 110.168 490.368 108.179 489.576 105.415C489.456 105.099 489.24 104.275 489.096 104.299Z" fill="#3D3D3D"/>
<path d="M381.149 241.728C372.898 241.728 364.622 241.728 356.371 241.728C355.876 241.728 355.876 241 356.371 241C364.622 241 372.898 241 381.149 241C381.644 241 381.644 241.728 381.149 241.728Z" fill="#205072"/>
<path d="M360.814 228.727C370.636 228.727 380.404 228.727 390.227 228.727C391.258 228.727 391.258 228 390.227 228C380.404 228 370.636 228 360.814 228C359.729 228 359.729 228.727 360.814 228.727Z" fill="#205072"/>
<path d="M629.95 239.127C626.098 239.467 622.22 239.806 618.368 239.394C616.572 239.2 614.854 238.836 613.111 238.351C610.846 237.721 608.816 237.551 606.473 237.939C604.678 238.23 602.908 238.642 601.112 238.788C599.212 238.933 597.312 238.836 595.412 238.666C591.43 238.303 587.447 237.672 583.491 238.497C582.997 238.594 582.788 237.89 583.283 237.793C587.083 237.017 590.883 237.527 594.709 237.89C596.609 238.06 598.509 238.23 600.409 238.133C602.569 238.036 604.652 237.502 606.76 237.187C608.53 236.92 610.221 236.92 611.965 237.308C613.839 237.745 615.609 238.327 617.535 238.594C621.648 239.151 625.838 238.763 629.95 238.424C630.471 238.351 630.445 239.079 629.95 239.127Z" fill="#205072"/>
<path d="M0.341999 233.727C0.653998 233.727 0.941995 233.727 1.25399 233.727C1.70999 233.727 1.70999 233 1.25399 233C0.941995 233 0.653998 233 0.341999 233C-0.114 233 -0.114 233.727 0.341999 233.727Z" fill="#205072"/>
<path d="M104.342 228.728C111.95 228.728 119.582 228.728 127.19 228.728C127.646 228.728 127.646 228 127.19 228C119.582 228 111.95 228 104.342 228C103.886 228 103.886 228.728 104.342 228.728Z" fill="#205072"/>
<path d="M146.718 234.795C151.254 234.795 155.766 234.795 160.302 234.795C160.758 234.795 160.758 234.067 160.302 234.067C155.766 234.067 151.254 234.067 146.718 234.067C146.262 234.067 146.262 234.795 146.718 234.795Z" fill="#205072"/>
<path d="M187.902 235.231C207.462 235.231 227.022 235.231 246.582 235.231C252.15 235.231 257.718 235.231 263.286 235.231C263.742 235.231 263.742 234.504 263.286 234.504C243.726 234.504 224.166 234.504 204.606 234.504C199.038 234.504 193.47 234.504 187.902 234.504C187.446 234.504 187.446 235.231 187.902 235.231Z" fill="#205072"/>
<path d="M676.342 205.727C676.654 205.727 676.942 205.727 677.254 205.727C677.71 205.727 677.71 205 677.254 205C676.942 205 676.654 205 676.342 205C675.886 205 675.886 205.727 676.342 205.727Z" fill="#205072"/>
<path d="M693.934 211.596C701.542 211.596 709.174 211.596 716.782 211.596C717.238 211.596 717.238 210.869 716.782 210.869C709.174 210.869 701.542 210.869 693.934 210.869C693.478 210.869 693.478 211.596 693.934 211.596Z" fill="#205072"/>
<path d="M822.718 206.795C827.254 206.795 831.766 206.795 836.302 206.795C836.758 206.795 836.758 206.067 836.302 206.067C831.766 206.067 827.254 206.067 822.718 206.067C822.262 206.067 822.262 206.795 822.718 206.795Z" fill="#205072"/>
<path d="M717.342 213.727C736.902 213.727 756.462 213.727 776.022 213.727C781.59 213.727 787.158 213.727 792.726 213.727C793.182 213.727 793.182 213 792.726 213C773.166 213 753.606 213 734.046 213C728.478 213 722.91 213 717.342 213C716.886 213 716.886 213.727 717.342 213.727Z" fill="#205072"/>
</svg>
