<svg width="959" height="211" viewBox="0 0 959 211" fill="none" xmlns="http://www.w3.org/2000/svg">
<g clip-path="url(#clip0)">
<path d="M286.32 111.149C289.316 111.149 291.744 108.435 291.744 105.087C291.744 101.739 289.316 99.0244 286.32 99.0244C283.324 99.0244 280.896 101.739 280.896 105.087C280.896 108.435 283.324 111.149 286.32 111.149Z" fill="black"/>
<path d="M110.776 97.1365C113.414 97.1365 115.552 94.8674 115.552 92.0683C115.552 89.2691 113.414 87 110.776 87C108.138 87 106 89.2691 106 92.0683C106 94.8674 108.138 97.1365 110.776 97.1365Z" fill="#7BE495"/>
<path d="M328.537 108.048C327.062 109.651 324.965 110.965 322.549 110.741C319.919 110.5 318.622 108.609 318.374 106.398C317.947 102.728 318.942 98.3371 316.188 95.2122C315.104 93.9783 313.488 93.3212 311.746 93.7058C309.65 94.1545 308.015 95.6449 306.15 96.5263C303.946 97.5679 300.908 98.1288 298.918 96.382C297.461 95.1 297.142 93.1449 296.662 91.4463C296.218 89.9078 295.454 88.2091 293.926 87.2957C293.002 86.7508 291.989 86.7028 290.923 86.7669C289.733 86.847 287.298 86.9111 287.547 85.2284C287.583 84.9239 287.05 84.9239 287.014 85.2284C286.925 85.8855 287.263 86.4143 287.849 86.7989C288.773 87.4079 289.839 87.3117 290.923 87.2476C292.149 87.1675 293.197 87.2636 294.139 88.0489C294.992 88.754 295.507 89.7476 295.88 90.7251C296.502 92.4078 296.68 94.2507 297.746 95.7891C298.794 97.3115 300.606 98.0487 302.561 97.9846C305.03 97.9045 307.109 96.6224 309.081 95.4366C310.023 94.8757 311.036 94.2827 312.191 94.1065C313.576 93.8981 314.802 94.443 315.691 95.3725C317.361 97.1352 317.627 99.6512 317.716 101.863C317.805 103.93 317.503 106.174 318.267 108.177C318.96 110.004 320.719 111.141 322.833 111.238C325.285 111.35 327.435 110.02 328.945 108.385C329.141 108.145 328.768 107.808 328.537 108.048Z" fill="black"/>
<path d="M319.09 79.1813C318.514 80.3696 319.33 81.5578 320.53 81.8731C321.442 82.1156 322.402 81.8973 323.338 81.9458C324.346 81.9943 325.354 82.2368 326.266 82.6491C328.282 83.5706 329.578 85.2438 329.65 87.4991C329.722 89.3906 329.17 91.3548 329.986 93.1493C331.714 96.9323 336.466 94.0466 338.914 96.4958C340.954 98.5571 340.114 102.316 342.85 103.892C343.258 104.135 343.618 103.504 343.21 103.262C340.762 101.855 341.338 98.1933 339.61 96.1563C338.698 95.0893 337.378 94.7983 336.034 94.7013C334.402 94.6043 332.29 94.9438 331.09 93.5373C329.698 91.8883 330.442 89.4148 330.37 87.4748C330.322 85.9471 329.818 84.5648 328.762 83.4736C327.826 82.5278 326.602 81.8731 325.33 81.5336C324.682 81.3638 324.01 81.2426 323.338 81.2183C322.474 81.1698 318.73 81.6063 319.738 79.5451C319.93 79.1328 319.306 78.7691 319.09 79.1813Z" fill="black"/>
<path d="M292.441 166.438C296.353 165.468 300.289 165.371 304.273 166.001C305.953 166.268 307.657 166.535 309.361 166.389C311.017 166.244 312.625 165.735 314.233 165.298C316.057 164.789 317.881 164.401 319.801 164.546C321.769 164.692 323.665 165.249 325.585 165.686C327.241 166.074 328.921 166.341 330.625 166.317C332.425 166.268 334.201 165.953 335.953 165.686C340.753 164.91 345.265 165.395 350.017 166.195C350.473 166.268 350.665 165.565 350.209 165.492C346.369 164.862 342.505 164.207 338.593 164.595C334.513 165.007 330.721 166.026 326.593 165.177C323.137 164.474 319.849 163.382 316.297 164.061C314.401 164.425 312.601 165.104 310.705 165.468C308.593 165.88 306.553 165.638 304.441 165.298C300.337 164.668 296.281 164.716 292.225 165.735C291.817 165.856 292.009 166.559 292.441 166.438Z" fill="black"/>
<path d="M58.441 174.591C62.353 173.621 66.289 173.524 70.273 174.154C71.953 174.421 73.657 174.688 75.361 174.542C77.017 174.397 78.625 173.887 80.233 173.451C82.057 172.942 83.881 172.554 85.801 172.699C87.769 172.845 89.665 173.402 91.585 173.839C93.241 174.227 94.921 174.494 96.625 174.469C98.425 174.421 100.201 174.106 101.953 173.839C106.753 173.063 111.265 173.548 116.017 174.348C116.473 174.421 116.665 173.718 116.209 173.645C112.369 173.014 108.505 172.36 104.593 172.748C100.513 173.16 96.721 174.178 92.593 173.33C89.137 172.626 85.849 171.535 82.297 172.214C80.401 172.578 78.601 173.257 76.705 173.621C74.593 174.033 72.553 173.79 70.441 173.451C66.337 172.82 62.281 172.869 58.225 173.887C57.817 174.009 58.009 174.712 58.441 174.591Z" fill="black"/>
<path d="M329.305 159.066C336.841 158.653 344.377 158.241 351.913 157.853C355.633 157.659 359.233 157.732 362.929 158.241C364.585 158.459 366.169 158.508 367.825 158.314C369.673 158.096 371.593 157.805 373.321 158.702C373.729 158.92 374.089 158.29 373.681 158.071C370.753 156.568 367.369 157.974 364.225 157.683C362.353 157.514 360.529 157.15 358.657 157.053C356.713 156.956 354.769 157.004 352.825 157.101C344.977 157.465 337.129 157.95 329.281 158.362C328.849 158.362 328.849 159.09 329.305 159.066Z" fill="black"/>
<path d="M260.738 157.728C252.487 157.728 244.21 157.728 235.96 157.728C235.465 157.728 235.465 157 235.96 157C244.21 157 252.487 157 260.738 157C261.232 157 261.232 157.728 260.738 157.728Z" fill="black"/>
<path d="M297.541 158.964C292.83 158.964 288.145 158.964 283.434 158.964C282.939 158.964 282.939 158.237 283.434 158.237C288.145 158.237 292.83 158.237 297.541 158.237C298.061 158.237 298.061 158.964 297.541 158.964Z" fill="black"/>
<path d="M289.941 175.406C280.883 175.406 271.851 175.406 262.794 175.406C262.299 175.406 262.299 174.678 262.794 174.678C271.851 174.678 280.883 174.678 289.941 174.678C290.461 174.678 290.461 175.406 289.941 175.406Z" fill="black"/>
<path d="M218.618 157.727C210.211 157.727 201.778 157.727 193.371 157.727C192.876 157.727 192.876 157 193.371 157C201.778 157 210.211 157 218.618 157C219.138 157 219.138 157.727 218.618 157.727Z" fill="black"/>
<path d="M775.441 164.438C779.353 163.468 783.289 163.371 787.273 164.001C788.953 164.268 790.657 164.535 792.361 164.389C794.017 164.244 795.625 163.735 797.233 163.298C799.057 162.789 800.881 162.401 802.801 162.546C804.769 162.692 806.665 163.249 808.585 163.686C810.241 164.074 811.921 164.341 813.625 164.317C815.425 164.268 817.201 163.953 818.953 163.686C823.753 162.91 828.265 163.395 833.017 164.195C833.473 164.268 833.665 163.565 833.209 163.492C829.369 162.862 825.505 162.207 821.593 162.595C817.513 163.007 813.721 164.026 809.593 163.177C806.137 162.474 802.849 161.382 799.297 162.061C797.401 162.425 795.601 163.104 793.705 163.468C791.593 163.88 789.553 163.638 787.441 163.298C783.337 162.668 779.281 162.716 775.225 163.735C774.817 163.856 775.009 164.559 775.441 164.438Z" fill="black"/>
<path d="M800.345 155.066C807.881 154.653 815.417 154.241 822.953 153.853C826.673 153.659 830.273 153.732 833.969 154.241C835.625 154.459 837.209 154.508 838.865 154.314C840.713 154.096 842.633 153.805 844.361 154.702C844.769 154.92 845.129 154.29 844.721 154.071C841.793 152.568 838.409 153.974 835.265 153.683C833.393 153.514 831.569 153.15 829.697 153.053C827.753 152.956 825.809 153.004 823.865 153.101C816.017 153.465 808.169 153.95 800.321 154.362C799.889 154.362 799.889 155.09 800.345 155.066Z" fill="black"/>
<path d="M743.738 155.728C735.487 155.728 727.211 155.728 718.96 155.728C718.465 155.728 718.465 155 718.96 155C727.211 155 735.487 155 743.738 155C744.233 155 744.233 155.728 743.738 155.728Z" fill="black"/>
<path d="M780.541 156.964C775.83 156.964 771.145 156.964 766.434 156.964C765.939 156.964 765.939 156.237 766.434 156.237C771.145 156.237 775.83 156.237 780.541 156.237C781.061 156.237 781.061 156.964 780.541 156.964Z" fill="black"/>
<path d="M772.941 173.406C763.883 173.406 754.851 173.406 745.794 173.406C745.299 173.406 745.299 172.678 745.794 172.678C754.851 172.678 763.883 172.678 772.941 172.678C773.461 172.678 773.461 173.406 772.941 173.406Z" fill="black"/>
<path d="M701.617 155.727C693.21 155.727 684.778 155.727 676.371 155.727C675.876 155.727 675.876 155 676.371 155C684.778 155 693.21 155 701.617 155C702.138 155 702.138 155.727 701.617 155.727Z" fill="black"/>
<path d="M222.342 151.728C226.878 151.728 231.39 151.728 235.926 151.728C236.382 151.728 236.382 151 235.926 151C231.39 151 226.878 151 222.342 151C221.886 151 221.886 151.728 222.342 151.728Z" fill="black"/>
<path d="M262.342 150.727C281.902 150.727 301.462 150.727 321.022 150.727C326.59 150.727 332.158 150.727 337.726 150.727C338.182 150.727 338.182 150 337.726 150C318.166 150 298.606 150 279.046 150C273.478 150 267.91 150 262.342 150C261.886 150 261.886 150.727 262.342 150.727Z" fill="black"/>
<path d="M364.32 141.149C367.316 141.149 369.744 138.435 369.744 135.087C369.744 131.739 367.316 129.024 364.32 129.024C361.324 129.024 358.896 131.739 358.896 135.087C358.896 138.435 361.324 141.149 364.32 141.149Z" fill="black"/>
<path d="M565.32 99.7788C567.547 99.7788 569.352 98.02 569.352 95.8504C569.352 93.6807 567.547 91.9219 565.32 91.9219C563.093 91.9219 561.288 93.6807 561.288 95.8504C561.288 98.02 563.093 99.7788 565.32 99.7788Z" fill="black"/>
<path d="M442.368 76.0624C444.025 76.0624 445.368 74.7052 445.368 73.0311C445.368 71.357 444.025 69.9999 442.368 69.9999C440.711 69.9999 439.368 71.357 439.368 73.0311C439.368 74.7052 440.711 76.0624 442.368 76.0624Z" fill="black"/>
<path d="M358.776 139.137C361.414 139.137 363.552 136.867 363.552 134.068C363.552 131.269 361.414 129 358.776 129C356.138 129 354 131.269 354 134.068C354 136.867 356.138 139.137 358.776 139.137Z" fill="#7BE495"/>
<path d="M564.216 93.5708C565.846 93.5708 567.168 92.1811 567.168 90.4668C567.168 88.7525 565.846 87.3628 564.216 87.3628C562.586 87.3628 561.264 88.7525 561.264 90.4668C561.264 92.1811 562.586 93.5708 564.216 93.5708Z" fill="#7BE495"/>
<path d="M603.672 7.96838C605.462 7.96838 606.912 6.40495 606.912 4.47638C606.912 2.5478 605.462 0.984375 603.672 0.984375C601.883 0.984375 600.432 2.5478 600.432 4.47638C600.432 6.40495 601.883 7.96838 603.672 7.96838Z" fill="#7BE495"/>
<path d="M565.32 99.7788C567.547 99.7788 569.352 98.02 569.352 95.8504C569.352 93.6807 567.547 91.9219 565.32 91.9219C563.093 91.9219 561.288 93.6807 561.288 95.8504C561.288 98.02 563.093 99.7788 565.32 99.7788Z" fill="black"/>
<path d="M533.304 29.5509C532.776 28.7021 531.912 29.5024 531.552 30.0844C530.808 31.2969 530.328 32.8004 530.88 34.1826C531.288 35.2254 532.296 36.0984 533.472 35.9286C534.552 35.7831 535.368 34.8859 535.344 33.7946C535.344 33.5036 534.936 33.2854 534.72 33.5279C533.448 35.1526 531.888 37.4564 533.16 39.5419C534.048 40.9726 536.232 41.1666 537.096 39.6146C536.88 39.5904 536.664 39.5661 536.448 39.5176C536.568 40.1966 536.688 40.8756 536.784 41.5546C536.856 42.0154 537.552 41.8214 537.48 41.3606C537.36 40.6816 537.24 40.0026 537.144 39.3236C537.096 39.0084 536.616 38.9841 536.496 39.2266C536.112 39.9056 535.248 40.1481 534.552 39.8086C533.784 39.4206 533.448 38.5476 533.448 37.6989C533.448 36.2924 534.432 35.0556 535.248 34.0129C535.032 33.9159 534.84 33.8431 534.624 33.7461C534.648 34.6676 533.76 35.3466 532.872 35.1526C532.2 35.0071 531.768 34.4251 531.528 33.7946C531.288 33.1399 531.312 32.4851 531.504 31.8304C531.528 31.7819 532.512 29.6236 532.656 29.8661C532.92 30.3026 533.544 29.9389 533.304 29.5509Z" fill="black"/>
<path d="M447.739 41.5447C448.267 40.0897 450.019 40.7202 450.571 41.7387C450.763 42.0782 450.859 42.4662 450.907 42.8542C451.003 43.5817 450.931 43.8727 450.307 44.3092C449.635 44.9882 449.467 44.7215 449.827 43.509C449.995 43.4362 450.187 43.3635 450.355 43.2907C450.811 43.1695 451.339 43.1937 451.795 43.3392C452.947 43.7272 453.523 44.964 453.355 46.1037C453.307 46.3947 453.595 46.6857 453.883 46.516C455.443 45.6187 457.507 46.613 457.867 48.3832C457.963 48.844 458.659 48.65 458.563 48.1892C458.107 45.9582 455.491 44.7942 453.523 45.9097C453.691 46.0552 453.883 46.1765 454.051 46.322C454.363 44.188 452.755 42.1994 450.523 42.539C449.755 42.6602 448.603 43.1452 448.507 44.0667C448.435 44.8185 449.131 45.3762 449.827 45.449C451.891 45.643 451.843 42.6117 451.171 41.3992C450.259 39.7502 447.739 39.3379 447.019 41.3749C446.875 41.7872 447.571 41.9812 447.739 41.5447Z" fill="#7BE495"/>
<path d="M398.208 144.859C398.736 150.122 399.648 155.311 400.92 160.452C401.04 160.913 401.736 160.719 401.616 160.258C400.368 155.19 399.456 150.049 398.928 144.859C398.88 144.399 398.16 144.399 398.208 144.859Z" fill="black"/>
<path d="M401.064 160.695C405.792 161.932 410.712 161.932 415.44 160.695C415.896 160.574 415.704 159.87 415.248 159.992C410.64 161.204 405.864 161.204 401.256 159.992C400.824 159.87 400.632 160.574 401.064 160.695Z" fill="black"/>
<path d="M415.992 159.967C416.304 154.802 416.712 149.637 417.192 144.472C417.24 144.011 416.52 144.011 416.472 144.472C415.992 149.637 415.584 154.802 415.272 159.967C415.248 160.428 415.968 160.428 415.992 159.967Z" fill="black"/>
<path d="M398.616 145.248C404.592 146.484 410.736 146.436 416.712 145.078C417.168 144.981 416.976 144.278 416.52 144.375C410.688 145.684 404.664 145.757 398.808 144.544C398.352 144.447 398.16 145.151 398.616 145.248Z" fill="black"/>
<path d="M398.544 146.994C398.736 147.988 399.984 147.939 400.752 148.012C402.696 148.182 404.664 148.23 406.608 148.182C408.48 148.133 410.352 147.988 412.224 147.77C413.712 147.576 415.152 147.382 416.472 146.63C416.88 146.412 416.52 145.781 416.112 145.999C413.736 147.333 410.448 147.285 407.784 147.406C406.464 147.454 405.12 147.479 403.8 147.454C403.104 147.43 399.384 147.6 399.24 146.8C399.144 146.339 398.472 146.533 398.544 146.994Z" fill="black"/>
<path d="M399.912 155.408C401.064 157.47 402.528 159.288 404.28 160.865C404.616 161.18 405.144 160.671 404.784 160.355C403.056 158.828 401.64 157.057 400.536 155.045C400.32 154.632 399.696 154.996 399.912 155.408Z" fill="black"/>
<path d="M398.976 149.807C401.424 153.978 404.4 157.809 407.808 161.253C408.144 161.592 408.648 161.059 408.312 160.743C404.952 157.348 402.024 153.565 399.6 149.443C399.36 149.055 398.736 149.419 398.976 149.807Z" fill="black"/>
<path d="M402.984 148.061C405.528 152.644 408.48 156.985 411.816 161.034C412.104 161.398 412.608 160.889 412.32 160.525C409.032 156.524 406.104 152.232 403.608 147.697C403.392 147.285 402.768 147.648 402.984 148.061Z" fill="black"/>
<path d="M407.568 148.23C410.04 151.965 412.536 155.675 415.056 159.385C415.32 159.773 415.944 159.41 415.68 159.022C413.16 155.311 410.664 151.601 408.192 147.867C407.928 147.479 407.304 147.842 407.568 148.23Z" fill="black"/>
<path d="M411.408 148.012C412.656 150.049 414 152.038 415.392 153.978C415.656 154.341 416.28 153.978 416.016 153.614C414.624 151.674 413.28 149.685 412.032 147.648C411.792 147.26 411.168 147.624 411.408 148.012Z" fill="black"/>
<path d="M390.648 123.52C390.936 125.193 391.224 126.89 391.536 128.564C391.632 129.024 391.704 129.509 392.088 129.8C392.352 130.019 393.216 129.994 393.384 130.237C393.408 130.091 393.432 129.946 393.432 129.8C393.072 130.164 392.712 130.528 392.328 130.867C392.232 130.964 392.208 131.11 392.232 131.231C392.448 131.886 392.592 132.856 393.024 133.414C393.24 133.705 393.624 133.656 393.792 133.826C393.936 133.971 393.888 133.874 393.816 134.311C393.768 134.675 393.768 135.063 393.816 135.451C393.888 136.033 394.056 136.59 394.272 137.124C395.52 140.179 397.944 142.653 400.272 144.932C400.608 145.248 401.112 144.738 400.776 144.423C399.288 142.968 397.8 141.465 396.576 139.767C395.376 138.094 393.96 135.839 394.704 133.705C394.752 133.583 394.704 133.414 394.608 133.341C394.152 132.977 393.696 133.123 393.384 132.541C392.784 131.449 393.12 131.086 393.888 130.334C394.008 130.237 394.032 130.019 393.936 129.897C393.744 129.606 393.6 129.509 393.288 129.412C393.096 129.34 392.808 129.412 392.616 129.315C392.208 129.097 392.208 128.564 392.136 128.176C391.848 126.575 391.56 124.95 391.296 123.35C391.248 122.865 390.552 123.059 390.648 123.52Z" fill="black"/>
<path d="M391.176 123.423C400.536 126.575 406.944 135.402 407.136 145.393C407.136 145.854 407.856 145.854 407.856 145.393C407.664 135.087 401.04 125.993 391.368 122.719C390.936 122.574 390.744 123.277 391.176 123.423Z" fill="black"/>
<path d="M405.552 135.451C407.88 128.927 411.312 122.622 416.808 118.33C417.168 118.039 416.808 117.409 416.448 117.7C410.784 122.137 407.256 128.539 404.856 135.257C404.712 135.693 405.408 135.887 405.552 135.451Z" fill="black"/>
<path d="M416.184 118.185C416.352 120.416 416.544 122.647 416.712 124.902C416.76 125.363 417.48 125.363 417.432 124.902C417.264 122.671 417.072 120.44 416.904 118.185C416.88 117.724 416.16 117.724 416.184 118.185Z" fill="black"/>
<path d="M417.024 124.659C416.712 124.732 416.4 124.805 416.112 124.902C415.656 125.023 415.848 125.726 416.304 125.605C416.616 125.532 416.928 125.46 417.216 125.363C417.672 125.241 417.48 124.562 417.024 124.659Z" fill="black"/>
<path d="M415.752 125.557C415.848 126.017 416.232 126.308 416.664 126.357C416.856 126.381 417.024 126.187 417.024 125.993C417.024 125.775 416.856 125.654 416.664 125.629C416.736 125.629 416.664 125.629 416.64 125.629C416.616 125.629 416.568 125.605 416.616 125.629C416.592 125.605 416.568 125.605 416.544 125.581C416.496 125.557 416.592 125.629 416.52 125.557C416.496 125.532 416.496 125.532 416.472 125.508C416.52 125.557 416.472 125.508 416.472 125.484C416.448 125.46 416.448 125.411 416.448 125.46C416.448 125.435 416.424 125.387 416.424 125.363C416.376 125.169 416.16 125.047 415.992 125.12C415.8 125.169 415.704 125.363 415.752 125.557Z" fill="black"/>
<path d="M416.304 126.09C416.328 127.472 416.28 128.83 416.136 130.188C416.088 130.625 416.16 131.643 415.872 131.983C415.848 132.007 415.416 132.08 415.32 132.153C414.96 132.444 415.464 132.953 415.824 132.662C415.944 132.565 416.232 132.662 416.424 132.444C416.712 132.153 416.664 131.474 416.712 131.134C416.928 129.461 417.024 127.763 417 126.066C417.024 125.629 416.304 125.629 416.304 126.09Z" fill="black"/>
<path d="M415.032 132.783C415.8 133.705 415.584 135.232 415.512 136.348C415.416 137.633 415.2 138.821 414.576 139.937C413.688 141.586 412.44 142.968 411.792 144.763C411.624 145.199 412.32 145.393 412.488 144.957C413.352 142.604 415.344 140.858 415.944 138.385C416.376 136.615 416.784 133.777 415.536 132.274C415.248 131.934 414.744 132.444 415.032 132.783Z" fill="black"/>
<path d="M409.368 145.102C410.04 138.215 411.84 131.498 414.72 125.241C414.912 124.829 414.288 124.441 414.096 124.878C411.168 131.28 409.32 138.094 408.648 145.126C408.6 145.587 409.32 145.563 409.368 145.102Z" fill="black"/>
<path d="M395.208 127.472C399.408 132.807 402.48 138.943 404.28 145.49C404.4 145.951 405.096 145.757 404.976 145.296C403.128 138.603 399.984 132.395 395.712 126.963C395.424 126.599 394.92 127.109 395.208 127.472Z" fill="black"/>
<path d="M395.664 136.421C397.68 136.299 399.552 136.784 401.256 137.851C401.64 138.094 402.024 137.463 401.616 137.221C399.816 136.105 397.776 135.572 395.664 135.693C395.184 135.717 395.184 136.445 395.664 136.421Z" fill="black"/>
<path d="M400.056 133.171C399.912 131.837 400.08 130.552 400.584 129.291C400.752 128.855 400.056 128.661 399.888 129.097C399.36 130.407 399.192 131.765 399.336 133.171C399.384 133.632 400.104 133.632 400.056 133.171Z" fill="black"/>
<path d="M407.832 129.146C408.624 131.11 409.776 133.195 410.064 135.281C410.136 135.742 410.832 135.548 410.76 135.087C410.448 132.977 409.296 130.892 408.528 128.952C408.36 128.515 407.664 128.709 407.832 129.146Z" fill="black"/>
<path d="M412.248 131.449C412.944 130.649 413.616 129.703 414.504 129.097C415.248 128.588 416.064 128.248 416.64 127.545C416.928 127.181 416.424 126.672 416.136 127.036C415.512 127.788 414.6 128.103 413.856 128.685C413.04 129.315 412.416 130.164 411.744 130.94C411.432 131.304 411.936 131.813 412.248 131.449Z" fill="black"/>
<path d="M412.488 144.86C413.64 144.544 414.816 144.423 416.016 144.496C416.472 144.52 416.472 143.793 416.016 143.768C414.744 143.696 413.52 143.817 412.296 144.156C411.864 144.278 412.032 144.981 412.488 144.86Z" fill="black"/>
<path d="M412.392 145.151C413.736 145.272 415.032 145.102 416.328 144.69C416.76 144.544 416.568 143.841 416.136 143.987C414.912 144.375 413.664 144.52 412.392 144.423C411.936 144.399 411.936 145.126 412.392 145.151Z" fill="black"/>
<path d="M398.928 145.029C399.24 145.029 399.528 145.029 399.84 145.029C400.296 145.029 400.296 144.302 399.84 144.302C399.528 144.302 399.24 144.302 398.928 144.302C398.472 144.302 398.472 145.029 398.928 145.029Z" fill="black"/>
<path d="M416.52 150.898C424.128 150.898 431.76 150.898 439.368 150.898C439.824 150.898 439.824 150.17 439.368 150.17C431.76 150.17 424.128 150.17 416.52 150.17C416.064 150.17 416.064 150.898 416.52 150.898Z" fill="black"/>
<path d="M545.304 146.096C549.84 146.096 554.352 146.096 558.888 146.096C559.344 146.096 559.344 145.369 558.888 145.369C554.352 145.369 549.84 145.369 545.304 145.369C544.848 145.369 544.848 146.096 545.304 146.096Z" fill="black"/>
<path d="M586.488 146.533C606.048 146.533 625.608 146.533 645.168 146.533C650.736 146.533 656.304 146.533 661.872 146.533C662.328 146.533 662.328 145.805 661.872 145.805C642.312 145.805 622.752 145.805 603.192 145.805C597.624 145.805 592.056 145.805 586.488 145.805C586.032 145.805 586.032 146.533 586.488 146.533Z" fill="black"/>
<path d="M557.52 66.9201C555.696 70.7274 553.728 74.4619 551.64 78.1236C551.544 78.3176 551.616 78.6329 551.856 78.6571C562.152 80.2334 571.368 85.3986 580.248 90.6124C580.656 90.8549 581.016 90.2244 580.608 89.9819C571.656 84.7439 562.392 79.5544 552.024 77.9539C552.096 78.1236 552.168 78.3176 552.24 78.4874C554.352 74.8256 556.296 71.0911 558.12 67.2839C558.336 66.8716 557.736 66.4836 557.52 66.9201Z" fill="black"/>
<path d="M559.104 80.1363C559.824 78.0508 560.544 75.941 561.264 73.8555C561.576 72.9825 561.792 72.0125 562.2 71.1638C562.296 70.6545 562.608 70.2665 563.088 69.9755C563.376 70.0483 563.664 70.121 563.952 70.1938C564.384 70.315 564.816 70.412 565.224 70.5333C566.208 70.7758 567.792 70.7758 567.624 72.1095C567.504 73.0553 566.952 74.0738 566.64 74.9953C565.92 77.0565 565.224 79.1178 564.504 81.179C564.36 81.6155 565.056 81.8095 565.2 81.373C566.136 78.657 567.072 75.9168 568.008 73.2008C568.224 72.5703 568.824 71.5033 568.344 70.8243C567.816 70.0968 566.232 70.0483 565.416 69.83C564.624 69.636 563.232 68.9085 562.416 69.2965C561.72 69.6118 561.576 70.8243 561.36 71.4305C560.376 74.2678 559.392 77.1293 558.408 79.9665C558.264 80.3788 558.96 80.5728 559.104 80.1363Z" fill="black"/>
<path d="M568.368 82.7311C569.904 79.4573 571.464 76.1593 573 72.8856C573.768 71.2366 574.536 69.6119 575.328 67.9629C575.688 67.2111 575.976 66.3139 576.432 65.6106C576.816 65.0044 576.912 64.8589 577.584 65.1256C577.944 65.2711 578.376 65.6349 578.688 65.8531C579.096 66.1441 579.744 66.4594 580.032 66.8474C580.392 67.3081 580.248 67.7931 580.032 68.3751C579.744 69.1511 579.312 69.9029 578.952 70.6546C578.16 72.3036 577.368 73.9526 576.528 75.6016C574.944 78.7298 573.288 81.8338 571.584 84.9136C571.344 85.3258 571.968 85.6896 572.208 85.2773C574.296 81.5428 576.288 77.7598 578.16 73.9284C579.096 72.0369 580.128 70.0969 580.92 68.1326C581.472 66.7019 580.272 66.1199 579.216 65.3681C578.376 64.7861 577.056 63.4524 576.144 64.5436C575.568 65.2226 575.256 66.3624 574.872 67.1869C574.392 68.1811 573.936 69.1754 573.456 70.1939C571.536 74.2678 569.616 78.3418 567.72 82.4158C567.552 82.7796 568.176 83.1676 568.368 82.7311Z" fill="black"/>
<path d="M576.336 87.7751C578.4 84.5013 580.728 81.3973 583.296 78.5358C583.152 78.5601 583.008 78.5843 582.864 78.5843C583.776 79.2148 584.664 79.8211 585.576 80.4516C585.528 80.2818 585.48 80.1121 585.456 79.9423C583.416 83.1676 581.376 86.3686 579.336 89.5938C579.096 89.9818 579.696 90.3456 579.96 89.9576C582 86.7323 584.04 83.5313 586.08 80.3061C586.2 80.1363 586.104 79.9181 585.96 79.7968C585.048 79.1663 584.16 78.5601 583.248 77.9296C583.128 77.8326 582.912 77.8811 582.816 77.9781C580.2 80.9123 577.824 84.0406 575.736 87.3628C575.472 87.8236 576.096 88.1873 576.336 87.7751Z" fill="black"/>
<path d="M604.968 64.7133C602.568 63.7918 601.056 61.3668 601.488 58.7721C601.92 56.1288 604.488 53.7766 607.128 55.3528C608.952 56.4441 609.888 58.9176 609.192 60.9303C608.472 63.0886 606.12 64.3738 603.936 64.0343C603.48 63.9616 603.288 64.6648 603.744 64.7376C606.312 65.1256 609.024 63.6948 609.888 61.1243C610.752 58.5538 609.36 55.4499 606.864 54.4071C603.936 53.1946 601.272 55.7409 600.768 58.5781C600.24 61.5851 601.992 64.3496 604.752 65.4166C605.208 65.5863 605.4 64.8831 604.968 64.7133Z" fill="black"/>
<path d="M609.888 64.2525C605.112 64.107 606.912 56.3713 611.136 56.6623C615.36 56.9775 613.632 65.6833 609 64.0828C608.568 63.9373 608.376 64.6405 608.808 64.786C614.16 66.629 616.56 56.7835 611.448 55.959C608.952 55.5468 606.696 57.9233 606.312 60.2755C605.928 62.6035 607.488 64.883 609.888 64.9558C610.344 65.0043 610.344 64.2768 609.888 64.2525Z" fill="black"/>
<path d="M606.312 42.3063C605.904 41.8698 605.712 41.1666 606.024 40.6331C606.336 40.1239 607.104 39.8814 607.584 40.2694C608.016 40.6088 608.112 41.3363 607.704 41.7001C607.224 42.1366 606.456 41.9183 606 41.5546C605.64 41.2636 605.136 41.7728 605.496 42.0638C606.24 42.6458 607.392 42.9368 608.184 42.2336C608.904 41.5788 608.832 40.3663 608.112 39.7359C607.368 39.0811 606.192 39.2751 605.568 40.0026C604.872 40.8271 605.064 42.0638 605.784 42.8156C606.12 43.1551 606.624 42.6458 606.312 42.3063Z" fill="black"/>
<path d="M536.664 60.5666C535.992 56.4441 538.368 51.4728 542.976 51.5213C545.328 51.5456 547.608 52.5156 549.984 52.1761C551.664 51.9336 553.104 50.9636 554.112 49.6298C555.12 48.2961 555.696 46.6228 555.792 44.9496C555.912 42.4761 554.976 39.9541 555.648 37.5048C555.984 36.2681 556.704 35.1283 557.928 34.6676C559.104 34.2553 560.376 34.4978 561.6 34.4493C563.376 34.3766 564.768 33.6006 565.656 32.0243C566.904 29.8176 566.616 27.1743 567.48 24.8463C568.512 22.0333 571.416 19.6326 574.488 21.0148C574.896 21.2088 575.28 20.5783 574.848 20.3843C570.672 18.4928 567.192 22.3001 566.376 26.1316C565.848 28.6293 565.944 32.5093 562.992 33.5036C560.928 34.2068 558.6 33.1156 556.704 34.5463C555.144 35.7103 554.688 37.8443 554.712 39.7116C554.784 42.4518 555.624 45.1193 554.424 47.7383C553.32 50.2118 551.136 51.6911 548.424 51.5213C546.024 51.3758 543.648 50.3816 541.224 51.0121C537.12 52.0548 535.368 56.9533 536.016 60.7848C536.064 61.1971 536.76 61.0031 536.664 60.5666Z" fill="black"/>
<path d="M567 43.2763C566.112 41.2393 567.336 39.2993 569.28 38.6446C570.696 38.1596 572.256 38.1353 573.48 37.1653C574.44 36.4136 574.752 35.4678 574.632 34.2553C574.512 33.1156 574.512 32.2183 575.4 31.4423C576.144 30.7876 577.128 30.5451 578.088 30.4966C580.728 30.3996 584.352 31.7576 586.272 29.1628C587.16 27.9503 586.896 26.4468 587.304 25.0888C587.856 23.1973 589.656 22.0333 591.576 22.1303C592.032 22.1546 592.032 21.4271 591.576 21.4028C590.112 21.3301 588.696 21.8878 587.688 22.9548C586.44 24.2886 586.608 25.7921 586.224 27.4653C585.192 32.0486 578.88 28.8233 575.904 30.2541C574.8 30.7876 573.912 31.7333 573.816 32.9943C573.696 34.4736 574.368 35.6861 572.88 36.7046C572.088 37.2381 571.176 37.4078 570.264 37.6261C568.752 37.9898 567.264 38.4506 566.496 39.9298C565.872 41.0938 565.872 42.4276 566.4 43.6158C566.568 44.0766 567.168 43.6886 567 43.2763Z" fill="black"/>
<path d="M609.768 10.9753C609.672 10.7571 609.576 10.5146 609.504 10.2721C609.816 9.90833 610.104 9.54458 610.416 9.18083C610.512 9.15658 610.944 9.44758 611.088 9.44758C611.448 9.49608 611.76 9.39908 612.048 9.18083C612.936 8.47758 612.624 7.36208 612.888 6.41633C613.32 4.79157 615.216 5.90707 616.08 4.69457C616.944 3.50632 616.632 0.984315 618.936 1.66332C619.392 1.78457 619.584 1.08132 619.128 0.960067C617.808 0.572066 616.608 1.20256 616.128 2.48782C615.984 2.85157 615.936 3.26382 615.792 3.62757C615.48 4.47632 615.144 4.59758 614.232 4.64608C613.56 4.69458 613.032 4.64608 612.576 5.22808C612.192 5.73733 612.192 6.39208 612.12 6.99833C612.048 7.89558 612.12 8.64733 610.8 8.55033C610.536 8.52608 610.32 8.28358 610.032 8.28358C608.448 8.25933 608.712 10.2236 609.096 11.1693C609.24 11.6058 609.96 11.4118 609.768 10.9753Z" fill="black"/>
<path d="M614.28 12.9881C613.896 12.4788 613.248 10.9996 614.376 10.6116C614.784 10.4661 615.312 10.6358 615.744 10.6358C616.128 10.6358 616.464 10.6358 616.776 10.3691C617.736 9.59307 617.04 8.21082 617.544 7.24082C618.36 5.66457 619.992 6.90132 621.144 6.07682C621.96 5.49482 622.176 4.37932 622.32 3.45782C622.392 2.99707 621.696 2.80307 621.624 3.26382C621.456 4.35507 621.264 5.56757 619.92 5.68882C619.224 5.76157 618.696 5.51907 618.048 5.83432C616.992 6.34357 616.656 7.28932 616.632 8.38057C616.608 9.30207 616.824 9.76282 615.288 9.83557C615.096 9.83557 614.904 9.78707 614.712 9.78707C614.16 9.83557 613.68 10.1266 613.368 10.5873C612.696 11.5573 613.08 12.6728 613.752 13.5216C614.064 13.8853 614.568 13.3518 614.28 12.9881Z" fill="black"/>
<path d="M433.368 42.5582C434.538 41.2753 436.203 40.2234 438.121 40.403C440.208 40.5954 441.238 42.1092 441.435 43.8796C441.774 46.8173 440.984 50.3324 443.17 52.834C444.03 53.8218 445.314 54.3478 446.696 54.0399C448.36 53.6807 449.658 52.4876 451.138 51.782C452.887 50.9482 455.299 50.4992 456.879 51.8975C458.035 52.9238 458.289 54.4889 458.67 55.8487C459.022 57.0803 459.629 58.4401 460.842 59.1714C461.575 59.6075 462.379 59.646 463.225 59.5947C464.17 59.5306 466.102 59.4792 465.905 60.8263C465.877 61.07 466.3 61.07 466.328 60.8263C466.399 60.3003 466.131 59.8769 465.665 59.569C464.932 59.0816 464.086 59.1585 463.225 59.2098C462.252 59.274 461.42 59.197 460.672 58.5684C459.995 58.0039 459.586 57.2086 459.29 56.426C458.797 55.079 458.656 53.6037 457.809 52.3721C456.977 51.1534 455.539 50.5633 453.987 50.6146C452.027 50.6788 450.377 51.7051 448.811 52.6544C448.064 53.1034 447.26 53.578 446.343 53.7192C445.243 53.8859 444.27 53.4498 443.565 52.7057C442.239 51.2945 442.027 49.2804 441.957 47.5101C441.886 45.8552 442.126 44.0592 441.52 42.4556C440.97 40.9931 439.573 40.0823 437.895 40.0053C435.949 39.9155 434.242 40.9803 433.043 42.2888C432.888 42.4812 433.184 42.7506 433.368 42.5582Z" fill="black"/>
<path d="M398.112 63.5494C401.856 69.8544 405.192 76.3776 408.144 83.0948C408.336 83.5313 408.96 83.1433 408.768 82.7311C405.816 76.0139 402.456 69.4906 398.736 63.1856C398.496 62.7734 397.872 63.1371 398.112 63.5494Z" fill="black"/>
<path d="M398.568 63.2584C404.4 59.5966 410.4 56.1773 416.568 53.0733C416.976 52.8551 416.616 52.2246 416.208 52.4428C410.064 55.5468 404.064 58.9661 398.208 62.6279C397.8 62.8946 398.16 63.5251 398.568 63.2584Z" fill="black"/>
<path d="M416.136 52.7581C419.184 59.2328 422.4 65.6106 425.808 71.8913C426.024 72.3036 426.648 71.9398 426.432 71.5276C423.024 65.2468 419.784 58.8691 416.76 52.3943C416.544 51.9578 415.944 52.3216 416.136 52.7581Z" fill="black"/>
<path d="M408.96 83.2404C414.696 79.7484 420.36 76.1594 425.976 72.4734C426.36 72.2309 426 71.6004 425.616 71.8429C420 75.5289 414.336 79.1179 408.6 82.6099C408.216 82.8524 408.576 83.4829 408.96 83.2404Z" fill="black"/>
<path d="M408.504 61.1244C408.36 65.7804 408.624 70.4121 409.296 75.0196C409.368 75.4804 410.064 75.2863 409.992 74.8256C409.32 70.2908 409.08 65.7076 409.224 61.1244C409.248 60.6636 408.528 60.6636 408.504 61.1244Z" fill="black"/>
<path d="M408.528 60.8818C411.864 63.525 415.2 66.1198 418.584 68.6903C418.944 68.9813 419.304 68.3508 418.944 68.0598C415.608 65.5378 412.296 62.9673 409.032 60.3725C408.672 60.0815 408.168 60.5908 408.528 60.8818Z" fill="black"/>
<path d="M410.04 75.1651C412.8 72.6673 416.4 71.3336 419.016 68.6418C419.352 68.3023 418.824 67.7931 418.512 68.1326C415.896 70.8001 412.32 72.1581 409.536 74.6558C409.176 74.9468 409.704 75.4561 410.04 75.1651Z" fill="black"/>
<path d="M399.072 67.3565C399.84 66.9685 400.608 66.6048 401.376 66.2168C401.784 66.0228 401.424 65.3923 401.016 65.5863C400.248 65.9743 399.48 66.3381 398.712 66.726C398.304 66.9443 398.664 67.5505 399.072 67.3565Z" fill="black"/>
<path d="M401.544 71.4791C402.192 71.0426 402.888 70.6789 403.608 70.3636C404.04 70.1939 403.848 69.4906 403.416 69.6604C402.624 69.9999 401.88 70.3879 401.16 70.8486C400.8 71.1154 401.16 71.7458 401.544 71.4791Z" fill="black"/>
<path d="M404.256 76.2321C404.928 75.8926 405.6 75.5531 406.272 75.2378C406.68 75.0196 406.32 74.4133 405.912 74.6073C405.24 74.9468 404.568 75.2863 403.896 75.6016C403.488 75.7956 403.848 76.4261 404.256 76.2321Z" fill="black"/>
<path d="M405.648 80.985C406.392 80.3303 407.16 79.7725 408.024 79.2875C408.432 79.045 408.072 78.4388 407.664 78.657C406.776 79.1663 405.936 79.7725 405.144 80.4758C404.784 80.791 405.288 81.3003 405.648 80.985Z" fill="black"/>
<path d="M417.504 57.5354C418.056 57.1474 418.632 56.8806 419.28 56.7109C419.736 56.5896 419.544 55.9106 419.088 56.0076C418.392 56.1774 417.72 56.4684 417.12 56.9049C416.76 57.1716 417.12 57.8021 417.504 57.5354Z" fill="black"/>
<path d="M419.64 61.6822C420.408 61.1971 421.176 60.7121 421.92 60.2029C422.304 59.9604 421.944 59.3299 421.56 59.5724C420.792 60.0574 420.024 60.5424 419.28 61.0516C418.872 61.3184 419.232 61.9489 419.64 61.6822Z" fill="black"/>
<path d="M422.088 66.6533C422.904 66.2896 423.744 65.9258 424.56 65.562C424.992 65.368 424.608 64.7375 424.2 64.9315C423.384 65.2953 422.544 65.659 421.728 66.0228C421.296 66.2168 421.68 66.8473 422.088 66.6533Z" fill="black"/>
<path d="M423.84 69.9028C424.488 69.2723 425.208 68.7388 426 68.278C426.408 68.0598 426.048 67.4293 425.64 67.6475C424.8 68.1326 424.032 68.6903 423.336 69.3693C423 69.7088 423.504 70.2181 423.84 69.9028Z" fill="black"/>
<path d="M411 80.0393C411.6 80.9366 412.104 81.8823 412.488 82.8766C412.656 83.3131 413.352 83.1191 413.184 82.6826C412.776 81.6156 412.272 80.5971 411.624 79.6513C411.36 79.2875 410.736 79.6513 411 80.0393Z" fill="black"/>
<path d="M414.672 78.0265C415.128 78.851 415.56 79.6513 416.016 80.4758C416.232 80.888 416.856 80.5243 416.64 80.112C416.184 79.2875 415.752 78.4873 415.296 77.6628C415.08 77.2505 414.456 77.6143 414.672 78.0265Z" fill="black"/>
<path d="M418.92 74.9468C419.4 75.8198 419.88 76.6929 420.36 77.5659C420.576 77.9781 421.2 77.6144 420.984 77.2021C420.504 76.3291 420.024 75.4561 419.544 74.5831C419.328 74.1708 418.704 74.5346 418.92 74.9468Z" fill="black"/>
<path d="M422.736 72.6431C423.12 73.5646 423.504 74.4861 423.912 75.3833C424.104 75.8198 424.704 75.4318 424.536 75.0196C424.152 74.0981 423.768 73.1766 423.36 72.2794C423.168 71.8671 422.544 72.2309 422.736 72.6431Z" fill="black"/>
<path d="M400.968 59.5239C401.424 60.2756 401.856 61.0274 402.312 61.7549C402.552 62.1671 403.176 61.7791 402.936 61.3911C402.48 60.6394 402.048 59.8876 401.592 59.1601C401.352 58.7721 400.728 59.1359 400.968 59.5239Z" fill="black"/>
<path d="M405.096 57.0988C405.528 58.0688 405.96 59.0388 406.392 60.0088C406.584 60.4453 407.208 60.0573 407.016 59.645C406.584 58.675 406.152 57.705 405.72 56.735C405.504 56.2985 404.904 56.6623 405.096 57.0988Z" fill="black"/>
<path d="M408.816 54.7709C409.464 55.6439 409.968 56.5896 410.304 57.6081C410.448 58.0446 411.144 57.8506 411 57.4141C410.64 56.3229 410.136 55.3044 409.44 54.4071C409.176 54.0434 408.552 54.3829 408.816 54.7709Z" fill="black"/>
<path d="M412.824 52.9037C413.328 53.6797 413.808 54.4314 414.312 55.2074C414.552 55.5954 415.176 55.2317 414.936 54.8437C414.432 54.0677 413.952 53.3159 413.448 52.5399C413.184 52.1519 412.56 52.5157 412.824 52.9037Z" fill="black"/>
<path d="M424.727 144.541C422.399 143.813 422.279 141.316 423.383 139.448C424.463 137.63 426.551 137.145 428.183 138.648C429.527 139.909 429.647 142.067 428.399 143.45C427.151 144.856 425.111 144.832 423.671 143.765C423.311 143.474 422.951 144.104 423.311 144.395C425.135 145.753 427.799 145.535 429.167 143.619C430.583 141.679 430.079 138.963 428.087 137.654C423.287 134.526 419.159 143.547 424.535 145.244C424.991 145.39 425.183 144.686 424.727 144.541Z" fill="black"/>
<path d="M428.591 145.171C426.791 145.729 426.359 143.547 427.151 142.383C427.799 141.437 429.071 140.879 430.223 141.194C431.327 141.485 432.119 142.625 431.831 143.765C431.471 145.196 429.983 145.705 428.663 145.487C428.207 145.414 428.015 146.117 428.471 146.19C430.247 146.505 432.167 145.729 432.551 143.789C432.887 142.116 431.591 140.588 429.983 140.394C428.207 140.176 426.263 141.485 426.023 143.328C425.807 144.929 427.247 146.36 428.831 145.85C429.239 145.729 429.047 145.026 428.591 145.171Z" fill="black"/>
<path d="M453.116 32.109C452.763 32.8234 453.263 33.5378 453.997 33.7274C454.556 33.8732 455.144 33.7419 455.717 33.7711C456.334 33.8003 456.951 33.9461 457.51 34.1939C458.744 34.7479 459.538 35.7539 459.582 37.1098C459.626 38.247 459.288 39.428 459.788 40.5069C460.846 42.7813 463.756 41.0463 465.255 42.5188C466.504 43.7581 465.99 46.0179 467.665 46.9656C467.915 47.1114 468.136 46.7323 467.886 46.5865C466.387 45.7409 466.739 43.5394 465.681 42.3147C465.123 41.6732 464.314 41.4983 463.491 41.4399C462.492 41.3816 461.199 41.5857 460.464 40.7401C459.612 39.7487 460.067 38.2616 460.023 37.0952C459.994 36.1767 459.685 35.3457 459.038 34.6896C458.465 34.121 457.716 33.7274 456.937 33.5232C456.54 33.4212 456.128 33.3483 455.717 33.3337C455.188 33.3046 452.895 33.567 453.512 32.3277C453.63 32.0799 453.248 31.8612 453.116 32.109Z" fill="black"/>
<path d="M382.584 152.135C386.928 152.135 391.248 152.135 395.592 152.135C396.048 152.135 396.048 151.407 395.592 151.407C391.248 151.407 386.928 151.407 382.584 151.407C382.104 151.407 382.104 152.135 382.584 152.135Z" fill="black"/>
<path d="M389.592 168.576C397.944 168.576 406.272 168.576 414.624 168.576C415.08 168.576 415.08 167.849 414.624 167.849C406.272 167.849 397.944 167.849 389.592 167.849C389.112 167.849 389.112 168.576 389.592 168.576Z" fill="black"/>
<path d="M413.616 164.017C421.368 164.017 429.144 164.017 436.896 164.017C437.352 164.017 437.352 163.29 436.896 163.29C429.144 163.29 421.368 163.29 413.616 163.29C413.136 163.29 413.136 164.017 413.616 164.017Z" fill="black"/>
<path d="M542.712 162.756C546.624 161.786 550.56 161.689 554.544 162.32C556.224 162.586 557.928 162.853 559.632 162.708C561.288 162.562 562.896 162.053 564.504 161.616C566.328 161.107 568.152 160.719 570.072 160.865C572.04 161.01 573.936 161.568 575.856 162.004C577.512 162.392 579.192 162.659 580.896 162.635C582.696 162.586 584.472 162.271 586.224 162.004C591.024 161.228 595.536 161.713 600.288 162.514C600.744 162.586 600.936 161.883 600.48 161.81C596.64 161.18 592.776 160.525 588.864 160.913C584.784 161.325 580.992 162.344 576.864 161.495C573.408 160.792 570.12 159.701 566.568 160.38C564.672 160.743 562.872 161.422 560.976 161.786C558.864 162.198 556.824 161.956 554.712 161.616C550.608 160.986 546.552 161.034 542.496 162.053C542.088 162.174 542.28 162.877 542.712 162.756Z" fill="black"/>
<path d="M579.576 155.384C587.112 154.972 594.648 154.56 602.184 154.172C605.904 153.978 609.504 154.05 613.2 154.56C614.856 154.778 616.44 154.826 618.096 154.632C619.944 154.414 621.864 154.123 623.592 155.02C624 155.239 624.36 154.608 623.952 154.39C621.024 152.886 617.64 154.293 614.496 154.002C612.624 153.832 610.8 153.468 608.928 153.371C606.984 153.274 605.04 153.323 603.096 153.42C595.248 153.784 587.4 154.269 579.552 154.681C579.12 154.681 579.12 155.408 579.576 155.384Z" fill="black"/>
<path d="M432 176.215C435.552 176.554 439.128 176.894 442.68 176.482C444.336 176.288 445.92 175.924 447.528 175.439C449.616 174.808 451.488 174.639 453.648 175.027C455.304 175.318 456.936 175.73 458.592 175.875C460.344 176.021 462.096 175.924 463.848 175.754C467.52 175.39 471.192 174.76 474.84 175.584C475.296 175.681 475.488 174.978 475.032 174.881C471.528 174.105 468.024 174.614 464.496 174.978C462.744 175.148 460.992 175.318 459.24 175.221C457.248 175.124 455.328 174.59 453.384 174.275C451.752 174.008 450.192 174.008 448.584 174.396C446.856 174.833 445.224 175.415 443.448 175.681C439.656 176.239 435.792 175.851 432 175.512C431.52 175.439 431.544 176.166 432 176.215Z" fill="black"/>
<path d="M588.209 113.462C587.585 113.026 587.513 112.25 587.705 111.571C587.825 111.11 588.401 109.849 588.953 109.8C589.865 109.703 590.321 110.867 590.561 111.546C590.777 112.201 590.849 112.856 590.873 113.535C590.873 113.996 591.593 113.996 591.593 113.535C591.569 112.177 590.681 108.006 588.473 109.218C587.633 109.679 587.009 111.013 586.913 111.934C586.817 112.807 587.153 113.583 587.849 114.093C588.209 114.359 588.569 113.729 588.209 113.462Z" fill="black"/>
<path d="M587.92 113.85C587.056 114.068 586.192 114.287 585.304 114.505C584.8 114.626 583.936 114.675 583.528 115.063C582.832 115.717 583.024 117.73 583.024 118.579C583.024 118.821 583.264 118.991 583.48 118.918C583.6 118.894 583.72 118.846 583.864 118.821C584.488 118.482 584.8 118.7 584.824 119.428C585.304 119.913 585.304 120.204 584.824 120.252C584.536 120.373 584.248 120.422 583.936 120.422C583.744 120.446 583.576 120.567 583.576 120.786C583.624 122.338 583.744 123.865 583.912 125.417C583.96 125.878 584.68 125.878 584.632 125.417C584.464 123.865 584.344 122.338 584.296 120.786C584.176 120.907 584.056 121.028 583.936 121.149C584.944 121.028 586.552 120.616 586.336 119.234C586.096 117.754 584.32 117.924 583.312 118.215C583.456 118.336 583.624 118.458 583.768 118.555C583.768 117.997 583.768 117.463 583.816 116.906C583.888 116.033 583.84 115.717 584.632 115.402C585.712 114.966 586.984 114.82 588.112 114.529C588.568 114.456 588.376 113.753 587.92 113.85Z" fill="black"/>
<path d="M591.376 114.068C592.384 114.02 593.416 114.02 594.424 114.141C595.384 114.262 595.336 114.408 595.48 115.257C595.576 115.79 595.6 116.348 595.648 116.881C595.84 118.967 595.984 121.052 596.104 123.138C596.128 123.599 596.848 123.599 596.824 123.138C596.68 120.301 596.584 117.391 596.128 114.578C596.008 113.874 595.888 113.656 595.168 113.535C593.92 113.292 592.624 113.292 591.376 113.365C590.92 113.365 590.92 114.093 591.376 114.068Z" fill="black"/>
<path d="M584.44 125.927C585.856 125.684 587.272 125.442 588.664 125.199C590.272 124.932 591.808 125.054 593.416 124.932C594.16 124.86 597.688 124.496 596.392 123.017C596.08 122.677 595.576 123.186 595.888 123.526C596.08 123.744 592.816 124.229 592.744 124.229C591.736 124.253 590.728 124.205 589.72 124.326C587.896 124.544 586.072 124.932 584.248 125.248C583.792 125.296 583.984 125.999 584.44 125.927Z" fill="black"/>
<path d="M509.904 168.794C505.344 174.444 500.808 180.07 496.248 185.721C501.6 204.733 504.624 209.728 506.424 209.461C507.72 209.267 508.344 206.43 509.04 203.253C510.768 195.324 509.736 188.509 508.68 184.266C511.56 181.016 514.416 177.742 517.296 174.493C514.824 172.601 512.376 170.71 509.904 168.794Z" fill="#161616" stroke="#161616" stroke-width="2" stroke-miterlimit="10"/>
<path d="M493.08 139.694C495.936 141.925 498.672 141.125 504.336 142.095C509.16 142.919 514.584 144.738 520.344 148.376C514.2 155.651 508.056 163.338 501.96 171.437C500.496 173.402 499.032 175.366 497.616 177.33C499.968 177.888 502.8 178.761 505.872 180.167C508.872 181.525 511.32 183.053 513.264 184.435C522.408 176.384 530.568 168.6 537.84 161.252C541.2 157.857 545.952 152.668 546.696 145.32C546.744 144.908 546.744 144.544 546.744 144.18C546.576 131.983 531.384 123.156 522.144 119.906C512.04 116.366 494.664 114.45 489.816 122.913C486.96 127.909 488.64 136.226 493.08 139.694Z" fill="#7BE495"/>
<path opacity="0.26" d="M510.816 127.496C510.648 129.8 510.24 132.54 509.4 135.572C508.8 137.73 508.08 139.646 507.36 141.27C506.568 141.586 505.8 141.901 505.008 142.216C510.168 144.277 515.352 146.339 520.512 148.4C516.672 152.838 512.808 157.494 508.92 162.344C504.912 167.339 501.096 172.238 497.472 177.063C500.04 177.912 502.584 178.761 505.152 179.585C514.344 169.352 523.536 159.094 532.728 148.861C533.688 146.072 533.64 143.889 533.352 142.362C532.032 134.893 522.984 128.806 510.816 127.496Z" fill="#6D6C6C"/>
<path opacity="0.23" d="M520.464 148.351C521.304 149.637 522.12 150.946 522.96 152.231C515.808 160.937 508.656 169.619 501.504 178.324C500.232 177.985 498.936 177.621 497.664 177.282C502.248 170.928 507.192 164.405 512.544 157.833C515.208 154.559 517.848 151.407 520.464 148.351Z" fill="#6D6C6C"/>
<path d="M496.584 159.579C503.664 160.889 510.768 162.174 517.848 163.484C526.032 181.526 526.944 187.346 525.408 188.34C524.304 189.043 522 187.297 519.432 185.333C513 180.41 509.424 174.542 507.48 170.589C503.208 170.007 498.936 169.401 494.664 168.819C495.288 165.739 495.936 162.659 496.584 159.579Z" fill="#161616" stroke="#161616" stroke-width="2" stroke-miterlimit="10"/>
<path d="M481.992 119.397C469.08 123.229 461.208 131.183 456.144 136.421C449.304 143.526 440.904 152.232 443.328 158.658C444.576 161.932 448.368 163.944 466.032 167.048C479.376 169.401 490.944 170.662 499.968 171.365C501.096 167.194 502.224 163.047 503.328 158.876C494.256 155.918 485.208 152.983 476.136 150.025C481.704 148.837 487.56 147.43 493.656 145.708C498.288 144.399 502.704 143.041 506.904 141.61C510.792 133.68 511.632 125.12 507.576 120.27C501.912 113.48 489.216 117.239 481.992 119.397Z" fill="#7BE495"/>
<path opacity="0.29" d="M510.72 127.788C510.6 130.188 510.192 133.268 509.088 136.663C508.416 138.724 507.648 140.519 506.88 141.998C506.232 142.047 505.584 142.119 504.936 142.168C499.464 143.987 493.632 145.708 487.464 147.309C483.48 148.352 479.592 149.249 475.824 150.073C484.92 152.959 494.016 155.821 503.112 158.706C502.92 159.701 502.68 160.743 502.392 161.835C502.056 163.096 501.672 164.26 501.312 165.327C488.76 162.198 476.208 159.07 463.656 155.942C463.08 155.239 461.184 152.692 461.472 149.322C461.784 145.66 465.24 143.065 469.656 140.689C482.424 133.85 503.832 129.218 510.72 127.788Z" fill="#6D6C6C"/>
<path opacity="0.24" d="M469.368 150.583C471.648 150.413 473.952 150.243 476.232 150.049C485.184 153.056 494.136 156.087 503.088 159.094C502.704 160.525 502.32 161.98 501.936 163.411C491.088 159.119 480.216 154.851 469.368 150.583Z" fill="#6D6C6C"/>
<path d="M478.608 64.4465C482.16 62.3368 488.328 59.3298 496.536 58.4568C509.112 57.123 518.76 61.682 522.576 63.7433C521.88 73.2735 520.8 80.888 519.936 86.126C518.904 92.3825 518.064 95.8503 517.68 101.598C517.2 108.8 517.8 114.717 518.352 118.597C514.176 119.906 507.864 121.337 500.088 121.167C492.6 120.998 486.552 119.349 482.496 117.918C483.576 109.236 483.216 102.349 482.688 97.669C482.088 92.4553 481.272 89.909 480.288 83.604C479.016 75.456 478.68 68.7873 478.608 64.4465Z" fill="white" stroke="#161616" stroke-width="2" stroke-miterlimit="10"/>
<path opacity="0.14" d="M504.576 61.3425C505.08 63.1855 505.656 65.7317 506.04 68.7872C506.304 70.8485 507.384 80.1847 504.024 92.5037C501.96 100.094 499.776 108.121 492.624 114.717C490.32 116.851 488.088 118.281 486.456 119.179C490.08 120.124 494.808 121.022 500.4 121.07C507.72 121.143 513.768 119.809 517.968 118.5C517.728 116.681 517.416 113.941 517.296 110.643C517.2 107.757 517.2 103.149 519.168 90.1757C520.728 79.9665 521.832 75.5772 522.384 66.338C522.456 65.271 522.48 64.3737 522.528 63.7675C520.776 62.7247 518.496 61.585 515.688 60.6635C513.096 59.8147 510.768 59.3782 508.848 59.1842C507.456 59.8875 506.016 60.615 504.576 61.3425Z" fill="#6D6C6C"/>
<path opacity="0.17" d="M521.832 67.7202C520.488 75.4075 518.712 81.6155 517.32 85.932C513.24 98.542 510.384 107.029 502.68 113.237C497.904 117.093 492.936 118.718 489.744 119.494C492.984 120.415 497.568 121.313 503.112 121.191C509.496 121.046 514.656 119.591 518.04 118.354C517.584 115.396 517.056 110.958 517.2 105.55C517.368 98.5419 518.496 94.3224 519.744 86.6352C520.44 82.1247 521.328 75.6742 521.832 67.7202Z" fill="#6D6C6C"/>
<path d="M478.464 64.3252C475.344 66.5077 471.336 69.9512 467.832 75.0679C459.936 86.6594 460.152 98.9542 460.464 103.489C461.904 107.393 464.376 112.51 468.696 117.53C471.216 120.464 474.912 124.683 481.224 127.399C483.336 128.321 485.184 128.83 486.528 129.121C487.68 128.078 488.808 127.036 489.96 125.993C486.264 121.628 482.544 117.045 478.824 112.316C475.968 108.703 473.232 105.114 470.592 101.573C470.688 98.5905 471.312 93.1827 474.528 87.5324C476.352 84.3314 478.488 82.0035 480.192 80.4272C479.616 75.068 479.04 69.7087 478.464 64.3252Z" fill="white" stroke="#161616" stroke-width="2" stroke-miterlimit="10"/>
<path opacity="0.13" d="M478.92 69.7329C472.008 77.6142 468.72 85.0832 467.088 89.7877C464.232 97.9357 464.832 102.204 465.264 104.241C465.624 105.841 466.416 108.581 469.32 112.752C471.84 116.366 477.144 122.84 487.248 128.175C488.136 127.302 489.024 126.454 489.912 125.581C487.056 122.331 484.176 118.912 481.272 115.347C477.456 110.667 473.904 106.059 470.616 101.549C470.712 99.0997 471.12 95.6804 472.536 91.8489C474.672 86.1017 478.032 82.3187 480.12 80.3059C479.688 76.7897 479.304 73.2734 478.92 69.7329Z" fill="#6D6C6C"/>
<path opacity="0.16" d="M470.592 101.864C471.024 104.702 471.912 108.315 473.784 112.219C477.912 120.707 484.368 125.387 487.656 127.424C488.304 126.842 488.928 126.284 489.576 125.702C483.24 117.748 476.928 109.794 470.592 101.864Z" fill="#6D6C6C"/>
<path d="M522.936 63.8888C526.44 66.047 530.952 69.4178 534.864 74.4375C543.744 85.8108 543.48 97.8873 543.144 102.349C541.512 106.181 538.752 111.201 533.904 116.148C531.072 119.009 526.92 123.156 519.84 125.848C517.464 126.745 515.376 127.254 513.864 127.545C512.592 126.527 511.296 125.508 510.024 124.49C514.152 120.197 518.352 115.711 522.528 111.055C525.72 107.49 528.792 103.974 531.768 100.506C531.648 97.5963 530.976 92.2855 527.352 86.708C525.288 83.5555 522.912 81.276 520.992 79.724C521.664 74.4375 522.312 69.1753 522.936 63.8888Z" fill="white" stroke="#161616" stroke-width="2" stroke-miterlimit="10"/>
<path opacity="0.16" d="M522.768 69.7815C525.816 73.0067 529.968 78.172 533.208 85.3742C534.744 88.7935 537.24 94.3468 537.288 99.5848C537.456 115.517 515.136 126.478 513.84 127.109C512.568 126.284 511.32 125.484 510.048 124.659C517.272 116.657 524.472 108.654 531.696 100.652C531.552 98.0327 530.952 93.1585 528.072 87.969C525.696 83.701 522.744 80.9365 520.8 79.4087C521.472 76.2077 522.12 73.0067 522.768 69.7815Z" fill="#6D6C6C"/>
<path opacity="0.12" d="M531.936 100.725C531.576 102.834 530.976 105.138 530.04 107.515C525.816 118.282 517.272 124.174 512.952 126.696C511.92 126.017 510.912 125.338 509.88 124.659C517.224 116.681 524.568 108.703 531.936 100.725Z" fill="#6D6C6C"/>
<path d="M528.456 102.519H469.44V140.276H528.456V102.519Z" fill="white" stroke="#161616" stroke-width="2" stroke-miterlimit="10"/>
<path d="M498.096 124.999C494.976 125.387 493.464 121.555 494.28 119.009C495.072 116.487 498.024 115.299 500.424 116.172C502.8 117.045 503.952 119.979 503.112 122.331C502.176 124.95 498.912 126.017 496.512 124.853C496.104 124.659 495.72 125.29 496.152 125.484C498.288 126.527 500.904 126.139 502.608 124.441C504.264 122.768 504.504 120.125 503.472 118.063C501.12 113.359 493.848 114.862 493.344 120.028C493.08 122.792 495.048 126.114 498.096 125.75C498.552 125.678 498.552 124.95 498.096 124.999Z" fill="#161616"/>
<path opacity="0.14" d="M491.592 102.422C499.584 105.235 505.032 112.437 505.2 120.173C505.416 129.873 497.352 138.991 486.36 139.912C500.352 140.034 514.344 140.155 528.36 140.276C528.312 127.618 528.288 114.959 528.24 102.325C516.024 102.325 503.808 102.373 491.592 102.422Z" fill="#6D6C6C"/>
<path opacity="0.26" d="M528.36 102.301C528.144 110.012 526.632 116.026 525.36 119.979C523.488 125.726 522.144 129.921 518.28 133.632C513.024 138.724 506.472 139.67 503.592 139.912C511.776 139.985 519.96 140.058 528.144 140.155C528.168 132.953 528.216 125.75 528.264 118.524C528.264 113.116 528.312 107.709 528.36 102.301Z" fill="#6D6C6C"/>
<path d="M497.208 44.8768C495.888 46.5015 497.16 48.49 496.92 53.8008C496.8 56.4441 496.368 58.5781 496.032 60.0088C497.16 60.5423 499.152 61.2941 501.72 61.3668C504.888 61.4396 507.288 60.4453 508.464 59.8633C507.936 58.7963 507.24 57.1473 506.808 55.0133C505.728 49.5813 507.648 47.035 506.064 45.0223C504.216 42.6943 498.984 42.67 497.208 44.8768Z" fill="white" stroke="#161616" stroke-width="2" stroke-miterlimit="10"/>
<path d="M488.832 21.5482C487.32 25.4767 487.896 29.0172 488.232 30.5449C488.088 30.5692 485.28 31.1754 484.512 33.3579C483.744 35.5647 485.328 38.6929 488.64 39.7114C489.84 42.6699 492.744 48.3929 498.864 51.5212C499.896 52.0304 500.88 52.4427 501.864 52.7337C502.752 52.3942 503.952 51.8607 505.32 51.0604C509.592 48.5627 511.968 45.4587 512.52 44.7069C513.528 43.3489 514.896 41.1664 515.856 38.1594C516.384 38.2564 517.32 38.3049 518.232 37.8442C520.296 36.7772 521.328 33.4549 519.888 31.2967C518.688 29.5022 516.36 29.4294 516.072 29.4294C516.384 28.1684 517.344 23.6337 514.92 19.1474C512.136 13.9822 506.16 11.2662 500.544 12.0422C492.24 13.1334 488.976 21.1602 488.832 21.5482Z" fill="white" stroke="#161616" stroke-width="2" stroke-miterlimit="10"/>
<path d="M496.896 51.303C498.36 52.176 499.968 53.534 501.768 53.3885C503.256 53.2672 504.912 52.3942 506.04 51.4727C506.4 51.1817 505.896 50.6725 505.536 50.9635C504.48 51.8122 502.776 52.7095 501.384 52.6852C499.92 52.661 498.432 51.4242 497.232 50.6725C496.872 50.43 496.512 51.0605 496.896 51.303Z" fill="#161616"/>
<path d="M496.8 51.6183C498.168 52.8065 499.728 54.1403 501.648 54.0433C503.52 53.9463 505.272 52.6853 506.496 51.3273C506.808 50.9878 506.304 50.4785 505.992 50.818C504.936 51.982 503.448 53.1218 501.816 53.2915C500.016 53.4613 498.576 52.2245 497.304 51.109C496.968 50.7938 496.464 51.303 496.8 51.6183Z" fill="#161616"/>
<path d="M497.712 51.7638C497.712 51.7395 497.712 51.7395 497.712 51.7638C497.568 51.5455 497.304 51.4971 497.136 51.6668C497.136 51.6668 497.136 51.6668 497.112 51.6911C496.968 51.8123 496.968 52.079 497.112 52.2003C499.752 54.7465 504.6 55.5711 506.496 51.6668C506.688 51.2546 506.088 50.8666 505.872 51.3031C504.192 54.7951 499.944 53.9463 497.64 51.6911C497.64 51.8608 497.64 52.0305 497.64 52.2003C497.64 52.2003 497.64 52.2003 497.664 52.1761C497.472 52.1518 497.28 52.1275 497.088 52.1033V52.1275C497.328 52.5155 497.952 52.1518 497.712 51.7638Z" fill="#161616"/>
<path d="M500.592 29.3325C500.28 33.261 500.448 37.1653 501.072 41.0453C501.096 41.2393 501.336 41.3605 501.504 41.2878C502.44 40.9725 503.112 40.4148 503.616 39.566C503.856 39.1538 503.232 38.79 502.992 39.2023C502.584 39.9055 502.08 40.3178 501.312 40.5845C501.456 40.6573 501.6 40.7543 501.744 40.827C501.12 37.0198 500.976 33.164 501.288 29.3083C501.36 28.8475 500.64 28.8475 500.592 29.3325Z" fill="#161616"/>
<path d="M496.32 33.1882C496.368 33.4065 496.728 34.7645 496.32 34.9827C495.912 35.201 494.76 34.328 494.4 33.1882C494.112 32.2182 494.352 31.0057 494.808 30.9087C495.288 30.7875 496.032 32.1212 496.32 33.1882Z" fill="#161616" stroke="#161616" stroke-miterlimit="10"/>
<path d="M508.704 33.1882C508.752 33.4065 509.112 34.7645 508.704 34.9827C508.296 35.201 507.144 34.328 506.784 33.1882C506.496 32.2182 506.736 31.0057 507.192 30.9087C507.672 30.7875 508.416 32.1212 508.704 33.1882Z" fill="#161616" stroke="#161616" stroke-miterlimit="10"/>
<path d="M499.728 44.2462C502.656 45.5072 505.32 43.737 507.48 41.8212C507.84 41.506 507.312 40.9967 506.976 41.312C505.104 42.961 502.704 44.7312 500.112 43.6157C499.656 43.446 499.296 44.0765 499.728 44.2462Z" fill="#161616"/>
<path d="M508.176 37.0441C508.632 37.0441 508.632 36.3165 508.176 36.3165C507.72 36.3165 507.72 37.0441 508.176 37.0441Z" fill="#161616"/>
<path d="M510.84 35.686C510.864 35.6618 510.888 35.6375 510.912 35.6133C511.056 35.4678 511.056 35.2495 510.912 35.104C510.768 34.9585 510.552 34.9585 510.408 35.104C510.384 35.1282 510.36 35.1525 510.336 35.1768C510.192 35.3223 510.192 35.5405 510.336 35.686C510.48 35.8315 510.696 35.8315 510.84 35.686Z" fill="#161616"/>
<path d="M510.048 37.4563C510.072 37.4563 510.096 37.4563 510.12 37.4563C510.312 37.4563 510.48 37.2865 510.48 37.0925C510.48 36.8985 510.312 36.7288 510.12 36.7288C510.096 36.7288 510.072 36.7288 510.048 36.7288C509.856 36.7288 509.688 36.8985 509.688 37.0925C509.688 37.2865 509.832 37.4563 510.048 37.4563Z" fill="#161616"/>
<path d="M493.488 28.8475C494.4 28.0715 495.744 28.0473 496.656 28.799C497.016 29.09 497.52 28.5808 497.16 28.2898C495.912 27.2713 494.184 27.2713 492.96 28.3383C492.624 28.6293 493.152 29.1385 493.488 28.8475Z" fill="#161616"/>
<path d="M505.2 28.5808C506.232 27.6593 507.696 27.4895 508.92 28.1443C509.328 28.3625 509.688 27.732 509.28 27.5138C507.768 26.6893 505.968 26.9075 504.696 28.0715C504.336 28.3868 504.84 28.896 505.2 28.5808Z" fill="#161616"/>
<path d="M493.68 36.9713C494.136 36.9713 494.136 36.2438 493.68 36.2438C493.224 36.2438 493.224 36.9713 493.68 36.9713Z" fill="#161616"/>
<path d="M496.224 36.6317C496.68 36.6317 496.68 35.9043 496.224 35.9043C495.768 35.9043 495.768 36.6317 496.224 36.6317Z" fill="#161616"/>
<path d="M494.952 37.1894C494.928 37.2137 494.904 37.238 494.88 37.2622C494.736 37.4077 494.736 37.6259 494.88 37.7714C495.024 37.9169 495.24 37.9169 495.384 37.7714C495.408 37.7472 495.432 37.7229 495.456 37.6987C495.6 37.5532 495.6 37.3349 495.456 37.1894C495.312 37.0439 495.096 37.0439 494.952 37.1894Z" fill="#161616"/>
<path d="M492.744 13.667C491.304 14.5642 488.16 16.5285 486.024 20.554C483.888 24.5552 483.912 28.3382 484.008 29.963C480.504 36.3407 478.92 41.9667 478.152 45.7982C476.904 51.885 477.576 54.116 478.44 55.5952C480.552 59.2328 484.8 60.13 485.832 60.3483C491.136 61.488 495.36 58.7478 496.32 58.1173C496.584 57.317 496.848 56.3228 496.992 55.2073C497.256 53.2915 497.112 51.6425 496.896 50.4543C495.696 49.46 494.304 48.1262 492.96 46.3802C490.92 43.7127 489.768 41.0938 489.12 39.2023C487.008 38.984 485.424 37.529 485.28 35.9042C485.136 34.3765 486.192 32.4122 487.584 32.4122C488.616 32.4122 489.36 33.4792 489.504 33.6732C490.296 33.2125 491.4 32.4122 492.384 31.1512C493.8 29.3325 494.04 27.7077 494.688 26.0102C495.312 24.3612 496.512 22.0817 499.104 19.7052C501.6 20.6025 503.592 21.4755 504.96 22.1302C509.352 24.1915 511.848 25.404 513.792 28.0472C514.872 29.5022 515.424 30.933 515.712 31.8302C517.944 30.1085 518.856 30.5692 519.048 30.6662C520.464 31.4665 520.416 35.8557 518.208 37.0682C517.368 37.529 516.408 37.4078 515.808 37.2623C515.112 39.7115 513.576 43.7127 510.048 47.2532C508.872 48.4415 507.672 49.363 506.592 50.0662C506.496 50.9635 506.448 52.2002 506.688 53.6552C506.904 54.989 507.288 56.0803 507.648 56.8563C513.48 60.7363 520.728 60.033 524.664 55.862C528.168 52.1275 528.168 46.4772 526.848 42.6215C525.648 39.1052 523.32 36.9955 522.168 36.074C522.48 34.716 524.208 26.665 519.192 19.2687C517.896 17.353 514.272 12.7212 507.744 11.1207C500.832 9.42326 495.144 12.1877 492.744 13.667Z" fill="black"/>
<path opacity="0.17" d="M507.96 23.6338C510.672 27.0773 511.392 30.254 511.632 31.903C512.616 38.8385 508.632 44.4645 506.616 47.3503C504.96 49.7025 503.256 51.3758 502.032 52.467C503.088 55.3285 504.12 58.1658 505.176 61.0273C506.256 60.6635 507.336 60.2998 508.416 59.936C507.912 59.0388 507.384 57.9233 506.976 56.5653C506.232 54.1403 506.184 52.0063 506.256 50.5513C507.576 49.6055 509.112 48.3203 510.6 46.6228C513.576 43.2278 515.064 39.7358 515.832 37.3835C516.312 37.4805 517.344 37.6018 518.328 37.044C520.392 35.8558 520.056 32.8973 520.032 32.7033C519.96 32.0728 519.816 31.0543 519.096 30.642C518.256 30.1813 516.864 30.6178 515.76 31.9273C515.424 30.739 514.464 27.9988 511.872 25.8163C510.432 24.6038 508.968 23.9733 507.96 23.6338Z" fill="#6D6C6C"/>
<path opacity="0.19" d="M500.928 29.5507C500.784 29.5265 500.304 31.6362 498.84 40.9482C499.68 40.9482 500.52 40.9482 501.36 40.9482C501.192 39.7115 501 37.917 500.904 35.7345C500.784 32 501.072 29.575 500.928 29.5507Z" fill="#6D6C6C"/>
<path opacity="0.54" d="M522.024 36.3165C521.616 36.559 523.152 38.6445 522.936 41.7485C522.864 42.7185 522.72 44.9253 520.992 46.4045C520.872 46.5015 518.304 48.6355 515.76 47.2775C514.248 46.4773 513.336 44.7798 513.384 42.9368C512.664 44.2948 511.488 46.0893 509.64 47.8353C508.488 48.9265 507.36 49.7268 506.376 50.333C506.304 51.4 506.304 52.855 506.688 54.504C506.904 55.4013 507.168 56.1773 507.432 56.8078C508.176 57.2928 509.28 57.9475 510.72 58.4568C511.632 58.772 516.648 60.5423 521.544 58.093C522.408 57.6565 524.328 56.6623 525.72 54.5283C525.888 54.2615 526.512 53.3158 526.968 51.7153C528.6 46.2348 526.2 41.2878 525.984 40.8755C524.664 38.1838 522.528 36.0255 522.024 36.3165Z" fill="#3D3D3D"/>
<path opacity="0.35" d="M489.096 39.2992C488.88 39.3235 489.36 41.312 488.832 43.2762C488.448 44.7312 487.224 47.1077 485.136 47.5927C482.952 48.0777 480.24 46.453 478.992 43.4217C478.416 44.7555 477.648 46.8895 477.528 49.6055C477.456 51.3757 477.36 53.2672 478.224 55.1345C480.168 59.3055 485.88 60.9303 490.128 60.5423C492.96 60.2755 495.096 59.16 496.248 58.4083C496.536 57.5837 496.824 56.5895 497.016 55.4498C497.328 53.4855 497.256 51.7637 497.088 50.5027C495.192 49.1205 493.896 47.6897 493.08 46.647C491.928 45.1677 490.368 43.1792 489.576 40.4147C489.456 40.0995 489.24 39.275 489.096 39.2992Z" fill="#3D3D3D"/>
<path d="M381.149 176.728C372.898 176.728 364.622 176.728 356.371 176.728C355.876 176.728 355.876 176 356.371 176C364.622 176 372.898 176 381.149 176C381.644 176 381.644 176.728 381.149 176.728Z" fill="black"/>
<path d="M360.814 163.727C370.636 163.727 380.404 163.727 390.227 163.727C391.258 163.727 391.258 163 390.227 163C380.404 163 370.636 163 360.814 163C359.729 163 359.729 163.727 360.814 163.727Z" fill="black"/>
<path d="M629.95 174.127C626.098 174.467 622.22 174.806 618.368 174.394C616.572 174.2 614.854 173.836 613.111 173.351C610.846 172.721 608.816 172.551 606.473 172.939C604.678 173.23 602.908 173.642 601.112 173.788C599.212 173.933 597.312 173.836 595.412 173.666C591.43 173.303 587.447 172.672 583.491 173.497C582.997 173.594 582.788 172.89 583.283 172.793C587.083 172.017 590.883 172.527 594.709 172.89C596.609 173.06 598.509 173.23 600.409 173.133C602.569 173.036 604.652 172.502 606.76 172.187C608.53 171.92 610.221 171.92 611.965 172.308C613.839 172.745 615.609 173.327 617.535 173.594C621.648 174.151 625.838 173.763 629.95 173.424C630.471 173.351 630.445 174.079 629.95 174.127Z" fill="black"/>
<path d="M662.441 161.591C666.353 160.621 670.289 160.524 674.273 161.154C675.953 161.421 677.657 161.688 679.361 161.542C681.017 161.397 682.625 160.887 684.233 160.451C686.057 159.942 687.881 159.554 689.801 159.699C691.769 159.845 693.665 160.402 695.585 160.839C697.241 161.227 698.921 161.494 700.625 161.469C702.425 161.421 704.201 161.106 705.953 160.839C710.753 160.063 715.265 160.548 720.017 161.348C720.473 161.421 720.665 160.718 720.209 160.645C716.369 160.014 712.505 159.36 708.593 159.748C704.513 160.16 700.721 161.178 696.593 160.33C693.137 159.626 689.849 158.535 686.297 159.214C684.401 159.578 682.601 160.257 680.705 160.621C678.593 161.033 676.553 160.79 674.441 160.451C670.337 159.82 666.281 159.869 662.225 160.887C661.817 161.009 662.009 161.712 662.441 161.591Z" fill="black"/>
<path d="M0.341999 168.727C0.653998 168.727 0.941995 168.727 1.25399 168.727C1.70999 168.727 1.70999 168 1.25399 168C0.941995 168 0.653998 168 0.341999 168C-0.114 168 -0.114 168.727 0.341999 168.727Z" fill="black"/>
<path d="M104.342 163.728C111.95 163.728 119.582 163.728 127.19 163.728C127.646 163.728 127.646 163 127.19 163C119.582 163 111.95 163 104.342 163C103.886 163 103.886 163.728 104.342 163.728Z" fill="black"/>
<path d="M146.718 169.795C151.254 169.795 155.766 169.795 160.302 169.795C160.758 169.795 160.758 169.067 160.302 169.067C155.766 169.067 151.254 169.067 146.718 169.067C146.262 169.067 146.262 169.795 146.718 169.795Z" fill="black"/>
<path d="M187.342 168.727C206.902 168.727 226.462 168.727 246.022 168.727C251.59 168.727 257.158 168.727 262.726 168.727C263.182 168.727 263.182 168 262.726 168C243.166 168 223.606 168 204.046 168C198.478 168 192.91 168 187.342 168C186.886 168 186.886 168.727 187.342 168.727Z" fill="black"/>
<path d="M676.342 140.727C676.654 140.727 676.942 140.727 677.254 140.727C677.71 140.727 677.71 140 677.254 140C676.942 140 676.654 140 676.342 140C675.886 140 675.886 140.727 676.342 140.727Z" fill="black"/>
<path d="M693.934 146.596C701.542 146.596 709.174 146.596 716.782 146.596C717.238 146.596 717.238 145.869 716.782 145.869C709.174 145.869 701.542 145.869 693.934 145.869C693.478 145.869 693.478 146.596 693.934 146.596Z" fill="black"/>
<path d="M822.718 141.795C827.254 141.795 831.766 141.795 836.302 141.795C836.758 141.795 836.758 141.067 836.302 141.067C831.766 141.067 827.254 141.067 822.718 141.067C822.262 141.067 822.262 141.795 822.718 141.795Z" fill="black"/>
<path d="M731.342 148.727C750.902 148.727 770.462 148.727 790.022 148.727C795.59 148.727 801.158 148.727 806.726 148.727C807.182 148.727 807.182 148 806.726 148C787.166 148 767.606 148 748.046 148C742.478 148 736.91 148 731.342 148C730.886 148 730.886 148.727 731.342 148.727Z" fill="black"/>
<path d="M184.424 62.125C187.42 62.125 189.848 59.4107 189.848 56.0625C189.848 52.7143 187.42 50 184.424 50C181.428 50 179 52.7143 179 56.0625C179 59.4107 181.428 62.125 184.424 62.125Z" fill="black"/>
<path d="M116.368 90.5782C118.025 90.5782 119.368 89.2211 119.368 87.547C119.368 85.8729 118.025 84.5157 116.368 84.5157C114.711 84.5157 113.368 85.8729 113.368 87.547C113.368 89.2211 114.711 90.5782 116.368 90.5782Z" fill="black"/>
<path d="M110.776 15.1365C113.414 15.1365 115.552 12.8674 115.552 10.0683C115.552 7.26913 113.414 5 110.776 5C108.138 5 106 7.26913 106 10.0683C106 12.8674 108.138 15.1365 110.776 15.1365Z" fill="#7BE495"/>
<path d="M238.216 108.087C239.846 108.087 241.168 106.697 241.168 104.983C241.168 103.268 239.846 101.879 238.216 101.879C236.586 101.879 235.264 103.268 235.264 104.983C235.264 106.697 236.586 108.087 238.216 108.087Z" fill="#7BE495"/>
<path d="M277.672 22.4842C279.462 22.4842 280.912 20.9208 280.912 18.9922C280.912 17.0637 279.462 15.5002 277.672 15.5002C275.883 15.5002 274.432 17.0637 274.432 18.9922C274.432 20.9208 275.883 22.4842 277.672 22.4842Z" fill="#7BE495"/>
<path d="M756.424 66.125C759.42 66.125 761.848 63.4107 761.848 60.0625C761.848 56.7143 759.42 54 756.424 54C753.428 54 751 56.7143 751 60.0625C751 63.4107 753.428 66.125 756.424 66.125Z" fill="black"/>
<path d="M877.032 74.857C879.259 74.857 881.064 73.0981 881.064 70.9285C881.064 68.7588 879.259 67 877.032 67C874.805 67 873 68.7588 873 70.9285C873 73.0981 874.805 74.857 877.032 74.857Z" fill="black"/>
<path d="M699.368 100.578C701.025 100.578 702.368 99.2211 702.368 97.547C702.368 95.8729 701.025 94.5157 699.368 94.5157C697.711 94.5157 696.368 95.8729 696.368 97.547C696.368 99.2211 697.711 100.578 699.368 100.578Z" fill="black"/>
<path d="M693.776 25.1365C696.414 25.1365 698.552 22.8674 698.552 20.0683C698.552 17.2691 696.414 15 693.776 15C691.138 15 689 17.2691 689 20.0683C689 22.8674 691.138 25.1365 693.776 25.1365Z" fill="#7BE495"/>
<path d="M821.216 118.087C822.846 118.087 824.168 116.697 824.168 114.983C824.168 113.268 822.846 111.879 821.216 111.879C819.585 111.879 818.264 113.268 818.264 114.983C818.264 116.697 819.585 118.087 821.216 118.087Z" fill="#7BE495"/>
<path d="M860.672 32.4842C862.462 32.4842 863.912 30.9208 863.912 28.9922C863.912 27.0637 862.462 25.5002 860.672 25.5002C858.883 25.5002 857.432 27.0637 857.432 28.9922C857.432 30.9208 858.883 32.4842 860.672 32.4842Z" fill="#7BE495"/>
<path d="M79.342 150.727C98.902 150.727 118.462 150.727 138.022 150.727C143.59 150.727 149.158 150.727 154.726 150.727C155.182 150.727 155.182 150 154.726 150C135.166 150 115.606 150 96.046 150C90.478 150 84.91 150 79.342 150C78.886 150 78.886 150.727 79.342 150.727Z" fill="black"/>
<path d="M917.156 149.591C913.302 148.621 909.426 148.524 905.502 149.154C903.847 149.421 902.168 149.688 900.49 149.542C898.859 149.397 897.275 148.887 895.691 148.451C893.895 147.942 892.098 147.554 890.207 147.699C888.269 147.845 886.401 148.402 884.51 148.839C882.879 149.227 881.224 149.494 879.546 149.469C877.773 149.421 876.024 149.106 874.298 148.839C869.57 148.063 865.126 148.548 860.446 149.348C859.997 149.421 859.807 148.718 860.257 148.645C864.039 148.014 867.845 147.36 871.698 147.748C875.716 148.16 879.451 149.178 883.517 148.33C886.921 147.626 890.16 146.535 893.658 147.214C895.526 147.578 897.299 148.257 899.166 148.621C901.246 149.033 903.256 148.79 905.336 148.451C909.378 147.82 913.373 147.869 917.368 148.887C917.77 149.009 917.581 149.712 917.156 149.591Z" fill="black"/>
<path d="M957.885 168.066C950.463 167.653 943.04 167.241 935.617 166.853C931.953 166.659 928.407 166.732 924.767 167.241C923.136 167.459 921.576 167.508 919.945 167.314C918.125 167.096 916.233 166.805 914.531 167.702C914.13 167.92 913.775 167.29 914.177 167.071C917.061 165.568 920.394 166.974 923.491 166.683C925.334 166.514 927.131 166.15 928.975 166.053C930.89 165.956 932.804 166.004 934.719 166.101C942.449 166.465 950.179 166.95 957.909 167.362C958.334 167.362 958.334 168.09 957.885 168.066Z" fill="black"/>
<path d="M881.634 155.728C889.76 155.728 897.913 155.728 906.039 155.728C906.526 155.728 906.526 155 906.039 155C897.913 155 889.76 155 881.634 155C881.147 155 881.147 155.728 881.634 155.728Z" fill="black"/>
<path d="M847.385 159.727C852.025 159.727 856.639 159.727 861.279 159.727C861.766 159.727 861.766 159 861.279 159C856.639 159 852.025 159 847.385 159C846.872 159 846.872 159.727 847.385 159.727Z" fill="black"/>
<path d="M852.87 173.406C861.792 173.406 870.687 173.406 879.609 173.406C880.096 173.406 880.096 172.678 879.609 172.678C870.687 172.678 861.792 172.678 852.87 172.678C852.358 172.678 852.358 173.406 852.87 173.406Z" fill="black"/>
<path d="M923.12 155.727C931.401 155.727 939.707 155.727 947.987 155.727C948.474 155.727 948.474 155 947.987 155C939.707 155 931.401 155 923.12 155C922.608 155 922.608 155.727 923.12 155.727Z" fill="black"/>
</g>
<defs>
<clipPath id="clip0">
<rect width="959" height="211" fill="white"/>
</clipPath>
</defs>
</svg>
