<svg width="94" height="15" viewBox="0 0 94 15" fill="none" xmlns="http://www.w3.org/2000/svg">
<path d="M7.90123 0.321083L9.9045 4.61834L14.3854 5.30836C14.4829 5.32059 14.5755 5.36315 14.6528 5.43126C14.73 5.49936 14.7888 5.59031 14.8225 5.69388C14.8532 5.79494 14.8566 5.9039 14.8325 6.00716C14.8084 6.11043 14.7578 6.20345 14.687 6.27463L11.4378 9.61298L12.2029 14.3351C12.2186 14.4414 12.2063 14.5507 12.1675 14.6493C12.1286 14.7479 12.0649 14.8316 11.9843 14.89C11.902 14.9524 11.8065 14.9893 11.7075 14.9968C11.6084 15.0043 11.5094 14.9823 11.4203 14.933L7.42036 12.707L3.41491 14.9354C3.32576 14.9845 3.22668 15.0062 3.12766 14.9985C3.02864 14.9907 2.9332 14.9537 2.85098 14.8912C2.77041 14.8327 2.70682 14.749 2.66799 14.6504C2.62916 14.5518 2.61679 14.4427 2.6324 14.3363L3.39742 9.61667L0.161369 6.27708C0.0905411 6.20591 0.0399239 6.11289 0.0158257 6.00962C-0.00827249 5.90635 -0.00478605 5.7974 0.0258505 5.69634C0.0595965 5.59277 0.118385 5.50182 0.19561 5.43371C0.272835 5.36561 0.365436 5.32305 0.463007 5.31081L4.94387 4.61711L6.93949 0.322311C6.98631 0.224854 7.05573 0.143442 7.14038 0.0866999C7.22504 0.0299581 7.32178 0 7.42036 0C7.51894 0 7.61568 0.0299581 7.70034 0.0866999C7.78499 0.143442 7.85441 0.224854 7.90123 0.322311V0.321083Z" fill="#205072"/>
<path d="M27.6891 0.321083L29.6924 4.61834L34.1733 5.30836C34.2708 5.32059 34.3634 5.36315 34.4407 5.43126C34.5179 5.49936 34.5767 5.59031 34.6104 5.69388C34.6411 5.79494 34.6446 5.9039 34.6205 6.00716C34.5964 6.11043 34.5457 6.20345 34.4749 6.27463L31.2257 9.61298L31.9908 14.3351C32.0065 14.4414 31.9942 14.5507 31.9554 14.6493C31.9165 14.7479 31.8529 14.8316 31.7722 14.89C31.6899 14.9524 31.5944 14.9893 31.4954 14.9968C31.3963 15.0043 31.2973 14.9823 31.2083 14.933L27.2083 12.707L23.2028 14.9354C23.1137 14.9845 23.0146 15.0062 22.9156 14.9985C22.8165 14.9907 22.7211 14.9537 22.6389 14.8912C22.5583 14.8327 22.4947 14.749 22.4559 14.6504C22.4171 14.5518 22.4047 14.4427 22.4203 14.3363L23.1853 9.61667L19.9493 6.27708C19.8785 6.20591 19.8278 6.11289 19.8037 6.00962C19.7796 5.90635 19.7831 5.7974 19.8138 5.69634C19.8475 5.59277 19.9063 5.50182 19.9835 5.43371C20.0607 5.36561 20.1533 5.32305 20.2509 5.31081L24.7318 4.61711L26.7274 0.322311C26.7742 0.224854 26.8436 0.143442 26.9283 0.0866999C27.0129 0.0299581 27.1097 0 27.2083 0C27.3068 0 27.4036 0.0299581 27.4882 0.0866999C27.5729 0.143442 27.6423 0.224854 27.6891 0.322311V0.321083Z" fill="#205072"/>
<path d="M47.477 0.321083L49.4803 4.61834L53.9612 5.30836C54.0587 5.32059 54.1513 5.36315 54.2286 5.43126C54.3058 5.49936 54.3646 5.59031 54.3983 5.69388C54.429 5.79494 54.4324 5.9039 54.4083 6.00716C54.3842 6.11043 54.3336 6.20345 54.2628 6.27463L51.0136 9.61298L51.7787 14.3351C51.7944 14.4414 51.7821 14.5507 51.7433 14.6493C51.7044 14.7479 51.6407 14.8316 51.5601 14.89C51.4778 14.9524 51.3823 14.9893 51.2833 14.9968C51.1842 15.0043 51.0852 14.9823 50.9961 14.933L46.9962 12.707L42.9907 14.9354C42.9016 14.9845 42.8025 15.0062 42.7035 14.9985C42.6044 14.9907 42.509 14.9537 42.4268 14.8912C42.3462 14.8327 42.2826 14.749 42.2438 14.6504C42.205 14.5518 42.1926 14.4427 42.2082 14.3363L42.9732 9.61667L39.7372 6.27708C39.6663 6.20591 39.6157 6.11289 39.5916 6.00962C39.5675 5.90635 39.571 5.7974 39.6017 5.69634C39.6354 5.59277 39.6942 5.50182 39.7714 5.43371C39.8486 5.36561 39.9412 5.32305 40.0388 5.31081L44.5197 4.61711L46.5153 0.322311C46.5621 0.224854 46.6315 0.143442 46.7162 0.0866999C46.8008 0.0299581 46.8976 0 46.9962 0C47.0947 0 47.1915 0.0299581 47.2761 0.0866999C47.3608 0.143442 47.4302 0.224854 47.477 0.322311V0.321083Z" fill="#205072"/>
<path d="M86.5718 2.38549L85.2209 5.28268L84.9152 5.93813L84.2628 6.03914L81.4041 6.48175L83.4187 8.55821L83.9387 9.09416L83.8123 9.87412L83.3197 12.9125L86.0046 11.419L86.5718 11.1036L87.139 11.4188L89.8238 12.9111L89.3311 9.86987L89.2047 9.08999L89.7246 8.55411L91.7382 6.47873L88.8814 6.03859L88.2283 5.93797L87.9224 5.28199L86.5718 2.38549ZM86.5718 0.00482178C86.7756 0.00482178 86.9618 0.127069 87.0524 0.320376L89.0551 4.6154L93.5333 5.30533C93.7351 5.33614 93.9028 5.48565 93.9658 5.69091C94.0289 5.89617 93.9763 6.12152 93.8302 6.27206L90.5891 9.61262L91.3541 14.3344C91.3885 14.5472 91.3059 14.7622 91.1409 14.8891C91.0476 14.9609 90.937 14.9974 90.826 14.9974C90.7407 14.9974 90.6552 14.9759 90.5768 14.9323L86.572 12.7064L82.5665 14.9344C82.4883 14.9776 82.403 14.9989 82.3181 14.9989C82.2068 14.9989 82.096 14.9623 82.0025 14.8903C81.8377 14.7634 81.755 14.5485 81.7892 14.3358L82.5543 9.61672L79.3132 6.27614C79.1671 6.12561 79.1144 5.90026 79.1775 5.69499C79.2405 5.48973 79.4082 5.34023 79.61 5.30942L84.0882 4.61609L86.0909 0.321064C86.1813 0.127516 86.3675 0.00496931 86.5715 0.00482295C86.5716 0.00482295 86.5717 0.00482178 86.5718 0.00482178Z" fill="#205072"/>
<path d="M66.9012 0.321083L68.9045 4.61834L73.3854 5.30836C73.4829 5.32059 73.5755 5.36315 73.6528 5.43126C73.73 5.49936 73.7888 5.59031 73.8225 5.69388C73.8532 5.79494 73.8566 5.9039 73.8325 6.00716C73.8084 6.11043 73.7578 6.20345 73.687 6.27463L70.4378 9.61298L71.2029 14.3351C71.2186 14.4414 71.2063 14.5507 71.1675 14.6493C71.1286 14.7479 71.0649 14.8316 70.9843 14.89C70.902 14.9524 70.8065 14.9893 70.7075 14.9968C70.6084 15.0043 70.5094 14.9823 70.4203 14.933L66.4204 12.707L62.4149 14.9354C62.3258 14.9845 62.2267 15.0062 62.1277 14.9985C62.0286 14.9907 61.9332 14.9537 61.851 14.8912C61.7704 14.8327 61.7068 14.749 61.668 14.6504C61.6292 14.5518 61.6168 14.4427 61.6324 14.3363L62.3974 9.61667L59.1614 6.27708C59.0905 6.20591 59.0399 6.11289 59.0158 6.00962C58.9917 5.90635 58.9952 5.7974 59.0259 5.69634C59.0596 5.59277 59.1184 5.50182 59.1956 5.43371C59.2728 5.36561 59.3654 5.32305 59.463 5.31081L63.9439 4.61711L65.9395 0.322311C65.9863 0.224854 66.0557 0.143442 66.1404 0.0866999C66.225 0.0299581 66.3218 0 66.4204 0C66.5189 0 66.6157 0.0299581 66.7003 0.0866999C66.785 0.143442 66.8544 0.224854 66.9012 0.322311V0.321083Z" fill="#205072"/>
</svg>
