<svg width="40" height="47" viewBox="0 0 40 47" fill="none" xmlns="http://www.w3.org/2000/svg">
<path d="M39.09 11.7155L39.0901 11.7156C39.285 11.8917 39.4047 12.14 39.4047 12.3926V42.8691C39.4047 44.8889 37.5725 46.6 35.2344 46.6H4.76563C2.42749 46.6 0.595337 44.8889 0.595337 42.8691V4.13088C0.595337 2.11112 2.42749 0.400024 4.76563 0.400024H26.0938C26.3954 0.400024 26.6926 0.510105 26.9029 0.700174V0.70022L39.09 11.7155ZM27.8854 4.40446L27.2172 3.8005V4.70121V9.63869C27.2172 10.6559 28.1187 11.4156 29.1406 11.4156H34.6034H35.6425L34.8716 10.7189L27.8854 4.40446ZM24.9703 2.75393V2.35393H24.5703H4.76563C3.74372 2.35393 2.84222 3.11363 2.84222 4.13088V42.8691C2.84222 43.8864 3.74372 44.6461 4.76563 44.6461H35.2344C36.2563 44.6461 37.1578 43.8864 37.1578 42.8691V13.7695V13.3695H36.7578H29.1406C26.8025 13.3695 24.9703 11.6584 24.9703 9.63869V2.75393Z" fill="#205072" stroke="white" stroke-width="0.8"/>
<path d="M29.1406 22.2148H13.9062C13.0649 22.2148 12.3828 22.8314 12.3828 23.5918C12.3828 24.3522 13.0649 24.9688 13.9062 24.9688H29.1406C29.982 24.9688 30.6641 24.3522 30.6641 23.5918C30.6641 22.8314 29.982 22.2148 29.1406 22.2148Z" fill="#205072"/>
<path d="M29.1406 27.7228H13.9062C13.0649 27.7228 12.3828 28.3393 12.3828 29.0997C12.3828 29.8602 13.0649 30.4767 13.9062 30.4767H29.1406C29.982 30.4767 30.6641 29.8602 30.6641 29.0997C30.6641 28.3393 29.982 27.7228 29.1406 27.7228Z" fill="#205072"/>
<path d="M29.1406 33.2305H13.9062C13.0649 33.2305 12.3828 33.847 12.3828 34.6074C12.3828 35.3679 13.0649 35.9844 13.9062 35.9844H29.1406C29.982 35.9844 30.6641 35.3679 30.6641 34.6074C30.6641 33.847 29.982 33.2305 29.1406 33.2305Z" fill="#205072"/>
<path d="M7.81258 24.9688C8.65398 24.9688 9.33599 24.3523 9.33599 23.5918C9.33599 22.8313 8.65398 22.2148 7.81258 22.2148C6.97118 22.2148 6.28918 22.8313 6.28918 23.5918C6.28918 24.3523 6.97118 24.9688 7.81258 24.9688Z" fill="#205072"/>
<path d="M7.81258 30.4767C8.65398 30.4767 9.33599 29.8602 9.33599 29.0997C9.33599 28.3392 8.65398 27.7228 7.81258 27.7228C6.97118 27.7228 6.28918 28.3392 6.28918 29.0997C6.28918 29.8602 6.97118 30.4767 7.81258 30.4767Z" fill="#205072"/>
<path d="M7.81258 35.9844C8.65398 35.9844 9.33599 35.3679 9.33599 34.6074C9.33599 33.847 8.65398 33.2305 7.81258 33.2305C6.97118 33.2305 6.28918 33.847 6.28918 34.6074C6.28918 35.3679 6.97118 35.9844 7.81258 35.9844Z" fill="#205072"/>
<path d="M8.0111 6L8 13.5" stroke="#205072" stroke-width="3" stroke-miterlimit="10" stroke-linecap="round" stroke-linejoin="round"/>
<path d="M13.6764 6.0188L13.6653 13.5188" stroke="#205072" stroke-width="3" stroke-miterlimit="10" stroke-linecap="round" stroke-linejoin="round"/>
<path d="M8.27808 13.7201L13.3892 13.7277" stroke="#205072" stroke-width="3" stroke-miterlimit="10" stroke-linecap="round" stroke-linejoin="round"/>
</svg>
