<svg width="395" height="355" viewBox="0 0 395 355" fill="none" xmlns="http://www.w3.org/2000/svg">
<g filter="url(#filter0_d)">
<path d="M273.099 88.04C275.479 88.04 277.409 85.8811 277.409 83.2179C277.409 80.5548 275.479 78.3958 273.099 78.3958C270.719 78.3958 268.79 80.5548 268.79 83.2179C268.79 85.8811 270.719 88.04 273.099 88.04Z" fill="#329D9C"/>
<path d="M277.673 74.6683C278.783 74.6683 279.682 73.6617 279.682 72.42C279.682 71.1783 278.783 70.1717 277.673 70.1717C276.563 70.1717 275.664 71.1783 275.664 72.42C275.664 73.6617 276.563 74.6683 277.673 74.6683Z" fill="#329D9C"/>
<path d="M145.935 45.4104C147.074 45.4104 147.997 44.3773 147.997 43.1029C147.997 41.8285 147.074 40.7954 145.935 40.7954C144.796 40.7954 143.873 41.8285 143.873 43.1029C143.873 44.3773 144.796 45.4104 145.935 45.4104Z" fill="#329D9C"/>
<path d="M280.872 315.477C282.799 315.477 284.362 313.728 284.362 311.572C284.362 309.415 282.799 307.667 280.872 307.667C278.945 307.667 277.382 309.415 277.382 311.572C277.382 313.728 278.945 315.477 280.872 315.477Z" fill="#329D9C"/>
<path d="M122.062 328.848C122.953 328.848 123.675 328.04 123.675 327.044C123.675 326.047 122.953 325.239 122.062 325.239C121.171 325.239 120.449 326.047 120.449 327.044C120.449 328.04 121.171 328.848 122.062 328.848Z" fill="#329D9C"/>
<path d="M142.207 195.546C143.127 195.546 143.873 194.711 143.873 193.682C143.873 192.653 143.127 191.818 142.207 191.818C141.287 191.818 140.542 192.653 140.542 193.682C140.542 194.711 141.287 195.546 142.207 195.546Z" fill="#329D9C"/>
<path d="M145.486 205.042C146.376 205.042 147.098 204.234 147.098 203.237C147.098 202.241 146.376 201.433 145.486 201.433C144.595 201.433 143.873 202.241 143.873 203.237C143.873 204.234 144.595 205.042 145.486 205.042Z" fill="#205072"/>
<path d="M143.556 255.334C145.22 255.334 146.569 253.824 146.569 251.961C146.569 250.099 145.22 248.589 143.556 248.589C141.891 248.589 140.542 250.099 140.542 251.961C140.542 253.824 141.891 255.334 143.556 255.334Z" fill="#205072"/>
<path d="M270.694 63.6633C271.745 63.6633 272.597 62.7097 272.597 61.5333C272.597 60.357 271.745 59.4033 270.694 59.4033C269.642 59.4033 268.79 60.357 268.79 61.5333C268.79 62.7097 269.642 63.6633 270.694 63.6633Z" fill="#205072"/>
<path d="M198.281 67.3908C199.201 67.3908 199.947 66.5564 199.947 65.5271C199.947 64.4978 199.201 63.6633 198.281 63.6633C197.361 63.6633 196.616 64.4978 196.616 65.5271C196.616 66.5564 197.361 67.3908 198.281 67.3908Z" fill="#205072"/>
<path d="M49.7818 213.178C50.4827 213.178 51.0508 212.542 51.0508 211.758C51.0508 210.973 50.4827 210.338 49.7818 210.338C49.081 210.338 48.5128 210.973 48.5128 211.758C48.5128 212.542 49.081 213.178 49.7818 213.178Z" fill="#205072"/>
<path d="M276.457 325.239C278.209 325.239 279.629 323.65 279.629 321.689C279.629 319.729 278.209 318.139 276.457 318.139C274.705 318.139 273.284 319.729 273.284 321.689C273.284 323.65 274.705 325.239 276.457 325.239Z" fill="#205072"/>
<path d="M310.429 21.3C311.349 21.3 312.095 20.4656 312.095 19.4363C312.095 18.4069 311.349 17.5725 310.429 17.5725C309.509 17.5725 308.764 18.4069 308.764 19.4363C308.764 20.4656 309.509 21.3 310.429 21.3Z" fill="#205072"/>
<path d="M148.605 103.216C148.341 101.382 148.103 97.7137 150.72 98.0096C151.672 98.1279 152.201 99.0746 153.258 98.6604C155.241 97.8913 154.792 95.0217 155.611 93.365C156.959 90.7025 159.577 94.5779 161.586 93.3058C162.247 92.8917 162.406 92.1225 162.379 91.3238C162.326 88.3358 164.679 88.5429 166.609 89.1346C167.111 89.2825 167.323 88.4246 166.821 88.2767C164.864 87.685 161.612 87.4779 161.533 90.6433C161.507 91.4125 161.877 92.1817 160.872 92.655C160.555 92.8029 160.026 92.6254 159.735 92.5367C159.048 92.3 158.44 91.7675 157.726 91.5604C156.801 91.2646 155.902 91.4717 155.267 92.3C154.474 93.365 154.501 94.8146 154.131 96.0571C153.734 97.3883 152.967 98.1575 151.672 97.5067C151.143 97.2404 150.667 97.0038 150.059 97.0925C147.336 97.5067 147.468 101.205 147.812 103.453C147.918 104.015 148.684 103.778 148.605 103.216Z" fill="#205072"/>
<path d="M151.725 104.932C151.936 103.098 153.258 102.299 154.792 102.299C155.611 102.299 156.431 102.447 157.224 102.122C159.022 101.353 158.678 99.1633 159.101 97.4475C159.894 94.1933 163.569 96.205 165.604 95.6725C166.979 95.2879 168.142 93.7496 167.561 92.1225C167.376 91.59 166.609 91.8267 166.794 92.3592C167.693 94.8146 164.626 94.9625 163.331 94.785C162.379 94.6667 161.454 94.4892 160.502 94.7554C158.995 95.1992 158.413 96.4417 158.202 98.0392C158.017 99.5183 158.043 101.145 156.325 101.382C155.4 101.5 154.474 101.205 153.549 101.441C152.068 101.826 151.117 103.216 150.932 104.873C150.852 105.494 151.645 105.494 151.725 104.932Z" fill="#205072"/>
<path d="M206.345 32.2754C205.419 33.5771 204.441 35.1746 204.891 36.92C205.261 38.34 206.265 38.8725 207.481 38.7838C208.195 38.7246 208.936 38.5175 209.517 39.2275C209.967 39.76 209.676 40.8842 209.544 41.4758C209.332 42.3929 208.936 43.2804 209.015 44.2567C209.147 45.5879 210.099 46.6233 211.315 46.3275C211.817 46.2092 211.606 45.3513 211.103 45.4696C208.803 46.0613 210.39 41.7717 210.495 40.7362C210.575 39.8783 210.443 38.9317 209.861 38.3104C209.279 37.6892 208.565 37.7483 207.825 37.8371C206.662 37.985 205.578 37.5708 205.525 36.0029C205.499 34.8196 206.239 33.7546 206.873 32.8671C207.244 32.4825 206.662 31.8317 206.345 32.2754Z" fill="#205072"/>
<path d="M212.584 31.8317C211.341 32.4233 210.548 33.8729 210.865 35.3817C211.024 36.0621 211.394 36.7129 211.923 37.1271C212.557 37.6596 213.298 37.5412 213.932 37.985C215.122 38.7837 214.17 40.3517 214.223 41.5942C214.249 42.2154 214.382 42.7775 214.858 43.1621C215.571 43.7833 216.629 43.5762 216.92 42.5704C217.078 42.0379 216.312 41.8012 216.153 42.3337C215.148 42.1858 214.805 41.6829 215.095 40.825C215.148 40.5292 215.201 40.2333 215.254 39.9375C215.307 39.6417 215.333 39.3458 215.333 39.05C215.333 38.4287 215.175 37.7779 214.752 37.3342C214.117 36.6833 213.139 36.9496 212.452 36.4171C211.051 35.3225 211.553 33.2517 212.98 32.5712C213.456 32.3642 213.033 31.6246 212.584 31.8317Z" fill="#205072"/>
<path d="M39.7091 206.699C39.101 205.634 39.101 204.332 39.7091 203.237C40.3172 202.172 41.1632 202.143 42.1413 201.729C43.4897 201.107 43.5161 199.54 43.4368 198.12C43.4103 197.617 43.3839 197.084 43.5161 196.581C43.8598 195.398 44.7587 195.723 45.5782 195.871C46.0541 195.96 46.5035 195.871 46.9001 195.575C47.4024 195.191 47.7197 194.51 47.8783 193.86C48.0105 193.327 48.0369 192.765 48.1427 192.232C48.1955 191.848 48.3013 191.493 48.4599 191.167C48.8829 190.428 49.3852 190.369 49.9933 191.02C50.1255 191.582 50.8922 191.345 50.76 190.783C50.2841 188.86 48.1691 189.718 47.6403 191.079C47.4024 191.7 47.376 192.38 47.2438 193.031C47.1645 193.416 47.1116 193.83 46.9265 194.185C46.53 194.984 45.7897 194.836 45.1023 194.747C44.2828 194.658 43.6483 194.57 43.1195 195.427C42.5115 196.404 42.6701 197.557 42.6701 198.682C42.6965 200.042 42.4322 200.575 41.2425 201.019C40.7666 201.196 40.37 201.285 39.947 201.64C38.4137 202.853 38.0171 205.367 39.0217 207.113C39.2861 207.616 39.9735 207.172 39.7091 206.699Z" fill="#329D9C"/>
<path d="M43.0138 208.74C41.9034 208.562 42.3264 207.202 42.8287 206.669C43.1988 206.285 43.7012 206.048 44.177 205.782C44.7587 205.456 45.3403 205.072 45.7633 204.51C46.9001 202.912 45.261 200.782 46.8472 199.51C48.4335 198.267 52.6899 197.705 51.4474 194.392C51.2623 193.86 50.5749 194.333 50.76 194.836C51.6588 197.232 47.2967 197.942 46.1863 198.948C45.7897 199.303 45.446 199.776 45.2874 200.338C44.9702 201.581 45.8955 202.853 45.0759 204.036C44.1242 205.338 42.0885 205.338 41.6126 207.172C41.3218 208.207 41.8241 209.45 42.8287 209.627C43.3046 209.687 43.5161 208.829 43.0138 208.74Z" fill="#329D9C"/>
<path d="M332.822 139.988C332.478 139.308 332.531 138.568 332.901 137.918C333.483 136.971 334.17 137.178 335.069 137.267C335.677 137.326 336.232 137.474 336.814 137.089C337.845 136.379 337.686 134.9 337.871 133.776C338.294 131.143 340.33 133.539 341.705 132.711C342.207 132.415 342.392 131.853 342.498 131.261C342.683 130.108 342.736 126.676 344.719 128.066C345.142 128.362 345.565 127.593 345.115 127.297C343.344 126.084 341.916 128.096 341.758 129.96C341.652 131.025 341.758 132.06 340.489 131.912C340.039 131.853 339.59 131.587 339.14 131.528C338.426 131.439 337.792 131.675 337.395 132.385C336.946 133.214 337.105 134.249 336.919 135.137C336.523 137.148 334.99 136.024 333.747 136.261C332.081 136.586 331.315 138.835 332.108 140.403C332.372 140.935 333.06 140.491 332.822 139.988Z" fill="#329D9C"/>
<path d="M336.761 141.852C336.311 140.491 337.713 138.983 338.929 139.693C339.087 139.781 339.299 139.781 339.405 139.633C340.013 138.894 340.171 138.036 340.436 137.089C340.911 135.373 342.048 135.137 343.423 134.663C344.771 134.19 346.278 132.948 345.723 131.173C345.538 130.64 344.771 130.877 344.956 131.409C345.723 133.746 341.969 133.924 340.859 134.782C339.51 135.847 339.907 137.77 338.876 139.012C339.034 138.983 339.193 138.953 339.352 138.953C337.58 137.918 335.333 139.959 336.021 142.118C336.179 142.621 336.946 142.414 336.761 141.852Z" fill="#329D9C"/>
<path d="M229.98 149.603C230.033 149.603 230.614 151.2 230.852 151.408C231.222 151.733 231.672 151.763 232.121 151.674C232.914 151.526 233.417 150.875 234.104 150.461C235.585 149.514 235.585 151.141 236.166 152.058C236.827 153.153 237.541 152.62 238.308 152.088C238.81 151.733 239.286 151.496 239.735 151.999C239.973 152.265 240.132 152.709 240.317 153.035C240.608 153.508 240.925 153.893 241.401 154.129C241.85 154.366 242.273 153.597 241.797 153.36C240.713 152.828 240.581 150.816 239.286 150.609C238.678 150.52 238.413 150.905 237.938 151.2C237.356 151.585 237.012 151.851 236.642 151.112C236.483 150.816 236.457 150.402 236.272 150.106C235.426 148.538 234.104 149.396 233.047 150.165C232.862 150.313 232.676 150.461 232.465 150.579C232.016 150.431 231.54 150.283 231.09 150.135C230.905 149.928 230.905 149.425 230.747 149.159C230.482 148.745 230.218 148.627 229.795 148.715C229.266 148.834 229.478 149.692 229.98 149.603Z" fill="#329D9C"/>
<path d="M236.193 146.763C236.986 145.373 238.81 148.272 239.55 148.627C240 148.834 240.423 148.834 240.898 148.686C241.11 148.627 241.295 148.508 241.48 148.42C242.194 148.094 242.802 148.301 243.384 148.863C244.23 149.662 244.468 150.727 245.684 151.023C246.397 151.2 247.058 150.964 247.376 150.195C247.587 149.692 246.9 149.218 246.688 149.751C245.948 151.526 243.912 148.035 243.384 147.65C242.405 146.94 241.797 147.532 240.819 147.769C239.259 148.124 238.757 146.171 237.462 145.698C236.695 145.402 235.955 145.55 235.532 146.349C235.214 146.822 235.902 147.266 236.193 146.763Z" fill="#329D9C"/>
<path d="M334.99 198.475C349.028 198.475 363.066 198.475 377.131 198.475C377.633 198.475 377.633 197.587 377.131 197.587C363.093 197.587 349.054 197.587 334.99 197.587C334.487 197.587 334.487 198.475 334.99 198.475Z" fill="#E8E8E8"/>
<path d="M346.49 198.267C346.49 202.853 346.49 207.409 346.49 211.994C346.49 212.556 347.283 212.556 347.283 211.994C347.283 207.409 347.283 202.853 347.283 198.267C347.283 197.705 346.49 197.705 346.49 198.267Z" fill="#E8E8E8"/>
<path d="M366.107 197.824C366.107 191.434 366.107 185.044 366.107 178.654C366.107 178.092 365.313 178.092 365.313 178.654C365.313 185.044 365.313 191.434 365.313 197.824C365.313 198.415 366.107 198.415 366.107 197.824Z" fill="#E8E8E8"/>
<path d="M356.774 179.009C362.088 179.009 367.402 179.009 372.716 179.009C373.218 179.009 373.218 178.121 372.716 178.121C367.402 178.121 362.088 178.121 356.774 178.121C356.272 178.121 356.272 179.009 356.774 179.009Z" fill="#E8E8E8"/>
<path d="M346.331 72.4792C346.331 78.0113 346.331 83.5433 346.331 89.0458C346.331 89.6079 347.124 89.6079 347.124 89.0458C347.124 83.5138 347.124 77.9817 347.124 72.4792C347.124 71.9171 346.331 71.9171 346.331 72.4792Z" fill="#E8E8E8"/>
<path d="M333.985 90.3179C343.529 90.3179 353.046 90.3179 362.59 90.3179C363.093 90.3179 363.093 89.4304 362.59 89.4304C353.046 89.4304 343.529 89.4304 333.985 89.4304C333.456 89.4304 333.456 90.3179 333.985 90.3179Z" fill="#E8E8E8"/>
<path d="M362.326 90.1996C362.326 93.8679 362.326 97.5363 362.326 101.205C362.326 101.767 363.119 101.767 363.119 101.205C363.119 97.5363 363.119 93.8679 363.119 90.1996C363.119 89.6375 362.326 89.6375 362.326 90.1996Z" fill="#E8E8E8"/>
<path d="M96.8141 55.2321C106.147 55.2321 115.505 55.2321 124.838 55.2321C125.34 55.2321 125.34 54.3446 124.838 54.3446C115.505 54.3446 106.147 54.3446 96.8141 54.3446C96.3118 54.3446 96.2854 55.2321 96.8141 55.2321Z" fill="#E8E8E8"/>
<path d="M123.675 55.1433C123.675 57.9833 123.675 60.8233 123.675 63.6633C123.675 64.2254 124.468 64.2254 124.468 63.6633C124.468 60.8233 124.468 57.9833 124.468 55.1433C124.468 54.5517 123.675 54.5517 123.675 55.1433Z" fill="#E8E8E8"/>
<path d="M115.188 54.4333C115.188 49.8775 115.188 45.3513 115.188 40.7954C115.188 40.2333 114.395 40.2333 114.395 40.7954C114.395 45.3513 114.395 49.8775 114.395 54.4333C114.395 55.025 115.188 55.025 115.188 54.4333Z" fill="#E8E8E8"/>
<path d="M41.3747 146.408C47.8254 146.408 54.2762 146.408 60.7269 146.408C61.2292 146.408 61.2292 145.52 60.7269 145.52C54.2762 145.52 47.8254 145.52 41.3747 145.52C40.8724 145.52 40.8724 146.408 41.3747 146.408Z" fill="#E8E8E8"/>
<path d="M53.1922 137.503C53.1922 140.166 53.1922 142.828 53.1922 145.491C53.1922 146.053 53.9854 146.053 53.9854 145.491C53.9854 142.828 53.9854 140.166 53.9854 137.503C53.9854 136.941 53.1922 136.941 53.1922 137.503Z" fill="#E8E8E8"/>
<path d="M48.5392 137.947C51.9761 137.947 55.413 137.947 58.8499 137.947C59.3522 137.947 59.3522 137.06 58.8499 137.06C55.413 137.06 51.9761 137.06 48.5392 137.06C48.0105 137.06 48.0105 137.947 48.5392 137.947Z" fill="#E8E8E8"/>
<path d="M164.97 324.47C173.589 324.47 182.207 324.47 190.826 324.47C191.328 324.47 191.328 323.583 190.826 323.583C182.207 323.583 173.589 323.583 164.97 323.583C164.441 323.583 164.441 324.47 164.97 324.47Z" fill="#E8E8E8"/>
<path d="M180.885 323.583C180.885 321.512 180.885 319.441 180.885 317.34C180.885 316.778 180.092 316.778 180.092 317.34C180.092 319.411 180.092 321.482 180.092 323.583C180.092 324.174 180.885 324.174 180.885 323.583Z" fill="#E8E8E8"/>
<path d="M178.48 317.37C182.049 317.37 185.644 317.37 189.213 317.37C189.715 317.37 189.715 316.483 189.213 316.483C185.644 316.483 182.049 316.483 178.48 316.483C177.977 316.483 177.977 317.37 178.48 317.37Z" fill="#E8E8E8"/>
<path d="M41.9828 308.909C50.6014 308.909 59.22 308.909 67.8386 308.909C68.341 308.909 68.341 308.022 67.8386 308.022C59.22 308.022 50.6014 308.022 41.9828 308.022C41.4804 308.022 41.4804 308.909 41.9828 308.909Z" fill="#E8E8E8"/>
<path d="M53.9325 297.313C53.9325 300.715 53.9325 304.146 53.9325 307.548C53.9325 308.11 54.7256 308.11 54.7256 307.548C54.7256 304.146 54.7256 300.715 54.7256 297.313C54.7256 296.75 53.9325 296.75 53.9325 297.313Z" fill="#E8E8E8"/>
<path d="M53.9325 295.981C50.4956 295.981 47.0323 295.981 43.5954 295.981C43.0931 295.981 43.0931 296.869 43.5954 296.869C47.0323 296.869 50.4956 296.869 53.9325 296.869C54.4348 296.869 54.4348 295.981 53.9325 295.981Z" fill="#E8E8E8"/>
<path d="M329.385 282.876C328.512 281.9 328.724 280.006 330.072 279.681C330.786 279.503 331.473 280.006 332.161 280.095C332.69 280.184 333.245 280.125 333.588 279.592C334.117 278.823 333.694 277.935 333.668 277.077C333.615 274.385 336.47 274.563 337.898 275.51C338.215 275.717 338.559 275.362 338.479 275.007C337.792 271.309 341.573 268.765 344.163 271.22C344.56 271.575 345.115 270.954 344.719 270.599C341.52 267.581 336.84 270.658 337.713 275.273C337.898 275.095 338.109 274.947 338.294 274.77C337.078 273.942 335.518 273.527 334.223 274.445C333.747 274.77 333.324 275.273 333.113 275.865C332.954 276.279 332.875 276.663 332.901 277.107C332.927 277.906 333.165 277.847 332.637 278.616C332.055 279.474 332.002 279.089 331.183 278.882C330.892 278.793 330.627 278.734 330.31 278.764C329.649 278.793 329.041 279.148 328.618 279.681C327.693 280.835 327.931 282.462 328.856 283.497C329.2 283.911 329.755 283.29 329.385 282.876Z" fill="#E8E8E8"/>
<path d="M334.54 283.763C334.249 281.071 338.189 281.042 339.299 279.178C339.59 278.705 339.695 278.172 339.881 277.669C340.224 276.752 340.832 276.16 341.731 275.894C343.185 275.48 344.692 276.22 346.014 276.841C346.49 277.048 346.701 276.19 346.226 275.983C343.793 274.859 340.515 274.001 339.167 277.314C338.691 278.498 338.532 279.148 337.422 279.77C336.761 280.125 336.074 280.332 335.439 280.746C334.434 281.397 333.641 282.403 333.773 283.763C333.826 284.325 334.619 284.325 334.54 283.763Z" fill="#E8E8E8"/>
<path d="M220.832 197.735C221.361 199.214 221.89 200.723 222.419 202.202C222.472 202.025 222.551 201.877 222.604 201.699C222.313 201.906 222.022 202.113 221.731 202.35C221.282 201.167 221.467 200.871 222.313 201.403C222.815 201.758 223.053 202.528 223.159 203.149C223.397 204.569 223.132 206.048 222.709 207.409C222.604 207.764 222.921 208 223.185 207.941C224.772 207.586 225.406 209.716 225.089 211.048C224.851 212.024 224.375 212.882 223.899 213.74C223.635 214.213 224.322 214.657 224.587 214.183C225.433 212.704 226.411 210.87 225.829 209.036C225.38 207.675 224.269 206.817 222.974 207.083C223.132 207.261 223.291 207.438 223.45 207.616C223.978 205.9 224.322 203.74 223.661 201.995C223.212 200.841 222.181 199.954 221.017 200.338C220.119 200.634 219.669 201.64 220.092 202.616C220.806 204.243 222.049 203.149 222.974 202.468C223.106 202.38 223.212 202.143 223.159 201.965C222.63 200.486 222.101 198.978 221.573 197.498C221.414 196.995 220.647 197.203 220.832 197.735Z" fill="#E8E8E8"/>
<path d="M64.4811 57.7763C63.9787 56.3563 65.6707 55.9717 66.4639 56.4746C67.0719 56.8592 67.4685 57.5396 67.8386 58.1608C68.1823 58.7229 68.5524 59.3442 68.7375 59.995C68.949 60.5571 68.9226 61.0896 68.6582 61.6221C67.7329 62.0954 67.257 61.9771 67.2306 61.2967C66.9926 60.3204 67.9179 59.6696 68.7111 59.6992C69.5306 59.7288 70.2973 60.2613 70.8525 60.9121C71.8043 62.0363 72.1479 63.5154 72.0158 65.0242C72.2537 64.9354 72.5181 64.8763 72.756 64.7875C72.2273 63.9296 72.7296 63.0125 73.4434 62.5688C74.0514 62.2138 74.7388 62.3025 75.3204 62.6575C76.2722 63.2196 76.9331 64.255 77.5412 65.2017C77.832 65.675 78.5194 65.2313 78.2286 64.7579C77.2239 63.19 75.717 61.0008 73.7342 61.5038C72.2801 61.8588 71.1169 63.7521 72.0686 65.2313C72.3066 65.6158 72.756 65.4383 72.8089 64.9946C73.0468 62.1842 71.1962 58.3383 68.2352 58.8117C67.1777 58.9892 66.411 59.8175 66.411 61.0304C66.411 61.9771 66.9398 62.9533 67.8386 63.0125C68.8961 63.1013 69.6099 61.9475 69.6628 60.8825C69.7421 59.4033 68.7111 57.8058 67.9179 56.7113C67.1777 55.735 66.0938 54.9067 64.9305 55.4096C63.9788 55.7942 63.3443 56.8592 63.7408 57.9538C63.8994 58.5454 64.6661 58.3088 64.4811 57.7763Z" fill="#E8E8E8"/>
<path d="M203.754 101.175C202.643 100.435 203.437 98.2462 204.679 99.1633C205.869 100.051 204.283 101.56 203.516 100.524C203.199 100.08 202.643 100.702 202.961 101.145C203.569 101.974 204.732 101.915 205.419 101.234C206.213 100.435 206.001 99.1337 205.181 98.4829C204.362 97.8321 203.172 97.9504 202.67 99.0154C202.168 100.021 202.511 101.382 203.384 101.944C203.78 102.21 204.177 101.471 203.754 101.175Z" fill="#E8E8E8"/>
<path d="M287.984 36.4763C287.402 35.5592 288.407 34.1688 289.332 34.5829C289.253 34.5238 289.173 34.435 289.094 34.3758C289.596 35.3521 288.856 36.6833 287.878 36.6242C288.01 36.7425 288.142 36.8313 288.248 36.9496C288.089 36.4467 287.904 35.9142 287.746 35.4113C287.561 34.8788 286.794 35.1154 286.979 35.6479C287.138 36.1508 287.323 36.6833 287.481 37.1863C287.534 37.3933 287.666 37.5117 287.852 37.5117C288.698 37.5708 289.438 36.9792 289.808 36.1508C290.099 35.5 290.257 34.1392 289.544 33.725C287.984 32.8671 286.371 35.4704 287.296 36.92C287.587 37.3933 288.275 36.9496 287.984 36.4763Z" fill="#E8E8E8"/>
<path d="M309.504 80.4667C309.372 79.7863 309.821 79.0467 310.429 78.8988C310.984 78.7804 311.487 79.2833 311.619 79.8454C311.962 81.1767 310.403 81.7979 309.662 80.8808C309.319 80.4667 308.764 81.0879 309.107 81.5021C310.482 83.2179 313.126 81.5317 312.28 79.3425C311.91 78.3663 310.984 77.745 310.059 78.0704C309.081 78.4254 308.499 79.5792 308.711 80.7033C308.869 81.2654 309.636 81.0288 309.504 80.4667Z" fill="#E8E8E8"/>
<path d="M223.688 325.328C222.683 324.795 222.762 323.257 223.688 322.665C224.587 322.103 225.433 322.606 226.252 323.02C226.94 323.375 227.733 323.701 228.341 323.02C228.896 322.429 228.79 321.512 228.817 320.742C228.922 317.755 231.513 318.346 233.285 319.086C233.76 319.293 233.972 318.435 233.496 318.228C231.936 317.547 229.768 316.897 228.526 318.613C228.156 319.115 228.05 319.707 228.023 320.328C227.997 320.743 228.156 321.66 227.944 322.044C227.363 323.02 226.569 322.133 225.961 321.837C224.798 321.275 223.132 321.423 222.419 322.784C221.811 323.937 222.181 325.505 223.265 326.067C223.741 326.334 224.137 325.565 223.688 325.328Z" fill="#E8E8E8"/>
<path d="M236.483 255.6C235.69 266.457 236.113 277.344 237.752 288.082C237.832 288.645 238.598 288.408 238.519 287.846C236.906 277.196 236.483 266.368 237.277 255.6C237.329 255.038 236.536 255.038 236.483 255.6Z" fill="#E8E8E8"/>
<path d="M237.012 256.28C241.136 257.878 245.393 258.943 249.729 259.475C253.8 259.949 258.479 260.452 262.392 258.736C262.868 258.529 262.657 257.671 262.181 257.878C258.374 259.564 253.747 259.061 249.729 258.588C245.472 258.085 241.269 256.99 237.224 255.423C236.721 255.215 236.536 256.073 237.012 256.28Z" fill="#E8E8E8"/>
<path d="M243.304 257.493C241.93 255.097 240.793 252.553 240 249.831C239.629 248.53 239.312 247.228 239.074 245.897C238.942 245.098 238.81 244.299 238.731 243.5C238.731 243.412 238.44 241.311 238.995 241.607C239.259 241.755 239.709 241.489 239.577 241.104C238.123 236.992 237.329 232.673 237.25 228.235C237.118 228.383 236.986 228.531 236.854 228.679C237.065 228.768 237.25 228.857 237.462 228.945C237.726 229.3 238.228 228.916 238.123 228.502C237.594 226.608 237.25 224.656 237.144 222.644C237.118 222.171 237.197 216.846 237.488 216.935C237.805 217.023 238.017 216.698 237.964 216.402C237.462 213.059 237.224 209.657 237.356 206.285C237.409 204.598 237.541 202.942 237.779 201.285C237.99 199.776 238.096 197.942 239.154 196.848C238.942 196.818 238.731 196.788 238.519 196.759C240.74 201.433 241.982 206.551 243.119 211.639C244.23 216.639 245.208 221.697 246.054 226.786C247.772 237.288 248.856 247.908 249.332 258.588C249.358 259.15 250.152 259.15 250.125 258.588C249.649 247.849 248.565 237.14 246.82 226.549C245.948 221.283 244.943 216.047 243.78 210.84C242.643 205.841 241.401 200.871 239.206 196.285C239.074 196.019 238.757 196.019 238.572 196.197C237.673 197.114 237.409 198.327 237.197 199.599C236.906 201.403 236.695 203.267 236.589 205.101C236.378 208.947 236.589 212.793 237.171 216.609C237.329 216.432 237.488 216.254 237.647 216.077C236.113 215.603 236.298 219.301 236.272 220.13C236.166 223.029 236.563 225.928 237.329 228.709C237.541 228.561 237.779 228.413 237.99 228.265C237.647 227.821 237.356 227.673 236.827 227.733C236.616 227.762 236.431 227.91 236.431 228.176C236.51 232.673 237.303 237.081 238.783 241.282C238.969 241.104 239.18 240.956 239.365 240.779C236.721 239.359 238.255 246.045 238.466 247.05C239.259 250.896 240.687 254.565 242.59 257.878C242.908 258.41 243.595 257.967 243.304 257.493Z" fill="#E8E8E8"/>
<path d="M247.508 227.94C247.27 226.046 247.217 224.123 247.429 222.23C247.481 221.757 248.486 216.195 248.988 216.432C249.253 216.58 249.57 216.402 249.596 216.047C249.755 212.26 250.813 208.888 252.055 205.397C253.298 201.936 254.514 198.593 256.576 195.605C256.391 195.605 256.206 195.605 256.021 195.605C257.528 197.528 257.343 200.457 257.422 202.853C257.528 205.545 257.607 208.237 257.633 210.929C257.686 216.225 257.607 221.52 257.396 226.815C256.946 237.643 255.862 248.441 254.223 259.12C254.144 259.682 254.91 259.919 254.99 259.357C256.708 248.234 257.792 236.962 258.242 225.662C258.453 219.982 258.506 214.302 258.4 208.622C258.347 205.782 258.294 202.942 258.109 200.102C258.004 198.238 257.739 196.404 256.576 194.954C256.444 194.777 256.153 194.777 256.021 194.954C253.985 197.912 252.716 201.167 251.5 204.628C250.152 208.355 249.015 211.965 248.83 216.047C249.041 215.929 249.226 215.781 249.438 215.662C247.825 214.864 247.296 218.71 247.085 219.745C246.503 222.526 246.45 225.336 246.82 228.147C246.794 228.738 247.561 228.502 247.508 227.94Z" fill="#E8E8E8"/>
<path d="M238.123 288.822C246.397 291.81 255.36 291.662 263.555 288.408C264.031 288.23 263.82 287.373 263.344 287.55C255.28 290.745 246.477 290.893 238.334 287.964C237.832 287.787 237.62 288.645 238.123 288.822Z" fill="#E8E8E8"/>
<path d="M262.286 258.44C262.604 263.232 262.947 268.025 263.238 272.817C263.529 277.699 263.635 282.639 262.921 287.491C262.842 288.053 263.608 288.29 263.688 287.727C264.401 282.965 264.349 278.172 264.058 273.38C263.767 268.41 263.423 263.41 263.08 258.44C263.053 257.878 262.26 257.878 262.286 258.44Z" fill="#E8E8E8"/>
<path d="M121.189 296.425C126.583 293.2 132.002 289.976 137.396 286.751C139.934 287.225 143.423 287.846 147.601 288.497C155.955 289.798 169.412 291.899 186.437 292.461C203.463 293.023 216.232 291.81 221.097 291.278C232.809 290.035 239.894 288.349 245.684 286.603C250.945 285.006 255.281 283.26 258.374 281.929C260.912 282.876 263.741 284.148 266.754 285.893C268.473 286.899 270.059 287.935 271.46 288.97C266.49 290.568 259.801 292.609 251.844 294.68C235.082 299.058 222.234 301.129 219.537 301.573C204.124 304.028 182.154 307.489 154.527 303.91C145.935 302.756 134.488 300.655 121.189 296.425Z" fill="white"/>
<path d="M120.899 296.455C121.031 297.697 121.19 298.91 121.322 300.152C123.305 300.774 126.213 301.661 129.808 302.549C136.682 304.265 143.661 305.448 152.782 306.247C186.464 309.205 213.377 306.572 213.377 306.572C226.834 305.241 239.894 303.88 256.761 298.377C263.106 296.307 268.288 294.206 271.989 292.579C271.698 291.189 271.407 289.798 271.117 288.408C270.086 288.881 268.552 289.562 266.675 290.331C253.932 295.538 243.437 297.253 234.078 298.525C213.509 301.365 203.225 302.756 188.129 303.022C170.945 303.348 147.891 302.194 120.899 296.455Z" fill="#161616"/>
<path d="M120.714 297.017C120.714 297.963 120.714 298.91 120.714 299.857C120.714 300.419 121.507 300.419 121.507 299.857C121.507 298.91 121.507 297.963 121.507 297.017C121.507 296.425 120.714 296.425 120.714 297.017Z" fill="#161616"/>
<path d="M121.004 300.685C140.753 306.661 161.375 307.43 181.705 307.755C201.242 308.051 220.912 307.105 240.158 303.111C250.998 300.862 261.678 297.579 271.989 293.112C272.465 292.905 272.253 292.047 271.778 292.254C253.589 300.153 234.263 304.176 214.831 305.862C195.241 307.548 175.466 307.164 155.876 305.833C144.164 305.004 132.558 303.288 121.216 299.857C120.714 299.679 120.502 300.537 121.004 300.685Z" fill="#161616"/>
<path d="M271.989 292.49C272.148 291.248 272.2 289.976 272.095 288.733C272.042 288.171 271.249 288.171 271.302 288.733C271.381 289.917 271.381 291.1 271.222 292.254C271.143 292.786 271.91 293.053 271.989 292.49Z" fill="#161616"/>
<path d="M121.348 296.928C126.9 293.97 132.346 290.804 137.686 287.373C138.136 287.077 137.739 286.337 137.29 286.603C131.95 290.005 126.503 293.2 120.952 296.159C120.476 296.395 120.872 297.165 121.348 296.928Z" fill="#161616"/>
<path d="M137.475 286.958C169.015 293.674 201.797 294.916 233.602 289.828C242.062 288.467 250.469 286.367 258.294 282.462C258.77 282.225 258.347 281.456 257.898 281.693C250.865 285.183 243.357 287.225 235.77 288.556C228.05 289.917 220.251 290.745 212.452 291.307C196.616 292.431 180.7 292.135 164.917 290.449C155.77 289.473 146.702 287.994 137.686 286.1C137.184 286.012 136.973 286.87 137.475 286.958Z" fill="#161616"/>
<path d="M258.136 282.314C262.842 284.03 267.257 286.426 271.381 289.473C271.804 289.798 272.201 289.029 271.778 288.704C267.6 285.627 263.106 283.201 258.347 281.456C257.845 281.278 257.633 282.136 258.136 282.314Z" fill="#161616"/>
<path d="M121.401 296.455C130.733 299.975 140.462 301.632 150.244 302.519C160.158 303.407 170.152 303.673 180.092 303.673C199.841 303.673 219.643 302.164 239.101 298.2C250.152 295.952 261.097 292.905 271.751 288.911C272.227 288.733 272.015 287.875 271.54 288.053C252.795 295.035 233.311 299.117 213.641 301.129C194.078 303.14 174.302 303.259 154.686 301.957C143.476 301.188 132.24 299.62 121.56 295.597C121.137 295.419 120.925 296.277 121.401 296.455Z" fill="#161616"/>
<path d="M136.629 127.504C168.936 119.132 202.194 117.298 235.241 116.943C244.6 116.825 253.959 116.854 263.317 116.854C263.82 116.854 263.82 115.967 263.317 115.967C230.165 115.908 196.854 115.878 163.939 120.996C154.686 122.445 145.512 124.28 136.418 126.646C135.915 126.794 136.127 127.652 136.629 127.504Z" fill="#161616"/>
<path d="M264.957 116.055C265.3 129.812 265.512 145.757 265.433 163.478C265.38 173.773 265.3 168.862 264.481 211.698C264.005 236.371 263.873 245.66 262.313 259.919C261.308 269.208 260.092 276.841 259.193 282.018C266.014 284.148 272.518 286.16 278.228 287.935C287.058 290.686 289.411 291.425 292.928 291.988C298.374 292.816 305.009 292.934 312.676 291.189C315.505 265.274 317.065 243.175 317.964 226.253C321.189 166.791 318.175 139.397 317.012 129.782C315.426 116.825 313.469 106.175 311.963 98.8083C306.305 100.021 301.705 101.323 298.479 102.299C287.402 105.701 278.625 109.695 271.275 113.068C268.552 114.34 266.358 115.375 264.957 116.055Z" fill="white"/>
<path d="M82.6965 99.3408C82.485 101.885 82.2471 105.021 82.0356 107.743C77.6469 163.744 75.4526 191.759 74.7388 209.775C73.9986 229.123 73.9457 257.168 77.6205 292.047C77.9113 292.757 78.4401 293.733 79.3918 294.532C80.6344 295.567 81.7712 295.538 84.0184 296.247C85.7897 296.81 86.715 297.372 87.561 297.727C89.9933 298.792 95.4394 300.005 102.366 299.709C112.306 299.265 119.947 295.863 125.552 293.289C130.813 290.893 135.016 288.319 137.924 286.367C136.285 269.889 135.069 252.494 134.382 234.241C132.981 195.427 134.382 159.78 137.263 128.007C136.047 127.475 134.276 126.735 132.187 125.788C128.592 124.161 119.973 120.227 104.798 111.943C98.7969 108.689 91.2887 104.459 82.6965 99.3408Z" fill="white"/>
<path d="M311.804 98.69C312.121 100.643 312.544 103.335 313.02 106.559C313.681 111.145 315.161 122.002 316.245 136.261C317.356 151.112 317.62 163.892 317.647 174.068C317.726 194.717 317.039 209.864 315.241 245.187C314.686 256.192 313.866 272.315 312.835 291.987C313.919 291.899 314.976 291.84 316.06 291.751C316.589 286.84 317.303 279.533 317.858 270.599C318.281 264.15 318.466 259.446 318.651 254.387C319.576 231.194 319.735 231.46 320.052 221.993C320.687 203.326 320.555 188.978 320.449 176.08C320.37 167.175 320.132 158.744 319.656 141.882C319.312 130.403 318.968 120.227 316.642 107.003C316.034 103.63 315.452 100.82 315.029 98.8971C313.945 98.8379 312.888 98.7788 311.804 98.69Z" fill="#161616"/>
<path d="M78.6516 99.8733C78.4665 100.909 78.1757 102.506 77.8849 104.459C77.0389 110.109 76.8274 114.369 76.7481 115.76C76.1664 125.818 75.0032 130.729 73.3112 153.064C72.9939 157.147 72.756 160.726 72.2801 167.915C71.3019 182.588 70.8261 189.925 70.4824 198.208C70.1123 207.468 70.0594 214.006 69.9801 227.082C69.9008 238.383 69.8479 246.548 70.1123 257.227C70.3238 265.747 70.7468 277.314 71.7778 291.1C73.9193 291.81 76.0343 292.52 78.1757 293.23C78.1493 291.899 78.07 289.503 77.9113 286.515C77.2768 273.232 76.2458 267.848 76.0078 256.783C75.9285 253.381 75.9814 251.133 76.0078 247.908C76.2986 224.774 75.9549 214.213 76.14 199.185C76.4573 174.66 77.9378 155.49 79.2068 139.16C80.3965 123.718 81.7448 110.494 82.908 100.14C81.4539 100.051 80.0528 99.9621 78.6516 99.8733Z" fill="#161616"/>
<path d="M264.322 116.558C265.3 138.273 265.168 160.046 264.904 181.76C264.613 203.001 264.481 224.301 263.027 245.512C262.207 257.582 260.912 269.622 258.902 281.545C258.797 282.107 259.563 282.343 259.669 281.781C263.185 260.925 264.481 239.714 265.062 218.532C265.67 196.907 265.935 175.222 265.908 153.567C265.882 141.231 265.697 128.895 265.142 116.558C265.089 115.996 264.296 115.996 264.322 116.558Z" fill="#161616"/>
<path d="M265.3 116.558C279.973 108.423 295.545 102.565 311.619 99.1042C312.121 98.9858 311.91 98.1279 311.407 98.2463C295.28 101.737 279.629 107.654 264.904 115.789C264.454 116.055 264.851 116.825 265.3 116.558Z" fill="#161616"/>
<path d="M311.354 98.8379C315.717 123.422 317.039 148.538 317.012 173.565C316.959 198.593 315.637 223.561 314.553 248.559C313.919 262.966 313.284 277.344 312.65 291.751C312.624 292.313 313.417 292.313 313.443 291.751C314.58 266.25 315.77 240.749 316.801 215.219C317.805 190.191 318.44 165.105 316.933 140.107C316.087 126.173 314.58 112.298 312.148 98.6308C312.015 98.0392 311.249 98.2758 311.354 98.8379Z" fill="#161616"/>
<path d="M259.035 281.722C260.224 283.26 262.339 283.556 264.005 284.118C266.279 284.888 268.579 285.657 270.852 286.426C275.452 287.964 280.026 289.591 284.679 290.893C293.774 293.378 303.106 293.881 312.333 292.106C312.835 292.017 312.623 291.159 312.121 291.248C303.027 292.993 293.826 292.49 284.891 290.035C280.634 288.881 276.457 287.402 272.28 285.982C270.165 285.272 268.05 284.562 265.935 283.852C264.877 283.497 263.82 283.142 262.762 282.787C261.652 282.403 260.409 282.136 259.616 281.101C259.246 280.687 258.691 281.308 259.035 281.722Z" fill="#161616"/>
<path d="M311.883 98.8675C312.861 99.1338 313.84 99.4 314.844 99.6662C315.347 99.8142 315.558 98.9563 315.056 98.8083C314.078 98.5421 313.099 98.2758 312.095 98.0096C311.592 97.8913 311.381 98.7492 311.883 98.8675Z" fill="#161616"/>
<path d="M314.791 99.3704C317.435 111.322 318.149 123.806 318.916 136.083C319.709 148.627 320.132 161.2 320.317 173.802C320.634 198.8 319.867 223.798 318.598 248.766C317.885 262.907 316.986 277.048 316.06 291.189C316.034 291.751 316.827 291.751 316.853 291.189C318.519 266.043 320.026 240.897 320.74 215.692C321.454 190.546 321.401 165.341 319.973 140.195C319.206 126.528 318.519 112.505 315.584 99.1633C315.426 98.5717 314.659 98.8083 314.791 99.3704Z" fill="#161616"/>
<path d="M313.073 292.254C314.236 292.135 315.373 292.017 316.536 291.899C317.039 291.84 317.039 290.952 316.536 291.011C315.373 291.13 314.236 291.248 313.073 291.366C312.571 291.425 312.571 292.313 313.073 292.254Z" fill="#161616"/>
<path d="M136.603 127.77C134.831 148.272 133.774 168.832 133.43 189.422C133.086 210.101 133.457 230.809 134.567 251.458C135.175 263.055 136.047 274.622 137.105 286.16C137.158 286.722 137.951 286.722 137.898 286.16C135.995 265.688 134.805 245.128 134.329 224.538C133.853 203.859 134.091 183.15 135.069 162.501C135.624 150.905 136.391 139.338 137.369 127.77C137.449 127.208 136.655 127.208 136.603 127.77Z" fill="#161616"/>
<path d="M83.1988 100.051C100.357 110.73 118.176 120.079 136.47 128.037C136.946 128.244 137.158 127.386 136.682 127.179C118.44 119.25 100.7 109.932 83.5954 99.2817C83.146 98.9858 82.7494 99.755 83.1988 100.051Z" fill="#161616"/>
<path d="M82.3793 99.8438C79.4447 124.871 77.409 150.047 76.2986 175.281C75.1883 200.516 75.0296 225.78 75.7699 251.015C76.1929 265.185 76.9067 279.355 77.9113 293.496C77.9642 294.058 78.7573 294.058 78.7045 293.496C76.9067 268.321 76.0607 243.057 76.1136 217.822C76.1665 192.558 77.1711 167.323 79.0746 142.148C80.1585 128.007 81.5333 113.925 83.1724 99.8438C83.2253 99.2817 82.4321 99.2817 82.3793 99.8438Z" fill="#161616"/>
<path d="M77.8849 294.058C92.6106 303.022 110.244 301.099 125.208 293.999C129.702 291.869 134.038 289.295 138.215 286.485C138.638 286.189 138.242 285.42 137.819 285.716C123.886 295.153 107.548 301.75 91.0772 298.318C86.6093 297.401 82.2735 295.715 78.2815 293.289C77.8585 293.023 77.4355 293.792 77.8849 294.058Z" fill="#161616"/>
<path d="M72.0422 291.603C73.8928 292.579 75.7963 293.407 77.7263 294.147C78.2022 294.325 78.4137 293.467 77.9378 293.289C76.0607 292.579 74.2365 291.78 72.4388 290.834C71.9629 290.597 71.5663 291.366 72.0422 291.603Z" fill="#161616"/>
<path d="M78.1228 100.051C75.2676 124.842 72.8882 149.692 71.3284 174.63C69.795 199.451 69.0548 224.33 69.5306 249.21C69.795 263.292 70.4295 277.373 71.5135 291.396C71.5663 291.958 72.3595 291.958 72.3066 291.396C70.4031 266.516 69.8479 241.548 70.3766 216.58C70.879 191.7 72.4123 166.85 74.6067 142.059C75.8492 128.037 77.3033 114.014 78.916 100.021C78.9953 99.4887 78.2022 99.4887 78.1228 100.051Z" fill="#161616"/>
<path d="M78.5723 100.672C80.1056 100.317 81.639 100.199 83.2253 100.287C83.7276 100.317 83.7276 99.4296 83.2253 99.4C81.5861 99.3113 79.9735 99.4592 78.3608 99.8142C77.8585 99.9325 78.07 100.79 78.5723 100.672Z" fill="#161616"/>
<path d="M274.448 118.57C275.558 152.887 275.505 187.233 274.236 221.55C273.893 231.164 273.443 240.749 272.888 250.364C272.861 250.926 273.655 250.926 273.681 250.364C275.611 216.106 276.351 181.76 275.902 147.414C275.77 137.799 275.558 128.185 275.241 118.57C275.214 118.008 274.421 118.008 274.448 118.57Z" fill="#161616"/>
<path d="M287.27 106.263C288.327 130.137 288.856 154.07 288.83 177.973C288.83 201.877 288.301 225.81 287.243 249.683C286.662 263.203 285.895 276.693 284.97 290.183C284.943 290.745 285.737 290.745 285.763 290.183C287.402 266.339 288.512 242.465 289.121 218.562C289.702 194.658 289.781 170.725 289.332 146.822C289.068 133.303 288.645 119.783 288.063 106.263C288.037 105.701 287.243 105.701 287.27 106.263Z" fill="#161616"/>
<path d="M302.657 100.998C304.137 125.818 305.036 150.698 305.274 175.607C305.512 200.605 305.142 225.573 304.137 250.541C303.582 264.534 302.815 278.527 301.837 292.49C301.81 293.053 302.604 293.053 302.63 292.49C304.322 267.67 305.432 242.79 305.882 217.911C306.331 192.943 306.173 167.945 305.38 142.947C304.93 128.954 304.296 114.961 303.45 100.968C303.423 100.406 302.63 100.406 302.657 100.998Z" fill="#161616"/>
<path d="M271.725 261.458C271.117 269.208 270.006 276.9 268.394 284.473C268.288 285.035 269.028 285.272 269.16 284.71C270.799 277.048 271.91 269.297 272.518 261.458C272.571 260.895 271.778 260.895 271.725 261.458Z" fill="#161616"/>
<path d="M91.8703 105.82C88.6978 130.64 87.3495 155.727 87.138 180.784C86.953 205.989 87.8783 231.164 89.253 256.31C90.0197 270.54 90.9186 284.74 91.8175 298.969C91.8439 299.531 92.637 299.531 92.6106 298.969C91.0243 273.912 89.4381 248.855 88.5656 223.768C87.6932 198.741 87.561 173.654 88.8565 148.627C89.5967 134.397 90.8128 120.168 92.6106 106.056C92.7163 105.524 91.9496 105.258 91.8703 105.82Z" fill="#161616"/>
<path d="M107.072 114.103C105.063 138.095 103.714 162.176 103.265 186.286C102.842 210.367 103.344 234.448 105.116 258.47C106.094 271.812 107.468 285.095 109.266 298.318C109.345 298.88 110.112 298.644 110.033 298.082C106.808 274.237 104.957 250.157 104.27 226.046C103.582 202.261 103.979 178.417 105.142 154.662C105.803 141.142 106.728 127.623 107.865 114.133C107.918 113.541 107.125 113.541 107.072 114.103Z" fill="#161616"/>
<path d="M122.3 121.173C119.709 143.568 118.202 166.11 117.806 188.682C117.409 211.255 118.096 233.856 119.868 256.34C120.872 268.883 122.194 281.367 123.86 293.822C123.939 294.384 124.706 294.147 124.626 293.585C121.639 271.279 119.735 248.825 118.916 226.312C118.096 203.859 118.387 181.346 119.735 158.892C120.502 146.29 121.613 133.687 123.067 121.144C123.172 120.611 122.379 120.611 122.3 121.173Z" fill="#161616"/>
<path opacity="0.12" d="M296.734 103.009C299.669 116.41 302.048 132.119 302.842 149.721C304.824 194.51 295.413 231.105 287.217 254.594C281.427 264.978 275.664 275.362 269.874 285.745C275.505 288.467 283.859 291.633 294.276 292.579C301.467 293.23 307.706 292.638 312.571 291.751C312.623 290.449 313.496 270.658 313.549 269.356C316.43 203.06 316.615 198.534 316.721 193.978C317.197 175.429 317.118 148.804 314.289 115.582C313.311 109.932 312.333 104.281 311.354 98.6604C306.516 100.08 301.625 101.53 296.734 103.009Z" fill="#3F3F3F"/>
<path opacity="0.13" d="M112.227 117.475C111.54 120.7 110.509 125.522 109.293 131.409C103.899 157.679 99.9338 176.997 97.8188 194.777C94.0646 226.105 90.4427 256.458 105.882 281.367C110.377 288.615 115.294 293.496 118.572 296.395C115.4 297.786 111.461 299.058 106.86 299.679C94.0646 301.365 83.8069 296.721 78.7837 293.94C76.8802 274.326 75.5584 253.322 75.1354 231.105C74.1836 181.938 77.7527 137.74 83.1988 99.7254C92.8485 105.642 102.525 111.559 112.227 117.475Z" fill="#3F3F3F"/>
<path d="M84.4951 85.6438C84.1514 85.9396 84.4158 87.0933 84.8917 89.0754C85.0767 89.8446 85.2618 90.4363 85.3675 90.8208C85.156 92.4183 84.971 94.0158 84.7595 95.6133C84.3365 95.6725 83.2525 95.9388 82.2479 96.915C81.3226 97.8321 80.9525 98.8971 80.8203 99.3704C81.6663 99.4592 82.6974 99.6663 83.8077 100.051C85.4204 100.613 86.6894 101.382 87.6147 102.033C87.6147 102.388 87.6676 103.068 88.0906 103.571C88.4607 103.985 88.9102 104.045 89.1745 104.104C90.1263 104.281 91.2631 104.518 92.7172 104.873C93.3517 105.287 94.4092 105.968 95.7046 106.766C100.093 109.429 101.679 109.873 106.068 112.476C108.897 114.162 108.659 114.221 110.642 115.286C113.682 116.943 116.299 117.919 118.071 118.481C118.811 117.564 120.001 115.789 120.662 113.215C121.19 111.174 121.164 109.399 121.058 108.245C121.508 108.512 122.221 108.808 123.041 108.689C125.156 108.423 126.504 105.731 126.927 103.808C127.297 102.122 126.954 101.057 126.663 99.0746C126.002 94.6371 125.42 90.6729 127.059 88.1583C128.434 86.0579 131.263 85.0817 133.537 82.2713C133.748 82.005 134.145 81.5021 134.013 81.2654C133.775 80.8217 131.924 81.5908 131.025 82.0346C130.443 82.3304 126.081 84.5788 124.759 89.6671C124.548 90.4658 124.521 92.7733 124.495 97.3588C124.469 100.702 124.521 102.595 123.332 103.69C122.724 104.252 121.825 104.577 121.005 104.37C119.789 104.074 119.208 102.743 118.679 101.855C117.304 99.5183 115.348 98.5421 112.942 97.2108C111.065 96.1754 109.452 95.7908 106.2 94.9921C103.134 94.2525 102.208 94.3413 100.886 93.2467C99.4059 92.0042 98.5863 90.2588 98.1633 89.2825C97.7403 88.3654 97.0794 86.9158 96.7885 84.845C96.6299 83.6321 96.6564 82.7742 96.392 82.715C95.9161 82.5967 95.6782 85.0521 94.0655 85.91C93.0873 86.4425 92.4528 85.9396 90.7344 85.9988C89.624 86.0283 88.355 86.2946 86.9274 87.0046C86.4515 86.62 84.971 85.2592 84.4951 85.6438Z" fill="black"/>
<path d="M85.2873 95.3767C84.7322 90.4954 88.6978 86.0579 93.0864 86.5608C97.2371 87.0342 99.9866 92.6846 99.8544 96.915C99.828 97.4771 100.621 97.4771 100.648 96.915C100.78 92.2408 97.6601 86.0875 93.0864 85.6733C88.2748 85.2296 83.8862 89.9925 84.4942 95.3767C84.5735 95.9092 85.3667 95.9387 85.2873 95.3767Z" fill="black"/>
<path d="M85.208 98.4533C86.8207 101.974 90.2841 104.459 93.906 103.926C97.2107 103.423 100.013 100.435 100.515 96.7375C100.595 96.1754 99.828 95.9388 99.7487 96.5008C99.2992 99.8734 96.8141 102.595 93.8002 103.039C90.4955 103.542 87.3759 101.234 85.8954 98.0096C85.6575 97.5067 84.9701 97.9504 85.208 98.4533Z" fill="black"/>
<path d="M88.0633 102.743C87.984 101.619 90.8392 101.145 91.553 100.968C92.8485 100.643 94.1703 100.465 95.4922 100.465C97.9509 100.465 100.304 101.175 102.392 102.625C102.815 102.92 103.238 102.151 102.789 101.855C100.092 99.9917 96.9463 99.3408 93.8267 99.6663C92.1875 99.8438 90.5748 100.228 89.015 100.82C88.169 101.145 87.1644 101.56 87.2437 102.743C87.2966 103.305 88.1162 103.305 88.0633 102.743Z" fill="black"/>
<path d="M99.4314 92.5071C101.097 94.7554 103.794 95.2879 106.199 95.8796C109.398 96.7079 112.703 97.4475 115.505 99.4296C121.295 103.512 122.379 112.417 117.806 118.126C117.462 118.54 118.017 119.191 118.361 118.747C122.432 113.689 122.538 105.938 118.334 100.909C116.114 98.2462 112.941 96.8558 109.848 95.9387C106.702 95.0217 102.181 94.8737 99.9602 91.8562C99.6694 91.4421 99.1142 92.0633 99.4314 92.5071Z" fill="black"/>
<path d="M117.938 107.979C116.616 106.027 114.289 105.346 112.254 106.293C109.742 107.447 109.61 110.908 109.901 113.541C109.954 114.103 110.747 114.103 110.694 113.541C110.456 111.47 110.429 108.275 112.333 107.24C113.972 106.322 116.113 106.796 117.224 108.453C117.541 108.896 118.229 108.452 117.938 107.979Z" fill="black"/>
<path d="M110.588 113.127C109.134 111.884 107.627 110.819 105.75 111.381C105.538 111.44 105.433 111.707 105.486 111.914C105.961 113.985 108.87 114.842 110.403 115.582C112.756 116.736 115.162 117.712 117.594 118.57C118.07 118.747 118.281 117.89 117.805 117.712C115.849 117.032 113.946 116.292 112.042 115.405C111.011 114.931 110.006 114.428 109.002 113.896C108.103 113.422 106.49 112.86 106.226 111.677C106.147 111.855 106.041 112.032 105.961 112.21C107.601 111.707 108.949 112.801 110.165 113.866C110.588 114.251 110.985 113.482 110.588 113.127Z" fill="black"/>
<path d="M87.3495 102.654C88.3806 104.547 90.4691 104.873 92.2933 105.169C94.9899 105.612 97.6866 105.612 100.383 105.287C100.885 105.228 100.885 104.34 100.383 104.4C98.2153 104.666 96.0474 104.725 93.8796 104.488C92.0554 104.281 89.1208 104.163 88.0104 102.21C87.7725 101.707 87.0851 102.151 87.3495 102.654Z" fill="black"/>
<path d="M81.1895 99.6367C81.5332 97.5658 83.1459 96.5008 84.9437 96.4121C84.8115 96.2937 84.6793 96.205 84.5735 96.0867C84.7057 96.7967 84.8908 97.4771 85.1552 98.1279C85.3402 98.6604 86.1069 98.4237 85.9218 97.8912C85.6839 97.2108 85.4988 96.56 85.3402 95.85C85.3138 95.6725 85.1287 95.5246 84.9701 95.5246C82.8551 95.6429 80.8459 96.9446 80.4493 99.4C80.3435 99.9621 81.1102 100.199 81.1895 99.6367Z" fill="black"/>
<path d="M85.7897 90.4658C85.3931 89.1938 85.1023 87.8625 84.9965 86.5017C84.9965 86.3833 84.9701 86.265 84.9701 86.1467C84.9437 85.8804 84.9701 85.91 85.0758 86.2354C85.3138 86.4129 85.5517 86.62 85.7897 86.8271C86.1862 87.2117 86.5563 87.6258 86.8736 88.0696C87.2173 88.5133 87.7725 87.8625 87.4288 87.4483C86.9793 86.8567 85.1023 84.4308 84.3092 85.3775C83.9126 85.8508 84.2034 86.9454 84.2827 87.4779C84.4149 88.5725 84.6793 89.6671 84.9965 90.7025C85.208 91.235 85.9747 91.0279 85.7897 90.4658Z" fill="black"/>
<path d="M94.7255 86.3242C94.9635 85.8508 95.2014 85.3775 95.4658 84.9042C95.5715 84.6971 95.6773 84.5196 95.7566 84.3125C95.9152 84.0167 95.9152 83.7504 96.2325 83.8392C96.6026 83.9279 96.4704 84.9042 96.4704 85.2592C96.4704 85.8212 96.4968 86.3833 96.4968 86.9454C96.4968 87.5075 97.29 87.5075 97.29 86.9454C97.29 86.0283 97.3164 85.1112 97.2635 84.1942C97.2371 83.6025 97.052 82.9517 96.4704 82.7446C95.9416 82.5671 95.5715 82.9517 95.3072 83.3954C94.8577 84.1942 94.4612 85.0521 94.0382 85.8508C93.7738 86.3833 94.4612 86.8271 94.7255 86.3242Z" fill="black"/>
<path d="M120.053 105.672C120.211 107.921 122.458 108.66 124.018 107.566C126.318 105.968 126.821 102.359 126.53 99.6372C126.133 95.9097 125.34 92.4485 126.477 88.7506C127.561 85.2302 130.258 82.3606 133.668 82.1239C134.17 82.0943 134.17 81.2068 133.668 81.2364C129.015 81.5618 125.842 85.9993 125.182 90.9102C124.785 93.8389 125.367 96.5606 125.71 99.4302C125.922 101.323 125.816 103.128 125.049 104.873C124.706 105.613 124.23 106.353 123.595 106.826C122.617 107.506 120.925 107.299 120.819 105.702C120.819 105.11 120.026 105.081 120.053 105.672Z" fill="black"/>
<path d="M120.476 107.269C121.295 109.725 124.15 108.63 125.393 107.21C127.429 104.903 126.979 101.057 126.821 98.1279C126.794 97.5658 126.001 97.5658 126.028 98.1279C126.133 99.9917 126.292 102.003 126.001 103.867C125.869 104.755 125.578 105.583 125.049 106.293C124.468 107.092 121.93 109.103 121.242 107.033C121.057 106.5 120.291 106.737 120.476 107.269Z" fill="black"/>
<path d="M133.694 81.2065C130.681 82.5082 127.64 84.3423 126.424 87.8923C125.023 91.9748 126.028 96.4123 125.948 100.643C125.948 101.205 126.741 101.205 126.741 100.643C126.821 96.9448 126.028 93.1582 126.821 89.4898C127.693 85.4665 130.681 83.4548 133.906 82.0644C134.382 81.8573 134.17 80.9994 133.694 81.2065Z" fill="black"/>
<path d="M133.086 81.7092C130.31 83.1292 127.772 85.6142 126.477 88.7796C125.79 90.4363 125.895 92.2704 125.895 94.075C125.895 96.3825 125.975 98.7196 126.133 101.027C126.16 101.589 126.953 101.589 126.926 101.027C126.821 99.1633 126.741 97.3292 126.715 95.4654C126.688 93.5129 126.451 91.2054 127.111 89.3713C128.248 86.265 130.813 83.8688 133.483 82.4783C133.959 82.2417 133.562 81.4725 133.086 81.7092Z" fill="black"/>
<path d="M86.8472 92.4183C87.5874 93.8679 89.4645 93.365 89.6495 91.7675C89.676 91.4717 89.2794 91.5013 89.253 91.7675C89.1208 92.9804 87.746 93.2171 87.1908 92.2113C87.0586 91.945 86.715 92.1817 86.8472 92.4183Z" fill="white"/>
<path d="M92.4519 91.2646C93.2715 92.8325 95.36 92.2112 95.3865 90.4067C95.3865 90.1108 94.9899 90.1108 94.9899 90.4067C94.9635 91.7971 93.4301 92.2408 92.7956 91.0575C92.6634 90.7912 92.3197 90.9983 92.4519 91.2646Z" fill="white"/>
<path d="M90.8657 93.2171C91.0507 94.075 90.8921 94.9329 90.4162 95.6429C90.2576 95.8796 90.6013 96.0867 90.7599 95.8796C91.2886 95.0808 91.4473 94.075 91.2622 93.0987C91.1829 92.8325 90.7863 92.9508 90.8657 93.2171Z" fill="white"/>
<path d="M91.0243 93.1875C90.945 94.3117 91.5002 95.3767 92.4255 95.85C92.6634 95.9683 92.8485 95.5838 92.637 95.4654C91.8439 95.0513 91.3416 94.1638 91.4209 93.1875C91.4209 92.8917 91.0243 92.8917 91.0243 93.1875Z" fill="white"/>
<path d="M84.5735 95.8204C86.9 95.6133 88.3805 97.7434 89.9404 99.3113C90.1254 99.4888 90.4162 99.1929 90.2312 98.9859C88.592 97.3292 87.0058 95.1696 84.5735 95.3471C84.3356 95.3767 84.3356 95.8204 84.5735 95.8204Z" fill="white"/>
<path d="M88.9093 101.027C91.8967 98.8971 95.4393 98.1871 98.9027 99.045C99.1406 99.1042 99.2463 98.69 99.0084 98.6308C95.4393 97.7729 91.791 98.4829 88.7242 100.672C88.4863 100.79 88.6978 101.175 88.9093 101.027Z" fill="white"/>
<path d="M96.4175 105.08C98.8762 105.257 101.203 104.4 103.08 102.595C103.265 102.418 103 102.092 102.789 102.27C100.991 103.985 98.7705 104.814 96.4175 104.636C96.1796 104.636 96.1796 105.08 96.4175 105.08Z" fill="white"/>
<path d="M95.7037 84.0758C95.1221 85.1704 94.9899 86.4425 95.3336 87.6554C95.4129 87.9217 95.783 87.8033 95.7037 87.5371C95.3865 86.4425 95.4922 85.2887 96.021 84.3125C96.1796 84.0462 95.8359 83.8096 95.7037 84.0758Z" fill="white"/>
<path d="M85.2345 86.8271C85.869 87.2708 86.2655 87.9513 86.4242 88.75C86.477 89.0163 86.8472 88.8979 86.7943 88.6317C86.6092 87.7146 86.1334 86.9454 85.4195 86.4425C85.208 86.2946 85.023 86.6792 85.2345 86.8271Z" fill="white"/>
<path d="M99.2199 91.5604C99.7222 92.2408 100.304 92.8325 100.965 93.2762C101.176 93.4241 101.388 93.0396 101.176 92.8917C100.542 92.4479 99.9602 91.8858 99.5107 91.235C99.3257 91.0279 99.0613 91.3533 99.2199 91.5604Z" fill="white"/>
<path d="M115.532 106.086C114.977 104.518 112.306 105.583 111.434 106.204C109.874 107.358 109.187 109.517 109.768 111.5C109.848 111.766 110.218 111.647 110.139 111.381C109.689 109.813 110.059 108.127 111.17 106.973C111.646 106.47 112.28 106.115 112.915 105.938C113.364 105.79 114.897 105.465 115.135 106.175C115.241 106.47 115.611 106.352 115.532 106.086Z" fill="white"/>
<path d="M110.086 111.529C108.024 110.553 105.829 110.464 103.688 111.204C103.45 111.293 103.556 111.707 103.794 111.618C105.882 110.878 107.971 110.997 109.98 111.943C110.218 112.062 110.324 111.618 110.086 111.529Z" fill="white"/>
<path d="M182.71 234.566C181.626 237.465 181.626 239.625 181.467 245.187C181.282 252.05 180.753 258.884 180.7 265.718C180.647 271.486 180.568 280.213 180.357 291.573C188.817 292.106 198.175 292.224 208.327 291.662C218.004 291.13 226.939 290.035 235.003 288.674C231.196 274.267 228.684 263.765 226.887 255.63C225.935 251.281 224.534 244.773 220.674 237.17C218.559 232.998 216.364 229.863 214.752 227.762C214.329 227.348 204.996 218.562 194.21 222.703C193.681 222.94 185.829 226.135 182.71 234.566Z" fill="#7BE495"/>
<path d="M198.281 251.813C200.053 255.334 201.824 258.854 203.569 262.375C203.807 262.878 204.494 262.434 204.256 261.931C202.485 258.41 200.714 254.89 198.969 251.37C198.731 250.867 198.043 251.31 198.281 251.813Z" fill="#56C596"/>
<path d="M198.07 251.636C202.141 257.316 204.494 263.795 205.763 270.895C206.953 277.61 207.719 284.414 208.169 291.248C208.195 291.81 208.988 291.81 208.962 291.248C208.486 284.237 207.693 277.225 206.477 270.332C205.208 263.203 202.723 256.695 198.651 251.015C198.334 250.541 197.752 251.192 198.07 251.636Z" fill="#56C596"/>
<path opacity="0.19" d="M204.441 222.023C205.366 224.094 206.688 227.141 208.169 230.809C212.478 241.518 216.946 252.819 219.325 266.723C220.304 272.344 221.229 280.48 220.832 290.627C223.053 290.508 225.406 290.301 227.865 290.005C230.324 289.71 232.676 289.355 234.897 288.94C234.21 286.337 233.099 282.195 231.857 277.077C228.394 262.759 227.918 258.292 224.957 248.855C222.762 241.844 220.727 237.081 217.792 232.525C215.148 228.413 212.663 225.839 209.517 224.035C207.561 222.91 205.737 222.348 204.441 222.023Z" fill="#56C596"/>
<path opacity="0.11" d="M198.123 251.961C199.154 256.28 200.053 261.428 200.476 267.226C201.216 277.255 200.264 285.805 199.101 292.195C202.141 291.988 205.155 291.78 208.195 291.573C207.878 284.858 207.191 279.208 206.53 274.918C204.864 264.002 203.119 259.949 201.718 257.345C200.396 254.949 199.074 253.145 198.123 251.961Z" fill="#3F3F3F"/>
<path d="M164.257 184.156C163.385 184.807 162.856 186.05 161.825 188.505C160.979 190.517 160.582 192.085 159.948 194.422C158.203 201.048 158.388 199.924 157.78 202.439C156.987 205.782 155.559 211.639 154.766 219.36C153.999 226.845 154.158 232.614 154.184 234.004C154.475 242.79 155.85 249.328 156.775 253.529C158.414 261.073 160.609 267.345 164.971 279.858C165.923 282.55 166.716 284.769 167.271 286.307C166.874 286.367 166.24 286.455 165.473 286.574C161.481 287.106 160.926 286.988 159.313 287.372C157.251 287.875 155.4 288.378 154.687 290.124C154.369 290.922 154.237 292.047 154.634 292.431C155.136 292.905 156.114 291.84 157.806 291.218C159.234 290.715 160.503 290.745 161.375 290.893C160.688 292.402 160.291 293.762 160.053 294.739C159.472 296.987 159.022 298.821 159.763 300.123C160.133 300.774 160.847 301.365 161.428 301.188C161.745 301.099 162.036 300.774 162.829 298.437C163.596 296.1 163.649 295.36 164.283 294.443C164.839 293.674 165.473 293.26 165.896 293.023C165.685 293.762 165.447 294.857 165.341 296.188C165.288 296.987 165.209 297.727 165.341 298.673C165.447 299.531 165.685 301.365 166.901 302.371C167.112 302.549 167.985 303.288 168.513 302.904C168.963 302.608 168.831 301.78 169.016 299.117C169.174 296.869 169.333 296.247 169.465 295.892C169.809 294.857 170.338 294.117 170.734 293.674C170.602 295.804 170.628 297.579 170.681 298.88C170.787 300.981 170.972 301.927 171.58 302.519C171.924 302.845 172.506 303.17 172.981 302.933C173.457 302.697 173.616 301.957 173.748 301.04C174.33 297.579 173.986 296.573 174.647 294.827C174.911 294.147 175.202 293.319 175.916 292.727C177.423 291.485 179.564 292.224 179.855 292.313C181.124 292.757 181.6 293.526 182.235 293.2C182.763 292.934 183.054 292.076 183.081 291.366C183.107 289.621 181.389 288.29 179.908 287.195C179.168 286.633 178.057 285.893 176.577 285.302C175.281 282.432 173.642 278.261 172.294 272.965C171.395 269.415 170.972 266.694 170.576 264.12C169.174 255.097 169.677 251.636 168.117 242.672C167.747 240.512 167.377 238.797 167.165 237.82C167.271 236.341 167.456 234.034 167.72 231.223C168.593 222.052 169.174 216.313 170.946 209.568C172.347 204.273 173.775 199.924 173.775 199.924C175.572 194.51 176.154 193.771 175.942 192.025C175.202 186.523 167.509 181.73 164.257 184.156Z" fill="white"/>
<path d="M162.221 186.967C157.515 199.125 154.554 212.112 153.919 225.366C153.258 238.885 155.347 252.109 159.26 264.889C161.48 272.196 164.177 279.296 166.926 286.396C167.138 286.929 167.799 286.455 167.614 285.952C162.855 273.646 158.202 261.162 155.981 247.968C153.787 234.951 154.236 221.49 156.774 208.562C158.202 201.315 160.264 194.244 162.908 187.44C163.093 186.907 162.432 186.434 162.221 186.967Z" fill="#161616"/>
<path d="M172.082 203.859C168.751 215.13 167.006 226.934 166.821 238.797C166.821 239.359 167.614 239.359 167.614 238.797C167.799 226.993 169.544 215.308 172.848 204.095C173.007 203.563 172.24 203.326 172.082 203.859Z" fill="#161616"/>
<path d="M164.045 233.412C166.398 237.081 167.349 241.459 167.905 245.837C168.486 250.305 168.751 254.831 169.332 259.298C170.495 268.38 172.399 277.432 176.232 285.568C176.47 286.071 177.158 285.627 176.92 285.124C172.928 276.663 171.051 267.226 169.94 257.819C168.962 249.565 169.253 240.01 164.732 232.969C164.441 232.525 163.754 232.969 164.045 233.412Z" fill="#161616"/>
<path d="M166.821 285.982C164.362 286.13 161.903 286.396 159.497 286.899C157.779 287.284 155.955 287.905 154.765 289.443C154.078 290.36 153.205 292.55 154.712 293.171C155.373 293.437 155.955 292.934 156.51 292.579C157.885 291.692 159.312 290.775 160.952 291.278C161.454 291.425 161.665 290.568 161.163 290.42C159.815 290.005 158.599 290.36 157.382 291.041C157.012 291.248 156.669 291.455 156.325 291.692C156.113 291.81 155.928 291.958 155.717 292.106C155.479 291.633 155.215 291.159 154.977 290.686C155.03 289.946 156.351 289.088 156.827 288.793C158.123 288.023 159.63 287.757 161.057 287.52C162.987 287.195 164.917 286.988 166.847 286.87C167.349 286.84 167.349 285.953 166.821 285.982Z" fill="#161616"/>
<path d="M164.653 288.615C162.564 289 160.846 290.597 160.053 292.757C159.207 295.005 158.493 298.348 159.471 300.655C160.211 302.401 162.035 303.022 162.723 300.892C163.146 299.561 163.067 298.111 163.49 296.78C164.018 295.123 164.917 293.703 166.239 292.727C166.662 292.402 166.265 291.633 165.842 291.958C164.6 292.875 163.675 294.118 163.067 295.626C162.749 296.395 162.511 297.194 162.353 298.022C162.221 298.703 162.141 302.135 160.687 301.129C159.868 300.567 159.788 298.762 159.815 297.845C159.868 296.484 160.185 294.916 160.581 293.615C161.242 291.425 162.802 289.858 164.838 289.473C165.367 289.384 165.155 288.526 164.653 288.615Z" fill="#161616"/>
<path d="M167.138 290.804C165.499 291.988 164.917 294.561 164.759 296.632C164.6 298.851 165.155 301.247 166.636 302.815C167.508 303.732 168.856 304.205 169.094 302.49C169.491 299.62 168.46 295.567 171.262 293.851C171.712 293.585 171.315 292.816 170.866 293.082C169.861 293.703 169.226 294.709 168.83 295.922C168.275 297.697 168.592 299.502 168.354 301.336C168.248 302.164 168.037 303.052 167.217 302.194C166.926 301.898 166.662 301.513 166.451 301.129C165.948 300.241 165.657 299.235 165.578 298.2C165.393 296.129 165.869 292.816 167.561 291.573C167.957 291.248 167.561 290.479 167.138 290.804Z" fill="#161616"/>
<path d="M170.892 293.171C170.39 295.301 169.914 297.52 170.231 299.738C170.363 300.803 170.918 303.407 172.135 303.673C173.509 303.969 174.065 301.247 174.197 300.241C174.488 298.052 174.117 295.419 175.651 293.733C176.021 293.319 175.466 292.697 175.096 293.112C173.245 295.153 173.879 298.111 173.324 300.715C173.139 301.661 172.61 303.081 171.738 301.987C171.262 301.425 171.13 300.33 171.024 299.59C170.76 297.52 171.209 295.449 171.685 293.437C171.791 292.875 171.024 292.638 170.892 293.171Z" fill="#161616"/>
<path d="M176.603 286.071C178.162 286.781 179.775 287.55 180.991 288.911C181.546 289.532 182.234 290.479 182.392 291.366C182.789 293.822 181.15 292.254 180.542 291.958C178.876 291.13 175.571 291.721 174.62 293.615C174.382 294.117 175.069 294.561 175.307 294.058C175.809 293.023 177.184 292.757 178.136 292.609C178.718 292.52 179.378 292.461 179.934 292.638C180.568 292.845 180.965 293.467 181.573 293.674C182.445 293.97 183.106 293.289 183.238 292.342C183.476 290.804 182.287 289.088 181.361 288.082C180.066 286.692 178.4 285.923 176.761 285.183C176.338 285.006 176.153 285.864 176.603 286.071Z" fill="#161616"/>
<path opacity="0.13" d="M171.262 194.303C168.222 194.51 166.398 203.208 165.393 208.03C164.256 213.444 163.225 220.899 163.437 231.756C163.622 241.459 164.732 248.855 165.102 251.429C166.768 262.493 169.385 271.782 171.95 279.06C172.796 281.722 173.615 284.385 174.461 287.017C173.985 289.207 173.509 291.455 173.06 293.792C172.478 296.869 171.95 299.886 171.527 302.785C172.029 302.845 172.716 302.815 173.192 302.282C173.8 301.602 173.721 300.507 173.747 299.561C173.774 298.673 173.853 294.384 175.571 292.786C176.629 291.81 178.321 291.81 179.484 292.283C180.674 292.786 181.203 293.762 181.996 293.467C182.604 293.26 183.027 292.431 183.106 291.78C183.371 289.621 179.669 287.402 179.061 287.047C177.872 286.337 177.316 286.248 176.55 285.361C175.598 284.237 175.281 282.905 175.148 282.314C172.954 272.965 171.87 273.557 170.39 262.818C169.279 254.712 169.993 255.186 168.856 248.737C168.063 244.181 167.402 242.317 167.191 238.382C166.953 234.063 167.402 230.691 167.878 227.703C169.861 215.485 173.668 200.693 174.593 197.173C173.747 195.694 172.584 194.215 171.262 194.303Z" fill="#3F3F3F"/>
<path d="M225.221 72.6863C224.402 72.6567 223.767 74.3133 223.608 74.7571C223.37 75.4079 223 76.68 223.265 78.4846C223.265 78.4846 223.423 79.7271 223.952 87.2413C224.084 88.9275 224.111 91.3829 223.714 94.4596C222.657 97.7138 221.652 100.258 220.965 101.915C218.638 107.476 217.078 109.695 213.827 116.736C212.61 119.369 212.505 119.783 211.077 123.037C207.508 131.113 204.891 136.172 202.22 141.586C199.868 146.319 196.563 153.271 192.677 162.205C192.491 162.975 191.566 167.087 193.708 170.696C195.981 174.512 200.74 176.228 205.34 174.571C206.054 173.447 207.059 171.702 207.984 169.424C208.883 167.205 209.306 165.489 209.597 164.395C209.887 163.3 211.051 159.602 213.404 152.147C214.144 149.84 215.043 147.088 216.867 141.704C219.643 133.45 221.018 129.338 221.943 126.765C224.031 120.907 225.618 116.854 228.737 108.985C230.376 104.843 232.386 99.8438 234.712 94.1638C236.06 93.3058 237.911 91.9746 239.894 90.0517C242.749 87.3004 244.177 84.9633 246.926 80.5258C248.698 77.6267 250.046 75.0825 249.676 72.5383C249.623 72.1833 249.491 71.1479 248.988 71C248.354 70.7929 247.561 72.2129 246.688 73.4554C245.789 74.7275 244.441 76.3842 242.432 78.1C243.119 75.97 243.807 74.3133 244.283 73.2188C245.366 70.7338 246.265 69.1363 246.821 66.385C247.429 63.4563 246.873 62.9238 246.715 62.7758C246.001 62.1842 244.785 63.3083 244.071 62.6575C243.437 62.0363 243.992 60.6754 243.489 60.35C242.987 60.0246 241.877 61.0008 241.084 62.0363C239.709 63.8113 239.392 65.5271 238.889 67.1838C238.413 68.8108 237.541 71.0296 235.902 73.485C235.505 73.5442 234.977 73.5738 234.739 73.2188C234.474 72.8046 234.844 72.1242 235.188 71.0296C235.267 70.7633 235.214 70.9113 235.77 68.1896C235.981 67.1542 236.378 65.2313 236.695 63.6929C237.144 61.4742 237.356 60.5571 236.933 59.5808C236.854 59.3738 236.51 58.575 236.008 58.5454C235.426 58.5158 234.977 59.5513 234.633 60.35C233.232 63.5746 232.518 65.2017 232.333 65.7638C231.407 68.5742 230.165 72.8638 229.98 74.3429C229.953 74.5204 229.901 75.1417 229.636 75.9404C229.504 76.325 229.425 76.4729 229.345 76.7096C228.684 78.3663 229.24 79.4608 228.552 80.0525C228.473 80.1117 228.076 80.4371 227.759 80.3188C227.415 80.2004 227.257 79.6975 227.072 78.0113C226.807 75.7038 226.966 75.0233 226.49 74.0175C226.173 73.5738 225.776 72.7158 225.221 72.6863Z" fill="white"/>
<path d="M223.952 86.3833C224.137 84.2237 223.846 82.1233 223.741 79.9637C223.688 78.9283 223.688 77.8633 223.82 76.8279C223.899 76.2363 224.005 75.6446 224.164 75.0825C224.428 74.2246 224.454 73.5146 225.3 73.485C226.094 73.4554 226.041 73.9879 226.173 74.7275C226.305 75.3783 226.331 76.0587 226.358 76.7096C226.411 77.6267 226.437 78.5733 226.622 79.4608C226.807 80.3779 227.31 81.1471 228.235 80.8217C228.711 80.6442 228.526 79.7862 228.023 79.9637C227.098 80.2596 227.177 76.7687 227.125 76.1771C227.045 75.2304 226.966 74.2542 226.649 73.3667C226.199 72.1242 225.168 71.5029 224.296 72.6567C223.159 74.1358 222.921 76.7983 222.921 78.6325C222.921 81.2358 223.37 83.78 223.159 86.3833C223.132 86.9454 223.926 86.9454 223.952 86.3833Z" fill="#161616"/>
<path d="M228.552 80.4667C229.874 77.5971 230.271 74.3429 231.037 71.2662C231.857 67.9529 232.888 64.6987 234.421 61.7404C234.765 61.0896 235.109 60.1725 235.611 59.6696C236.589 58.6637 236.589 60.5867 236.51 61.415C236.351 63.2492 235.928 65.1129 235.558 66.9175C235.214 68.5742 234.739 70.1717 234.395 71.8283C234.21 72.7454 234.21 73.5442 234.791 74.2542C235.135 74.6683 235.69 74.0471 235.347 73.6329C234.686 72.8342 235.373 71.2367 235.585 70.3787C235.823 69.4025 236.06 68.4262 236.246 67.45C236.616 65.6454 236.986 63.8112 237.224 61.9475C237.356 60.9712 237.541 59.2554 236.774 58.5158C236.113 57.8946 235.452 58.4862 235.003 59.0779C233.073 61.77 231.883 65.32 230.932 68.5742C229.848 72.3312 229.504 76.5321 227.865 80.0525C227.627 80.5258 228.314 80.9696 228.552 80.4667Z" fill="#161616"/>
<path d="M234.977 74.3429C235.77 74.4317 236.06 73.7808 236.431 73.0708C237.012 71.9467 237.541 70.7633 238.043 69.6096C239.021 67.3612 239.709 64.9058 240.899 62.8054C241.163 62.3321 241.48 61.7404 241.903 61.3854C242.247 60.9417 242.696 60.7937 243.278 61.0008C243.357 61.415 243.41 61.8292 243.41 62.2433C243.437 63.6929 243.014 65.1425 242.564 66.5033C241.665 69.1954 240.661 71.8579 239.682 74.55C239.497 75.0825 240.264 75.3192 240.449 74.7867C241.004 73.2483 246.715 59.7583 242.987 59.6696C242.247 59.64 241.401 60.6754 240.978 61.2375C240.238 62.2137 239.709 63.3379 239.233 64.4917C238.678 65.8821 238.175 67.2725 237.594 68.6333C237.25 69.4617 236.854 70.3196 236.483 71.1183C236.246 71.6508 235.664 73.485 235.003 73.4258C234.474 73.3962 234.474 74.2837 234.977 74.3429Z" fill="#161616"/>
<path d="M244.335 63.4562C244.626 61.7404 246.292 62.9237 246.503 64.0183C246.688 64.9354 246.371 65.8525 246.107 66.7104C245.71 68.0121 245.261 69.2842 244.785 70.5267C243.86 72.9525 242.776 75.26 241.559 77.5379C241.295 78.0408 241.982 78.4846 242.247 77.9817C243.384 75.8813 244.388 73.6921 245.287 71.4733C246.054 69.5504 246.979 67.4204 247.27 65.32C247.455 63.9887 247.111 62.2729 245.789 61.7996C244.811 61.4446 243.754 62.125 243.569 63.2492C243.489 63.7817 244.256 64.0183 244.335 63.4562Z" fill="#161616"/>
<path d="M242.802 78.3367C243.807 77.0646 244.785 75.7925 245.789 74.5204C246.318 73.84 246.794 73.1004 247.376 72.5087C247.561 72.3312 247.746 72.1833 247.904 72.0058C248.354 72.1833 248.803 72.3608 249.279 72.5383C249.411 72.8046 249.094 73.5737 249.015 73.8104C248.195 76.6208 247.006 79.2833 245.604 81.7683C242.776 86.7679 238.889 90.9687 234.342 94.0158C233.893 94.3117 234.316 95.0808 234.739 94.785C240.396 90.9983 245.049 85.4367 247.984 78.8396C248.698 77.2421 249.385 75.5558 249.834 73.84C250.099 72.8342 250.257 71.4733 249.226 70.9408C248.222 70.4083 247.164 71.4437 246.53 72.1833C245.023 73.9287 243.648 75.8812 242.22 77.7154C241.903 78.1296 242.458 78.7508 242.802 78.3367Z" fill="#161616"/>
<path d="M223.265 85.4662C223.45 88.1879 223.635 90.9687 223.238 93.6904C222.842 96.3825 221.837 98.8675 220.727 101.293C218.48 106.204 216.127 111.056 213.826 115.937C209.226 125.7 204.626 135.432 200.026 145.195C197.382 150.786 194.739 156.407 192.095 161.998C191.857 162.501 192.544 162.945 192.782 162.442C202.273 142.296 211.949 122.238 221.282 101.974C222.392 99.5775 223.423 97.1221 223.873 94.4892C224.401 91.5012 224.216 88.4837 224.005 85.4662C224.031 84.9042 223.238 84.9042 223.265 85.4662Z" fill="#161616"/>
<path d="M234.289 93.8088C225.829 113.807 218.453 134.279 211.949 155.165C210.046 161.229 208.142 167.294 205.842 173.181C205.631 173.713 206.318 174.157 206.53 173.625C210.469 163.596 213.351 153.094 216.735 142.858C220.198 132.326 223.952 121.883 227.944 111.588C230.218 105.76 232.544 99.9917 234.977 94.2525C235.188 93.7496 234.501 93.3058 234.289 93.8088Z" fill="#161616"/>
<path opacity="0.1" d="M246.239 63.1012C245.155 62.9237 243.701 67.8937 242.855 70.3787C240.29 78.0112 238.123 78.8988 232.624 89.2529C230.588 93.0692 227.786 98.8083 224.957 106.293C216.497 126.232 208.063 146.201 199.603 166.14C201.665 168.95 203.701 171.79 205.763 174.601C206.794 171.317 208.301 166.495 210.178 160.667C213.589 150.165 218.004 136.645 224.243 120.197C226.728 113.689 230.165 104.902 234.58 94.5779C235.796 93.72 237.488 92.3887 239.339 90.5546C241.824 88.1287 245.102 84.845 247.349 79.4904C248.063 77.8337 248.962 75.2896 249.438 71.9467C249.094 71.7692 248.592 71.5621 248.037 71.6804C247.085 71.8875 246.583 72.9229 246.186 73.6329C244.653 76.2658 242.405 78.0112 242.115 77.8042C241.956 77.6562 242.405 76.7983 243.622 74.0175C246.107 68.3079 245.076 69.8167 246.054 67.8937C246.609 66.7992 247.164 65.8525 246.979 64.6396C246.979 64.1071 246.688 63.19 246.239 63.1012Z" fill="#3F3F3F"/>
<path opacity="0.13" d="M244.626 83.2771C243.304 84.2237 241.427 85.6142 239.286 87.4483C236.827 89.5192 234.183 91.7675 231.963 94.6075C228.949 98.4533 227.627 102.27 226.834 104.488C219.563 125.256 210.918 147.798 208.46 154.07C207.111 157.502 204.996 162.679 202.194 168.891C203.463 170.755 204.758 172.619 206.027 174.482C209.676 162.028 213.879 148.982 218.691 135.462C223.873 120.937 229.24 107.358 234.633 94.7258C236.087 93.6312 237.726 92.2408 239.392 90.4362C241.744 87.9217 243.436 85.3775 244.626 83.2771Z" fill="#3F3F3F"/>
<path d="M174.33 168.922C173.351 169.661 171.157 171.377 168.91 174.158C166.583 177.028 165.235 179.72 164.125 181.998C163.252 183.743 162.618 185.281 162.168 186.405C162.856 187.885 163.966 190.163 165.5 192.884C168.223 197.706 170.338 200.31 173.986 205.546C175.519 207.735 177.74 211.019 180.384 215.16C180.807 217.379 181.177 219.716 181.494 222.172C182.129 227.201 182.367 231.875 182.367 236.076C183.345 237.259 185.037 238.975 187.522 240.188C191.646 242.229 195.4 241.638 197.357 241.283C201.692 240.543 204.653 238.383 206.689 236.875C210.39 234.153 212.902 230.899 214.567 228.207C214.224 223.592 213.774 218.829 213.219 213.888C212.743 209.688 212.215 205.605 211.633 201.641C211.58 198.535 211.316 194.304 210.417 189.393C209.677 185.281 208.778 180.489 206.107 174.809C202.776 167.738 198.626 163.449 197.013 161.881C195.585 160.49 194.29 159.455 193.338 158.715C189.478 161.467 186.147 163.183 183.874 164.218C179.644 166.17 177.661 166.466 174.33 168.922Z" fill="white"/>
<path d="M162.591 186.523C163.41 183.032 165.684 179.778 167.64 176.938C169.702 173.98 172.029 171.287 174.805 169.128C175.228 168.802 174.831 168.033 174.408 168.359C171.553 170.577 169.147 173.329 167.032 176.376C164.996 179.305 162.696 182.618 161.85 186.257C161.718 186.848 162.485 187.055 162.591 186.523Z" fill="#161616"/>
<path d="M162.009 186.819C167.455 197.469 173.906 207.468 181.229 216.609C181.573 217.023 182.128 216.402 181.784 215.988C174.514 206.906 168.116 196.966 162.696 186.375C162.432 185.872 161.745 186.316 162.009 186.819Z" fill="#161616"/>
<path d="M184.375 164.631C187.336 162.294 190.588 160.549 194.051 159.425C194.554 159.277 194.342 158.419 193.84 158.567C190.297 159.72 186.992 161.495 183.979 163.862C183.556 164.187 183.952 164.957 184.375 164.631Z" fill="#161616"/>
<path d="M193.39 159.661C206.027 169.512 211.447 186.789 210.839 203.504C210.813 204.066 211.606 204.066 211.632 203.504C212.267 186.434 206.662 168.921 193.787 158.892C193.39 158.567 192.994 159.336 193.39 159.661Z" fill="#161616"/>
<path d="M179.511 214.864C180.885 218.029 181.044 221.964 181.335 225.395C181.652 228.886 181.758 232.407 181.758 235.927C181.758 236.489 182.551 236.489 182.551 235.927C182.577 232.022 182.419 228.117 182.022 224.242C181.705 220.958 181.493 217.408 180.198 214.39C179.96 213.888 179.299 214.331 179.511 214.864Z" fill="#161616"/>
<path d="M182.26 236.105C186.226 241.548 192.994 243.086 198.889 241.4C202.168 240.453 205.208 238.649 207.931 236.4C210.654 234.152 213.245 231.549 214.778 228.117C215.016 227.614 214.329 227.17 214.091 227.673C212.61 230.957 210.125 233.472 207.508 235.631C204.97 237.732 202.141 239.447 199.074 240.424C193.311 242.228 186.675 240.838 182.789 235.483C182.498 235.04 181.943 235.661 182.26 236.105Z" fill="#161616"/>
<path d="M211.13 202.172C212.425 210.84 213.694 219.508 214.144 228.265C214.17 228.827 214.963 228.827 214.937 228.265C214.461 219.42 213.192 210.663 211.897 201.936C211.817 201.374 211.051 201.61 211.13 202.172Z" fill="#161616"/>
<path opacity="0.13" d="M185.38 163.448C188.314 167.323 192.333 173.358 195.69 181.523C200.608 193.475 201.586 203.8 202.326 212.586C202.908 219.272 203.225 228.59 202.062 239.714C204.309 238.619 207.481 236.726 210.548 233.442C212.24 231.608 213.509 229.774 214.461 228.176C213.589 219.922 212.716 211.639 211.844 203.385C212.002 196.581 211.051 191.079 210.152 187.351C207.376 175.814 202.035 168.388 200.238 166.051C197.779 162.827 195.373 160.46 193.602 158.892C190.852 160.43 188.129 161.939 185.38 163.448Z" fill="#3F3F3F"/>
<path opacity="0.14" d="M205.076 173.802C204.6 173.95 205.71 178.772 206.768 185.902C206.768 185.902 208.38 196.729 208.724 207.202C208.962 214.124 208.645 224.242 205.869 236.815C207.138 236.105 208.698 235.069 210.31 233.62C212.267 231.845 213.668 229.981 214.62 228.502C214.276 216.58 213.377 210.397 212.531 206.906C212.372 206.225 211.949 204.628 211.606 202.38C210.971 198.179 211.289 196.374 210.945 192.883C210.68 190.102 210.178 188.268 209.253 184.866C207.852 179.748 205.604 173.625 205.076 173.802Z" fill="#3F3F3F"/>
<path d="M173.96 120.256C172.215 121.351 169.994 123.007 167.853 125.522C163.411 130.817 161.984 136.734 161.481 139.663C161.085 139.604 160.001 139.515 159.128 140.284C157.833 141.408 157.806 143.627 158.309 144.929C158.494 145.402 158.758 145.787 159.313 146.556C159.974 147.473 160.397 148.035 161.085 148.36C161.375 148.508 162.036 148.715 162.988 148.479C163.279 149.455 163.755 150.816 164.469 152.384C165.394 154.395 166.795 157.383 169.598 159.987C170.417 160.756 171.686 161.762 173.405 162.679C174.039 163.596 175.202 165.519 175.334 168.122C175.599 172.707 172.611 176.524 169.783 178.21C164.865 181.139 159.525 178.21 157.568 177.115C156.511 176.524 151.197 173.447 148.976 166.702C146.28 158.567 149.796 150.431 151.884 145.58C153.999 140.698 154.978 141.024 156.59 136.261C158.732 129.96 157.595 127.741 160.054 122.919C161.005 121.025 162.935 117.239 166.98 115.464C170.444 113.955 173.642 114.724 175.017 115.168C176.154 114.399 178.163 113.304 180.701 113.304C186.729 113.304 190.589 119.694 191.514 121.232C194.264 125.759 192.81 127.149 195.268 133.51C198.362 141.527 201.375 141.053 204.151 148.567C205.5 152.236 207.747 158.3 205.262 164.099C202.697 170.075 196.855 171.82 196.114 172.027C194.766 172.412 191.144 173.418 187.522 171.258C187.178 171.051 182.631 168.27 182.261 163.507C182.129 161.762 182.578 160.135 182.684 159.78C183.239 157.857 184.191 156.614 184.482 156.2C185.619 154.632 186.993 151.733 187.945 145.964C188.395 145.935 189.135 145.816 189.875 145.343C191.435 144.337 192.175 142.296 192.096 140.521C192.069 140.107 191.964 137.74 190.43 136.941C189.796 136.616 189.135 136.705 188.765 136.793C183.847 131.232 178.904 125.759 173.96 120.256Z" fill="#434244"/>
<path d="M173.959 120.227C171.024 122.15 168.989 124.28 167.693 125.848C163.384 131.084 162.009 136.557 161.718 137.829C161.533 138.628 161.401 139.278 161.348 139.752C161.057 139.633 160.396 139.426 159.735 139.752C158.731 140.255 158.519 141.615 158.414 142.296C158.149 143.864 158.678 145.106 158.889 145.58C159.18 146.26 159.656 147.355 160.793 147.917C161.718 148.39 162.591 148.212 162.961 148.124C163.331 149.189 163.86 150.668 164.679 152.354C165.922 155.017 167.085 157.472 169.332 159.661C170.205 160.519 171.632 161.702 173.694 162.62C174.117 163.359 174.699 164.513 175.016 166.022C175.281 167.205 175.334 168.211 175.307 168.98C175.994 169.365 177.29 169.956 178.903 169.927C181.996 169.867 184.031 167.708 184.507 167.175C184.005 165.489 183.556 163.418 183.371 161.022C183.291 159.927 183.265 158.892 183.265 157.945C184.084 156.969 185.089 155.579 185.909 153.715C187.363 150.49 187.601 147.503 187.627 145.757C187.997 145.816 188.737 145.905 189.53 145.55C190.641 145.047 191.143 143.952 191.434 143.331C191.513 143.183 192.624 140.639 191.619 138.125C191.381 137.563 190.985 136.527 190.191 136.438C189.61 136.379 189.134 136.882 188.949 137.089C187.865 135.64 185.829 132.948 182.974 129.25C180.515 126.025 178.955 124.013 176.338 121.943C175.386 121.173 174.54 120.611 173.959 120.227Z" fill="white"/>
<path d="M170.31 151.615C170.046 152.295 171.289 153.508 171.87 154.011C173.086 155.017 174.382 155.165 174.858 155.194C175.413 155.253 177.237 155.401 178.903 154.07C179.299 153.745 180.41 152.887 180.833 151.289C181.123 150.135 181.044 148.538 180.489 148.272C180.066 148.094 179.669 148.686 178.77 149.396C177.184 150.609 175.545 150.905 174.144 151.141C171.764 151.555 170.575 151.023 170.31 151.615Z" fill="black"/>
<path d="M161.93 144.781C162.881 149.218 164.415 153.567 166.953 157.176C169.2 160.401 172.531 163.507 176.417 163.093C180.013 162.708 182.948 159.572 184.851 156.377C187.098 152.65 188.182 148.183 188.076 143.686C188.05 143.124 187.257 143.124 187.283 143.686C187.389 147.798 186.437 151.822 184.507 155.312C182.683 158.596 179.669 162.057 175.994 162.235C172.108 162.412 168.909 158.862 166.847 155.549C164.785 152.236 163.516 148.42 162.67 144.515C162.564 143.982 161.797 144.219 161.93 144.781Z" fill="#161616"/>
<path d="M173.166 162.679C174.276 164.572 174.831 166.643 174.831 168.921C174.831 169.483 175.624 169.483 175.624 168.921C175.624 166.525 175.016 164.247 173.853 162.235C173.589 161.732 172.901 162.176 173.166 162.679Z" fill="#161616"/>
<path d="M175.201 169.276C178.427 171.347 182.604 170.341 184.798 167.027C185.115 166.584 184.428 166.14 184.111 166.584C182.154 169.512 178.4 170.341 175.598 168.507C175.148 168.24 174.752 169.01 175.201 169.276Z" fill="#161616"/>
<path d="M182.815 158.715C182.842 161.407 183.212 164.069 183.979 166.643C184.137 167.175 184.904 166.939 184.745 166.406C184.031 163.892 183.635 161.348 183.608 158.715C183.608 158.123 182.815 158.123 182.815 158.715Z" fill="#161616"/>
<path d="M162.723 147.591C162.379 148.005 161.533 147.857 161.137 147.621C160.819 147.443 160.529 147.177 160.291 146.911C159.762 146.349 159.339 145.668 159.074 144.929C158.546 143.538 158.308 139.545 160.661 140.255C161.163 140.402 161.375 139.545 160.872 139.397C157.964 138.539 157.515 142.858 158.255 145.017C158.837 146.763 161.507 150.372 163.304 148.212C163.622 147.798 163.067 147.177 162.723 147.591Z" fill="#161616"/>
<path d="M189.293 137.237C189.61 136.054 190.985 138.332 191.143 138.746C191.46 139.692 191.566 140.728 191.434 141.734C191.222 143.745 189.795 145.668 187.812 145.106C187.31 144.958 187.098 145.816 187.6 145.964C190.799 146.881 192.518 143.154 192.227 140.107C192.095 138.775 191.619 137.06 190.482 136.35C189.742 135.906 188.79 136.024 188.526 136.971C188.367 137.562 189.134 137.77 189.293 137.237Z" fill="#161616"/>
<path d="M165.552 130.965C166.424 129.102 167.957 127.889 169.808 127.593C170.31 127.504 170.099 126.646 169.597 126.735C167.561 127.06 165.816 128.48 164.864 130.522C164.626 131.025 165.314 131.468 165.552 130.965Z" fill="#161616"/>
<path d="M177.766 126.41C179.987 125.818 182.207 127.06 183.212 129.309C183.45 129.812 184.111 129.368 183.899 128.865C182.736 126.232 180.092 124.871 177.554 125.552C177.052 125.7 177.263 126.557 177.766 126.41Z" fill="#161616"/>
<path d="M172.002 130.048C172.505 133.184 172.637 136.409 172.346 139.604C172.24 140.58 171.817 141.97 172.214 142.947C172.637 144.012 173.774 144.929 174.488 145.757C174.831 146.171 175.413 145.55 175.043 145.136C174.567 144.574 174.091 144.041 173.615 143.479C172.875 142.621 172.796 142.355 172.954 141.113C173.086 139.988 173.219 138.835 173.271 137.681C173.377 135.048 173.192 132.415 172.769 129.841C172.69 129.25 171.923 129.486 172.002 130.048Z" fill="#161616"/>
<path d="M168.671 137.651C168.275 136.941 168.09 136.172 168.143 135.344C168.143 135.166 168.248 134.397 168.38 134.368C168.46 134.368 168.592 135.403 168.618 135.521C168.671 135.906 168.698 136.32 168.698 136.705C168.698 136.823 168.671 137.799 168.671 137.207C168.645 136.35 168.698 135.492 168.724 134.634C168.46 134.663 168.195 134.722 167.957 134.752C168.09 135.669 168.169 136.586 168.169 137.533C168.433 137.533 168.698 137.533 168.962 137.533C168.962 137.415 168.962 137.296 168.962 137.178C168.962 136.616 168.169 136.616 168.169 137.178C168.169 137.296 168.169 137.415 168.169 137.533C168.169 138.095 168.962 138.095 168.962 137.533C168.962 136.527 168.883 135.521 168.724 134.515C168.645 134.013 167.957 134.16 167.957 134.634C167.931 135.58 167.825 136.616 167.931 137.562C167.984 138.006 168.169 138.42 168.618 138.509C169.94 138.805 169.544 135.906 169.438 135.196C169.359 134.634 169.279 133.776 168.803 133.45C168.407 133.184 167.984 133.45 167.746 133.865C167.085 135.107 167.455 136.941 168.063 138.065C168.248 138.568 168.936 138.125 168.671 137.651Z" fill="#161616"/>
<path d="M180.885 136.083C180.489 135.373 180.304 134.604 180.357 133.776C180.357 133.598 180.462 132.829 180.595 132.8C180.674 132.8 180.806 133.835 180.832 133.953C180.885 134.338 180.912 134.752 180.912 135.137C180.912 135.255 180.885 136.231 180.885 135.64C180.859 134.782 180.912 133.924 180.938 133.066C180.674 133.095 180.41 133.155 180.172 133.184C180.304 134.101 180.383 135.018 180.383 135.965C180.647 135.965 180.912 135.965 181.176 135.965C181.176 135.847 181.176 135.728 181.176 135.61C181.176 135.048 180.383 135.048 180.383 135.61C180.383 135.728 180.383 135.847 180.383 135.965C180.383 136.527 181.176 136.527 181.176 135.965C181.176 134.959 181.097 133.953 180.938 132.947C180.859 132.445 180.172 132.592 180.172 133.066C180.145 134.012 180.039 135.048 180.145 135.995C180.198 136.438 180.383 136.852 180.832 136.941C182.154 137.237 181.758 134.338 181.652 133.628C181.573 133.066 181.493 132.208 181.018 131.882C180.621 131.616 180.198 131.882 179.96 132.297C179.299 133.539 179.669 135.373 180.277 136.497C180.462 137.03 181.15 136.586 180.885 136.083Z" fill="#161616"/>
<path d="M164.759 140.373C165.261 140.373 165.261 139.485 164.759 139.485C164.256 139.485 164.256 140.373 164.759 140.373Z" fill="#161616"/>
<path d="M167.878 141.024C167.905 141.024 167.931 141.024 167.984 141.024C168.195 141.024 168.38 140.817 168.38 140.58C168.38 140.343 168.195 140.136 167.984 140.136C167.957 140.136 167.931 140.136 167.878 140.136C167.667 140.136 167.482 140.343 167.482 140.58C167.482 140.817 167.64 141.024 167.878 141.024Z" fill="#161616"/>
<path d="M166.027 143.745C166.53 143.745 166.53 142.858 166.027 142.858C165.525 142.858 165.499 143.745 166.027 143.745Z" fill="#161616"/>
<path d="M181.044 139.929C181.07 139.929 181.097 139.929 181.15 139.929C181.361 139.929 181.546 139.722 181.546 139.485C181.546 139.249 181.361 139.042 181.15 139.042C181.123 139.042 181.097 139.042 181.044 139.042C180.832 139.042 180.647 139.249 180.647 139.485C180.647 139.722 180.806 139.929 181.044 139.929Z" fill="#161616"/>
<path d="M183.952 137.74C184.454 137.74 184.454 136.853 183.952 136.853C183.45 136.853 183.45 137.74 183.952 137.74Z" fill="#161616"/>
<path d="M183.556 140.136C183.582 140.136 183.608 140.136 183.661 140.136C183.873 140.136 184.058 139.929 184.058 139.692C184.058 139.456 183.873 139.249 183.661 139.249C183.635 139.249 183.608 139.249 183.556 139.249C183.344 139.249 183.159 139.456 183.159 139.692C183.185 139.929 183.344 140.136 183.556 140.136Z" fill="#161616"/>
<path d="M170.971 152.295C170.548 151.615 169.861 150.638 170.152 149.751C170.495 148.745 171.579 148.893 172.293 149.011C173.166 149.159 173.879 149.337 174.725 149.041C175.413 148.804 176.021 148.301 176.655 147.917C178.162 146.97 179.934 146.881 180.41 149.1C181.758 155.165 172.187 156.88 170.707 151.555C170.548 151.023 169.782 151.23 169.94 151.792C171.764 158.33 183.08 155.904 181.097 148.656C180.753 147.443 179.934 146.408 178.77 146.26C176.867 146.053 175.624 148.183 173.8 148.331C172.452 148.449 170.813 147.295 169.729 148.715C168.751 149.987 169.544 151.615 170.257 152.739C170.575 153.212 171.262 152.768 170.971 152.295Z" fill="#161616"/>
<path d="M169.438 150.609C170.02 152.413 172.928 151.851 174.197 151.644C176.629 151.23 178.85 150.047 180.727 148.301C181.123 147.946 180.568 147.295 180.172 147.68C178.797 148.982 177.211 149.928 175.466 150.461C174.699 150.697 170.654 151.703 170.231 150.402C170.02 149.84 169.253 150.076 169.438 150.609Z" fill="#161616"/>
<path d="M174.144 163.596C177.237 164.483 181.361 162.294 183.106 159.425C183.397 158.951 182.71 158.508 182.419 158.981C180.885 161.495 177.052 163.507 174.355 162.738C173.853 162.59 173.641 163.448 174.144 163.596Z" fill="#161616"/>
<path d="M174.435 163.862C177.184 165.785 181.705 163.063 183.027 160.135C183.265 159.632 182.577 159.188 182.339 159.691C181.229 162.176 177.184 164.75 174.831 163.123C174.382 162.797 173.985 163.566 174.435 163.862Z" fill="#161616"/>
<path opacity="0.2" d="M185.406 132.504C185.591 133.569 185.829 135.255 185.988 137.296C186.358 142.74 186.992 151.851 182.075 157.916C181.018 159.217 178.77 161.525 174.62 162.827C175.942 162.768 177.554 162.59 179.299 162.087C180.172 161.85 180.965 161.555 181.679 161.229C181.784 163.862 181.864 166.495 181.969 169.128C182.868 168.477 183.741 167.856 184.64 167.205C183.423 164.188 183.423 161.85 183.582 160.371C183.82 158.3 184.507 156.614 185.195 154.928C185.803 153.449 186.437 152.265 186.94 151.437C186.992 152.058 187.125 152.709 187.495 153.33C189.107 156.022 194.157 156.289 197.33 153.981C200.264 151.851 201.692 147.532 200.951 143.095C201.454 143.568 201.983 144.13 202.485 144.81C202.881 145.343 203.912 146.881 205.34 152.295C205.79 153.981 206.001 154.839 206.133 155.697C206.292 156.88 206.583 159.129 206.027 161.673C205.076 166.051 202.247 168.566 201.401 169.276C200.793 169.779 198.942 171.288 196.166 171.998C194.844 172.323 190.879 173.388 187.151 170.962C185.75 170.045 184.983 169.365 184.56 168.536C184.111 167.619 184.058 166.761 184.005 166.11C183.767 162.057 183.661 160.016 183.899 158.626C184.613 154.602 186.226 154.188 187.125 149.603C187.442 147.946 187.521 146.556 187.548 145.668C187.891 145.727 188.42 145.787 189.055 145.609C190.376 145.225 191.037 144.012 191.275 143.568C192.227 141.882 192.65 138.864 191.17 137.474C190.958 137.267 190.218 136.645 188.79 136.764C187.706 135.344 186.569 133.924 185.406 132.504Z" fill="#2C6975"/>
<path opacity="0.13" d="M172.875 142.089C174.223 142.532 175.598 143.006 176.946 143.45C176.602 143.805 176.259 144.13 175.889 144.485C175.545 144.81 175.228 145.077 174.884 145.372C174.461 145.017 173.853 144.396 173.377 143.45C173.113 142.947 172.954 142.473 172.875 142.089Z" fill="#3F3F3F"/>
<path opacity="0.16" d="M151.672 145.787C148.79 157.176 150.932 166.377 155.241 168.388C158.625 169.956 164.732 167.738 165.869 163.862C166.028 163.359 166.186 162.472 165.578 159.75C165.049 157.354 163.965 153.745 161.533 149.633C161.11 149.337 160.555 148.863 160.026 148.153C159.101 146.881 158.837 145.52 158.757 144.87C159.524 145.757 160.634 146.881 161.348 146.526C162.035 146.171 162.458 145.106 162.22 144.041C162.458 145.402 162.829 147.266 163.516 149.425C164.415 152.295 165.314 155.076 167.402 157.709C168.354 158.922 170.231 160.904 173.404 162.324C173.932 163.063 174.91 164.661 175.228 166.998C175.281 167.353 175.466 168.98 174.99 171.021C174.884 171.495 174.25 174.068 172.161 176.287C169.729 178.89 166.821 179.364 165.869 179.512C158.704 180.577 153.152 173.565 152.174 172.352C151.196 171.11 149.583 169.039 148.658 165.844C147.178 160.756 148.314 156.17 149.134 152.828C149.901 149.692 150.932 147.325 151.672 145.787Z" fill="#3F3F3F"/>
</g>
<defs>
<filter id="filter0_d" x="-6" y="-6" width="443" height="375" filterUnits="userSpaceOnUse" color-interpolation-filters="sRGB">
<feFlood flood-opacity="0" result="BackgroundImageFix"/>
<feColorMatrix in="SourceAlpha" type="matrix" values="0 0 0 0 0 0 0 0 0 0 0 0 0 0 0 0 0 0 127 0"/>
<feOffset dx="4" dy="4"/>
<feGaussianBlur stdDeviation="5"/>
<feColorMatrix type="matrix" values="0 0 0 0 0 0 0 0 0 0 0 0 0 0 0 0 0 0 0.25 0"/>
<feBlend mode="normal" in2="BackgroundImageFix" result="effect1_dropShadow"/>
<feBlend mode="normal" in="SourceGraphic" in2="effect1_dropShadow" result="shape"/>
</filter>
</defs>
</svg>
