<svg width="379" height="288" viewBox="0 0 379 288" fill="none" xmlns="http://www.w3.org/2000/svg">
<path d="M79.4005 191.16C80.5376 198.096 81.9114 204.96 83.5459 211.8C83.6643 212.256 84.3276 212.064 84.2328 211.608C82.5984 204.792 81.2008 197.904 80.0875 190.968C79.9927 190.512 79.3058 190.704 79.4005 191.16Z" fill="#161616"/>
<path d="M102.354 192.12C101.075 198.264 99.9851 204.48 99.1087 210.696C99.0376 211.152 99.7245 211.344 99.7956 210.888C100.672 204.648 101.762 198.456 103.041 192.312C103.136 191.856 102.449 191.664 102.354 192.12Z" fill="#161616"/>
<path d="M83.6879 212.04C88.8518 214.392 94.9395 214.608 99.6533 211.056C100.009 210.792 99.6533 210.168 99.298 210.432C94.821 213.816 88.9939 213.672 84.0669 211.416C83.6405 211.224 83.2615 211.848 83.6879 212.04Z" fill="#161616"/>
<path d="M79.6139 191.088C81.3667 191.904 83.1907 192.072 85.0857 192.192C87.2175 192.312 89.3494 192.384 91.4813 192.408C95.4134 192.48 99.4877 192.672 103.207 191.112C103.633 190.944 103.443 190.248 103.017 190.416C99.5113 191.904 95.674 191.76 91.955 191.712C89.9653 191.688 87.9992 191.616 86.0095 191.52C83.9487 191.424 81.8642 191.376 79.9692 190.488C79.5428 190.272 79.1875 190.896 79.6139 191.088Z" fill="#161616"/>
<path d="M102.519 190.872C101.122 197.496 99.8902 204.168 98.8716 210.864C98.8005 211.32 99.4875 211.512 99.5585 211.056C100.577 204.36 101.785 197.688 103.206 191.064C103.301 190.608 102.614 190.416 102.519 190.872Z" fill="#161616"/>
<path d="M81.6034 202.344C83.1668 206.088 85.1565 209.64 87.549 212.904C87.8095 213.264 88.4254 212.904 88.1649 212.544C85.7724 209.256 83.7827 205.728 82.2193 201.984C82.0298 201.552 81.4376 201.936 81.6034 202.344Z" fill="#161616"/>
<path d="M79.8743 191.688C83.0721 199.344 87.17 206.568 92.097 213.216C92.3576 213.576 92.9971 213.216 92.7129 212.856C87.7859 206.208 83.6879 198.984 80.4901 191.328C80.3243 190.896 79.7085 191.256 79.8743 191.688Z" fill="#161616"/>
<path d="M85.3462 192C88.165 199.128 91.7655 205.872 96.124 212.136C96.3846 212.52 97.0004 212.16 96.7399 211.776C92.4051 205.56 88.8046 198.864 86.0331 191.808C85.8673 191.4 85.1804 191.568 85.3462 192Z" fill="#161616"/>
<path d="M89.9651 192.144C92.4523 198.144 95.4843 203.904 99.0137 209.352C99.2743 209.736 99.8901 209.376 99.6296 208.992C96.1238 203.592 93.1155 197.904 90.652 191.952C90.4862 191.544 89.7993 191.736 89.9651 192.144Z" fill="#161616"/>
<path d="M94.3237 192.672C95.8397 196.488 97.6873 200.136 99.8666 203.616C100.103 204 100.719 203.64 100.482 203.256C98.3269 199.848 96.503 196.248 95.0107 192.504C94.8448 192.048 94.1579 192.24 94.3237 192.672Z" fill="#161616"/>
<path d="M97.9714 192.336C98.8479 194.424 99.8427 196.44 100.98 198.384C101.217 198.792 101.833 198.432 101.596 198.024C100.459 196.08 99.4637 194.064 98.5873 191.976C98.4215 191.544 97.8056 191.904 97.9714 192.336Z" fill="#161616"/>
<path d="M100.861 191.76C101.193 192.552 101.572 193.32 102.046 194.04C102.306 194.424 102.922 194.064 102.662 193.68C102.235 193.008 101.856 192.312 101.548 191.568C101.359 191.136 100.672 191.328 100.861 191.76Z" fill="#161616"/>
<path d="M89.2547 191.544C88.8994 189.168 88.8046 186.768 88.923 184.344C88.7809 184.464 88.6151 184.584 88.473 184.68C88.9704 184.872 89.8942 185.448 90.439 185.184C90.9128 184.944 90.818 184.224 90.8417 183.768C90.9365 182.448 91.0786 181.272 91.7655 180.12C92.3577 179.136 93.1394 178.272 93.85 177.36C96.6925 173.76 99.2982 169.968 101.691 166.032C101.477 166.032 101.288 166.032 101.075 166.032C102.259 168.12 102.662 170.904 102.922 173.28C103.183 175.632 103.088 178.008 102.449 180.288C101.856 182.4 100.885 184.368 99.7245 186.216C98.5639 188.016 97.19 190.032 95.5082 191.376C95.1529 191.664 95.6503 192.168 96.0056 191.88C97.7822 190.464 99.2508 188.328 100.459 186.408C101.691 184.464 102.685 182.352 103.254 180.12C103.87 177.744 103.917 175.272 103.609 172.848C103.301 170.472 102.899 167.784 101.714 165.696C101.572 165.456 101.241 165.48 101.098 165.696C98.8244 169.44 96.3609 173.064 93.6605 176.52C92.5946 177.888 91.2444 179.232 90.6285 180.888C90.3443 181.632 90.2495 182.4 90.2022 183.192C90.1785 183.408 90.2732 184.392 90.0837 184.512C89.9416 184.608 88.8757 184.08 88.6862 184.008C88.4493 183.936 88.2598 184.128 88.2361 184.344C88.094 186.816 88.2361 189.264 88.5914 191.712C88.6388 192.192 89.3257 192 89.2547 191.544Z" fill="#161616"/>
<path d="M74.7342 168.192C75.4211 172.56 76.487 176.88 77.932 181.056C79.2348 184.8 80.7508 188.328 83.3801 191.304C83.688 191.64 84.1855 191.136 83.8775 190.8C81.1298 187.704 79.6138 183.912 78.311 180C77.0082 176.088 76.037 172.056 75.3974 167.976C75.35 167.544 74.6631 167.736 74.7342 168.192Z" fill="#161616"/>
<path d="M74.8052 167.736C76.2028 169.056 77.932 169.776 79.8033 170.04C80.4902 170.136 82.5984 169.896 82.8827 170.616C83.0248 170.976 82.7406 171.96 82.6932 172.368C82.6221 173.088 82.5511 173.832 82.4563 174.552C82.4326 174.816 82.6932 174.936 82.9064 174.888C83.7354 174.768 84.5645 174.648 85.3936 174.528C86.4832 174.384 86.9806 175.152 87.7386 175.848C89.0414 177.072 90.3205 178.32 91.6234 179.544C91.955 179.856 92.4524 179.352 92.1208 179.04C90.4627 177.456 88.8519 175.656 87.0517 174.216C85.891 173.28 84.0907 174 82.7169 174.192C82.859 174.312 83.0248 174.432 83.1669 174.528C83.3091 173.232 83.7354 171.648 83.5933 170.352C83.5222 169.728 83.0959 169.536 82.5274 169.488C79.8507 169.272 77.3872 169.224 75.279 167.232C74.9711 166.896 74.4499 167.4 74.8052 167.736Z" fill="#161616"/>
<path d="M74.8526 167.352C75.2553 176.232 79.2585 184.272 83.6881 191.76C83.9249 192.168 84.5408 191.784 84.3039 191.4C79.9454 184.008 75.9659 176.112 75.5633 167.352C75.5396 166.872 74.8289 166.872 74.8526 167.352Z" fill="#161616"/>
<path d="M79.9215 190.896C81.0348 190.944 82.1244 190.92 83.2377 190.8C83.6878 190.752 83.6878 190.032 83.2377 190.08C82.1244 190.2 81.0348 190.224 79.9215 190.176C79.4477 190.152 79.4477 190.872 79.9215 190.896Z" fill="#161616"/>
<path d="M80.7743 191.208C81.7218 191.184 82.6456 191.352 83.5221 191.712C83.9484 191.88 84.3038 191.28 83.8774 191.088C82.8825 190.656 81.8639 190.44 80.7743 190.464C80.3243 190.512 80.3243 191.232 80.7743 191.208Z" fill="#161616"/>
<path d="M95.5553 192.192C97.9004 191.208 100.34 190.824 102.875 191.088C103.325 191.136 103.325 190.416 102.875 190.368C100.293 190.128 97.7582 190.488 95.3658 191.52C94.9631 191.664 95.1289 192.36 95.5553 192.192Z" fill="#161616"/>
<path d="M97.119 191.904C98.5876 191.304 100.198 191.592 101.714 191.328C102.164 191.256 101.975 190.56 101.525 190.632C99.9852 190.896 98.3981 190.584 96.9295 191.208C96.5268 191.4 96.7163 192.096 97.119 191.904Z" fill="#161616"/>
<path d="M97.3082 190.896C99.1085 191.088 100.909 191.112 102.733 190.968C103.183 190.944 103.183 190.224 102.733 190.248C100.909 190.368 99.1085 190.344 97.3082 190.176C96.8582 190.128 96.8582 190.848 97.3082 190.896Z" fill="#161616"/>
<path d="M101.335 167.808C99.6059 176.472 92.8787 183.048 91.0547 191.688C90.9837 192.024 91.5048 192.168 91.5759 191.832C93.3998 183.192 100.127 176.616 101.856 167.952C101.927 167.616 101.406 167.472 101.335 167.808Z" fill="#161616"/>
<path d="M74.6868 167.232C75.2789 173.088 76.9134 178.728 79.5664 183.96C79.7322 184.272 80.1823 184.008 80.0165 183.696C77.4345 178.56 75.8001 172.992 75.2316 167.232C75.1842 166.896 74.6394 166.872 74.6868 167.232Z" fill="#161616"/>
<path d="M75.1368 167.4C77.0081 168.888 79.14 169.848 81.5087 170.208C81.8404 170.256 81.9825 169.728 81.6509 169.68C79.4006 169.344 77.316 168.456 75.5158 167.016C75.2315 166.8 74.8526 167.184 75.1368 167.4Z" fill="#161616"/>
<path d="M93.1157 177.816C93.7553 179.928 94.0395 182.064 93.9448 184.248C93.9211 184.584 94.4659 184.584 94.4896 184.248C94.5606 181.992 94.2764 179.808 93.6368 177.672C93.5421 177.336 93.021 177.48 93.1157 177.816Z" fill="#161616"/>
<path d="M101.122 166.584C101.406 167.544 101.335 168.528 100.885 169.44C100.719 169.752 101.193 170.016 101.335 169.704C101.856 168.672 101.951 167.544 101.619 166.44C101.548 166.104 101.027 166.248 101.122 166.584Z" fill="#161616"/>
<path d="M96.7872 179.616C99.1796 177.768 101.572 175.92 103.467 173.496C103.68 173.232 103.301 172.848 103.088 173.112C101.24 175.488 98.8954 177.336 96.5266 179.136C96.2661 179.352 96.5266 179.832 96.7872 179.616Z" fill="#161616"/>
<path d="M75.2789 168.336C77.2686 171.96 79.4479 175.44 81.8403 178.8C84.0907 181.968 86.9568 184.92 88.1886 188.664C88.307 189 88.8045 188.856 88.7097 188.52C87.478 184.848 84.7776 181.968 82.551 178.872C80.0638 175.416 77.7898 171.792 75.729 168.048C75.5868 167.76 75.1131 168.048 75.2789 168.336Z" fill="#161616"/>
<path d="M80.3243 169.848C80.1822 172.296 80.3954 174.72 80.9402 177.096C81.0113 177.432 81.5324 177.288 81.4613 176.952C80.9165 174.6 80.727 172.248 80.8691 169.848C80.8928 169.488 80.348 169.488 80.3243 169.848Z" fill="#161616"/>
<path d="M87.5016 175.92C86.7909 178.68 86.3646 181.464 86.1987 184.296C86.1751 184.632 86.7199 184.632 86.7436 184.296C86.9094 181.512 87.3358 178.752 88.0227 176.064C88.1174 175.728 87.5963 175.584 87.5016 175.92Z" fill="#161616"/>
<path d="M80.49 185.904C81.4138 186.552 82.9061 186.696 83.9958 186.84C85.1565 187.008 86.2698 186.984 87.3831 186.72C87.7147 186.648 87.5726 186.12 87.241 186.192C86.0329 186.456 84.8959 186.432 83.6878 186.24C82.7877 186.096 81.4849 185.952 80.7506 185.424C80.4663 185.256 80.2058 185.712 80.49 185.904Z" fill="#161616"/>
<path d="M295.597 210.768C308.577 210.768 321.534 210.768 334.515 210.768C334.847 210.768 334.87 210.216 334.515 210.216C321.534 210.216 308.577 210.216 295.597 210.216C295.241 210.216 295.241 210.768 295.597 210.768Z" fill="#161616"/>
<path d="M306.113 210C305.426 210.216 304.005 202.92 303.934 202.248C303.626 199.608 303.697 196.92 304.124 194.28C303.958 194.28 303.792 194.28 303.603 194.28C304.076 195.624 304.858 196.656 305.995 197.496C306.279 197.688 306.54 197.232 306.256 197.04C305.237 196.296 304.526 195.336 304.1 194.16C304.029 193.944 303.626 193.872 303.579 194.16C303.058 197.352 303.058 200.616 303.603 203.808C303.887 205.488 304.313 207.12 304.905 208.728C305.095 209.256 305.403 210.84 306.256 210.552C306.587 210.408 306.445 209.88 306.113 210Z" fill="#161616"/>
<path d="M306.398 196.944C305.853 194.184 306.753 191.52 307.89 189.024C308.909 186.792 310.069 184.656 311.254 182.52C313.551 178.368 315.92 174.216 317.602 169.752C317.436 169.752 317.27 169.752 317.081 169.752C318.455 173.904 319.355 178.176 319.71 182.544C319.876 184.68 319.9 186.84 319.852 188.976C319.829 190.032 319.923 191.208 319.71 192.24C319.473 193.464 318.55 194.112 317.578 194.736C317.389 194.856 317.413 195.072 317.578 195.192C317.886 195.432 318.147 195.48 318.55 195.504C318.763 195.504 319.047 195.432 319.26 195.48C320.326 195.744 320.16 196.584 320.089 197.256C319.923 198.864 319.616 200.472 319.189 202.032C318.336 205.056 317.01 207.912 315.257 210.504C315.068 210.792 315.518 211.056 315.707 210.768C317.792 207.672 319.284 204.216 320.089 200.568C320.279 199.752 320.421 198.912 320.516 198.072C320.61 197.376 320.824 196.512 320.587 195.816C320.089 194.4 318.739 195.432 317.839 194.736C317.839 194.88 317.839 195.048 317.839 195.192C319.189 194.304 320.184 193.416 320.279 191.712C320.421 189.096 320.445 186.456 320.302 183.864C320.042 178.992 319.118 174.192 317.578 169.584C317.484 169.32 317.152 169.344 317.057 169.584C315.21 174.552 312.462 179.112 309.927 183.744C307.772 187.704 304.929 192.336 305.853 197.064C305.948 197.424 306.469 197.28 306.398 196.944Z" fill="#161616"/>
<path d="M320.516 184.8C321.155 183.528 321.795 182.256 322.434 180.96C322.742 180.36 323.05 179.76 323.335 179.136C323.477 178.872 323.595 178.608 323.737 178.32C323.832 178.128 323.927 177.936 324.021 177.768C324.211 177.312 324.614 177.192 325.253 177.384C325.253 177.6 325.561 177.768 325.703 177.576C328.877 173.808 331.601 169.704 333.875 165.312C333.71 165.264 333.544 165.216 333.378 165.168C333.307 168.576 333.26 172.008 333.425 175.416C333.496 176.976 333.639 178.56 333.852 180.12C333.946 180.84 334.231 181.68 334.207 182.424C334.397 182.88 334.278 183.264 333.828 183.552C333.686 184.032 333.378 184.32 332.928 184.392C332.525 184.584 332.028 184.68 331.601 184.776C331.341 184.848 331.341 185.232 331.601 185.304C333.733 185.856 332.999 188.592 332.691 190.128C332.525 190.968 332.478 191.904 331.412 191.976C330.986 192 330.725 191.856 330.299 191.976C330.109 192.024 330.062 192.216 330.133 192.384C330.322 192.84 330.63 192.84 330.938 193.152C331.72 193.92 331.151 195.552 330.938 196.44C330.559 198.096 330.062 199.704 329.446 201.288C328.214 204.504 326.532 207.48 324.472 210.216C324.258 210.504 324.732 210.768 324.922 210.48C327.172 207.48 328.972 204.192 330.228 200.64C330.867 198.864 331.365 197.016 331.72 195.168C331.815 194.64 332.099 193.824 331.862 193.296C331.601 192.696 330.82 192.672 330.559 192.072C330.512 192.216 330.464 192.336 330.393 192.48C331.104 192.288 332.028 192.912 332.62 192.264C333.236 191.616 333.212 190.008 333.378 189.168C333.686 187.488 333.686 185.28 331.696 184.776C331.696 184.944 331.696 185.112 331.696 185.304C332.715 185.016 334.728 184.8 334.847 183.432C334.894 182.76 334.633 182.016 334.515 181.368C334.325 180.168 334.183 178.968 334.065 177.744C333.71 173.568 333.781 169.368 333.852 165.168C333.852 164.904 333.473 164.784 333.354 165.024C331.128 169.368 328.404 173.448 325.277 177.168C325.419 177.24 325.585 177.288 325.727 177.36C325.68 175.896 324.093 176.472 323.571 177.312C322.174 179.544 321.155 182.136 319.971 184.488C319.9 184.824 320.35 185.112 320.516 184.8Z" fill="#161616"/>
<path d="M333.046 166.176C330.606 181.632 323.216 195.6 318.455 210.384C318.36 210.72 318.857 210.864 318.976 210.528C323.713 195.768 331.128 181.8 333.567 166.32C333.615 165.984 333.117 165.84 333.046 166.176Z" fill="#161616"/>
<path d="M322.647 179.28C322.861 184.464 323.382 189.624 324.14 194.76C324.187 195.096 324.708 194.952 324.661 194.616C323.903 189.528 323.406 184.416 323.192 179.28C323.169 178.92 322.624 178.92 322.647 179.28Z" fill="#161616"/>
<path d="M328.214 185.832C329.896 183.144 332.265 181.032 334.231 178.584C334.444 178.32 334.065 177.936 333.852 178.2C331.862 180.696 329.469 182.832 327.764 185.568C327.551 185.856 328.025 186.12 328.214 185.832Z" fill="#161616"/>
<path d="M316.891 170.664C316.726 184.224 309.667 196.776 310.567 210.432C310.591 210.768 311.112 210.768 311.112 210.432C310.212 196.776 317.27 184.224 317.436 170.664C317.436 170.304 316.891 170.304 316.891 170.664Z" fill="#161616"/>
<path d="M307.819 188.04C308.553 192.096 309.69 196.056 311.206 199.872C311.325 200.184 311.846 200.04 311.728 199.728C310.212 195.912 309.075 191.952 308.34 187.896C308.269 187.536 307.772 187.68 307.819 188.04Z" fill="#161616"/>
<path d="M313.599 191.16C315.944 188.448 318.668 185.568 320.137 182.256C320.279 181.944 319.829 181.656 319.686 181.992C318.218 185.256 315.541 188.112 313.22 190.776C313.007 191.04 313.386 191.424 313.599 191.16Z" fill="#161616"/>
<path d="M313.623 177.24C313.978 179.4 314.475 181.536 315.044 183.648C315.139 183.984 315.66 183.84 315.565 183.504C314.973 181.392 314.499 179.256 314.144 177.096C314.073 176.76 313.575 176.904 313.623 177.24Z" fill="#161616"/>
<path d="M319.805 207.96C321.889 206.616 324.021 205.32 326.058 203.88C327.693 202.728 329.517 201.48 330.535 199.728C330.701 199.416 330.251 199.152 330.085 199.464C328.996 201.36 326.864 202.704 325.111 203.904C323.287 205.152 321.416 206.304 319.568 207.504C319.236 207.672 319.521 208.152 319.805 207.96Z" fill="#161616"/>
<path d="M73.2418 211.968C77.3871 211.968 81.5324 211.968 85.6778 211.968C86.0094 211.968 86.0331 211.416 85.6778 211.416C81.5324 211.416 77.3871 211.416 73.2418 211.416C72.8865 211.44 72.8865 211.968 73.2418 211.968Z" fill="#161616"/>
<path d="M98.9902 212.16C102.212 212.16 105.41 212.16 108.631 212.16C108.963 212.16 108.986 211.608 108.631 211.608C105.41 211.608 102.212 211.608 98.9902 211.608C98.6585 211.608 98.6585 212.16 98.9902 212.16Z" fill="#161616"/>
<path d="M196.488 53.712C196.488 70.584 196.488 87.456 196.488 104.328C196.488 109.104 196.488 113.88 196.488 118.656C196.488 118.992 197.033 119.016 197.033 118.656C197.033 101.784 197.033 84.912 197.033 68.04C197.033 63.264 197.033 58.488 197.033 53.712C197.009 53.376 196.488 53.376 196.488 53.712Z" fill="#161616"/>
<path d="M196.796 53.9761C214.348 53.9761 231.901 53.9761 249.477 53.9761C254.427 53.9761 259.402 53.9761 264.353 53.9761C264.684 53.9761 264.708 53.4241 264.353 53.4241C246.8 53.4241 229.248 53.4241 211.672 53.4241C206.721 53.4241 201.747 53.4241 196.796 53.4241C196.464 53.4481 196.464 53.9761 196.796 53.9761Z" fill="#161616"/>
<path d="M196.962 119.328C214.277 119.328 231.593 119.328 248.908 119.328C253.788 119.328 258.668 119.328 263.547 119.328C263.879 119.328 263.902 118.776 263.547 118.776C246.232 118.776 228.916 118.776 211.6 118.776C206.721 118.776 201.841 118.776 196.962 118.776C196.63 118.8 196.63 119.328 196.962 119.328Z" fill="#161616"/>
<path d="M264.092 53.88C264.092 70.656 264.092 87.432 264.092 104.184C264.092 108.984 264.092 113.76 264.092 118.56C264.092 118.896 264.637 118.92 264.637 118.56C264.637 101.784 264.637 85.008 264.637 68.256C264.637 63.456 264.637 58.68 264.637 53.88C264.637 53.544 264.092 53.52 264.092 53.88Z" fill="#161616"/>
<path d="M263.429 119.328C263.831 119.352 264.258 119.184 264.518 118.872C264.731 118.608 264.376 118.224 264.139 118.488C263.95 118.704 263.713 118.8 263.429 118.776C263.097 118.776 263.097 119.304 263.429 119.328Z" fill="#161616"/>
<path d="M196.701 91.3198C214.088 91.3198 231.474 91.3198 248.861 91.3198C253.812 91.3198 258.786 91.3198 263.737 91.3198C264.068 91.3198 264.092 90.7678 263.737 90.7678C246.35 90.7678 228.963 90.7678 211.577 90.7678C206.626 90.7678 201.652 90.7678 196.701 90.7678C196.369 90.7918 196.369 91.3198 196.701 91.3198Z" fill="#161616"/>
<path d="M200.207 84.3359C219.725 84.3359 239.244 84.3359 258.739 84.3359C259.07 84.3359 259.094 83.7839 258.739 83.7839C239.22 83.7839 219.702 83.7839 200.207 83.7839C199.852 83.8079 199.852 84.3359 200.207 84.3359Z" fill="#161616"/>
<path d="M200.065 76.584C218.991 76.584 237.917 76.584 256.844 76.584C257.175 76.584 257.199 76.032 256.844 76.032C237.917 76.032 218.991 76.032 200.065 76.032C199.733 76.032 199.733 76.584 200.065 76.584Z" fill="#161616"/>
<path d="M203.594 68.04C220.223 68.04 236.851 68.04 253.456 68.04C253.788 68.04 253.812 67.488 253.456 67.488C236.828 67.488 220.199 67.488 203.594 67.488C203.239 67.512 203.239 68.04 203.594 68.04Z" fill="#161616"/>
<path d="M208.734 58.7519C223.965 58.7519 239.22 58.7519 254.451 58.7519C254.783 58.7519 254.807 58.2 254.451 58.2C239.22 58.2 223.965 58.2 208.734 58.2C208.403 58.224 208.403 58.7519 208.734 58.7519Z" fill="#161616"/>
<path d="M198.051 91.3201C198.051 99.7681 198.051 108.216 198.051 116.64C198.051 116.976 198.596 117 198.596 116.64C198.596 108.192 198.596 99.7441 198.596 91.3201C198.572 90.9841 198.051 90.9841 198.051 91.3201Z" fill="#161616"/>
<path d="M198.312 117.192C214.846 117.192 231.403 117.192 247.937 117.192C252.675 117.192 257.389 117.192 262.126 117.192C262.458 117.192 262.481 116.64 262.126 116.64C245.592 116.64 229.035 116.64 212.501 116.64C207.763 116.64 203.049 116.64 198.312 116.64C197.98 116.64 197.98 117.192 198.312 117.192Z" fill="#161616"/>
<path d="M262.244 91.824C262.244 100.104 262.244 108.36 262.244 116.64C262.244 116.976 262.789 117 262.789 116.64C262.789 108.36 262.789 100.104 262.789 91.824C262.765 91.488 262.244 91.488 262.244 91.824Z" fill="#161616"/>
<path d="M198.62 107.352C198.525 105.672 200.088 104.616 201.581 105.48C201.699 105.552 201.865 105.504 201.936 105.384C202.339 104.664 202.291 103.992 202.386 103.2C202.481 102.504 202.718 101.856 203.499 101.76C203.878 101.712 204.257 101.904 204.636 101.832C205.181 101.712 205.394 101.376 205.655 100.896C206.129 99.9599 206.413 99.1199 207.266 98.4479C209.374 96.7199 211.743 98.4959 212.501 100.704C213.211 102.816 212.69 105.216 212.666 107.4C212.666 107.592 212.832 107.688 212.998 107.664C216.362 106.968 218.138 111.456 215.201 113.304C215.012 113.424 215.035 113.736 215.272 113.808C216.48 114.192 218.091 115.272 217.143 116.784C216.954 117.072 217.428 117.36 217.593 117.048C218.73 115.248 216.978 113.784 215.414 113.28C215.438 113.448 215.462 113.616 215.485 113.784C216.954 112.848 217.712 110.976 217.049 109.296C216.385 107.616 214.538 106.8 212.856 107.16C212.974 107.256 213.069 107.328 213.188 107.424C213.211 104.952 213.851 102.216 212.714 99.8879C211.956 98.3039 210.369 96.9359 208.521 97.2719C207.692 97.4159 206.958 97.9199 206.389 98.5439C205.679 99.3119 205.276 101.208 204.21 101.352C203.357 101.472 202.812 101.088 202.244 101.952C201.604 102.912 202.007 104.16 201.462 105.168C201.581 105.144 201.699 105.096 201.818 105.072C200.017 104.04 197.933 105.288 198.051 107.424C198.099 107.712 198.643 107.712 198.62 107.352Z" fill="#161616"/>
<path d="M228.206 91.0801C228.206 99.6481 228.206 108.216 228.206 116.784C228.206 117.12 228.75 117.144 228.75 116.784C228.75 108.216 228.75 99.6481 228.75 91.0801C228.727 90.7201 228.206 90.7201 228.206 91.0801Z" fill="#161616"/>
<path d="M229.84 91.2C229.84 99.72 229.84 108.264 229.84 116.784C229.84 117.12 230.385 117.144 230.385 116.784C230.385 108.264 230.385 99.72 230.385 91.2C230.361 90.864 229.84 90.84 229.84 91.2Z" fill="#161616"/>
<path d="M245.971 116.664C245.474 116.256 244.905 115.776 244.739 115.104C244.431 113.784 245.331 113.616 246.066 113.136C246.492 112.848 246.919 112.512 247.013 111.984C247.132 111.384 246.729 110.928 246.468 110.424C245.853 109.152 245.687 107.448 246.871 106.416C247.937 105.48 250.424 106.56 251.016 104.904C251.182 104.4 250.969 104.04 250.78 103.608C250.258 102.36 249.879 101.136 249.998 99.768C250.069 98.784 250.211 98.352 251.324 98.208C251.798 98.136 251.68 98.328 252.082 98.04C252.201 97.944 252.272 97.776 252.367 97.68C252.983 97.056 253.243 96.432 254.238 96.408C256.867 96.36 256.844 99.936 256.962 101.736C257.033 102.648 257.128 104.976 258.431 105.072C258.975 105.12 259.094 104.688 259.331 104.304C260.041 103.224 260.847 102.552 262.197 102.648C262.529 102.672 262.529 102.144 262.197 102.096C261.036 102 259.876 102.48 259.189 103.464C259.212 103.44 258.904 104.016 258.881 104.016C258.596 104.112 257.862 103.608 257.744 103.416C257.483 102.96 257.53 102.216 257.483 101.712C257.436 100.92 257.436 100.104 257.317 99.312C257.128 98.088 256.583 96.744 255.446 96.144C254.451 95.616 253.196 95.832 252.414 96.648C252.224 96.864 252.106 97.224 251.893 97.392C251.561 97.632 251.016 97.464 250.637 97.584C250.187 97.728 249.927 98.016 249.714 98.448C249.098 99.744 249.382 101.568 249.856 102.864C249.951 103.152 250.235 103.56 250.282 103.872C250.235 104.088 250.187 104.304 250.14 104.52C250.211 105.192 249.903 105.456 249.193 105.36C249.003 105.384 248.813 105.36 248.648 105.36C247.961 105.36 247.345 105.408 246.753 105.816C245.71 106.536 245.284 107.856 245.45 109.08C245.568 109.968 246.042 110.52 246.303 111.336C246.729 112.632 245.189 112.8 244.526 113.568C243.46 114.792 244.526 116.28 245.521 117.12C245.853 117.264 246.232 116.88 245.971 116.664Z" fill="#161616"/>
<path d="M102.449 89.7122C102.449 88.8962 102.449 88.1042 102.449 87.2882C102.449 86.9522 101.904 86.9282 101.904 87.2882C101.904 88.1042 101.904 88.8962 101.904 89.7122C101.904 90.0722 102.449 90.0722 102.449 89.7122Z" fill="#161616"/>
<path d="M102.164 87.312C114.648 87.312 127.131 87.312 139.614 87.312C139.946 87.312 139.97 86.76 139.614 86.76C127.131 86.76 114.648 86.76 102.164 86.76C101.833 86.76 101.833 87.312 102.164 87.312Z" fill="#161616"/>
<path d="M102.97 90.1201C115.192 90.1201 127.415 90.1201 139.638 90.1201C139.97 90.1201 139.993 89.5681 139.638 89.5681C127.415 89.5681 115.192 89.5681 102.97 89.5681C102.614 89.5681 102.614 90.1201 102.97 90.1201Z" fill="#161616"/>
<path d="M139.614 87.1679C139.614 88.0079 139.614 88.8719 139.614 89.7119C139.614 90.0479 140.159 90.0719 140.159 89.7119C140.159 88.8719 140.159 88.0079 140.159 87.1679C140.159 86.8079 139.614 86.8079 139.614 87.1679Z" fill="#161616"/>
<path d="M104.983 86.9519C104.983 77.3279 104.983 67.7039 104.983 58.0799C104.983 57.7439 104.438 57.7199 104.438 58.0799C104.438 67.7039 104.438 77.3279 104.438 86.9519C104.438 87.3119 104.983 87.3119 104.983 86.9519Z" fill="#161616"/>
<path d="M104.912 58.3679C106.807 58.3679 108.678 58.3679 110.573 58.3679C110.905 58.3679 110.929 57.8159 110.573 57.8159C108.678 57.8159 106.807 57.8159 104.912 57.8159C104.58 57.8159 104.58 58.3679 104.912 58.3679Z" fill="#161616"/>
<path d="M110.099 58.4881C110.099 67.9441 110.099 77.4001 110.099 86.8561C110.099 87.1921 110.644 87.2161 110.644 86.8561C110.644 77.4001 110.644 67.9441 110.644 58.4881C110.644 58.1521 110.099 58.1521 110.099 58.4881Z" fill="#161616"/>
<path d="M110.478 63.696C112.587 63.696 114.718 63.696 116.827 63.696C117.158 63.696 117.182 63.144 116.827 63.144C114.718 63.144 112.587 63.144 110.478 63.144C110.123 63.144 110.123 63.696 110.478 63.696Z" fill="#161616"/>
<path d="M116.353 63.5281C116.353 71.1361 116.353 78.7441 116.353 86.3521C116.353 86.6881 116.898 86.7121 116.898 86.3521C116.898 78.7441 116.898 71.1361 116.898 63.5281C116.898 63.1681 116.353 63.1681 116.353 63.5281Z" fill="#161616"/>
<path d="M106.499 61.488C106.617 62.304 106.641 63.12 106.546 63.936C106.499 64.272 107.044 64.272 107.091 63.936C107.186 63.072 107.162 62.2081 107.02 61.3441C106.973 61.0081 106.452 61.152 106.499 61.488Z" fill="#161616"/>
<path d="M107.612 61.3919C107.778 62.2319 107.826 63.0719 107.826 63.9359C107.826 64.2719 108.347 64.2719 108.37 63.9359C108.394 63.0239 108.299 62.1359 108.133 61.2479C108.062 60.9119 107.565 61.0559 107.612 61.3919Z" fill="#161616"/>
<path d="M112.089 67.7519C113.06 67.8959 114.055 68.0399 115.05 68.1119C115.382 68.1359 115.382 67.6079 115.05 67.5599C114.103 67.4879 113.179 67.3679 112.231 67.2239C111.9 67.1759 111.734 67.6799 112.089 67.7519Z" fill="#161616"/>
<path d="M113.06 69.432C113.724 69.384 114.387 69.336 115.05 69.312C115.382 69.288 115.382 68.76 115.05 68.76C114.387 68.808 113.724 68.856 113.06 68.88C112.705 68.928 112.705 69.456 113.06 69.432Z" fill="#161616"/>
<path d="M118.982 86.568C118.982 85.224 118.982 83.88 118.982 82.536C118.982 82.2 118.438 82.176 118.438 82.536C118.438 83.88 118.438 85.224 118.438 86.568C118.438 86.904 118.982 86.904 118.982 86.568Z" fill="#161616"/>
<path d="M119.006 82.896C124.928 82.896 130.85 82.896 136.772 82.896C137.103 82.896 137.127 82.344 136.772 82.344C130.85 82.344 124.928 82.344 119.006 82.344C118.674 82.368 118.674 82.896 119.006 82.896Z" fill="#161616"/>
<path d="M136.511 82.824C136.511 84.192 136.511 85.584 136.511 86.952C136.511 87.288 137.056 87.312 137.056 86.952C137.056 85.584 137.056 84.192 137.056 82.824C137.032 82.488 136.511 82.488 136.511 82.824Z" fill="#161616"/>
<path d="M122.559 82.3439C122.559 81.4319 122.559 80.5439 122.559 79.6319C122.559 79.2959 122.014 79.2719 122.014 79.6319C122.014 80.5439 122.014 81.4319 122.014 82.3439C122.014 82.6799 122.559 82.6799 122.559 82.3439Z" fill="#161616"/>
<path d="M122.275 79.584C127.392 79.584 132.532 79.584 137.648 79.584C137.98 79.584 138.004 79.032 137.648 79.032C132.532 79.032 127.392 79.032 122.275 79.032C121.943 79.056 121.943 79.584 122.275 79.584Z" fill="#161616"/>
<path d="M137.506 79.32C137.506 80.496 137.506 81.672 137.506 82.848C137.506 83.184 138.051 83.208 138.051 82.848C138.051 81.672 138.051 80.496 138.051 79.32C138.027 78.96 137.506 78.96 137.506 79.32Z" fill="#161616"/>
<path d="M137.056 83.1361C137.269 83.0641 137.482 83.0161 137.695 83.0641C138.027 83.1361 138.169 82.6081 137.838 82.5361C137.53 82.4641 137.198 82.4881 136.914 82.6081C136.772 82.6561 136.677 82.8001 136.724 82.9441C136.772 83.0641 136.914 83.1841 137.056 83.1361Z" fill="#161616"/>
<path d="M125.71 79.584C126.018 80.544 126.112 81.552 125.97 82.56C125.923 82.896 126.444 83.04 126.491 82.704C126.657 81.6 126.562 80.52 126.231 79.44C126.112 79.104 125.615 79.248 125.71 79.584Z" fill="#161616"/>
<path d="M128.434 79.9919C128.765 79.9919 128.789 79.4399 128.434 79.4399C128.102 79.4399 128.102 79.9919 128.434 79.9919Z" fill="#161616"/>
<path d="M128.6 79.464L128.576 79.44C128.576 79.56 128.576 79.704 128.576 79.824C128.6 79.8 128.6 79.8 128.623 79.776C128.505 79.8 128.41 79.8 128.292 79.824C128.221 79.728 128.221 79.776 128.292 79.968C128.315 80.088 128.339 80.184 128.339 80.304C128.363 80.544 128.363 80.784 128.363 81.024C128.339 81.528 128.244 81.984 128.078 82.464C127.96 82.8 128.481 82.944 128.6 82.608C128.836 81.96 128.931 81.288 128.907 80.616C128.884 80.232 128.907 79.584 128.552 79.344C128.457 79.296 128.292 79.296 128.221 79.392C128.197 79.416 128.197 79.416 128.173 79.44C128.078 79.56 128.055 79.704 128.173 79.824L128.197 79.848C128.481 80.088 128.86 79.704 128.6 79.464Z" fill="#161616"/>
<path d="M110.597 71.8799C112.492 72.3119 114.387 72.3839 116.329 72.0959C116.661 72.0479 116.519 71.5199 116.187 71.5679C114.363 71.8319 112.539 71.7599 110.739 71.3519C110.384 71.2799 110.242 71.8079 110.597 71.8799Z" fill="#161616"/>
<path d="M101.572 48.864C115.666 48.864 129.76 48.864 143.878 48.864C144.209 48.864 144.233 48.312 143.878 48.312C129.784 48.312 115.69 48.312 101.572 48.312C101.24 48.312 101.24 48.864 101.572 48.864Z" fill="#161616"/>
<path d="M101.833 48.456C101.833 47.904 101.833 47.328 101.833 46.776C101.833 46.44 101.288 46.416 101.288 46.776C101.288 47.328 101.288 47.904 101.288 48.456C101.312 48.816 101.833 48.816 101.833 48.456Z" fill="#161616"/>
<path d="M101.453 46.9199C115.548 46.9199 129.642 46.9199 143.759 46.9199C144.091 46.9199 144.115 46.3679 143.759 46.3679C129.665 46.3679 115.571 46.3679 101.453 46.3679C101.098 46.3919 101.098 46.9199 101.453 46.9199Z" fill="#161616"/>
<path d="M143.594 46.7759C143.641 47.2799 143.689 47.8079 143.76 48.3119C143.783 48.6479 144.328 48.6479 144.304 48.3119C144.257 47.8079 144.21 47.2799 144.139 46.7759C144.091 46.4399 143.57 46.4399 143.594 46.7759Z" fill="#161616"/>
<path d="M104.983 46.248C104.983 41.76 104.983 37.296 104.983 32.808C104.983 32.472 104.438 32.448 104.438 32.808C104.438 37.296 104.438 41.76 104.438 46.248C104.438 46.584 104.983 46.584 104.983 46.248Z" fill="#161616"/>
<path d="M104.699 32.9519C105.694 32.9519 106.712 32.9519 107.707 32.9519C108.039 32.9519 108.062 32.3999 107.707 32.3999C106.712 32.3999 105.694 32.3999 104.699 32.3999C104.367 32.4239 104.367 32.9519 104.699 32.9519Z" fill="#161616"/>
<path d="M107.399 32.9519C107.399 37.3679 107.399 41.8079 107.399 46.2239C107.399 46.5599 107.944 46.5839 107.944 46.2239C107.944 41.8079 107.944 37.3679 107.944 32.9519C107.92 32.5919 107.399 32.5919 107.399 32.9519Z" fill="#161616"/>
<path d="M109.72 46.152C109.72 38.376 109.72 30.624 109.72 22.848C109.72 22.512 109.176 22.488 109.176 22.848C109.176 30.624 109.176 38.376 109.176 46.152C109.176 46.488 109.72 46.488 109.72 46.152Z" fill="#161616"/>
<path d="M109.531 22.728C111.379 22.728 113.203 22.728 115.05 22.728C115.382 22.728 115.406 22.176 115.05 22.176C113.203 22.176 111.379 22.176 109.531 22.176C109.176 22.2 109.176 22.728 109.531 22.728Z" fill="#161616"/>
<path d="M114.837 22.5362C114.837 30.4082 114.837 38.2802 114.837 46.1522C114.837 46.4882 115.382 46.5122 115.382 46.1522C115.382 38.2802 115.382 30.4082 115.382 22.5362C115.382 22.2002 114.837 22.2002 114.837 22.5362Z" fill="#161616"/>
<path d="M109.389 26.9761C111.237 28.0321 113.226 27.5761 115.121 26.8801C115.453 26.7601 115.311 26.2321 114.979 26.3521C113.226 26.9761 111.379 27.4801 109.65 26.4961C109.342 26.3281 109.081 26.8081 109.389 26.9761Z" fill="#161616"/>
<path d="M109.768 31.1999C110.455 31.6319 111.236 31.5838 112.018 31.5598C113.037 31.5598 114.032 31.4639 115.026 31.2239C115.358 31.1279 115.216 30.6238 114.884 30.6958C114.055 30.9118 113.226 30.9838 112.397 31.0078C111.639 31.0318 110.692 31.1518 110.028 30.7198C109.744 30.5518 109.484 31.0079 109.768 31.1999Z" fill="#161616"/>
<path d="M118.343 46.296C118.343 45.744 118.343 45.192 118.343 44.64C118.343 44.304 117.798 44.28 117.798 44.64C117.798 45.192 117.798 45.744 117.798 46.296C117.822 46.632 118.343 46.656 118.343 46.296Z" fill="#161616"/>
<path d="M118.224 44.832C123.815 44.832 129.381 44.832 134.971 44.832C135.303 44.832 135.327 44.28 134.971 44.28C129.381 44.28 123.815 44.28 118.224 44.28C117.893 44.28 117.893 44.832 118.224 44.832Z" fill="#161616"/>
<path d="M134.853 44.6401C134.853 45.2881 134.853 45.9361 134.853 46.6081C134.853 46.9441 135.398 46.9681 135.398 46.6081C135.398 45.9601 135.398 45.3121 135.398 44.6401C135.398 44.2801 134.853 44.2801 134.853 44.6401Z" fill="#161616"/>
<path d="M121.02 42.7439C121.067 43.3199 121.114 43.8959 121.185 44.4719C121.209 44.8079 121.754 44.8079 121.73 44.4719C121.683 43.8959 121.635 43.3199 121.564 42.7439C121.517 42.4079 120.972 42.4079 121.02 42.7439Z" fill="#161616"/>
<path d="M121.28 42.864C125.946 42.864 130.613 42.864 135.279 42.864C135.611 42.864 135.635 42.312 135.279 42.312C130.613 42.312 125.946 42.312 121.28 42.312C120.948 42.336 120.948 42.864 121.28 42.864Z" fill="#161616"/>
<path d="M134.853 42.9841C134.853 43.4401 134.853 43.8961 134.853 44.3521C134.853 44.6881 135.398 44.7121 135.398 44.3521C135.398 43.8961 135.398 43.4401 135.398 42.9841C135.398 42.6241 134.853 42.6241 134.853 42.9841Z" fill="#161616"/>
<path d="M127.51 42.384C127.51 41.52 127.51 40.68 127.51 39.816C127.51 39.48 126.965 39.456 126.965 39.816C126.965 40.68 126.965 41.52 126.965 42.384C126.965 42.72 127.51 42.72 127.51 42.384Z" fill="#161616"/>
<path d="M127.249 39.936C129.121 39.936 130.968 39.936 132.84 39.936C133.171 39.936 133.195 39.384 132.84 39.384C130.968 39.384 129.121 39.384 127.249 39.384C126.894 39.384 126.894 39.936 127.249 39.936Z" fill="#161616"/>
<path d="M132.555 39.8159C132.555 40.7279 132.555 41.6159 132.555 42.5279C132.555 42.8639 133.1 42.8879 133.1 42.5279C133.1 41.6159 133.1 40.7279 133.1 39.8159C133.1 39.4559 132.555 39.4559 132.555 39.8159Z" fill="#161616"/>
<path d="M128.457 39.192C127.107 37.824 127.06 35.136 127.06 33.336C126.918 33.408 126.752 33.456 126.61 33.528C128.197 35.256 129.215 37.32 129.594 39.648C129.642 39.984 130.163 39.84 130.115 39.504C129.713 37.08 128.647 34.944 126.989 33.144C126.823 32.976 126.539 33.096 126.539 33.336C126.515 35.304 126.633 38.088 128.102 39.576C128.315 39.816 128.694 39.456 128.457 39.192Z" fill="#161616"/>
<path d="M129.879 38.448C130.352 36.12 132.082 34.368 132.792 32.136C132.626 32.088 132.461 32.04 132.271 31.992C132.058 33.024 132.318 34.104 132.224 35.16C132.082 36.648 131.655 38.088 130.992 39.432C130.826 39.744 131.3 40.008 131.442 39.696C132.01 38.544 132.437 37.344 132.65 36.072C132.863 34.776 132.532 33.384 132.792 32.136C132.863 31.8 132.389 31.656 132.271 31.992C131.56 34.224 129.855 35.976 129.357 38.304C129.286 38.64 129.808 38.784 129.879 38.448Z" fill="#161616"/>
<path d="M159.82 112.848C167.139 112.848 174.482 112.848 181.802 112.848C182.133 112.848 182.157 112.296 181.802 112.296C174.482 112.296 167.139 112.296 159.82 112.296C159.488 112.32 159.488 112.848 159.82 112.848Z" fill="#161616"/>
<path d="M170.74 112.848C170.74 114.96 170.74 117.072 170.74 119.184C170.74 119.52 171.284 119.544 171.284 119.184C171.284 117.072 171.284 114.96 171.284 112.848C171.284 112.512 170.74 112.512 170.74 112.848Z" fill="#161616"/>
<path d="M167.945 119.592C173.44 119.592 178.959 119.592 184.455 119.592C184.786 119.592 184.81 119.04 184.455 119.04C178.959 119.04 173.44 119.04 167.945 119.04C167.613 119.064 167.613 119.592 167.945 119.592Z" fill="#161616"/>
<path d="M178.864 119.736C178.864 121.704 178.864 123.696 178.864 125.664C178.864 126 179.409 126.024 179.409 125.664C179.409 123.696 179.409 121.704 179.409 119.736C179.409 119.4 178.864 119.376 178.864 119.736Z" fill="#161616"/>
<path d="M228.892 190.848C236.306 190.848 243.744 190.848 251.159 190.848C251.49 190.848 251.514 190.296 251.159 190.296C243.744 190.296 236.306 190.296 228.892 190.296C228.537 190.296 228.537 190.848 228.892 190.848Z" fill="#161616"/>
<path d="M240.926 190.368C240.926 187.992 240.926 185.616 240.926 183.24C240.926 182.904 240.381 182.88 240.381 183.24C240.381 185.616 240.381 187.992 240.381 190.368C240.405 190.728 240.926 190.728 240.926 190.368Z" fill="#161616"/>
<path d="M235.525 183.264C241.849 183.264 248.174 183.264 254.498 183.264C254.83 183.264 254.854 182.712 254.498 182.712C248.174 182.712 241.849 182.712 235.525 182.712C235.169 182.712 235.169 183.264 235.525 183.264Z" fill="#161616"/>
<path d="M252.106 183C252.106 180.888 252.106 178.752 252.106 176.64C252.106 176.304 251.561 176.28 251.561 176.64C251.561 178.752 251.561 180.888 251.561 183C251.585 183.336 252.106 183.336 252.106 183Z" fill="#161616"/>
<path d="M279.11 103.152C279.11 108.072 279.11 113.016 279.11 117.936C279.11 118.272 279.655 118.296 279.655 117.936C279.655 113.016 279.655 108.072 279.655 103.152C279.655 102.816 279.11 102.816 279.11 103.152Z" fill="#161616"/>
<path d="M279.82 103.2C287.661 103.2 295.478 103.2 303.318 103.2C303.65 103.2 303.674 102.648 303.318 102.648C295.478 102.648 287.661 102.648 279.82 102.648C279.465 102.648 279.465 103.2 279.82 103.2Z" fill="#161616"/>
<path d="M302.845 103.008C302.845 107.712 302.845 112.44 302.845 117.144C302.845 117.48 303.39 117.504 303.39 117.144C303.39 112.44 303.39 107.712 303.39 103.008C303.39 102.672 302.845 102.672 302.845 103.008Z" fill="#161616"/>
<path d="M279.631 118.272C287.566 118.272 295.478 118.272 303.413 118.272C303.745 118.272 303.769 117.72 303.413 117.72C295.478 117.72 287.566 117.72 279.631 117.72C279.276 117.744 279.276 118.272 279.631 118.272Z" fill="#161616"/>
<path d="M302.94 117.168C302.821 117.504 302.821 117.84 302.868 118.2C302.892 118.344 303.058 118.416 303.2 118.392C303.342 118.344 303.413 118.2 303.39 118.056C303.342 117.816 303.39 117.552 303.461 117.312C303.555 116.976 303.058 116.832 302.94 117.168Z" fill="#161616"/>
<path d="M280.223 103.968C280.223 108.168 280.223 112.344 280.223 116.544C280.223 116.88 280.768 116.904 280.768 116.544C280.768 112.344 280.768 108.168 280.768 103.968C280.744 103.632 280.223 103.632 280.223 103.968Z" fill="#161616"/>
<path d="M280.484 117.216C287.613 117.216 294.743 117.216 301.873 117.216C302.205 117.216 302.229 116.664 301.873 116.664C294.743 116.664 287.613 116.664 280.484 116.664C280.128 116.688 280.128 117.216 280.484 117.216Z" fill="#161616"/>
<path d="M302.347 116.856C302.347 112.728 302.347 108.6 302.347 104.472C302.347 104.136 301.802 104.112 301.802 104.472C301.802 108.6 301.802 112.728 301.802 116.856C301.802 117.192 302.347 117.192 302.347 116.856Z" fill="#161616"/>
<path d="M280.578 104.352C287.708 104.352 294.838 104.352 301.968 104.352C302.3 104.352 302.324 103.8 301.968 103.8C294.838 103.8 287.708 103.8 280.578 103.8C280.247 103.8 280.223 104.352 280.578 104.352Z" fill="#161616"/>
<path d="M280.649 111.672C283.468 111 286.477 111.96 289.248 112.512C292.067 113.064 294.862 113.616 297.681 114.168C298.012 114.24 298.154 113.712 297.823 113.64C294.696 113.016 291.593 112.416 288.466 111.792C285.861 111.264 283.137 110.52 280.484 111.144C280.176 111.24 280.318 111.768 280.649 111.672Z" fill="#161616"/>
<path d="M290.906 112.776C291.475 113.112 292.091 112.92 292.707 112.8C293.725 112.608 294.72 112.32 295.715 112.008C297.87 111.36 300.026 110.64 302.276 110.448C302.608 110.424 302.608 109.872 302.276 109.896C300.452 110.04 298.699 110.52 296.97 111.048C296.046 111.336 295.123 111.624 294.175 111.888C293.417 112.104 291.877 112.728 291.167 112.296C290.883 112.128 290.622 112.608 290.906 112.776Z" fill="#161616"/>
<path d="M292.185 108.696C291.001 107.832 293.062 106.176 293.867 107.448C294.222 108.024 293.891 108.648 293.299 108.864C292.777 109.032 292.209 108.84 291.759 108.576C291.451 108.408 291.19 108.864 291.498 109.032C292.304 109.488 293.346 109.704 294.104 109.008C294.767 108.408 294.696 107.352 294.009 106.8C292.469 105.552 290.219 107.928 291.925 109.152C292.185 109.344 292.446 108.888 292.185 108.696Z" fill="#161616"/>
<path d="M194.237 239.112C213.709 239.112 233.18 239.112 252.627 239.112C252.959 239.112 252.982 238.56 252.627 238.56C233.156 238.56 213.685 238.56 194.237 238.56C193.906 238.584 193.906 239.112 194.237 239.112Z" fill="#161616"/>
<path d="M226.239 244.272C241.636 244.272 257.057 244.272 272.453 244.272C272.785 244.272 272.809 243.72 272.453 243.72C257.057 243.72 241.636 243.72 226.239 243.72C225.884 243.72 225.884 244.272 226.239 244.272Z" fill="#161616"/>
<path d="M225.718 233.448C239.86 233.448 253.977 233.448 268.119 233.448C268.451 233.448 268.474 232.896 268.119 232.896C253.977 232.896 239.86 232.896 225.718 232.896C225.387 232.92 225.387 233.448 225.718 233.448Z" fill="#161616"/>
<path d="M241.328 233.568C240.357 235.368 239.291 237.072 238.083 238.728C237.87 239.016 238.344 239.28 238.533 238.992C239.718 237.336 240.807 235.632 241.778 233.832C241.944 233.544 241.494 233.28 241.328 233.568Z" fill="#161616"/>
<path d="M252.177 239.52C251.798 240.936 251.324 242.304 250.709 243.648C250.566 243.96 251.016 244.224 251.159 243.912C251.798 242.544 252.296 241.128 252.675 239.664C252.793 239.328 252.272 239.184 252.177 239.52Z" fill="#161616"/>
<path d="M60.7111 225.312C67.7226 225.312 74.7578 225.312 81.7693 225.312C82.2193 225.312 82.2193 224.592 81.7693 224.592C74.7578 224.592 67.7226 224.592 60.7111 224.592C60.261 224.592 60.261 225.312 60.7111 225.312Z" fill="#161616"/>
<path d="M69.6649 232.032C81.6982 232.032 93.7077 232.032 105.741 232.032C106.191 232.032 106.191 231.312 105.741 231.312C93.7077 231.312 81.6982 231.312 69.6649 231.312C69.2149 231.312 69.2149 232.032 69.6649 232.032Z" fill="#161616"/>
<path d="M81.4376 225.096C79.5663 227.064 77.695 229.008 75.8474 230.976C75.5394 231.312 76.0369 231.816 76.3448 231.48C78.2161 229.512 80.0874 227.568 81.9351 225.6C82.2667 225.264 81.7693 224.76 81.4376 225.096Z" fill="#161616"/>
<path d="M98.611 243.6C116.874 243.6 135.113 243.6 153.376 243.6C153.827 243.6 153.827 242.88 153.376 242.88C135.113 242.88 116.874 242.88 98.611 242.88C98.1609 242.88 98.1609 243.6 98.611 243.6Z" fill="#161616"/>
<path d="M125.639 237.816C138.761 237.816 151.908 237.816 165.031 237.816C165.481 237.816 165.481 237.096 165.031 237.096C151.908 237.096 138.761 237.096 125.639 237.096C125.165 237.096 125.165 237.816 125.639 237.816Z" fill="#161616"/>
<path d="M144.778 237.264C142.859 239.184 140.964 241.104 139.046 243.024C138.714 243.36 139.211 243.864 139.543 243.528C141.462 241.608 143.357 239.688 145.275 237.768C145.607 237.456 145.086 236.952 144.778 237.264Z" fill="#161616"/>
<path d="M95.1527 250.128C103.751 250.128 112.326 250.128 120.925 250.128C121.375 250.128 121.375 249.408 120.925 249.408C112.326 249.408 103.751 249.408 95.1527 249.408C94.7027 249.408 94.7027 250.128 95.1527 250.128Z" fill="#161616"/>
<path d="M123.364 243.144C122.417 245.328 121.446 247.512 120.498 249.672C120.309 250.08 120.925 250.464 121.114 250.032C122.062 247.848 123.033 245.664 123.98 243.504C124.17 243.072 123.554 242.712 123.364 243.144Z" fill="#161616"/>
<path d="M237.872 70.8H244.568L243.452 87.252H238.988L237.872 70.8ZM241.22 96.288C240.236 96.288 239.408 95.976 238.736 95.352C238.088 94.704 237.764 93.924 237.764 93.012C237.764 92.1 238.088 91.344 238.736 90.744C239.384 90.12 240.212 89.808 241.22 89.808C242.228 89.808 243.056 90.12 243.704 90.744C244.352 91.344 244.676 92.1 244.676 93.012C244.676 93.924 244.34 94.704 243.668 95.352C243.02 95.976 242.204 96.288 241.22 96.288Z" fill="#161616"/>
<path d="M80.5847 210.686C82.0296 209.774 83.2377 209.606 85.8196 209.198C92.4758 208.118 91.8362 208.07 93.0917 208.022C96.1 207.902 98.1371 207.806 100.316 209.054C101.003 209.438 102.709 210.446 103.68 212.558C103.846 212.918 105.03 215.558 104.083 217.766C103.04 220.19 98.7766 220.814 90.2492 222.086C89.0648 222.254 85.7012 222.734 81.5559 221.99C78.8555 221.51 78.0738 220.886 77.6001 220.286C76.1078 218.39 76.7473 215.246 77.908 213.326C78.7845 211.838 79.9688 211.07 80.5847 210.686Z" fill="#161616"/>
<path d="M102.448 214.358C102.709 213.83 104.32 213.95 105.457 214.622C106.57 215.27 107.494 216.614 107.494 218.03C107.47 219.566 106.38 220.646 104.793 222.206C102.733 224.246 101.217 224.798 101.382 225.446C101.619 226.43 105.078 225.758 105.599 227.102C106.049 228.254 104.13 230.27 103.562 230.03C103.183 229.862 103.656 228.854 103.064 228.182C102.282 227.318 100.838 228.182 100.103 227.414C99.511 226.766 99.7716 225.446 100.151 224.63C100.672 223.574 101.335 223.55 103.348 221.75C104.888 220.382 105.054 219.902 105.078 219.542C105.101 219.206 105.03 218.846 104.059 217.286C102.78 215.15 102.259 214.694 102.448 214.358Z" fill="#161616"/>
<path d="M96.6447 214.766C96.0525 215.174 94.6313 216.206 94.4655 218.054C94.3233 219.71 95.2945 220.934 95.5314 221.198C91.8835 222.422 91.1018 222.998 91.1492 223.31C91.2676 223.91 94.5365 224.03 97.2606 223.262C98.2791 222.974 99.203 222.566 99.9136 222.23C101.264 221.606 101.951 221.318 102.306 220.838C103.206 219.662 102.898 218.006 102.661 216.83C102.401 215.51 102.235 214.574 101.43 213.998C100.008 212.966 97.7343 213.998 96.6447 214.766Z" fill="#161616"/>
<path d="M73.3126 216.086C72.7915 215.294 72.673 214.43 72.602 213.758C72.3651 212.03 72.7915 210.614 73.0757 209.87C72.981 208.766 72.8625 207.662 72.7678 206.582C73.1231 206.75 73.5258 206.966 73.9521 207.23C74.6865 207.71 75.2786 208.214 75.7287 208.646C76.3209 208.334 76.9842 208.022 77.7658 207.734C78.5949 207.422 79.3766 207.206 80.0635 207.038C80.2056 206.654 80.5373 205.982 81.2005 205.382C81.6506 204.974 82.1243 204.734 82.4323 204.614C82.4323 204.83 82.4323 205.046 82.456 205.286C82.5507 206.078 82.7639 206.75 83.0008 207.23C83.3561 207.494 84.9195 208.718 85.2985 210.95C85.6064 212.702 84.9905 214.118 84.6352 214.742C83.2377 217.31 80.4188 217.862 79.7793 217.982C77.7658 218.39 74.6391 218.126 73.3126 216.086Z" fill="#161616"/>
<path d="M82.2902 199.934C82.6218 199.574 82.6692 199.862 82.7403 200.198C82.7876 200.462 82.8113 200.75 82.8587 201.014C82.9061 201.302 83.0245 201.614 83.3087 201.758C84.0194 202.118 84.8721 201.182 85.3695 200.774C85.7249 200.462 85.2037 199.958 84.8721 200.27C84.6352 200.486 84.3747 200.678 84.1141 200.87C83.8299 201.086 83.6641 201.182 83.5693 200.774C83.4746 200.342 83.4982 199.862 83.3087 199.454C82.9771 198.734 82.2428 198.974 81.8164 199.454C81.4848 199.766 81.9823 200.27 82.2902 199.934Z" fill="white"/>
<path d="M74.4969 213.35C75.6102 214.406 77.3868 213.902 77.7184 212.366C77.7658 212.15 77.4341 212.054 77.3868 212.27C77.1262 213.518 75.705 213.998 74.7811 213.11C74.5679 212.942 74.3311 213.206 74.4969 213.35Z" fill="white"/>
<path d="M79.7083 213.086C79.6846 213.086 79.6846 213.11 79.661 213.11C79.7083 213.158 79.7794 213.206 79.8268 213.254C79.8268 213.23 79.8268 213.23 79.8268 213.206C79.7794 213.254 79.7557 213.278 79.7083 213.326C79.6846 213.302 79.6846 213.278 79.661 213.254C79.732 213.278 79.8268 213.302 79.8978 213.326C79.8978 213.302 79.8741 213.278 79.8741 213.23C79.7557 213.278 79.661 213.326 79.5425 213.374C79.8505 213.95 79.3767 214.622 78.7371 214.502C78.524 214.454 78.4292 214.814 78.6424 214.838C79.5899 215.03 80.3005 214.046 79.8504 213.182C79.7557 212.99 79.4951 213.134 79.5188 213.326C79.5425 213.398 79.5425 213.446 79.5899 213.494C79.6373 213.59 79.7557 213.59 79.8268 213.566C80.2058 213.398 79.9689 212.87 79.5899 212.99C79.5425 213.014 79.4714 213.062 79.4714 213.11C79.4478 213.206 79.4478 213.254 79.4714 213.35C79.4714 213.422 79.5662 213.494 79.6373 213.494C79.732 213.47 79.7794 213.47 79.8741 213.422C80.0873 213.278 79.9215 212.966 79.7083 213.086Z" fill="white"/>
<path d="M79.7082 213.35C79.9214 214.502 81.5085 214.526 81.769 213.398C81.8164 213.182 81.4848 213.086 81.4374 213.302C81.2479 214.094 80.2056 214.046 80.0635 213.254C80.0161 213.014 79.6608 213.11 79.7082 213.35Z" fill="white"/>
<path d="M80.4186 211.526C81.6977 212.102 83.0953 211.31 83.2374 209.894C83.2611 209.654 82.9058 209.654 82.8821 209.894C82.7637 211.022 81.6267 211.694 80.5845 211.214C80.395 211.118 80.2055 211.43 80.4186 211.526Z" fill="white"/>
<path d="M70.0674 219.182C69.8542 218.39 70.1621 217.406 70.778 216.854C71.536 216.182 72.5309 216.35 73.7863 216.542C75.0654 216.758 77.979 217.238 79.3292 219.686C79.6608 220.286 80.1109 221.102 79.7792 221.702C79.0686 223.046 75.1365 222.11 73.1704 221.39C71.6781 220.862 70.3753 220.382 70.0674 219.182Z" fill="#161616"/>
<path d="M87.5014 213.95C86.9803 213.998 87.0277 214.91 86.1749 216.062C85.3459 217.166 84.3036 217.67 82.4086 218.534C80.561 219.398 79.8267 219.398 78.9503 220.382C78.7371 220.622 77.908 221.558 78.1922 222.182C78.4765 222.806 79.7083 222.758 80.4899 222.758C81.1295 222.734 81.6269 222.662 84.1615 221.894C85.2748 221.558 86.1986 221.246 87.3593 220.718C88.3779 220.238 88.6384 219.998 88.8279 219.734C89.5149 218.798 89.3017 217.574 89.1832 216.902C88.9464 215.606 88.2121 213.878 87.5014 213.95Z" fill="#161616"/>
<path d="M102.872 105.8H109.568L108.452 122.252H103.988L102.872 105.8ZM106.22 131.288C105.236 131.288 104.408 130.976 103.736 130.352C103.088 129.704 102.764 128.924 102.764 128.012C102.764 127.1 103.088 126.344 103.736 125.744C104.384 125.12 105.212 124.808 106.22 124.808C107.228 124.808 108.056 125.12 108.704 125.744C109.352 126.344 109.676 127.1 109.676 128.012C109.676 128.924 109.34 129.704 108.668 130.352C108.02 130.976 107.204 131.288 106.22 131.288Z" fill="#161616"/>
<path d="M269.872 105.8H276.568L275.452 122.252H270.988L269.872 105.8ZM273.22 131.288C272.236 131.288 271.408 130.976 270.736 130.352C270.088 129.704 269.764 128.924 269.764 128.012C269.764 127.1 270.088 126.344 270.736 125.744C271.384 125.12 272.212 124.808 273.22 124.808C274.228 124.808 275.056 125.12 275.704 125.744C276.352 126.344 276.676 127.1 276.676 128.012C276.676 128.924 276.34 129.704 275.668 130.352C275.02 130.976 274.204 131.288 273.22 131.288Z" fill="#161616"/>
<path d="M147.872 71.8H154.568L153.452 88.252H148.988L147.872 71.8ZM151.22 97.288C150.236 97.288 149.408 96.976 148.736 96.352C148.088 95.704 147.764 94.924 147.764 94.012C147.764 93.1 148.088 92.344 148.736 91.744C149.384 91.12 150.212 90.808 151.22 90.808C152.228 90.808 153.056 91.12 153.704 91.744C154.352 92.344 154.676 93.1 154.676 94.012C154.676 94.924 154.34 95.704 153.668 96.352C153.02 96.976 152.204 97.288 151.22 97.288Z" fill="#161616"/>
<path d="M185.042 118.576C181.217 120.796 176.348 124.157 171.654 129.258C161.917 140 158.787 152.002 157.686 157.943C156.817 157.823 154.441 157.643 152.528 159.203C149.688 161.484 149.63 165.984 150.731 168.625C151.137 169.585 151.717 170.365 152.934 171.926C154.383 173.786 155.31 174.926 156.817 175.586C157.454 175.886 158.903 176.306 160.99 175.826C161.627 177.807 162.67 180.567 164.235 183.748C166.264 187.828 169.336 193.889 175.479 199.17C177.276 200.731 180.058 202.771 183.825 204.631C185.216 206.492 187.766 210.392 188.056 215.673C188.635 224.975 182.086 232.716 175.885 236.137C165.105 242.078 153.397 236.137 149.108 233.917C146.79 232.716 135.141 226.475 130.272 212.793C124.361 196.29 132.069 179.787 136.648 169.945C141.284 160.043 143.429 160.704 146.964 151.042C151.659 138.26 149.166 133.759 154.556 123.977C156.643 120.136 160.874 112.455 169.741 108.854C177.334 105.794 184.346 107.354 187.36 108.254C189.852 106.694 194.257 104.473 199.821 104.473C213.035 104.473 221.497 117.436 223.526 120.556C229.553 129.738 226.365 132.558 231.755 145.461C238.536 161.724 245.144 160.764 251.229 176.006C254.185 183.448 259.111 195.75 253.663 207.512C248.041 219.634 235.233 223.175 233.61 223.595C230.654 224.375 222.714 226.415 214.774 222.035C214.021 221.614 204.052 215.973 203.241 206.312C202.951 202.771 203.936 199.47 204.168 198.75C205.385 194.85 207.471 192.329 208.109 191.489C210.601 188.308 213.615 182.427 215.701 170.725C216.687 170.665 218.309 170.425 219.932 169.465C223.352 167.425 224.974 163.284 224.801 159.683C224.743 158.843 224.511 154.042 221.149 152.422C219.758 151.762 218.309 151.942 217.498 152.122C206.718 140.84 195.88 129.738 185.042 118.576Z" fill="#161616"/>
<path d="M185.04 118.516C178.607 122.417 174.144 126.737 171.304 129.918C161.857 140.54 158.844 151.642 158.206 154.222C157.8 155.843 157.511 157.163 157.395 158.123C156.757 157.883 155.308 157.463 153.859 158.123C151.657 159.143 151.193 161.904 150.962 163.284C150.382 166.465 151.541 168.985 152.005 169.945C152.642 171.325 153.686 173.546 156.178 174.686C158.206 175.646 160.119 175.286 160.93 175.106C161.742 177.266 162.901 180.267 164.697 183.688C167.421 189.089 169.971 194.069 174.898 198.51C176.81 200.251 179.94 202.651 184.461 204.511C185.388 206.012 186.663 208.352 187.359 211.413C187.938 213.813 188.054 215.853 187.996 217.414C189.503 218.194 192.343 219.394 195.878 219.334C202.659 219.214 207.122 214.833 208.165 213.753C207.064 210.332 206.079 206.132 205.673 201.271C205.499 199.05 205.441 196.95 205.441 195.03C207.238 193.049 209.44 190.229 211.237 186.448C214.425 179.907 214.946 173.846 215.004 170.305C215.816 170.425 217.438 170.605 219.177 169.885C221.611 168.865 222.713 166.645 223.35 165.384C223.524 165.084 225.958 159.923 223.756 154.822C223.234 153.682 222.365 151.582 220.626 151.402C219.351 151.282 218.308 152.302 217.902 152.722C215.526 149.782 211.063 144.321 204.804 136.819C199.414 130.278 195.994 126.197 190.257 121.997C188.17 120.436 186.315 119.296 185.04 118.516Z" fill="white"/>
<path d="M158.67 168.325C160.756 177.326 164.118 186.148 169.682 193.469C174.608 200.011 181.911 206.312 190.43 205.472C198.312 204.691 204.746 198.33 208.919 191.849C213.845 184.288 216.221 175.226 215.989 166.104C215.931 164.964 214.193 164.964 214.251 166.104C214.483 174.446 212.396 182.607 208.165 189.689C204.166 196.35 197.559 203.371 189.503 203.731C180.983 204.091 173.97 196.89 169.45 190.169C164.929 183.448 162.147 175.706 160.292 167.785C160.061 166.705 158.38 167.185 158.67 168.325Z" fill="#161616"/>
<path d="M183.301 204.631C185.735 208.472 186.953 212.673 186.953 217.294C186.953 218.434 188.691 218.434 188.691 217.294C188.691 212.433 187.358 207.812 184.808 203.731C184.229 202.711 182.722 203.611 183.301 204.631Z" fill="#161616"/>
<path d="M187.764 218.014C194.835 222.215 203.992 220.174 208.802 213.453C209.498 212.553 207.991 211.653 207.296 212.553C203.007 218.494 194.777 220.174 188.633 216.453C187.648 215.913 186.779 217.474 187.764 218.014Z" fill="#161616"/>
<path d="M204.456 196.59C204.514 202.051 205.325 207.452 207.006 212.673C207.354 213.753 209.034 213.273 208.687 212.193C207.122 207.092 206.252 201.931 206.195 196.59C206.195 195.39 204.456 195.39 204.456 196.59Z" fill="#161616"/>
<path d="M160.408 174.026C159.655 174.866 157.8 174.566 156.931 174.086C156.236 173.726 155.598 173.186 155.076 172.646C153.917 171.505 152.99 170.125 152.41 168.625C151.251 165.804 150.73 157.703 155.888 159.143C156.989 159.443 157.453 157.703 156.351 157.403C149.976 155.663 148.991 164.424 150.614 168.805C151.889 172.346 157.742 179.667 161.684 175.286C162.379 174.446 161.162 173.186 160.408 174.026Z" fill="#161616"/>
<path d="M218.656 153.022C219.351 150.622 222.365 155.243 222.713 156.083C223.408 158.003 223.64 160.103 223.35 162.144C222.886 166.225 219.757 170.125 215.41 168.985C214.309 168.685 213.845 170.425 214.946 170.725C221.959 172.586 225.726 165.024 225.089 158.843C224.799 156.143 223.756 152.662 221.264 151.222C219.641 150.322 217.554 150.562 216.975 152.482C216.627 153.682 218.308 154.102 218.656 153.022Z" fill="#161616"/>
<path d="M166.609 140.3C168.522 136.519 171.884 134.059 175.941 133.459C177.042 133.279 176.578 131.538 175.477 131.718C171.014 132.379 167.189 135.259 165.103 139.4C164.581 140.42 166.088 141.32 166.609 140.3Z" fill="#161616"/>
<path d="M193.386 131.058C198.254 129.858 203.123 132.378 205.325 136.939C205.847 137.959 207.296 137.059 206.832 136.039C204.282 130.698 198.486 127.938 192.922 129.318C191.821 129.618 192.285 131.358 193.386 131.058Z" fill="#161616"/>
<path d="M180.752 138.44C181.853 144.801 182.143 151.342 181.505 157.823C181.273 159.803 180.346 162.624 181.215 164.604C182.143 166.765 184.635 168.625 186.2 170.305C186.953 171.145 188.228 169.885 187.417 169.045C186.373 167.905 185.33 166.825 184.287 165.684C182.664 163.944 182.49 163.404 182.838 160.884C183.128 158.603 183.418 156.263 183.534 153.922C183.765 148.581 183.36 143.24 182.432 138.019C182.259 136.819 180.578 137.299 180.752 138.44Z" fill="#161616"/>
<path d="M173.449 153.862C172.58 152.422 172.174 150.862 172.29 149.181C172.29 148.821 172.522 147.261 172.812 147.201C172.985 147.201 173.275 149.301 173.333 149.542C173.449 150.322 173.507 151.162 173.507 151.942C173.507 152.182 173.449 154.162 173.449 152.962C173.391 151.222 173.507 149.482 173.565 147.741C172.985 147.801 172.406 147.921 171.884 147.981C172.174 149.842 172.348 151.702 172.348 153.622C172.927 153.622 173.507 153.622 174.087 153.622C174.087 153.382 174.087 153.142 174.087 152.902C174.087 151.762 172.348 151.762 172.348 152.902C172.348 153.142 172.348 153.382 172.348 153.622C172.348 154.762 174.087 154.762 174.087 153.622C174.087 151.582 173.913 149.542 173.565 147.501C173.391 146.481 171.884 146.781 171.884 147.741C171.826 149.662 171.594 151.762 171.826 153.682C171.942 154.582 172.348 155.423 173.333 155.603C176.231 156.203 175.362 150.322 175.13 148.881C174.956 147.741 174.782 146.001 173.739 145.341C172.869 144.801 171.942 145.341 171.421 146.181C169.972 148.701 170.783 152.422 172.116 154.702C172.522 155.723 174.029 154.822 173.449 153.862Z" fill="#161616"/>
<path d="M200.225 150.682C199.356 149.241 198.95 147.681 199.066 146.001C199.066 145.641 199.298 144.081 199.588 144.021C199.761 144.021 200.051 146.121 200.109 146.361C200.225 147.141 200.283 147.981 200.283 148.761C200.283 149.001 200.225 150.982 200.225 149.782C200.167 148.041 200.283 146.301 200.341 144.561C199.761 144.621 199.182 144.741 198.66 144.801C198.95 146.661 199.124 148.521 199.124 150.442C199.703 150.442 200.283 150.442 200.863 150.442C200.863 150.202 200.863 149.962 200.863 149.722C200.863 148.581 199.124 148.581 199.124 149.722C199.124 149.962 199.124 150.202 199.124 150.442C199.124 151.582 200.863 151.582 200.863 150.442C200.863 148.401 200.689 146.361 200.341 144.321C200.167 143.3 198.66 143.6 198.66 144.561C198.602 146.481 198.37 148.581 198.602 150.502C198.718 151.402 199.124 152.242 200.109 152.422C203.007 153.022 202.138 147.141 201.906 145.701C201.732 144.561 201.558 142.82 200.515 142.16C199.646 141.62 198.718 142.16 198.197 143C196.748 145.521 197.559 149.241 198.892 151.522C199.298 152.602 200.805 151.702 200.225 150.682Z" fill="#161616"/>
<path d="M164.871 159.383C165.972 159.383 165.972 157.583 164.871 157.583C163.77 157.583 163.77 159.383 164.871 159.383Z" fill="#161616"/>
<path d="M171.71 160.704C171.768 160.704 171.826 160.704 171.942 160.704C172.405 160.704 172.811 160.283 172.811 159.803C172.811 159.323 172.405 158.903 171.942 158.903C171.884 158.903 171.826 158.903 171.71 158.903C171.246 158.903 170.841 159.323 170.841 159.803C170.841 160.283 171.188 160.704 171.71 160.704Z" fill="#161616"/>
<path d="M167.653 166.225C168.754 166.225 168.754 164.424 167.653 164.424C166.552 164.424 166.494 166.225 167.653 166.225Z" fill="#161616"/>
<path d="M200.572 158.483C200.63 158.483 200.688 158.483 200.804 158.483C201.268 158.483 201.674 158.063 201.674 157.583C201.674 157.103 201.268 156.683 200.804 156.683C200.746 156.683 200.688 156.683 200.572 156.683C200.109 156.683 199.703 157.103 199.703 157.583C199.703 158.063 200.051 158.483 200.572 158.483Z" fill="#161616"/>
<path d="M206.948 154.042C208.049 154.042 208.049 152.242 206.948 152.242C205.847 152.242 205.847 154.042 206.948 154.042Z" fill="#161616"/>
<path d="M206.079 158.903C206.137 158.903 206.195 158.903 206.31 158.903C206.774 158.903 207.18 158.483 207.18 158.003C207.18 157.523 206.774 157.103 206.31 157.103C206.252 157.103 206.194 157.103 206.079 157.103C205.615 157.103 205.209 157.523 205.209 158.003C205.267 158.483 205.615 158.903 206.079 158.903Z" fill="#161616"/>
<path d="M185.446 206.492C192.227 208.292 201.268 203.851 205.093 198.03C205.731 197.07 204.224 196.17 203.586 197.13C200.225 202.231 191.821 206.312 185.909 204.751C184.808 204.451 184.344 206.192 185.446 206.492Z" fill="#161616"/>
<path d="M186.083 207.032C192.111 210.933 202.022 205.412 204.919 199.47C205.441 198.45 203.934 197.55 203.413 198.57C200.978 203.611 192.111 208.832 186.953 205.532C185.967 204.871 185.098 206.432 186.083 207.032Z" fill="#161616"/>
<path opacity="0.2" d="M210.136 143.42C210.541 145.581 211.063 149.001 211.411 153.142C212.222 164.184 213.613 182.667 202.833 194.97C200.515 197.61 195.588 202.291 186.489 204.931C189.387 204.811 192.922 204.451 196.747 203.431C198.66 202.951 200.399 202.351 201.964 201.691C202.195 207.032 202.369 212.373 202.601 217.714C204.572 216.394 206.484 215.133 208.455 213.813C205.789 207.692 205.789 202.951 206.137 199.951C206.658 195.75 208.165 192.329 209.672 188.909C211.005 185.908 212.396 183.508 213.497 181.827C213.613 183.088 213.903 184.408 214.714 185.668C218.25 191.129 229.319 191.669 236.274 186.988C242.708 182.667 245.837 173.906 244.214 164.904C245.316 165.864 246.475 167.005 247.576 168.385C248.445 169.465 250.706 172.586 253.835 183.568C254.821 186.988 255.284 188.729 255.574 190.469C255.922 192.869 256.559 197.43 255.342 202.591C253.256 211.473 247.054 216.574 245.2 218.014C243.867 219.034 239.81 222.095 233.724 223.535C230.826 224.195 222.133 226.355 213.961 221.434C210.889 219.574 209.208 218.194 208.281 216.514C207.296 214.653 207.18 212.913 207.064 211.593C206.542 203.371 206.31 199.23 206.832 196.41C208.397 188.248 211.932 187.408 213.903 178.107C214.598 174.746 214.772 171.926 214.83 170.125C215.584 170.245 216.743 170.365 218.134 170.005C221.032 169.225 222.48 166.765 223.002 165.864C225.089 162.444 226.016 156.323 222.77 153.502C222.307 153.082 220.684 151.822 217.554 152.062C215.178 149.181 212.686 146.301 210.136 143.42Z" fill="#161616"/>
<path opacity="0.13" d="M182.664 162.864C185.62 163.764 188.634 164.724 191.589 165.624C190.836 166.345 190.083 167.005 189.271 167.725C188.518 168.385 187.822 168.925 187.069 169.525C186.141 168.805 184.808 167.545 183.765 165.624C183.186 164.604 182.838 163.644 182.664 162.864Z" fill="#161616"/>
<path opacity="0.16" d="M136.182 170.365C129.865 193.469 134.559 212.133 144.007 216.213C151.425 219.394 164.813 214.893 167.305 207.032C167.653 206.012 168.001 204.211 166.668 198.69C165.509 193.829 163.132 186.508 157.8 178.167C156.873 177.567 155.656 176.606 154.497 175.166C152.468 172.586 151.889 169.825 151.715 168.505C153.396 170.305 155.83 172.586 157.395 171.866C158.901 171.145 159.829 168.985 159.307 166.825C159.829 169.585 160.64 173.366 162.147 177.747C164.118 183.568 166.088 189.209 170.667 194.55C172.753 197.01 176.868 201.031 183.823 203.911C184.982 205.412 187.127 208.652 187.822 213.393C187.938 214.113 188.344 217.414 187.301 221.554C187.069 222.515 185.678 227.736 181.099 232.236C175.767 237.517 169.392 238.477 167.305 238.778C151.599 240.938 139.428 226.715 137.283 224.255C135.139 221.734 131.604 217.534 129.575 211.053C126.33 200.731 128.822 191.429 130.618 184.648C132.299 178.287 134.559 173.486 136.182 170.365Z" fill="#161616"/>
<path opacity="0.1" d="M188 185H191" stroke="black"/>
<path d="M181.872 56.8H188.568L187.452 73.252H182.988L181.872 56.8ZM185.22 82.2881C184.236 82.2881 183.408 81.976 182.736 81.352C182.088 80.704 181.764 79.9241 181.764 79.0121C181.764 78.1001 182.088 77.3441 182.736 76.7441C183.384 76.1201 184.212 75.808 185.22 75.808C186.228 75.808 187.056 76.1201 187.704 76.7441C188.352 77.3441 188.676 78.1001 188.676 79.0121C188.676 79.9241 188.34 80.704 187.668 81.352C187.02 81.976 186.204 82.2881 185.22 82.2881Z" fill="#7BE495"/>
<path d="M188.5 185C189.881 185 191 183.881 191 182.5C191 181.119 189.881 180 188.5 180C187.119 180 186 181.119 186 182.5C186 183.881 187.119 185 188.5 185Z" fill="#161616"/>
</svg>
